<?xml version="1.0" standalone="no"?>
<!DOCTYPE svg PUBLIC "-//W3C//DTD SVG 1.1//EN" "http://www.w3.org/Graphics/SVG/1.1/DTD/svg11.dtd" >
<svg xmlns="http://www.w3.org/2000/svg" xmlns:xlink="http://www.w3.org/1999/xlink" version="1.1">
<metadata>
Created by FontForge 20170731 at Tue Sep 29 15:45:02 2020
 By Aleksey,,,
Copyright 2011 The Bitter Project Authors (https://github.com/solmatas/bitter)
</metadata>
<defs>
<font id="BitterPro-Italic" horiz-adv-x="0" >
  <font-face 
    font-family="Bitter Pro"
    font-weight="400"
    font-style="italic"
    font-stretch="normal"
    units-per-em="1000"
    panose-1="0 0 5 0 0 0 0 0 0 0"
    ascent="800"
    descent="-200"
    x-height="528"
    cap-height="698"
    bbox="-415 -277 1276 1076"
    underline-thickness="50"
    underline-position="-150"
    slope="-9"
    unicode-range="U+000D-2215"
  />
<missing-glyph horiz-adv-x="441" 
d="M275 -230h-304l158 998h305zM178 631l-5 -33h160l5 33h-64l6 37h64l5 33h-158l-6 -33h62l-5 -37h-64zM169 572l-17 -103h160l6 33h-64l11 70h-96zM221 502h-32l6 36h32zM137 372l-5 -33h96l11 70h64l5 33h-160l-5 -33h63l-6 -37h-63zM128 316l-5 -34h160l16 100h-33
l-10 -66h-128zM120 260l-18 -113h159l18 113h-96l-9 -56h33l3 23h32l-7 -47h-96l12 80h-31zM92 87l-18 -113h160l18 113h-160zM207 7h-96l8 47h96zM58 -129l-5 -32h159l6 32h-99l75 47h31l5 33h-159l-5 -33h67z" />
    <glyph glyph-name="fi" unicode="fi" horiz-adv-x="586" 
d="M526 532l-74 -466l76 -19l-7 -46l-160 -4l75 471l-219 -2l-80 -505q-15 -94 -62 -147t-129 -53q-15 0 -55 5l13 58q14 -2 31 -2q60 0 85 31.5t35 89.5l82 523h-81l7 46l84 12l11 71q14 92 67.5 137t132.5 45q40 0 76 -11l-17 -58q-30 8 -54 8q-49 0 -82.5 -29t-42.5 -88
l-12 -75zM547.5 739.5q11.5 -12.5 11.5 -36.5q0 -30 -17 -47.5t-43 -17.5q-20 0 -32 12.5t-12 36.5q0 29 16.5 47t43.5 18q21 0 32.5 -12.5z" />
    <glyph glyph-name="fl" unicode="fl" horiz-adv-x="591" 
d="M567 766l-111 -700l76 -19l-7 -46l-160 -4l114 708q-67 13 -102 13q-71 0 -101.5 -34t-37.5 -80l-12 -81h122l-9 -57h-123l-79 -505q-17 -107 -66 -154t-127 -47q-15 0 -53 5l12 58q22 -2 32 -2q55 0 81.5 28t37.5 94l83 523h-82l8 46l83 11l12 75q12 77 59 128t147 51
q52 0 122 -16z" />
    <glyph glyph-name="f_f" unicode="ff" horiz-adv-x="627" 
d="M582.5 687q-33.5 -29 -42.5 -88l-11 -75h143l-10 -58h-143l-80 -505q-14 -93 -61 -146.5t-130 -53.5q-16 0 -54 5l12 58q14 -2 32 -2q59 0 84.5 32t34.5 89l83 523h-223l-80 -504q-17 -108 -66 -154.5t-127 -46.5q-15 0 -53 5l13 58q20 -2 32 -2q54 0 81 28t38 94l82 522
h-81l7 47l84 12l11 70q14 88 73 133.5t145 45.5q76 0 158 -37q52 40 126 40q43 0 88 -15l-20 -57q-33 11 -63 11q-49 0 -82.5 -29zM227 524h222l11 71q8 52 31 92q-55 28 -111 28q-55 0 -93.5 -30t-47.5 -88z" />
    <glyph glyph-name="f_f_i" unicode="ffi" horiz-adv-x="886" 
d="M826 532l-74 -466l76 -19l-8 -46l-159 -4l75 472h-219l-80 -508q-15 -94 -62 -147t-130 -53q-16 0 -54 5l13 58q12 -2 31 -2q59 0 84.5 32t34.5 89l84 526l-221 1l-80 -509q-15 -94 -62.5 -147.5t-129.5 -53.5q-19 0 -54 5l12 58q5 0 11.5 -1t13.5 -1q64 0 90 29.5
t36 92.5l84 527h-83l8 46l83 11l12 68q14 88 73 133.5t144 45.5q74 0 157 -36q53 39 125 39q40 0 77 -11l-17 -58q-30 8 -55 8q-49 0 -82 -29t-42 -88l-11 -72zM847 739.5q12 -12.5 12 -36.5q0 -30 -17.5 -47.5t-43.5 -17.5q-20 0 -32 12.5t-12 36.5q0 29 16.5 47t44.5 18
q20 0 32 -12.5zM226 527h221l11 68q7 52 31 92q-56 27 -111 27q-54 0 -92.5 -29.5t-47.5 -87.5z" />
    <glyph glyph-name="f_f_l" unicode="ffl" horiz-adv-x="892" 
d="M869 766l-111 -701l76 -18l-7 -46l-160 -4l113 708q-67 13 -102 13q-70 0 -100.5 -34t-37.5 -80l-12 -81h122l-9 -57h-123l-80 -505q-17 -107 -65.5 -154t-127.5 -47q-16 0 -53 5l13 58q22 -2 32 -2q55 0 81.5 28t37.5 94l83 523h-223l-79 -505q-17 -108 -66 -154.5
t-128 -46.5q-17 0 -52 5l12 58q22 -2 32 -2q54 0 81.5 28.5t37.5 93.5l83 523h-82l8 46l83 11l12 72q14 88 72.5 133.5t144.5 45.5q73 0 158 -36q49 39 133 39q50 0 122 -16zM226 523h222l12 75q9 56 30 90q-57 27 -111 27q-55 0 -93.5 -30t-47.5 -88z" />
    <glyph glyph-name=".notdef" horiz-adv-x="441" 
d="M275 -230h-304l158 998h305zM178 631l-5 -33h160l5 33h-64l6 37h64l5 33h-158l-6 -33h62l-5 -37h-64zM169 572l-17 -103h160l6 33h-64l11 70h-96zM221 502h-32l6 36h32zM137 372l-5 -33h96l11 70h64l5 33h-160l-5 -33h63l-6 -37h-63zM128 316l-5 -34h160l16 100h-33
l-10 -66h-128zM120 260l-18 -113h159l18 113h-96l-9 -56h33l3 23h32l-7 -47h-96l12 80h-31zM92 87l-18 -113h160l18 113h-160zM207 7h-96l8 47h96zM58 -129l-5 -32h159l6 32h-99l75 47h31l5 33h-159l-5 -33h67z" />
    <glyph glyph-name=".null" 
 />
    <glyph glyph-name="nonmarkingreturn" unicode="&#xd;" horiz-adv-x="193" 
 />
    <glyph glyph-name="NULL" 
 />
    <glyph glyph-name="NULL" 
 />
    <glyph glyph-name="space" unicode=" " horiz-adv-x="193" 
 />
    <glyph glyph-name="exclam" unicode="!" horiz-adv-x="321" 
d="M183 228l-60 -5l63 475h85zM85.5 8q-12.5 13 -12.5 34q0 26 17 42.5t42 16.5q21 0 34 -13t13 -35q0 -26 -17 -42t-42 -16q-22 0 -34.5 13z" />
    <glyph glyph-name="quotedbl" unicode="&#x22;" horiz-adv-x="373" 
d="M176 527h-50l25 241h76zM331 527h-50l25 241h76z" />
    <glyph glyph-name="numbersign" unicode="#" horiz-adv-x="630" 
d="M608 516l-8 -53h-106l-64 -216h99l-8 -53h-107l-57 -194h-66l57 194h-168l-57 -194h-66l57 194h-99l8 53h107l63 216h-99l9 53h106l53 182h66l-53 -182h168l53 182h67l-54 -182h99zM196 247h168l63 216h-168z" />
    <glyph glyph-name="dollar" unicode="$" horiz-adv-x="604" 
d="M537 501h-49l5 112q-53 22 -112 22q-73 0 -122 -34.5t-49 -93.5q0 -34 17.5 -54.5t43.5 -32t71 -24.5q56 -17 90.5 -33.5t58.5 -50t24 -90.5q0 -93 -63.5 -149.5t-162.5 -69.5l-22 -140h-58l22 137q-96 2 -184 42l29 165h50l-3 -115q60 -27 126 -27q78 0 131 37.5
t53 102.5q0 36 -18 58.5t-45 34.5t-74 27q-54 17 -87.5 33t-56.5 48t-23 86q0 86 59 139.5t153 64.5l20 131h58l-20 -129q92 -5 169 -42z" />
    <glyph glyph-name="percent" unicode="%" horiz-adv-x="815" 
d="M131 387q-33 37 -33 105q0 60 23.5 109t67.5 77.5t104 28.5q65 0 97 -35t32 -103q0 -60 -23 -110t-67 -79.5t-104 -29.5q-64 0 -97 37zM174 -9h-70l564 716h69zM329.5 449.5q33.5 50.5 33.5 120.5q0 46 -18 67.5t-57 21.5q-62 0 -96 -49t-34 -117q0 -48 18.5 -71
t58.5 -23q61 0 94.5 50.5zM452.5 27.5q-32.5 36.5 -32.5 105.5q0 60 23.5 109t67.5 77.5t103 28.5q65 0 97.5 -35t32.5 -103q0 -60 -23 -110t-67 -79.5t-104 -29.5q-65 0 -97.5 36.5zM651 90q33 50 33 121q0 46 -17.5 67t-56.5 21q-62 0 -96 -48.5t-34 -116.5
q0 -48 18.5 -71t57.5 -23q62 0 95 50z" />
    <glyph glyph-name="ampersand" unicode="&#x26;" horiz-adv-x="687" 
d="M656 402l-8 -46l-76 -17l-20 -126q-17 -108 -91.5 -165t-181.5 -57q-95 0 -148.5 45t-53.5 128q0 81 50 137.5t133 71.5q-57 15 -85 51t-28 89q0 59 33 103t92 67.5t136 23.5q96 0 183 -36l-29 -144h-52l3 99q-57 17 -110 17q-81 0 -127 -35t-46 -97q0 -109 143 -109h283
zM492 340h-142q-54 0 -96.5 -20.5t-66.5 -57.5t-24 -84q0 -59 36 -90t98 -31q70 0 116.5 38.5t58.5 115.5z" />
    <glyph glyph-name="quotesingle" unicode="'" horiz-adv-x="219" 
d="M176 527h-50l25 241h76z" />
    <glyph glyph-name="parenleft" unicode="(" horiz-adv-x="294" 
d="M346 834q-110 -125 -172.5 -277.5t-62.5 -306.5q0 -88 22 -175.5t65 -164.5l-54 -30q-54 84 -81 181t-27 198q0 167 70 326t192 286z" />
    <glyph glyph-name="parenright" unicode=")" horiz-adv-x="294" 
d="M-17 -88q110 126 172.5 278t62.5 307q0 88 -22 175t-65 165l54 29q54 -84 81 -181t27 -198q0 -166 -70 -325.5t-192 -285.5z" />
    <glyph glyph-name="asterisk" unicode="*" horiz-adv-x="445" 
d="M268 608l12 23l-21 -17l-16 18l10 128l53 1l-24 -129l123 46l8 -54l-126 -32zM248 606l-24 -13l25 2l2 -27l-88 -116l-40 32l99 109h2l-122 29l25 54l114 -44zM251 568l10 27l25 -3l66 -106l-45 -33z" />
    <glyph glyph-name="plus" unicode="+" horiz-adv-x="549" 
d="M325 380h192l-9 -61h-194l-33 -208h-61l33 208h-194l9 61h195l32 208h62z" />
    <glyph glyph-name="comma" unicode="," horiz-adv-x="211" 
d="M35.5 85.5q16.5 15.5 39.5 15.5q20 0 33.5 -13t13.5 -37q0 -37 -33.5 -89.5t-94.5 -110.5l-29 26q67 80 67 112q0 6 -2 12l-3 9q-8 16 -8 32q0 28 16.5 43.5z" />
    <glyph glyph-name="hyphen" unicode="-" horiz-adv-x="408" 
d="M76 326h276l-10 -65h-276z" />
    <glyph glyph-name="period" unicode="." horiz-adv-x="215" 
d="M32.5 8q-12.5 13 -12.5 34q0 26 17 42.5t42 16.5q21 0 34 -13t13 -35q0 -26 -17 -42t-42 -16q-22 0 -34.5 13z" />
    <glyph glyph-name="slash" unicode="/" horiz-adv-x="296" 
d="M323 803h59l-379 -883h-58z" />
    <glyph glyph-name="zero" unicode="0" horiz-adv-x="630" 
d="M120.5 51q-48.5 60 -48.5 192q0 108 30.5 214t103 178t188.5 72q95 0 142.5 -56.5t47.5 -184.5q0 -110 -30.5 -218.5t-102 -182.5t-185.5 -74q-97 0 -145.5 60zM406 126.5q51 69.5 73.5 166.5t22.5 183q0 91 -29.5 128t-87.5 37q-82 0 -134 -66t-74.5 -159.5
t-22.5 -179.5q0 -95 31 -137t91 -42q79 0 130 69.5z" />
    <glyph glyph-name="one" unicode="1" horiz-adv-x="400" 
d="M342 702l-102 -638l108 -18l-6 -46h-328l7 46l140 21l85 545l-158 -87l-20 52l207 125h67z" />
    <glyph glyph-name="two" unicode="2" horiz-adv-x="534" 
d="M456.5 395.5q-54.5 -81.5 -130.5 -152.5t-201 -174h331l-11 -69h-440l11 74l58 47q115 94 184 156.5t117.5 131.5t48.5 132q0 50 -32 75.5t-89 25.5q-53 0 -129 -23l-28 -107h-50l14 158q114 37 208 37q89 0 141 -37t52 -114q0 -79 -54.5 -160.5z" />
    <glyph glyph-name="three" unicode="3" horiz-adv-x="551" 
d="M444 323q31 -36 31 -98q0 -67 -34.5 -120t-96.5 -83t-140 -30q-111 0 -195 57l30 60q78 -50 164 -50q54 0 98 21.5t68.5 59t24.5 85.5q0 54 -37 82t-109 28h-77l10 62h78q81 0 126 41.5t45 107.5q0 98 -115 98q-58 0 -131 -22l-27 -106h-49l14 153q114 38 212 38
q180 0 180 -148q0 -76 -44.5 -125t-121.5 -64q65 -11 96 -47z" />
    <glyph glyph-name="four" unicode="4" horiz-adv-x="558" 
d="M422 241h114l-11 -67h-115l-27 -174h-81l27 174h-318l-1 61l394 474l89 -11zM91 241h249l59 373z" />
    <glyph glyph-name="five" unicode="5" horiz-adv-x="526" 
d="M503 631h-265l-42 -213h31q65 0 115.5 -8.5t90.5 -46.5t40 -116q0 -71 -34.5 -129.5t-96.5 -92.5t-140 -34q-95 0 -189 50l30 60q75 -41 149 -41q55 0 99.5 24.5t69.5 66t25 90.5q0 53 -29 78t-70.5 30.5t-106.5 4.5h-78l68 344h345z" />
    <glyph glyph-name="six" unicode="6" horiz-adv-x="577" 
d="M266.5 561.5q-76.5 -78.5 -105.5 -199.5q48 29 96.5 43.5t92.5 14.5q79 0 128 -43t49 -130q0 -72 -34 -130.5t-93.5 -92t-132.5 -33.5q-95 0 -150.5 60.5t-55.5 184.5q0 116 48 225t137.5 178t207.5 69q50 0 98 -13l-13 -65q-43 10 -83 10q-113 0 -189.5 -78.5z
M236 342.5q-46 -16.5 -87 -46.5q-3 -31 -3 -62q0 -93 31.5 -134.5t91.5 -41.5q51 0 90 25t61 67t22 92q0 60 -31.5 88.5t-85.5 28.5q-43 0 -89 -16.5z" />
    <glyph glyph-name="seven" unicode="7" horiz-adv-x="491" 
d="M67 524l28 174h444l-10 -61l-360 -637h-91l360 630h-286l-34 -106h-51z" />
    <glyph glyph-name="eight" unicode="8" horiz-adv-x="588" 
d="M479 309q34 -35 34 -97q0 -64 -37.5 -114t-99 -78t-130.5 -28q-86 0 -142.5 42t-56.5 121q0 72 46.5 126t125.5 82q-47 23 -73.5 56t-26.5 86q0 61 35 107t92 70.5t122 24.5q82 0 135.5 -38.5t53.5 -113.5q0 -70 -48 -116.5t-125 -69.5q61 -25 95 -60zM279.5 628
q-37.5 -17 -59.5 -47t-22 -68q0 -46 31.5 -71.5t92.5 -48.5q67 19 111.5 58t44.5 95q0 50 -33 74.5t-85 24.5q-43 0 -80.5 -17zM343.5 74q40.5 20 64.5 54t24 75q0 38 -21 62.5t-48.5 38t-85.5 35.5q-67 -26 -108 -68.5t-41 -102.5q0 -54 35 -84t93 -30q47 0 87.5 20z" />
    <glyph glyph-name="nine" unicode="9" horiz-adv-x="578" 
d="M488 648.5q55 -58.5 55 -184.5q0 -121 -50 -229.5t-139.5 -175.5t-202.5 -67q-50 0 -99 13l13 65q39 -9 81 -9q114 0 191 79.5t106 201.5q-47 -30 -96 -45t-94 -15q-79 0 -128 43t-49 128q0 70 34.5 128t94.5 92t134 34q94 0 149 -58.5zM367.5 358.5q45.5 15.5 86.5 45.5
q4 28 4 64q0 92 -31 132.5t-92 40.5q-54 0 -93 -26.5t-59.5 -68.5t-20.5 -89q0 -60 32 -87t86 -27q42 0 87.5 15.5z" />
    <glyph glyph-name="colon" unicode=":" horiz-adv-x="215" 
d="M89.5 369q-12.5 13 -12.5 34q0 26 17 42.5t42 16.5q21 0 34 -13t13 -35q0 -26 -17 -42t-42 -16q-22 0 -34.5 13zM32.5 8q-12.5 13 -12.5 34q0 26 17 42.5t42 16.5q21 0 34 -13t13 -35q0 -26 -17 -42t-42 -16q-22 0 -34.5 13z" />
    <glyph glyph-name="semicolon" unicode=";" horiz-adv-x="215" 
d="M38.5 85.5q16.5 15.5 39.5 15.5q20 0 33.5 -13t13.5 -37q0 -37 -33.5 -89.5t-94.5 -110.5l-29 26q67 80 67 112q0 6 -2 12l-3 9q-8 16 -8 32q0 28 16.5 43.5zM89.5 369q-12.5 13 -12.5 34q0 26 17 42.5t42 16.5q21 0 34 -13t13 -35q0 -26 -17 -42t-42 -16q-22 0 -34.5 13
z" />
    <glyph glyph-name="less" unicode="&#x3c;" horiz-adv-x="521" 
d="M494 563l20 -62l-366 -152l319 -140l-27 -59l-377 170l9 63z" />
    <glyph glyph-name="equal" unicode="=" horiz-adv-x="684" 
d="M160 472h430l-10 -61h-430zM130 284h430l-10 -61h-430z" />
    <glyph glyph-name="greater" unicode="&#x3e;" horiz-adv-x="521" 
d="M84 503l27 60l377 -170l-9 -64l-422 -179l-20 61l367 153z" />
    <glyph glyph-name="question" unicode="?" horiz-adv-x="401" 
d="M106 222l2 24q0 9 2 25q5 41 23.5 72.5t42 53t59.5 49.5q47 36 69.5 63t22.5 65q0 70 -86 70q-54 0 -123 -26l-15 58q81 31 160 31q67 0 107.5 -28t40.5 -90q0 -40 -17 -71.5t-41.5 -54.5t-64.5 -53q-53 -40 -81 -72t-33 -75l-4 -37zM78.5 8q-12.5 13 -12.5 34
q0 26 17 42.5t42 16.5q21 0 34 -13t13 -35q0 -26 -17 -42t-42 -16q-22 0 -34.5 13z" />
    <glyph glyph-name="at" unicode="@" horiz-adv-x="866" 
d="M662 613.5q68 -34.5 105 -101t37 -159.5q0 -75 -24 -141t-68.5 -106.5t-103.5 -40.5q-49 0 -74 29t-24 84q-29 -52 -70.5 -80t-81.5 -28q-46 0 -75.5 36t-29.5 109q0 71 28.5 131t78.5 95.5t111 35.5q49 0 96 -25l10 17l32 -2l-43 -268q-3 -15 -3 -27q0 -56 49 -56
q38 0 66.5 34t44 87.5t15.5 111.5q0 111 -59.5 177t-179.5 66q-110 0 -192 -55.5t-125 -147t-43 -196.5q0 -118 55 -181.5t159 -63.5q76 0 154 30l15 -51q-90 -36 -178 -36q-126 0 -198.5 79t-72.5 222q0 124 54 228.5t152 166t224 61.5q91 0 159 -34.5zM439.5 146.5
q29.5 24.5 52 68.5t31.5 102l15 93q-35 18 -68 18q-43 0 -78 -28.5t-55 -76t-20 -102.5q0 -49 17 -74t47 -25q29 0 58.5 24.5z" />
    <glyph glyph-name="A" unicode="A" horiz-adv-x="675" 
d="M453 700l115 -638l65 -18l-7 -44h-243l8 44l92 18l-22 135h-274l-68 -136l87 -17l-8 -44h-234l8 44l69 17l328 636zM452 258l-57 360l-180 -360h237z" />
    <glyph glyph-name="B" unicode="B" horiz-adv-x="633" 
d="M523.5 314.5q33.5 -35.5 33.5 -98.5q0 -66 -33.5 -114.5t-95 -75t-143.5 -26.5h-275l7 44l84 17l91 572l-79 16l7 44l161 5h115q84 0 136 -33.5t52 -112.5q0 -73 -43.5 -123t-118.5 -69q68 -10 101.5 -45.5zM274 637l-39 -250h74q83 0 137.5 38t54.5 111q0 52 -31 76.5
t-96 24.5h-100zM284 62q88 0 138 42t50 113q0 55 -32 82t-92 27h-123l-42 -264h101z" />
    <glyph glyph-name="C" unicode="C" horiz-adv-x="623" 
d="M594 501h-50l3 113q-68 27 -127 27q-80 0 -140 -53t-92.5 -137t-32.5 -172q0 -108 48 -163.5t124 -55.5q46 0 96 21t96 61l28 -53q-57 -48 -118.5 -73t-120.5 -25q-67 0 -121.5 32t-86 96t-31.5 157q0 111 44.5 210t125 160t184.5 61q98 0 201 -50z" />
    <glyph glyph-name="D" unicode="D" horiz-adv-x="710" 
d="M400 698q268 0 268 -269q0 -114 -46 -212t-132 -157.5t-201 -59.5h-279l7 44l85 18l91 571l-80 16l7 44l182 5h98zM303 63q86 0 149.5 56t97 142.5t33.5 172.5q0 101 -50 151.5t-147 50.5h-112l-91 -573h120z" />
    <glyph glyph-name="E" unicode="E" horiz-adv-x="606" 
d="M594 698l-25 -159h-49v97h-246l-40 -248h241l-10 -61h-241l-41 -264h258l31 102h50l-27 -165h-485l7 44l84 17l91 572l-79 16l7 44l163 5h311z" />
    <glyph glyph-name="F" unicode="F" horiz-adv-x="551" 
d="M120 693l163 5h304l-25 -160h-49v98h-239l-41 -256h230l-9 -63h-231l-40 -254l100 -19l-7 -44h-266l7 44l84 17l91 572l-79 16z" />
    <glyph glyph-name="G" unicode="G" horiz-adv-x="718" 
d="M694 337l-7 -47l-83 -17l-34 -226q-138 -56 -246 -56q-120 0 -187.5 69.5t-67.5 213.5q0 121 47.5 220t132.5 156t195 57q104 0 216 -51l-30 -157h-49l1 114q-69 28 -132 28q-86 0 -153.5 -48.5t-104.5 -132t-37 -185.5q0 -113 46.5 -164.5t134.5 -51.5q69 0 165 33
l27 182l-80 12l7 46z" />
    <glyph glyph-name="H" unicode="H" horiz-adv-x="769" 
d="M787 698l-7 -44l-87 -20l-90 -571l80 -19l-7 -44h-246l6 44l85 17l42 263h-338l-42 -261l81 -19l-7 -44h-247l7 44l85 17l91 572l-80 16l7 44l247 5l-7 -44l-86 -20l-40 -247h338l40 246l-80 16l7 44z" />
    <glyph glyph-name="I" unicode="I" horiz-adv-x="349" 
d="M367 698l-7 -44l-86 -20l-91 -571l81 -19l-7 -44h-247l7 44l85 17l90 573l-79 15l7 44z" />
    <glyph glyph-name="J" unicode="J" horiz-adv-x="332" 
d="M362 698l-7 -44l-87 -20l-94 -591q-28 -189 -192 -189q-27 0 -55 6l13 61q17 -3 34 -3q63 0 86 32t30 77l97 606l-85 16l7 44z" />
    <glyph glyph-name="K" unicode="K" horiz-adv-x="688" 
d="M697 654l-82 -19l-215 -275l156 -299l79 -17l-7 -44h-134l-163 326h-106l-42 -263l79 -19l-6 -44h-246l7 44l85 18l91 571l-80 15l7 45l246 5l-7 -44l-85 -19l-39 -246h107l191 249l-71 11l6 44l235 5z" />
    <glyph glyph-name="L" unicode="L" horiz-adv-x="534" 
d="M409 63l34 117h49l-28 -180h-454l7 44l85 17l91 572l-80 16l7 44l256 5l-6 -44l-96 -21l-91 -570h226z" />
    <glyph glyph-name="M" unicode="M" horiz-adv-x="865" 
d="M884 698l-7 -44l-87 -20l-90 -571l80 -19l-7 -44h-240l6 44l85 19l81 514l-264 -395l-55 -4l-135 398l-82 -513l81 -19l-7 -44h-233l7 44l85 18l91 571l-80 16l7 44l177 5l137 -422l274 417z" />
    <glyph glyph-name="N" unicode="N" horiz-adv-x="763" 
d="M559 693l232 5l-6 -44l-85 -20l-101 -634h-86l-259 591l-84 -528l79 -19l-7 -44h-232l7 44l85 18l91 571l-80 16l7 44l176 5l254 -581l82 516l-80 16z" />
    <glyph glyph-name="O" unicode="O" horiz-adv-x="726" 
d="M135.5 61.5q-66.5 70.5 -66.5 207.5q0 109 43 210t126 164.5t197 63.5q116 0 183.5 -70.5t67.5 -205.5q0 -107 -43 -208.5t-126.5 -166.5t-197.5 -65q-117 0 -183.5 70.5zM471.5 115q62.5 57 95.5 143.5t33 173.5q0 104 -47.5 156.5t-125.5 52.5q-83 0 -145 -56.5
t-94.5 -143.5t-32.5 -173q0 -105 46.5 -157.5t124.5 -52.5q83 0 145.5 57z" />
    <glyph glyph-name="P" unicode="P" horiz-adv-x="582" 
d="M391 698q192 0 192 -170q0 -76 -36 -135.5t-102.5 -93t-153.5 -33.5h-76l-32 -203l102 -19l-7 -44h-268l7 44l85 17l91 572l-80 16l7 44l166 5h105zM294 329q63 0 109 25.5t70.5 69t24.5 96.5q0 58 -31.5 87t-98.5 29h-94l-48 -307h68z" />
    <glyph glyph-name="Q" unicode="Q" horiz-adv-x="728" 
d="M722 -121q-44 -28 -77.5 -41t-63.5 -13q-46 0 -94.5 29.5t-149.5 108.5q-24 18 -36 28q-108 5 -170 75t-62 202q0 109 43 210.5t126.5 165t196.5 63.5q116 0 183.5 -70.5t67.5 -205.5q0 -97 -36 -190t-104.5 -159.5t-161.5 -83.5q8 -5 13 -9t9 -7q74 -51 108.5 -69.5
t68.5 -18.5q23 0 48.5 9.5t61.5 29.5zM200.5 109.5q47.5 -52.5 125.5 -52.5q83 0 146 57t96 144t33 173q0 105 -48 157.5t-126 52.5q-84 0 -146 -57t-95 -143.5t-33 -172.5q0 -106 47.5 -158.5z" />
    <glyph glyph-name="R" unicode="R" horiz-adv-x="638" 
d="M524 62l59 -18l-7 -44h-118l-60 199q-16 50 -31 72.5t-35.5 29t-60.5 5.5h-48l-40 -243l96 -19l-6 -44h-263l7 44l85 18l91 571l-80 16l7 44l168 5h104q98 0 146.5 -38.5t48.5 -116.5q0 -85 -53 -144t-141 -76q28 -11 45.5 -37t32.5 -70zM232 367h68q61 0 107 22
t70.5 60.5t24.5 85.5q0 65 -38.5 83t-89.5 18h-100z" />
    <glyph glyph-name="S" unicode="S" horiz-adv-x="581" 
d="M526 510h-49l5 112q-53 22 -112 22q-71 0 -121 -33.5t-50 -92.5q0 -33 17.5 -55t43.5 -35.5t71 -30.5q55 -21 90 -40t59 -54.5t24 -91.5q0 -70 -37.5 -119.5t-100.5 -75t-138 -25.5q-100 0 -192 42l30 165h49l-3 -115q60 -27 126 -27q78 0 131 36.5t53 101.5
q0 36 -18 59.5t-44.5 37.5t-74.5 33q-54 21 -87.5 39.5t-56.5 52t-23 86.5q0 65 34 111t92 70t128 24q96 0 185 -42z" />
    <glyph glyph-name="T" unicode="T" horiz-adv-x="569" 
d="M70 526l27 172h512l-27 -172h-49l-1 110h-147l-91 -573l93 -19l-7 -44h-273l7 44l98 18l91 574h-149l-34 -110h-50z" />
    <glyph glyph-name="U" unicode="U" horiz-adv-x="729" 
d="M766 698l-7 -44l-87 -20l-58 -372q-22 -139 -91 -205t-202 -66q-110 0 -162.5 46.5t-52.5 141.5q0 38 7 77l60 378l-80 15l7 44l246 5l-7 -44l-84 -20l-61 -383q-7 -45 -7 -70q0 -65 32 -94.5t106 -29.5q99 0 144.5 51t63.5 159l58 367l-79 15l6 44z" />
    <glyph glyph-name="V" unicode="V" horiz-adv-x="679" 
d="M498 693l243 5l-6 -44l-79 -17l-323 -638h-86l-103 635l-77 15l8 44l258 5l-6 -44l-91 -19l75 -542l268 541l-88 15z" />
    <glyph glyph-name="W" unicode="W" horiz-adv-x="990" 
d="M812 693l239 5l-7 -44l-79 -18l-273 -637h-78l-73 566l-256 -566h-78l-63 636l-76 14l8 44l247 5l-6 -44l-90 -19l43 -527l259 587l75 3l71 -587l216 524l-86 14z" />
    <glyph glyph-name="X" unicode="X" horiz-adv-x="677" 
d="M701 654l-75 -19l-228 -274l154 -301l68 -16l-7 -44h-248l6 44l88 18l-120 244l-198 -244l80 -18l-7 -44h-232l7 44l76 17l245 299l-142 277l-71 12l7 44l245 5l-6 -44l-82 -18l110 -224l180 222l-78 15l7 44l228 5z" />
    <glyph glyph-name="Y" unicode="Y" horiz-adv-x="624" 
d="M680 654l-74 -15l-256 -389l-29 -187l82 -19l-7 -44h-249l6 44l87 18l31 197l-131 376l-73 14l6 44l249 5l-7 -44l-93 -18l104 -318l205 316l-85 15l7 44l234 5z" />
    <glyph glyph-name="Z" unicode="Z" horiz-adv-x="591" 
d="M596 698l-6 -59l-475 -575h324l33 102h51l-29 -166h-488l6 57l481 577h-305l-32 -101h-50l27 165h463z" />
    <glyph glyph-name="bracketleft" unicode="[" horiz-adv-x="325" 
d="M234 -97l-212 -5l151 952l210 -5l-8 -52l-143 -5l-131 -828l141 -5z" />
    <glyph glyph-name="backslash" unicode="\" horiz-adv-x="299" 
d="M189 -80l-106 883h59l105 -883h-58z" />
    <glyph glyph-name="bracketright" unicode="]" horiz-adv-x="325" 
d="M126 845l212 5l-152 -952l-210 5l8 52l143 5l131 828l-141 5z" />
    <glyph glyph-name="asciicircum" unicode="^" horiz-adv-x="503" 
d="M343 863l126 -335h-72l-94 264l-177 -264h-73l232 335h58z" />
    <glyph glyph-name="underscore" unicode="_" horiz-adv-x="475" 
d="M-54 -70h477l-9 -56h-477z" />
    <glyph glyph-name="grave" unicode="`" horiz-adv-x="384" 
d="M148 743l45 64l175 -146l-29 -42z" />
    <glyph glyph-name="a" unicode="a" horiz-adv-x="585" 
d="M452 66l76 -19l-8 -46l-151 -5l25 156q-39 -78 -97.5 -119.5t-114.5 -41.5q-62 0 -101.5 49t-39.5 147q0 95 38.5 175.5t105.5 128t149 47.5q68 0 132 -35l14 25h45zM290.5 87.5q41.5 30.5 74.5 91t47 145.5l20 122q-51 29 -100 29q-59 0 -107 -38.5t-75 -102.5t-27 -138
q0 -70 24 -104.5t64 -34.5q38 0 79.5 30.5z" />
    <glyph glyph-name="b" unicode="b" horiz-adv-x="572" 
d="M490 488.5q39 -49.5 39 -152.5q0 -104 -41 -182t-115.5 -120.5t-173.5 -42.5q-69 0 -150 23l109 688l-76 19l7 45l160 6l-63 -381q39 72 94.5 109.5t109.5 37.5q61 0 100 -49.5zM339 88q52 34 80 96.5t28 143.5q0 74 -23.5 109t-63.5 35q-38 0 -79.5 -30.5t-75 -91
t-47.5 -145.5l-22 -139q44 -12 83 -12q68 0 120 34z" />
    <glyph glyph-name="c" unicode="c" horiz-adv-x="481" 
d="M452 371h-55l1 85q-42 21 -81 21q-55 0 -99 -37t-69 -98.5t-25 -130.5q0 -80 32.5 -118.5t88.5 -38.5q61 0 138 44l24 -50q-91 -57 -180 -57q-83 0 -134 54.5t-51 161.5q0 92 38 167.5t102.5 119t142.5 43.5q75 0 148 -41z" />
    <glyph glyph-name="d" unicode="d" horiz-adv-x="586" 
d="M563 772l-111 -706l76 -19l-8 -46l-151 -5l25 156q-39 -78 -97.5 -119.5t-114.5 -41.5q-62 0 -101.5 49t-39.5 147q0 95 38.5 175.5t105.5 128t149 47.5q55 0 109 -24l30 188l-79 20l7 44zM290 87.5q41 30.5 74.5 91t47.5 145.5l20 122q-51 29 -100 29q-59 0 -107 -38.5
t-75 -102.5t-27 -138q0 -70 24 -104.5t64 -34.5q38 0 79 30.5z" />
    <glyph glyph-name="e" unicode="e" horiz-adv-x="504" 
d="M122 227q-1 -8 -1 -24q0 -77 33.5 -114.5t92.5 -37.5q72 0 154 47l21 -47q-96 -60 -191 -60q-84 0 -136 52.5t-52 158.5q0 86 35 163t99.5 124.5t149.5 47.5q72 0 114 -33.5t42 -88.5q0 -58 -48 -100.5t-124.5 -65t-160.5 -22.5h-28zM198 423q-49 -55 -68 -137
q24 -2 37 -2q57 0 112 15t90.5 42.5t35.5 65.5q0 32 -24 51.5t-66 19.5q-68 0 -117 -55z" />
    <glyph glyph-name="f" unicode="f" horiz-adv-x="325" 
d="M280.5 687q-33.5 -29 -42.5 -88l-12 -75h138l-10 -58h-137l-80 -505q-15 -94 -62 -147t-129 -53q-15 0 -55 5l13 58q14 -2 31 -2q60 0 85 31.5t35 89.5l82 523h-81l7 46l84 12l11 71q14 92 67.5 137t132.5 45q43 0 88 -15l-20 -57q-33 11 -63 11q-49 0 -82.5 -29z" />
    <glyph glyph-name="g" unicode="g" horiz-adv-x="572" 
d="M480 528h45l-86 -540q-19 -119 -83.5 -173t-162.5 -54q-77 0 -176 32l18 60q88 -31 157 -31q149 0 175 164l25 161q-39 -76 -97 -116t-113 -40q-62 0 -101.5 49t-39.5 147q0 95 38.5 175.5t105.5 127.5t149 47q66 0 133 -34zM290 87.5q41 30.5 74.5 91t47.5 145.5l20 122
q-51 29 -100 29q-59 0 -107 -38.5t-75 -102.5t-27 -138q0 -70 24 -104.5t64 -34.5q38 0 79 30.5z" />
    <glyph glyph-name="h" unicode="h" horiz-adv-x="591" 
d="M464 65l75 -18l-7 -46l-160 -4l57 348q3 21 3 38q0 44 -18.5 66.5t-52.5 22.5q-39 0 -80 -29.5t-74 -89.5t-47 -146l-33 -207h-80l112 705l-76 15l7 46l159 6l-65 -383q40 74 96.5 111t112.5 37q55 0 88 -35t33 -99q0 -19 -3 -42z" />
    <glyph glyph-name="i" unicode="i" horiz-adv-x="286" 
d="M226 532l-75 -467l76 -19l-7 -45l-159 -4l74 466l-75 18l7 45zM169 652q-13 14 -13 37q0 27 17 45t43 18q22 0 35 -13.5t13 -36.5q0 -28 -17 -46t-43 -18q-22 0 -35 14z" />
    <glyph glyph-name="j" unicode="j" horiz-adv-x="272" 
d="M67 526l158 6l-90 -571q-17 -107 -65 -153.5t-129 -46.5q-22 0 -52 5l13 58q22 -2 32 -2q55 0 81.5 28t37.5 94l81 521l-74 16zM164 652q-13 14 -13 37q0 27 17 45t43 18q22 0 35 -13.5t13 -36.5q0 -28 -17 -46t-43 -18q-22 0 -35 14z" />
    <glyph glyph-name="k" unicode="k" horiz-adv-x="543" 
d="M541 487l-71 -14l-132 -174l92 -238l70 -17l-6 -44h-125l-96 264h-105l-42 -264h-79l111 702l-76 19l7 45l160 6l-72 -451h102l113 150l-63 10l7 44l212 7z" />
    <glyph glyph-name="l" unicode="l" horiz-adv-x="272" 
d="M90 766l159 6l-112 -707l76 -18l-7 -46l-160 -4l113 705l-76 18z" />
    <glyph glyph-name="m" unicode="m" horiz-adv-x="907" 
d="M779 65l76 -18l-7 -46l-160 -4l56 348q3 21 3 39q0 43 -17 65.5t-48 22.5q-36 0 -76 -30t-72.5 -90t-46.5 -145l-32 -207h-80l55 345q4 30 4 41q0 42 -17.5 64t-47.5 22q-36 0 -76.5 -30t-73 -90t-45.5 -145l-33 -207h-80l73 463l-74 18l7 45l155 6l-29 -155
q40 80 97 120t111 40t86 -38t28 -107q40 73 94.5 109t105.5 36q52 0 83.5 -34.5t31.5 -98.5q0 -13 -4 -43z" />
    <glyph glyph-name="n" unicode="n" horiz-adv-x="605" 
d="M478 65l76 -18l-8 -46l-159 -4l56 348q4 28 4 40q0 43 -19 65t-52 22q-39 0 -80.5 -29.5t-74.5 -89t-47 -146.5l-33 -207h-80l74 463l-75 18l7 45l155 6l-29 -152q41 79 98.5 118t114.5 39q56 0 89.5 -34.5t33.5 -97.5q0 -23 -4 -44z" />
    <glyph glyph-name="o" unicode="o" horiz-adv-x="557" 
d="M462.5 484.5q50.5 -52.5 50.5 -161.5q0 -86 -32 -162t-95.5 -123t-152.5 -47q-88 0 -138 52.5t-50 162.5q0 85 32 161t95 123t152 47q88 0 138.5 -52.5zM211 435q-42 -41 -63 -103t-21 -125q0 -75 29.5 -115t88.5 -40t101 41t63.5 103.5t21.5 125.5q0 75 -29.5 114.5
t-88.5 39.5q-60 0 -102 -41z" />
    <glyph glyph-name="p" unicode="p" horiz-adv-x="587" 
d="M506 488.5q39 -48.5 39 -149.5q0 -106 -40 -184t-112.5 -120t-169.5 -42q-41 0 -82 7l-26 -165l85 -21l-7 -44h-246l7 44l81 19l101 632l-77 16l7 45l156 6l-28 -155q39 78 96.5 119t114.5 41q62 0 101 -48.5zM152 67q45 -12 84 -12q69 0 120.5 34.5t79 96.5t27.5 145
q0 71 -24 106t-63 35q-38 0 -80 -30.5t-75.5 -91t-46.5 -145.5z" />
    <glyph glyph-name="q" unicode="q" horiz-adv-x="572" 
d="M525 528l-111 -694l76 -20l-7 -44h-248l7 44l93 21l27 166l25 137q-39 -71 -95 -109t-110 -38q-62 0 -101.5 49t-39.5 147q0 95 38.5 175.5t105.5 127.5t149 47q66 0 133 -34l13 25h45zM290 87.5q41 30.5 74.5 91t47.5 145.5l20 122q-51 29 -100 29q-59 0 -107 -38.5
t-75 -102.5t-27 -138q0 -70 24 -104.5t64 -34.5q38 0 79 30.5z" />
    <glyph glyph-name="r" unicode="r" horiz-adv-x="407" 
d="M441 531l-25 -147h-51l2 89q-38 -2 -77.5 -34t-71 -91.5t-44.5 -140.5l-33 -207h-80l74 463l-75 18l7 45l155 6l-29 -151q38 73 95.5 114.5t113.5 41.5q25 0 39 -6z" />
    <glyph glyph-name="s" unicode="s" horiz-adv-x="475" 
d="M196.5 456q-36.5 -24 -37.5 -63q0 -33 26 -51.5t82 -41.5q46 -19 74 -34t48 -42t20 -67q0 -50 -30.5 -87.5t-84.5 -58t-122 -20.5q-76 0 -158 22l25 139h52l-4 -89q39 -13 89 -13q64 0 107 25.5t44 69.5q0 36 -27 56t-83 41q-46 18 -73 32.5t-46 40.5t-19 66q0 72 59 114
t150 42q73 0 157 -28l-21 -118h-50l-3 76q-40 13 -82 13q-56 0 -92.5 -24z" />
    <glyph glyph-name="t" unicode="t" horiz-adv-x="357" 
d="M216 471l-54 -340q-2 -12 -2 -24q0 -53 47 -53q33 0 81 24l19 -53q-69 -34 -127 -34q-47 0 -74 25.5t-27 76.5q0 9 2 33l55 345h-87l7 45l89 13l19 118l82 13l-21 -132h139l-9 -57h-139z" />
    <glyph glyph-name="u" unicode="u" horiz-adv-x="605" 
d="M471 62l76 -17l-6 -44l-153 -4l26 153q-40 -79 -99 -119t-118 -40q-55 0 -87.5 34.5t-32.5 96.5q0 24 4 45l47 298l-75 16l7 45l159 6l-56 -349q-4 -28 -4 -39q0 -43 19 -65.5t52 -22.5q39 0 80.5 29.5t74.5 89t47 146.5l32 207h80z" />
    <glyph glyph-name="v" unicode="v" horiz-adv-x="510" 
d="M366 525l188 7l-6 -45l-48 -13l-240 -476h-80l-98 474l-53 9l7 44l119 7l78 -454l189 393l-62 10z" />
    <glyph glyph-name="w" unicode="w" horiz-adv-x="778" 
d="M640 525l178 7l-6 -45l-46 -12l-213 -477h-88l-47 430l-189 -430h-87l-54 473l-56 10l7 44l121 7l39 -464l194 459l85 4l45 -469l173 407l-62 12z" />
    <glyph glyph-name="x" unicode="x" horiz-adv-x="535" 
d="M542 487l-65 -12l-169 -208l108 -208l74 -15l-7 -44h-123l-110 217l-163 -217h-117l7 44l75 13l168 218l-100 194l-60 12l7 44l107 9l105 -211l158 202l112 7z" />
    <glyph glyph-name="y" unicode="y" horiz-adv-x="510" 
d="M556 532l-6 -45l-51 -13l-237 -476q-40 -79 -67.5 -123t-76.5 -79t-120 -35q-21 0 -51 5l11 60q7 -1 16 -2t21 -1q45 0 77.5 20t58.5 58.5t59 105.5l-106 464l-56 10l7 44l121 7l84 -439l183 378l-61 10l6 44z" />
    <glyph glyph-name="z" unicode="z" horiz-adv-x="470" 
d="M459 528l-8 -50l-348 -419h225l29 88h49l-22 -146l-384 -1l7 50l352 420h-217l-21 -77h-50l21 135h367z" />
    <glyph glyph-name="braceleft" unicode="{" horiz-adv-x="322" 
d="M366 850l-8 -52q-46 0 -71 -9.5t-37.5 -33t-19.5 -68.5l-29 -190q-9 -58 -34.5 -87t-63.5 -37q60 -19 60 -91q0 -17 -3 -37l-30 -190q-4 -24 -4 -45q0 -36 20 -48t77 -12l-8 -52h-44q-59 0 -87.5 25t-28.5 81q0 25 4 49l30 188q3 18 3 34q0 34 -17.5 52t-57.5 18l9 58
q49 0 73.5 29t32.5 80l29 188q12 79 48.5 114.5t110.5 35.5h46z" />
    <glyph glyph-name="bar" unicode="|" horiz-adv-x="323" 
d="M73 -99l143 902h63l-144 -902h-62z" />
    <glyph glyph-name="braceright" unicode="}" horiz-adv-x="322" 
d="M268 506q-3 -18 -3 -34q0 -34 17.5 -51.5t57.5 -17.5l-9 -58q-49 0 -73.5 -29t-32.5 -80l-29 -188q-12 -79 -48.5 -114.5t-110.5 -35.5h-46l8 52q46 0 71 9.5t37.5 32.5t19.5 68l29 190q9 58 34.5 87t64.5 38q-61 19 -61 91q0 18 3 37l30 190q4 24 4 45q0 36 -20.5 48
t-76.5 12l8 52h44q59 0 87.5 -25t28.5 -82q0 -25 -4 -49z" />
    <glyph glyph-name="asciitilde" unicode="~" horiz-adv-x="659" 
d="M390.5 296q-23.5 10 -58.5 30q-31 18 -50.5 26.5t-40.5 8.5q-50 0 -102 -60l-34 28q35 48 69 70.5t71 22.5q28 0 54 -10.5t57 -29.5q33 -18 52 -26t40 -8q49 0 101 60l33 -29q-35 -49 -69.5 -71t-70.5 -22q-28 0 -51.5 10z" />
    <glyph glyph-name="uni00A0" unicode="&#xa0;" horiz-adv-x="193" 
 />
    <glyph glyph-name="exclamdown" unicode="&#xa1;" horiz-adv-x="321" 
d="M226 460q13 -13 13 -34q0 -26 -17 -42.5t-42 -16.5q-21 0 -34.5 13t-13.5 36q0 26 17 41.5t42 15.5q22 0 35 -13zM128 241l60 4l-62 -475h-86z" />
    <glyph glyph-name="cent" unicode="&#xa2;" horiz-adv-x="554" 
d="M491 450h-48l3 83q-35 19 -88 19q-59 0 -104 -35t-70 -92.5t-25 -121.5q0 -65 33 -102t91 -37q73 0 163 61l24 -45q-88 -62 -174 -72l-20 -129h-54l19 128q-74 7 -116 58.5t-42 136.5q0 78 29.5 143.5t83.5 108.5t126 52l19 128h55l-20 -126q77 -4 136 -39z" />
    <glyph glyph-name="sterling" unicode="&#xa3;" horiz-adv-x="654" 
d="M585 528h-48l2 103q-56 13 -102 13q-66 0 -101.5 -28.5t-48.5 -82t-14 -139.5h177l-9 -54h-170q-4 -107 -19 -171.5t-59 -103.5l268 -2l33 110h49l-28 -173h-484l7 44l85 22q28 28 42 69.5t18 86.5t6 118h-104l7 47l100 6q0 161 53.5 237.5t183.5 76.5q82 0 185 -28z" />
    <glyph glyph-name="currency" unicode="&#xa4;" horiz-adv-x="648" 
d="M495 263q-12 -36 -34 -64l67 -74l-45 -44l-67 74q-51 -35 -112 -35q-66 0 -105 37l-90 -77l-32 41l91 77q-14 31 -14 69q0 75 46 134l-69 78l46 45l69 -80q53 34 114 34q60 0 100 -31l89 76l32 -41l-89 -75q15 -31 15 -72q0 -36 -12 -72zM378 196q30 23 46 60t16 76
q0 45 -21 69t-64 24q-42 0 -72.5 -23t-46 -59t-15.5 -74q0 -46 23 -71t64 -25q40 0 70 23z" />
    <glyph glyph-name="yen" unicode="&#xa5;" horiz-adv-x="692" 
d="M718 698l-7 -44l-74 -16l-207 -318h130l-8 -43h-408l7 43h133l-106 316l-73 13l7 44l248 5l-7 -44l-93 -18l101 -317l202 315l-85 15l6 44zM291 166h-164l7 44h408l-7 -44h-164l-15 -103l82 -19l-7 -44h-249l6 44l87 18z" />
    <glyph glyph-name="brokenbar" unicode="&#xa6;" horiz-adv-x="322" 
d="M220 438h-63l58 365h63zM135 -99h-63l58 365h63z" />
    <glyph glyph-name="section" unicode="&#xa7;" horiz-adv-x="550" 
d="M486 570h-50v71q-38 11 -71 11q-58 0 -94.5 -28.5t-36.5 -76.5q0 -35 25.5 -60t77.5 -59q42 -27 66.5 -47t42 -49t17.5 -67q0 -52 -33 -92.5t-87 -64.5q52 -49 52 -110q0 -82 -61 -129t-157 -47q-70 0 -142 23l24 128h51l-4 -86q38 -11 72 -11q62 0 102 33t40 86
q0 37 -26.5 63.5t-77.5 57.5q-41 27 -65.5 46.5t-41.5 47.5t-17 65q0 54 34.5 94t90.5 63q-27 24 -42 51.5t-15 62.5q0 76 56 118.5t145 42.5q72 0 145 -29zM364.5 321q-25.5 26 -79.5 62l-36 24q-36 -20 -60.5 -52t-24.5 -68q0 -37 25.5 -63t78.5 -61l43 -29q33 23 56 56
t23 68q0 37 -25.5 63z" />
    <glyph glyph-name="dieresis" unicode="&#xa8;" horiz-adv-x="435" 
d="M155.5 656q-11.5 13 -11.5 35q0 25 14.5 41t37.5 16q19 0 30.5 -12.5t11.5 -34.5q0 -25 -14.5 -41.5t-36.5 -16.5q-20 0 -31.5 13zM346 656q-12 13 -12 35q0 25 14.5 41t37.5 16q20 0 31.5 -12.5t11.5 -34.5q0 -25 -14.5 -41.5t-37.5 -16.5q-19 0 -31 13z" />
    <glyph glyph-name="copyright" unicode="&#xa9;" horiz-adv-x="885" 
d="M646 662q83 -45 130 -125t47 -180q0 -103 -49.5 -186.5t-136 -131.5t-192.5 -48q-102 0 -182.5 45t-126 124.5t-45.5 180.5q0 104 48 188t132 131t189 47q103 0 186 -45zM611 80.5q72 40.5 112.5 112t40.5 160.5q0 88 -39.5 157.5t-110 109t-158.5 39.5q-90 0 -159.5 -40
t-108 -111t-38.5 -161q0 -89 37.5 -159t105 -109t156.5 -39q90 0 162 40.5zM580 248l23 -35q-36 -28 -74 -42t-75 -14q-73 0 -120 50.5t-47 138.5q0 61 23.5 105.5t64.5 68t92 23.5q59 0 122 -30l-3 -93h-42l-9 63q-31 12 -63 12q-56 0 -87 -39t-31 -106q0 -70 30.5 -107
t81.5 -37q54 0 114 42z" />
    <glyph glyph-name="ordfeminine" unicode="&#xaa;" horiz-adv-x="481" 
d="M400 372l56 -13l-6 -37l-124 -3l19 111q-29 -56 -72.5 -85.5t-87.5 -29.5q-50 0 -80.5 35t-30.5 105q0 69 29 127t80 92t116 34q50 0 99 -26l10 18l46 1zM267 387.5q31 21.5 56 64t35 102.5l14 85q-37 20 -74 20q-43 0 -77.5 -27.5t-54.5 -72.5t-20 -97q0 -48 17 -72
t44 -24q29 0 60 21.5zM426 175h-373l10 59h372z" />
    <glyph glyph-name="guillemotleft" unicode="&#xab;" horiz-adv-x="471" 
d="M230 477l35 -31l-147 -176l91 -175l-43 -32l-118 184l6 46zM413 477l35 -31l-147 -176l91 -175l-43 -32l-118 184l6 46z" />
    <glyph glyph-name="logicalnot" unicode="&#xac;" horiz-adv-x="653" 
d="M70 319h394l-34 -206h67l42 267h-460z" />
    <glyph glyph-name="uni00AD" unicode="&#xad;" horiz-adv-x="402" 
d="M73 326h276l-10 -65h-276z" />
    <glyph glyph-name="registered" unicode="&#xae;" horiz-adv-x="733" 
d="M550 708.5q67 -36.5 104.5 -101t37.5 -146.5q0 -83 -40 -150.5t-110 -106.5t-154 -39q-83 0 -147.5 36t-101 100t-36.5 146q0 84 38.5 152t106 107t151.5 39t151 -36.5zM521 239q59 33 92.5 91t33.5 130q0 71 -32 126.5t-89 86.5t-128 31q-72 0 -129 -32.5t-88.5 -90
t-31.5 -130.5q0 -72 30 -127.5t85 -86.5t126 -31q72 0 131 33zM529 328l30 -8v-25h-66l-46 98q-15 32 -31 40t-47 8h-24v-111l52 -10v-25h-141v25l41 10v258l-41 7v25l93 3h55q57 0 87.5 -22t30.5 -63q0 -31 -20.5 -53t-60.5 -32q17 -6 28 -18t22 -33zM345 474h35
q45 0 68.5 16t23.5 45q0 51 -77 51h-50v-112z" />
    <glyph glyph-name="macron" unicode="&#xaf;" horiz-adv-x="408" 
d="M150 731h256l-9 -60h-256z" />
    <glyph glyph-name="degree" unicode="&#xb0;" horiz-adv-x="416" 
d="M128.5 471.5q-33.5 33.5 -33.5 92.5q0 48 21.5 87t60 61.5t85.5 22.5q57 0 91 -33.5t34 -92.5q0 -47 -21.5 -86t-59.5 -62t-87 -23q-57 0 -90.5 33.5zM302.5 523.5q29.5 36.5 29.5 84.5q0 38 -19.5 58t-54.5 20q-50 0 -79 -35.5t-29 -84.5q0 -38 19 -58.5t55 -20.5
q49 0 78.5 36.5z" />
    <glyph glyph-name="plusminus" unicode="&#xb1;" horiz-adv-x="571" 
d="M373 628l-30 -193h185l-10 -61h-185l-31 -194h-62l31 194h-183l9 61h183l30 193h63zM466 41h-431l10 61h430z" />
    <glyph glyph-name="uni00B2" unicode="&#xb2;" horiz-adv-x="347" 
d="M335.5 595.5q-28.5 -43.5 -72.5 -84.5t-127 -109h192l-9 -56h-274l8 53q88 72 135.5 115t76 82.5t28.5 74.5q0 52 -66 52q-31 0 -70 -13l-16 -62h-41l10 105q76 23 132 23t89 -23t33 -69q0 -45 -28.5 -88.5z" />
    <glyph glyph-name="uni00B3" unicode="&#xb3;" horiz-adv-x="360" 
d="M344 480q0 -64 -49.5 -102.5t-123.5 -38.5q-70 0 -126 35l26 45q47 -28 99 -28q47 0 76.5 25.5t29.5 65.5q0 60 -80 60h-53l7 46h50q42 0 70.5 22t28.5 60q0 30 -17 43t-50 13q-32 0 -70 -11l-16 -60h-40l10 96q70 24 134 24q119 0 119 -93q0 -45 -27.5 -75.5
t-74.5 -38.5q77 -13 77 -88z" />
    <glyph glyph-name="acute" unicode="&#xb4;" horiz-adv-x="369" 
d="M334 741l-197 -122l-31 43l185 143z" />
    <glyph glyph-name="uni00B5" unicode="&#xb5;" horiz-adv-x="687" 
d="M518 62l77 -17l-7 -44l-152 -5l24 151q-39 -78 -95.5 -117t-109.5 -39q-31 0 -55 13.5t-37 40.5q-1 -88 -4 -147t-15 -131l-79 3l110 695l-75 16l7 45l159 6l-56 -349q-4 -28 -4 -39q0 -43 19 -65.5t52 -22.5q39 0 80.5 29.5t74.5 89t47 146.5l33 207h80z" />
    <glyph glyph-name="paragraph" unicode="&#xb6;" horiz-adv-x="578" 
d="M591 698l-7 -44l-87 -20l-127 -804h-67l128 806l-90 -1l-128 -805h-151l7 44l86 18l68 437q-62 6 -97.5 46t-35.5 104q0 62 27 112t75 78.5t109 28.5h290z" />
    <glyph glyph-name="periodcentered" unicode="&#xb7;" horiz-adv-x="215" 
d="M76.5 289q-12.5 13 -12.5 34q0 26 17 42.5t42 16.5q21 0 34 -13t13 -35q0 -26 -17 -42t-42 -16q-22 0 -34.5 13z" />
    <glyph glyph-name="cedilla" unicode="&#xb8;" horiz-adv-x="355" 
d="M0 -213l23 43q32 -15 67 -15q28 0 46.5 11.5t18.5 32.5q0 41 -89 44l20 97h50l-9 -58q46 -5 67 -23.5t21 -49.5q0 -46 -36.5 -74.5t-91.5 -28.5q-43 0 -87 21z" />
    <glyph glyph-name="uni00B9" unicode="&#xb9;" horiz-adv-x="271" 
d="M263 771l-59 -373l66 -15l-5 -37h-218l5 37l89 13l47 303l-94 -52l-14 42l132 82h51z" />
    <glyph glyph-name="ordmasculine" unicode="&#xba;" horiz-adv-x="442" 
d="M115.5 353.5q-41.5 38.5 -41.5 118.5q0 62 24.5 116t74 86.5t119.5 32.5q71 0 112.5 -38t41.5 -118q0 -62 -25 -116t-74 -87t-118 -33q-72 0 -113.5 38.5zM310.5 391.5q31.5 28.5 47 71.5t15.5 88q0 53 -23 80.5t-67 27.5t-75 -28t-46.5 -70.5t-15.5 -86.5
q0 -54 23 -82.5t66 -28.5q44 0 75.5 28.5zM375 175h-338l10 59h337z" />
    <glyph glyph-name="guillemotright" unicode="&#xbb;" horiz-adv-x="471" 
d="M123 477l119 -184l-6 -46l-176 -184l-35 31l146 177l-90 174zM264 445l43 32l118 -184l-6 -46l-176 -184l-35 31l147 176z" />
    <glyph glyph-name="onequarter" unicode="&#xbc;" horiz-adv-x="803" 
d="M283 701l-59 -373l66 -15l-5 -37h-218l5 37l89 13l47 303l-94 -52l-14 42l132 82h51zM181 -7h-67l529 712h67zM679 151h65l-8 -50h-65l-16 -101h-66l17 101h-191l-1 49l227 280l80 -7zM614 151l34 221l-178 -221h144z" />
    <glyph glyph-name="onehalf" unicode="&#xbd;" horiz-adv-x="815" 
d="M283 701l-59 -373l66 -15l-5 -37h-218l5 37l89 13l47 303l-94 -52l-14 42l132 82h51zM181 -7h-67l529 712h67zM735.5 249.5q-28.5 -43.5 -72.5 -84.5t-127 -109h192l-9 -56h-274l8 53q88 72 135.5 115t76 82.5t28.5 74.5q0 52 -66 52q-31 0 -70 -13l-16 -62h-41l10 105
q76 23 132 23t89 -23t33 -69q0 -45 -28.5 -88.5z" />
    <glyph glyph-name="threequarters" unicode="&#xbe;" horiz-adv-x="858" 
d="M347 410q0 -64 -49.5 -102.5t-123.5 -38.5q-70 0 -126 35l26 45q47 -28 99 -28q47 0 76.5 25.5t29.5 65.5q0 60 -80 60h-53l7 46h50q42 0 70.5 22t28.5 60q0 30 -17 43t-50 13q-32 0 -70 -11l-16 -60h-40l10 96q70 24 134 24q119 0 119 -93q0 -45 -27.5 -75.5
t-74.5 -38.5q77 -13 77 -88zM237 -7h-67l529 712h67zM734 151h65l-8 -50h-65l-16 -101h-66l17 101h-191l-1 49l227 280l80 -7zM669 151l34 221l-178 -221h144z" />
    <glyph glyph-name="questiondown" unicode="&#xbf;" horiz-adv-x="401" 
d="M335.5 520q12.5 -13 12.5 -34q0 -26 -17 -42.5t-42 -16.5q-21 0 -34.5 13t-13.5 36q0 25 17.5 41t42.5 16q22 0 34.5 -13zM307 306q-2 -42 -3 -49q-5 -41 -23.5 -72.5t-42 -53t-59.5 -49.5q-48 -37 -70 -63t-22 -64q0 -70 85 -70q53 0 124 25l15 -57q-81 -32 -160 -32
q-67 0 -107.5 28t-40.5 90q0 40 17 71.5t41 54t65 54.5q53 40 81 71.5t33 75.5l4 36z" />
    <glyph glyph-name="Agrave" unicode="&#xc0;" horiz-adv-x="675" 
d="M453 700l115 -638l65 -18l-7 -44h-243l8 44l92 18l-22 135h-274l-68 -136l87 -17l-8 -44h-234l8 44l69 17l328 636zM452 258l-57 360l-180 -360h237zM536 793l-23 -43l-218 96l37 66z" />
    <glyph glyph-name="Aacute" unicode="&#xc1;" horiz-adv-x="675" 
d="M453 700l115 -638l65 -18l-7 -44h-243l8 44l92 18l-22 135h-274l-68 -136l87 -17l-8 -44h-234l8 44l69 17l328 636zM452 258l-57 360l-180 -360h237zM552 846l-221 -96l-20 41l213 123z" />
    <glyph glyph-name="Acircumflex" unicode="&#xc2;" horiz-adv-x="675" 
d="M453 700l115 -638l65 -18l-7 -44h-243l8 44l92 18l-22 135h-274l-68 -136l87 -17l-8 -44h-234l8 44l69 17l328 636zM452 258l-57 360l-180 -360h237zM465 903l122 -123l-34 -35l-119 90l-143 -90l-24 35l151 119z" />
    <glyph glyph-name="Atilde" unicode="&#xc3;" horiz-adv-x="675" 
d="M453 700l115 -638l65 -18l-7 -44h-243l8 44l92 18l-22 135h-274l-68 -136l87 -17l-8 -44h-234l8 44l69 17l328 636zM452 258l-57 360l-180 -360h237zM270 795q24 44 48.5 64t52.5 20q18 0 33.5 -5.5t38.5 -17.5q18 -9 30.5 -14t24.5 -5q33 0 65 45l33 -21
q-44 -84 -103 -84q-17 0 -31.5 5.5t-34.5 16.5q-22 11 -34 15.5t-26 4.5q-17 0 -31.5 -10.5t-32.5 -34.5z" />
    <glyph glyph-name="Adieresis" unicode="&#xc4;" horiz-adv-x="675" 
d="M453 700l115 -638l65 -18l-7 -44h-243l8 44l92 18l-22 135h-274l-68 -136l87 -17l-8 -44h-234l8 44l69 17l328 636zM452 258l-57 360l-180 -360h237zM302.5 780q-11.5 13 -11.5 35q0 25 14.5 41t37.5 16q19 0 30.5 -12.5t11.5 -34.5q0 -25 -14.5 -41.5t-36.5 -16.5
q-20 0 -31.5 13zM493 780q-12 13 -12 35q0 25 14.5 41t37.5 16q20 0 31.5 -12.5t11.5 -34.5q0 -25 -14.5 -41.5t-37.5 -16.5q-19 0 -31 13z" />
    <glyph glyph-name="Aring" unicode="&#xc5;" horiz-adv-x="675" 
d="M453 700l115 -638l65 -18l-7 -44h-243l8 44l92 18l-22 135h-274l-68 -136l87 -17l-8 -44h-234l8 44l69 17l328 636zM452 258l-57 360l-180 -360h237zM354 754.5q-24 22.5 -24 60.5q0 48 33.5 80t84.5 32q41 0 65 -22t24 -61q0 -48 -33.5 -80t-84.5 -32q-41 0 -65 22.5z
M469 794.5q17 20.5 17 47.5q0 21 -11 32.5t-32 11.5q-28 0 -45.5 -20.5t-17.5 -48.5q0 -20 11.5 -31.5t32.5 -11.5q28 0 45 20.5z" />
    <glyph glyph-name="AE" unicode="&#xc6;" horiz-adv-x="918" 
d="M906 698l-25 -159h-49v97h-242l-39 -248h235l-9 -61h-236l-41 -264h253l31 102h50l-27 -165h-477l7 44l81 19l24 151h-218l-99 -152l83 -18l-7 -44h-237l7 44l76 17l371 573l-77 15l7 44l185 5h373zM494 636l-234 -362h192l57 362h-15z" />
    <glyph glyph-name="Ccedilla" unicode="&#xc7;" horiz-adv-x="623" 
d="M594 501h-50l3 113q-68 27 -127 27q-80 0 -140 -53t-92.5 -137t-32.5 -172q0 -108 48 -163.5t124 -55.5q46 0 96 21t96 61l28 -53q-106 -89 -220 -97l-9 -50q47 -5 68 -23.5t21 -49.5q0 -46 -37 -74.5t-91 -28.5q-43 0 -87 21l22 43q33 -15 68 -15q28 0 46 11.5t18 32.5
q0 41 -88 44l18 90q-92 11 -149.5 83.5t-57.5 199.5q0 111 44.5 210t125 160t184.5 61q98 0 201 -50z" />
    <glyph glyph-name="Egrave" unicode="&#xc8;" horiz-adv-x="606" 
d="M594 698l-25 -159h-49v97h-246l-40 -248h241l-10 -61h-241l-41 -264h258l31 102h50l-27 -165h-485l7 44l84 17l91 572l-79 16l7 44l163 5h311zM503 793l-23 -43l-218 96l37 66z" />
    <glyph glyph-name="Eacute" unicode="&#xc9;" horiz-adv-x="606" 
d="M594 698l-25 -159h-49v97h-246l-40 -248h241l-10 -61h-241l-41 -264h258l31 102h50l-27 -165h-485l7 44l84 17l91 572l-79 16l7 44l163 5h311zM520 846l-221 -96l-20 41l213 123z" />
    <glyph glyph-name="Ecircumflex" unicode="&#xca;" horiz-adv-x="606" 
d="M594 698l-25 -159h-49v97h-246l-40 -248h241l-10 -61h-241l-41 -264h258l31 102h50l-27 -165h-485l7 44l84 17l91 572l-79 16l7 44l163 5h311zM432 903l122 -123l-34 -35l-119 90l-143 -90l-24 35l151 119z" />
    <glyph glyph-name="Edieresis" unicode="&#xcb;" horiz-adv-x="606" 
d="M594 698l-25 -159h-49v97h-246l-40 -248h241l-10 -61h-241l-41 -264h258l31 102h50l-27 -165h-485l7 44l84 17l91 572l-79 16l7 44l163 5h311zM269.5 780q-11.5 13 -11.5 35q0 25 14.5 41t37.5 16q19 0 30.5 -12.5t11.5 -34.5q0 -25 -14.5 -41.5t-36.5 -16.5
q-20 0 -31.5 13zM460 780q-12 13 -12 35q0 25 14.5 41t37.5 16q20 0 31.5 -12.5t11.5 -34.5q0 -25 -14.5 -41.5t-37.5 -16.5q-19 0 -31 13z" />
    <glyph glyph-name="Igrave" unicode="&#xcc;" horiz-adv-x="349" 
d="M367 698l-7 -44l-86 -20l-91 -571l81 -19l-7 -44h-247l7 44l85 17l90 573l-79 15l7 44zM366 793l-23 -43l-218 96l37 66z" />
    <glyph glyph-name="Iacute" unicode="&#xcd;" horiz-adv-x="349" 
d="M367 698l-7 -44l-86 -20l-91 -571l81 -19l-7 -44h-247l7 44l85 17l90 573l-79 15l7 44zM382 846l-221 -96l-20 41l213 123z" />
    <glyph glyph-name="Icircumflex" unicode="&#xce;" horiz-adv-x="349" 
d="M367 698l-7 -44l-86 -20l-91 -571l81 -19l-7 -44h-247l7 44l85 17l90 573l-79 15l7 44zM295 903l122 -123l-34 -35l-119 90l-143 -90l-24 35l151 119z" />
    <glyph glyph-name="Idieresis" unicode="&#xcf;" horiz-adv-x="349" 
d="M367 698l-7 -44l-86 -20l-91 -571l81 -19l-7 -44h-247l7 44l85 17l90 573l-79 15l7 44zM132.5 780q-11.5 13 -11.5 35q0 25 14.5 41t37.5 16q19 0 30.5 -12.5t11.5 -34.5q0 -25 -14.5 -41.5t-36.5 -16.5q-20 0 -31.5 13zM323 780q-12 13 -12 35q0 25 14.5 41t37.5 16
q20 0 31.5 -12.5t11.5 -34.5q0 -25 -14.5 -41.5t-37.5 -16.5q-19 0 -31 13z" />
    <glyph glyph-name="Eth" unicode="&#xd0;" horiz-adv-x="710" 
d="M400 698q268 0 268 -269q0 -114 -46 -212t-132 -157.5t-201 -59.5h-279l7 44l85 18l42 265h-82l9 59h83l39 247l-80 16l7 44l182 5h98zM303 63q86 0 149.5 56t97 142.5t33.5 172.5q0 101 -50 151.5t-147 50.5h-112l-40 -250h149l-9 -59h-149l-42 -264h120z" />
    <glyph glyph-name="Ntilde" unicode="&#xd1;" horiz-adv-x="763" 
d="M559 693l232 5l-6 -44l-85 -20l-101 -634h-86l-259 591l-84 -528l79 -19l-7 -44h-232l7 44l85 18l91 571l-80 16l7 44l176 5l254 -581l82 516l-80 16zM315 795q24 44 48.5 64t52.5 20q18 0 33.5 -5.5t38.5 -17.5q18 -9 30.5 -14t24.5 -5q33 0 65 45l33 -21
q-44 -84 -103 -84q-17 0 -31.5 5.5t-34.5 16.5q-22 11 -34 15.5t-26 4.5q-17 0 -31.5 -10.5t-32.5 -34.5z" />
    <glyph glyph-name="Ograve" unicode="&#xd2;" horiz-adv-x="726" 
d="M135.5 61.5q-66.5 70.5 -66.5 207.5q0 109 43 210t126 164.5t197 63.5q116 0 183.5 -70.5t67.5 -205.5q0 -107 -43 -208.5t-126.5 -166.5t-197.5 -65q-117 0 -183.5 70.5zM471.5 115q62.5 57 95.5 143.5t33 173.5q0 104 -47.5 156.5t-125.5 52.5q-83 0 -145 -56.5
t-94.5 -143.5t-32.5 -173q0 -105 46.5 -157.5t124.5 -52.5q83 0 145.5 57zM574 793l-23 -43l-218 96l37 66z" />
    <glyph glyph-name="Oacute" unicode="&#xd3;" horiz-adv-x="726" 
d="M135.5 61.5q-66.5 70.5 -66.5 207.5q0 109 43 210t126 164.5t197 63.5q116 0 183.5 -70.5t67.5 -205.5q0 -107 -43 -208.5t-126.5 -166.5t-197.5 -65q-117 0 -183.5 70.5zM471.5 115q62.5 57 95.5 143.5t33 173.5q0 104 -47.5 156.5t-125.5 52.5q-83 0 -145 -56.5
t-94.5 -143.5t-32.5 -173q0 -105 46.5 -157.5t124.5 -52.5q83 0 145.5 57zM590 846l-221 -96l-20 41l213 123z" />
    <glyph glyph-name="Ocircumflex" unicode="&#xd4;" horiz-adv-x="726" 
d="M135.5 61.5q-66.5 70.5 -66.5 207.5q0 109 43 210t126 164.5t197 63.5q116 0 183.5 -70.5t67.5 -205.5q0 -107 -43 -208.5t-126.5 -166.5t-197.5 -65q-117 0 -183.5 70.5zM471.5 115q62.5 57 95.5 143.5t33 173.5q0 104 -47.5 156.5t-125.5 52.5q-83 0 -145 -56.5
t-94.5 -143.5t-32.5 -173q0 -105 46.5 -157.5t124.5 -52.5q83 0 145.5 57zM503 903l122 -123l-34 -35l-119 90l-143 -90l-24 35l151 119z" />
    <glyph glyph-name="Otilde" unicode="&#xd5;" horiz-adv-x="726" 
d="M135.5 61.5q-66.5 70.5 -66.5 207.5q0 109 43 210t126 164.5t197 63.5q116 0 183.5 -70.5t67.5 -205.5q0 -107 -43 -208.5t-126.5 -166.5t-197.5 -65q-117 0 -183.5 70.5zM471.5 115q62.5 57 95.5 143.5t33 173.5q0 104 -47.5 156.5t-125.5 52.5q-83 0 -145 -56.5
t-94.5 -143.5t-32.5 -173q0 -105 46.5 -157.5t124.5 -52.5q83 0 145.5 57zM308 795q24 44 48.5 64t52.5 20q18 0 33.5 -5.5t38.5 -17.5q18 -9 30.5 -14t24.5 -5q33 0 65 45l33 -21q-44 -84 -103 -84q-17 0 -31.5 5.5t-34.5 16.5q-22 11 -34 15.5t-26 4.5q-17 0 -31.5 -10.5
t-32.5 -34.5z" />
    <glyph glyph-name="Odieresis" unicode="&#xd6;" horiz-adv-x="726" 
d="M135.5 61.5q-66.5 70.5 -66.5 207.5q0 109 43 210t126 164.5t197 63.5q116 0 183.5 -70.5t67.5 -205.5q0 -107 -43 -208.5t-126.5 -166.5t-197.5 -65q-117 0 -183.5 70.5zM471.5 115q62.5 57 95.5 143.5t33 173.5q0 104 -47.5 156.5t-125.5 52.5q-83 0 -145 -56.5
t-94.5 -143.5t-32.5 -173q0 -105 46.5 -157.5t124.5 -52.5q83 0 145.5 57zM340.5 780q-11.5 13 -11.5 35q0 25 14.5 41t37.5 16q19 0 30.5 -12.5t11.5 -34.5q0 -25 -14.5 -41.5t-36.5 -16.5q-20 0 -31.5 13zM531 780q-12 13 -12 35q0 25 14.5 41t37.5 16q20 0 31.5 -12.5
t11.5 -34.5q0 -25 -14.5 -41.5t-37.5 -16.5q-19 0 -31 13z" />
    <glyph glyph-name="multiply" unicode="&#xd7;" horiz-adv-x="524" 
d="M450 545l37 -45l-168 -151l121 -149l-50 -46l-121 150l-167 -150l-37 45l167 151l-120 149l50 46l121 -150z" />
    <glyph glyph-name="Oslash" unicode="&#xd8;" horiz-adv-x="738" 
d="M718 744l-87 -115q60 -71 60 -194q0 -110 -43 -212.5t-126 -167t-199 -64.5q-88 0 -148 42l-82 -108l-42 29l86 113q-63 71 -63 197q0 112 43 214t126.5 165.5t197.5 63.5q91 0 152 -43l83 108zM287.5 584.5q-62.5 -56.5 -95 -144t-32.5 -176.5q0 -80 31 -130l356 466
q-44 41 -113 41q-84 0 -146.5 -56.5zM476.5 114.5q62.5 56.5 95.5 144t33 176.5q0 76 -28 126l-356 -465q46 -38 110 -38q83 0 145.5 56.5z" />
    <glyph glyph-name="Ugrave" unicode="&#xd9;" horiz-adv-x="729" 
d="M766 698l-7 -44l-87 -20l-58 -372q-22 -139 -91 -205t-202 -66q-110 0 -162.5 46.5t-52.5 141.5q0 38 7 77l60 378l-80 15l7 44l246 5l-7 -44l-84 -20l-61 -383q-7 -45 -7 -70q0 -65 32 -94.5t106 -29.5q99 0 144.5 51t63.5 159l58 367l-79 15l6 44zM554 793l-23 -43
l-218 96l37 66z" />
    <glyph glyph-name="Uacute" unicode="&#xda;" horiz-adv-x="729" 
d="M766 698l-7 -44l-87 -20l-58 -372q-22 -139 -91 -205t-202 -66q-110 0 -162.5 46.5t-52.5 141.5q0 38 7 77l60 378l-80 15l7 44l246 5l-7 -44l-84 -20l-61 -383q-7 -45 -7 -70q0 -65 32 -94.5t106 -29.5q99 0 144.5 51t63.5 159l58 367l-79 15l6 44zM570 846l-221 -96
l-20 41l213 123z" />
    <glyph glyph-name="Ucircumflex" unicode="&#xdb;" horiz-adv-x="729" 
d="M766 698l-7 -44l-87 -20l-58 -372q-22 -139 -91 -205t-202 -66q-110 0 -162.5 46.5t-52.5 141.5q0 38 7 77l60 378l-80 15l7 44l246 5l-7 -44l-84 -20l-61 -383q-7 -45 -7 -70q0 -65 32 -94.5t106 -29.5q99 0 144.5 51t63.5 159l58 367l-79 15l6 44zM483 903l122 -123
l-34 -35l-119 90l-143 -90l-24 35l151 119z" />
    <glyph glyph-name="Udieresis" unicode="&#xdc;" horiz-adv-x="729" 
d="M766 698l-7 -44l-87 -20l-58 -372q-22 -139 -91 -205t-202 -66q-110 0 -162.5 46.5t-52.5 141.5q0 38 7 77l60 378l-80 15l7 44l246 5l-7 -44l-84 -20l-61 -383q-7 -45 -7 -70q0 -65 32 -94.5t106 -29.5q99 0 144.5 51t63.5 159l58 367l-79 15l6 44zM320.5 780
q-11.5 13 -11.5 35q0 25 14.5 41t37.5 16q19 0 30.5 -12.5t11.5 -34.5q0 -25 -14.5 -41.5t-36.5 -16.5q-20 0 -31.5 13zM511 780q-12 13 -12 35q0 25 14.5 41t37.5 16q20 0 31.5 -12.5t11.5 -34.5q0 -25 -14.5 -41.5t-37.5 -16.5q-19 0 -31 13z" />
    <glyph glyph-name="Yacute" unicode="&#xdd;" horiz-adv-x="624" 
d="M680 654l-74 -15l-256 -389l-29 -187l82 -19l-7 -44h-249l6 44l87 18l31 197l-131 376l-73 14l6 44l249 5l-7 -44l-93 -18l104 -318l205 316l-85 15l7 44l234 5zM525 846l-221 -96l-20 41l213 123z" />
    <glyph glyph-name="Thorn" unicode="&#xde;" horiz-adv-x="572" 
d="M197 151l-14 -88l86 -19l-7 -44h-252l7 44l85 17l91 572l-80 16l7 44l247 5l-7 -44l-86 -20l-13 -77h103q97 0 142.5 -40.5t45.5 -118.5q0 -73 -35.5 -129t-101 -87t-151.5 -31h-67zM342 496h-91l-45 -284h61q62 0 108 22.5t70.5 62.5t24.5 90q0 109 -128 109z" />
    <glyph glyph-name="germandbls" unicode="&#xdf;" horiz-adv-x="621" 
d="M420 358.5q19 -18.5 58 -40.5q35 -21 56 -37.5t36 -44.5t15 -68q0 -55 -28.5 -95t-77.5 -61t-107 -21q-63 0 -126 24l25 131l49 -1l-3 -88q29 -10 59 -10q53 0 91 29.5t38 78.5q0 35 -20.5 56t-63.5 47q-33 21 -52.5 36.5t-33.5 40t-14 59.5q0 34 13.5 58.5t33.5 40.5
t52 36q44 27 65 48.5t21 58.5q0 41 -29.5 62.5t-77.5 21.5q-63 0 -107 -36.5t-55 -108.5l-97 -614q-17 -108 -66 -154.5t-126 -46.5q-16 0 -54 5l13 58q22 -2 32 -2q53 0 80 27t38 95l82 521h-83l7 48l87 12l8 52q16 100 85.5 150.5t162.5 50.5q79 0 129.5 -35t50.5 -101
q0 -34 -14.5 -59t-35 -41.5t-53.5 -36.5q-42 -25 -62 -45t-20 -52q0 -30 19 -48.5z" />
    <glyph glyph-name="agrave" unicode="&#xe0;" horiz-adv-x="585" 
d="M452 66l76 -19l-8 -46l-151 -5l25 156q-39 -78 -97.5 -119.5t-114.5 -41.5q-62 0 -101.5 49t-39.5 147q0 95 38.5 175.5t105.5 128t149 47.5q68 0 132 -35l14 25h45zM290.5 87.5q41.5 30.5 74.5 91t47 145.5l20 122q-51 29 -100 29q-59 0 -107 -38.5t-75 -102.5t-27 -138
q0 -70 24 -104.5t64 -34.5q38 0 79.5 30.5zM244 743l45 64l175 -146l-29 -42z" />
    <glyph glyph-name="aacute" unicode="&#xe1;" horiz-adv-x="585" 
d="M452 66l76 -19l-8 -46l-151 -5l25 156q-39 -78 -97.5 -119.5t-114.5 -41.5q-62 0 -101.5 49t-39.5 147q0 95 38.5 175.5t105.5 128t149 47.5q68 0 132 -35l14 25h45zM290.5 87.5q41.5 30.5 74.5 91t47 145.5l20 122q-51 29 -100 29q-59 0 -107 -38.5t-75 -102.5t-27 -138
q0 -70 24 -104.5t64 -34.5q38 0 79.5 30.5zM491 741l-197 -122l-31 43l185 143z" />
    <glyph glyph-name="acircumflex" unicode="&#xe2;" horiz-adv-x="585" 
d="M452 66l76 -19l-8 -46l-151 -5l25 156q-39 -78 -97.5 -119.5t-114.5 -41.5q-62 0 -101.5 49t-39.5 147q0 95 38.5 175.5t105.5 128t149 47.5q68 0 132 -35l14 25h45zM290.5 87.5q41.5 30.5 74.5 91t47 145.5l20 122q-51 29 -100 29q-59 0 -107 -38.5t-75 -102.5t-27 -138
q0 -70 24 -104.5t64 -34.5q38 0 79.5 30.5zM393 793l116 -133l-34 -33l-114 98l-140 -98l-24 33l148 129z" />
    <glyph glyph-name="atilde" unicode="&#xe3;" horiz-adv-x="585" 
d="M452 66l76 -19l-8 -46l-151 -5l25 156q-39 -78 -97.5 -119.5t-114.5 -41.5q-62 0 -101.5 49t-39.5 147q0 95 38.5 175.5t105.5 128t149 47.5q68 0 132 -35l14 25h45zM290.5 87.5q41.5 30.5 74.5 91t47 145.5l20 122q-51 29 -100 29q-59 0 -107 -38.5t-75 -102.5t-27 -138
q0 -70 24 -104.5t64 -34.5q38 0 79.5 30.5zM382 656q-15 7 -34 20q-17 12 -29.5 17.5t-25.5 5.5q-18 0 -35 -12t-35 -37l-33 20q48 92 108 92q19 0 33.5 -7t35.5 -20q17 -12 29.5 -17.5t26.5 -5.5q18 0 34.5 11.5t34.5 37.5l33 -19q-48 -93 -109 -93q-19 0 -34 7z" />
    <glyph glyph-name="adieresis" unicode="&#xe4;" horiz-adv-x="585" 
d="M452 66l76 -19l-8 -46l-151 -5l25 156q-39 -78 -97.5 -119.5t-114.5 -41.5q-62 0 -101.5 49t-39.5 147q0 95 38.5 175.5t105.5 128t149 47.5q68 0 132 -35l14 25h45zM290.5 87.5q41.5 30.5 74.5 91t47 145.5l20 122q-51 29 -100 29q-59 0 -107 -38.5t-75 -102.5t-27 -138
q0 -70 24 -104.5t64 -34.5q38 0 79.5 30.5zM225.5 656q-11.5 13 -11.5 35q0 25 14.5 41t37.5 16q19 0 30.5 -12.5t11.5 -34.5q0 -25 -14.5 -41.5t-36.5 -16.5q-20 0 -31.5 13zM416 656q-12 13 -12 35q0 25 14.5 41t37.5 16q20 0 31.5 -12.5t11.5 -34.5q0 -25 -14.5 -41.5
t-37.5 -16.5q-19 0 -31 13z" />
    <glyph glyph-name="aring" unicode="&#xe5;" horiz-adv-x="585" 
d="M452 66l76 -19l-8 -46l-151 -5l25 156q-39 -78 -97.5 -119.5t-114.5 -41.5q-62 0 -101.5 49t-39.5 147q0 95 38.5 175.5t105.5 128t149 47.5q68 0 132 -35l14 25h45zM290.5 87.5q41.5 30.5 74.5 91t47 145.5l20 122q-51 29 -100 29q-59 0 -107 -38.5t-75 -102.5t-27 -138
q0 -70 24 -104.5t64 -34.5q38 0 79.5 30.5zM281 640.5q-24 22.5 -24 60.5q0 48 33.5 80t84.5 32q41 0 65 -22t24 -61q0 -48 -33.5 -80t-84.5 -32q-41 0 -65 22.5zM396 680.5q17 20.5 17 47.5q0 21 -11 32.5t-32 11.5q-28 0 -45.5 -20.5t-17.5 -48.5q0 -20 11.5 -31.5
t32.5 -11.5q28 0 45 20.5z" />
    <glyph glyph-name="ae" unicode="&#xe6;" horiz-adv-x="799" 
d="M674 270.5q-106 -42.5 -254 -43.5v-22q0 -76 33.5 -114.5t91.5 -38.5q68 0 153 48l24 -51q-101 -58 -193 -58q-67 0 -113 32.5t-65 90.5q-25 -49 -83 -86t-109 -37q-60 0 -95 33.5t-35 95.5q0 91 79 123t211 32h28l7 47q10 64 10 81q0 73 -85 73q-42 0 -112 -18l-19 -80
h-50l9 122q114 37 197 37q55 0 87 -24.5t32 -70.5v-6q37 47 88.5 74t113.5 27q73 0 114 -34.5t41 -93.5q0 -96 -106 -138.5zM495 420q-49 -58 -67 -142q273 7 273 124q0 35 -23.5 55.5t-64.5 20.5q-69 0 -118 -58zM254 73.5q36 22.5 60.5 56.5t24.5 66q0 20 1 30h-12
q-101 0 -160.5 -18.5t-59.5 -77.5q0 -37 21 -58t60 -21q29 0 65 22.5z" />
    <glyph glyph-name="ccedilla" unicode="&#xe7;" horiz-adv-x="481" 
d="M452 371h-55l1 85q-42 21 -81 21q-55 0 -99 -37t-69 -98.5t-25 -130.5q0 -80 32.5 -118.5t88.5 -38.5q61 0 138 44l24 -50q-79 -50 -160 -56l-8 -50q46 -5 67 -23.5t21 -49.5q0 -46 -36.5 -74.5t-91.5 -28.5q-43 0 -87 21l23 43q32 -15 67 -15q28 0 46.5 11.5t18.5 32.5
q0 41 -89 44l19 90q-70 9 -112.5 63.5t-42.5 150.5q0 92 38 167.5t102.5 119t142.5 43.5q75 0 148 -41z" />
    <glyph glyph-name="egrave" unicode="&#xe8;" horiz-adv-x="504" 
d="M122 227q-1 -8 -1 -24q0 -77 33.5 -114.5t92.5 -37.5q72 0 154 47l21 -47q-96 -60 -191 -60q-84 0 -136 52.5t-52 158.5q0 86 35 163t99.5 124.5t149.5 47.5q72 0 114 -33.5t42 -88.5q0 -58 -48 -100.5t-124.5 -65t-160.5 -22.5h-28zM198 423q-49 -55 -68 -137
q24 -2 37 -2q57 0 112 15t90.5 42.5t35.5 65.5q0 32 -24 51.5t-66 19.5q-68 0 -117 -55zM234 743l45 64l175 -146l-29 -42z" />
    <glyph glyph-name="eacute" unicode="&#xe9;" horiz-adv-x="504" 
d="M122 227q-1 -8 -1 -24q0 -77 33.5 -114.5t92.5 -37.5q72 0 154 47l21 -47q-96 -60 -191 -60q-84 0 -136 52.5t-52 158.5q0 86 35 163t99.5 124.5t149.5 47.5q72 0 114 -33.5t42 -88.5q0 -58 -48 -100.5t-124.5 -65t-160.5 -22.5h-28zM198 423q-49 -55 -68 -137
q24 -2 37 -2q57 0 112 15t90.5 42.5t35.5 65.5q0 32 -24 51.5t-66 19.5q-68 0 -117 -55zM480 741l-197 -122l-31 43l185 143z" />
    <glyph glyph-name="ecircumflex" unicode="&#xea;" horiz-adv-x="504" 
d="M122 227q-1 -8 -1 -24q0 -77 33.5 -114.5t92.5 -37.5q72 0 154 47l21 -47q-96 -60 -191 -60q-84 0 -136 52.5t-52 158.5q0 86 35 163t99.5 124.5t149.5 47.5q72 0 114 -33.5t42 -88.5q0 -58 -48 -100.5t-124.5 -65t-160.5 -22.5h-28zM198 423q-49 -55 -68 -137
q24 -2 37 -2q57 0 112 15t90.5 42.5t35.5 65.5q0 32 -24 51.5t-66 19.5q-68 0 -117 -55zM382 793l116 -133l-34 -33l-114 98l-140 -98l-24 33l148 129z" />
    <glyph glyph-name="edieresis" unicode="&#xeb;" horiz-adv-x="504" 
d="M122 227q-1 -8 -1 -24q0 -77 33.5 -114.5t92.5 -37.5q72 0 154 47l21 -47q-96 -60 -191 -60q-84 0 -136 52.5t-52 158.5q0 86 35 163t99.5 124.5t149.5 47.5q72 0 114 -33.5t42 -88.5q0 -58 -48 -100.5t-124.5 -65t-160.5 -22.5h-28zM198 423q-49 -55 -68 -137
q24 -2 37 -2q57 0 112 15t90.5 42.5t35.5 65.5q0 32 -24 51.5t-66 19.5q-68 0 -117 -55zM214.5 656q-11.5 13 -11.5 35q0 25 14.5 41t37.5 16q19 0 30.5 -12.5t11.5 -34.5q0 -25 -14.5 -41.5t-36.5 -16.5q-20 0 -31.5 13zM405 656q-12 13 -12 35q0 25 14.5 41t37.5 16
q20 0 31.5 -12.5t11.5 -34.5q0 -25 -14.5 -41.5t-37.5 -16.5q-19 0 -31 13z" />
    <glyph glyph-name="igrave" unicode="&#xec;" horiz-adv-x="286" 
d="M226 532l-75 -467l76 -19l-7 -45l-159 -4l74 466l-75 18l7 45zM99 743l45 64l175 -146l-29 -42z" />
    <glyph glyph-name="iacute" unicode="&#xed;" horiz-adv-x="286" 
d="M226 532l-75 -467l76 -19l-7 -45l-159 -4l74 466l-75 18l7 45zM346 741l-197 -122l-31 43l185 143z" />
    <glyph glyph-name="icircumflex" unicode="&#xee;" horiz-adv-x="286" 
d="M187 789l47 4l89 -139l-35 -27l-83 95l-118 -95l-27 32zM67 526l159 6l-75 -467l76 -19l-7 -45l-159 -4l74 466l-75 18z" />
    <glyph glyph-name="idieresis" unicode="&#xef;" horiz-adv-x="287" 
d="M82 656q-12 13 -12 35q0 25 14.5 41t37.5 16q20 0 31.5 -12.5t11.5 -34.5q0 -25 -14.5 -41.5t-37.5 -16.5q-19 0 -31 13zM327.5 735.5q11.5 -12.5 11.5 -34.5q0 -25 -14.5 -41.5t-37.5 -16.5q-19 0 -30.5 13t-11.5 35q0 25 14.5 41t36.5 16q20 0 31.5 -12.5zM67 526
l159 6l-75 -467l76 -19l-7 -45l-159 -4l74 466l-75 18z" />
    <glyph glyph-name="eth" unicode="&#xf0;" horiz-adv-x="570" 
d="M531 741l-91 -55q83 -98 83 -280q0 -120 -35 -214t-102.5 -147.5t-160.5 -53.5q-89 0 -137.5 52t-48.5 149q0 83 33 156.5t94.5 118.5t141.5 45q100 0 142 -75q-6 143 -71 212l-114 -70l-21 38l101 61q-56 37 -139 38l12 61q118 -1 190 -60l102 62zM341.5 91
q43.5 39 66 100t22.5 124q0 68 -28.5 104t-85.5 36q-62 0 -106 -39t-66.5 -99.5t-22.5 -124.5q0 -69 29 -104.5t86 -35.5q62 0 105.5 39z" />
    <glyph glyph-name="ntilde" unicode="&#xf1;" horiz-adv-x="605" 
d="M478 65l76 -18l-8 -46l-159 -4l56 348q4 28 4 40q0 43 -19 65t-52 22q-39 0 -80.5 -29.5t-74.5 -89t-47 -146.5l-33 -207h-80l74 463l-75 18l7 45l155 6l-29 -152q41 79 98.5 118t114.5 39q56 0 89.5 -34.5t33.5 -97.5q0 -23 -4 -44zM395 656q-15 7 -34 20
q-17 12 -29.5 17.5t-25.5 5.5q-18 0 -35 -12t-35 -37l-33 20q48 92 108 92q19 0 33.5 -7t35.5 -20q17 -12 29.5 -17.5t26.5 -5.5q18 0 34.5 11.5t34.5 37.5l33 -19q-48 -93 -109 -93q-19 0 -34 7z" />
    <glyph glyph-name="ograve" unicode="&#xf2;" horiz-adv-x="557" 
d="M462.5 484.5q50.5 -52.5 50.5 -161.5q0 -86 -32 -162t-95.5 -123t-152.5 -47q-88 0 -138 52.5t-50 162.5q0 85 32 161t95 123t152 47q88 0 138.5 -52.5zM211 435q-42 -41 -63 -103t-21 -125q0 -75 29.5 -115t88.5 -40t101 41t63.5 103.5t21.5 125.5q0 75 -29.5 114.5
t-88.5 39.5q-60 0 -102 -41zM241 743l45 64l175 -146l-29 -42z" />
    <glyph glyph-name="oacute" unicode="&#xf3;" horiz-adv-x="557" 
d="M462.5 484.5q50.5 -52.5 50.5 -161.5q0 -86 -32 -162t-95.5 -123t-152.5 -47q-88 0 -138 52.5t-50 162.5q0 85 32 161t95 123t152 47q88 0 138.5 -52.5zM211 435q-42 -41 -63 -103t-21 -125q0 -75 29.5 -115t88.5 -40t101 41t63.5 103.5t21.5 125.5q0 75 -29.5 114.5
t-88.5 39.5q-60 0 -102 -41zM488 741l-197 -122l-31 43l185 143z" />
    <glyph glyph-name="ocircumflex" unicode="&#xf4;" horiz-adv-x="557" 
d="M462.5 484.5q50.5 -52.5 50.5 -161.5q0 -86 -32 -162t-95.5 -123t-152.5 -47q-88 0 -138 52.5t-50 162.5q0 85 32 161t95 123t152 47q88 0 138.5 -52.5zM211 435q-42 -41 -63 -103t-21 -125q0 -75 29.5 -115t88.5 -40t101 41t63.5 103.5t21.5 125.5q0 75 -29.5 114.5
t-88.5 39.5q-60 0 -102 -41zM390 793l116 -133l-34 -33l-114 98l-140 -98l-24 33l148 129z" />
    <glyph glyph-name="otilde" unicode="&#xf5;" horiz-adv-x="557" 
d="M462.5 484.5q50.5 -52.5 50.5 -161.5q0 -86 -32 -162t-95.5 -123t-152.5 -47q-88 0 -138 52.5t-50 162.5q0 85 32 161t95 123t152 47q88 0 138.5 -52.5zM211 435q-42 -41 -63 -103t-21 -125q0 -75 29.5 -115t88.5 -40t101 41t63.5 103.5t21.5 125.5q0 75 -29.5 114.5
t-88.5 39.5q-60 0 -102 -41zM378 656q-15 7 -34 20q-17 12 -29.5 17.5t-25.5 5.5q-18 0 -35 -12t-35 -37l-33 20q48 92 108 92q19 0 33.5 -7t35.5 -20q17 -12 29.5 -17.5t26.5 -5.5q18 0 34.5 11.5t34.5 37.5l33 -19q-48 -93 -109 -93q-19 0 -34 7z" />
    <glyph glyph-name="odieresis" unicode="&#xf6;" horiz-adv-x="557" 
d="M462.5 484.5q50.5 -52.5 50.5 -161.5q0 -86 -32 -162t-95.5 -123t-152.5 -47q-88 0 -138 52.5t-50 162.5q0 85 32 161t95 123t152 47q88 0 138.5 -52.5zM211 435q-42 -41 -63 -103t-21 -125q0 -75 29.5 -115t88.5 -40t101 41t63.5 103.5t21.5 125.5q0 75 -29.5 114.5
t-88.5 39.5q-60 0 -102 -41zM221.5 656q-11.5 13 -11.5 35q0 25 14.5 41t37.5 16q19 0 30.5 -12.5t11.5 -34.5q0 -25 -14.5 -41.5t-36.5 -16.5q-20 0 -31.5 13zM412 656q-12 13 -12 35q0 25 14.5 41t37.5 16q20 0 31.5 -12.5t11.5 -34.5q0 -25 -14.5 -41.5t-37.5 -16.5
q-19 0 -31 13z" />
    <glyph glyph-name="divide" unicode="&#xf7;" horiz-adv-x="683" 
d="M145 380h430l-10 -61h-430zM287.5 138q-12.5 13 -12.5 34q0 26 17 42.5t42 16.5q21 0 34 -13t13 -35q0 -26 -17 -42t-42 -16q-22 0 -34.5 13zM342.5 484q-12.5 13 -12.5 34q0 26 17 42.5t42 16.5q21 0 34 -13t13 -35q0 -26 -17 -42t-42 -16q-22 0 -34.5 13z" />
    <glyph glyph-name="oslash" unicode="&#xf8;" horiz-adv-x="582" 
d="M557 588l-80 -106q48 -54 48 -159q0 -86 -32 -162t-95 -123t-152 -47q-68 0 -114 31l-78 -104l-33 23l82 108q-46 56 -46 157q0 85 32 161t95 123t152 47q66 0 110 -29l77 102zM223.5 435q-42.5 -41 -63.5 -103.5t-21 -125.5q0 -54 15 -90l250 332q-28 28 -78 28
q-60 0 -102.5 -41zM357.5 93q42.5 41 64 103.5t21.5 125.5q0 57 -17 94l-249 -334q28 -30 79 -30q59 0 101.5 41z" />
    <glyph glyph-name="ugrave" unicode="&#xf9;" horiz-adv-x="605" 
d="M471 62l76 -17l-6 -44l-153 -4l26 153q-40 -79 -99 -119t-118 -40q-55 0 -87.5 34.5t-32.5 96.5q0 24 4 45l47 298l-75 16l7 45l159 6l-56 -349q-4 -28 -4 -39q0 -43 19 -65.5t52 -22.5q39 0 80.5 29.5t74.5 89t47 146.5l32 207h80zM252 743l45 64l175 -146l-29 -42z" />
    <glyph glyph-name="uacute" unicode="&#xfa;" horiz-adv-x="605" 
d="M471 62l76 -17l-6 -44l-153 -4l26 153q-40 -79 -99 -119t-118 -40q-55 0 -87.5 34.5t-32.5 96.5q0 24 4 45l47 298l-75 16l7 45l159 6l-56 -349q-4 -28 -4 -39q0 -43 19 -65.5t52 -22.5q39 0 80.5 29.5t74.5 89t47 146.5l32 207h80zM499 741l-197 -122l-31 43l185 143z
" />
    <glyph glyph-name="ucircumflex" unicode="&#xfb;" horiz-adv-x="605" 
d="M471 62l76 -17l-6 -44l-153 -4l26 153q-40 -79 -99 -119t-118 -40q-55 0 -87.5 34.5t-32.5 96.5q0 24 4 45l47 298l-75 16l7 45l159 6l-56 -349q-4 -28 -4 -39q0 -43 19 -65.5t52 -22.5q39 0 80.5 29.5t74.5 89t47 146.5l32 207h80zM400 793l116 -133l-34 -33l-114 98
l-140 -98l-24 33l148 129z" />
    <glyph glyph-name="udieresis" unicode="&#xfc;" horiz-adv-x="605" 
d="M471 62l76 -17l-6 -44l-153 -4l26 153q-40 -79 -99 -119t-118 -40q-55 0 -87.5 34.5t-32.5 96.5q0 24 4 45l47 298l-75 16l7 45l159 6l-56 -349q-4 -28 -4 -39q0 -43 19 -65.5t52 -22.5q39 0 80.5 29.5t74.5 89t47 146.5l32 207h80zM232.5 656q-11.5 13 -11.5 35
q0 25 14.5 41t37.5 16q19 0 30.5 -12.5t11.5 -34.5q0 -25 -14.5 -41.5t-36.5 -16.5q-20 0 -31.5 13zM423 656q-12 13 -12 35q0 25 14.5 41t37.5 16q20 0 31.5 -12.5t11.5 -34.5q0 -25 -14.5 -41.5t-37.5 -16.5q-19 0 -31 13z" />
    <glyph glyph-name="yacute" unicode="&#xfd;" horiz-adv-x="510" 
d="M556 532l-6 -45l-51 -13l-237 -476q-40 -79 -67.5 -123t-76.5 -79t-120 -35q-21 0 -51 5l11 60q7 -1 16 -2t21 -1q45 0 77.5 20t58.5 58.5t59 105.5l-106 464l-56 10l7 44l121 7l84 -439l183 378l-61 10l6 44zM431 741l-197 -122l-31 43l185 143z" />
    <glyph glyph-name="thorn" unicode="&#xfe;" horiz-adv-x="573" 
d="M491.5 489q38.5 -49 38.5 -150q0 -106 -39.5 -184t-112 -120t-169.5 -42q-41 0 -82 7l-26 -165l85 -21l-7 -44h-247l7 44l83 20l138 872l-77 15l7 45l160 6l-62 -380q39 71 94 108.5t109 37.5q62 0 100.5 -49zM137 67q49 -13 86 -13q69 0 120 34.5t78.5 97.5t27.5 145
q0 72 -24 106.5t-64 34.5q-38 0 -79.5 -30.5t-75 -91t-46.5 -145.5z" />
    <glyph glyph-name="ydieresis" unicode="&#xff;" horiz-adv-x="510" 
d="M556 532l-6 -45l-51 -13l-237 -476q-40 -79 -67.5 -123t-76.5 -79t-120 -35q-21 0 -51 5l11 60q7 -1 16 -2t21 -1q45 0 77.5 20t58.5 58.5t59 105.5l-106 464l-56 10l7 44l121 7l84 -439l183 378l-61 10l6 44zM164.5 656q-11.5 13 -11.5 35q0 25 14.5 41t37.5 16
q19 0 30.5 -12.5t11.5 -34.5q0 -25 -14.5 -41.5t-36.5 -16.5q-20 0 -31.5 13zM355 656q-12 13 -12 35q0 25 14.5 41t37.5 16q20 0 31.5 -12.5t11.5 -34.5q0 -25 -14.5 -41.5t-37.5 -16.5q-19 0 -31 13z" />
    <glyph glyph-name="Amacron" unicode="&#x100;" horiz-adv-x="675" 
d="M453 700l115 -638l65 -18l-7 -44h-243l8 44l92 18l-22 135h-274l-68 -136l87 -17l-8 -44h-234l8 44l69 17l328 636zM452 258l-57 360l-180 -360h237zM307 847h256l-9 -60h-256z" />
    <glyph glyph-name="amacron" unicode="&#x101;" horiz-adv-x="585" 
d="M452 66l76 -19l-8 -46l-151 -5l25 156q-39 -78 -97.5 -119.5t-114.5 -41.5q-62 0 -101.5 49t-39.5 147q0 95 38.5 175.5t105.5 128t149 47.5q68 0 132 -35l14 25h45zM290.5 87.5q41.5 30.5 74.5 91t47 145.5l20 122q-51 29 -100 29q-59 0 -107 -38.5t-75 -102.5t-27 -138
q0 -70 24 -104.5t64 -34.5q38 0 79.5 30.5zM233 731h256l-9 -60h-256z" />
    <glyph glyph-name="Abreve" unicode="&#x102;" horiz-adv-x="675" 
d="M453 700l115 -638l65 -18l-7 -44h-243l8 44l92 18l-22 135h-274l-68 -136l87 -17l-8 -44h-234l8 44l69 17l328 636zM452 258l-57 360l-180 -360h237zM343.5 789.5q-34.5 28.5 -34.5 78.5q0 7 2 21h48q-2 -38 18.5 -55t53.5 -17t61.5 20t36.5 54l47 -4q-9 -60 -52.5 -93
t-96.5 -33q-49 0 -83.5 28.5z" />
    <glyph glyph-name="abreve" unicode="&#x103;" horiz-adv-x="585" 
d="M452 66l76 -19l-8 -46l-151 -5l25 156q-39 -78 -97.5 -119.5t-114.5 -41.5q-62 0 -101.5 49t-39.5 147q0 95 38.5 175.5t105.5 128t149 47.5q68 0 132 -35l14 25h45zM290.5 87.5q41.5 30.5 74.5 91t47 145.5l20 122q-51 29 -100 29q-59 0 -107 -38.5t-75 -102.5t-27 -138
q0 -70 24 -104.5t64 -34.5q38 0 79.5 30.5zM269 660.5q-33 29.5 -33 81.5q0 7 2 23h50q-2 -36 16.5 -54.5t49.5 -18.5q33 0 59.5 20t35.5 55l48 -3q-9 -64 -51.5 -98.5t-94.5 -34.5q-49 0 -82 29.5z" />
    <glyph glyph-name="Aogonek" unicode="&#x104;" horiz-adv-x="675" 
d="M567 62l66 -18l-7 -44h-87q-71 -15 -112 -48t-41 -67q0 -23 18.5 -36t52.5 -13q22 0 49 6l-3 -49q-43 -13 -78 -13q-49 0 -76 22t-27 57q0 46 43 92.5t121 71.5l-27 174h-271l-68 -136l86 -17l-8 -44h-234l8 44l71 17l326 636l84 3zM451 258l-56 360l-178 -360h234z" />
    <glyph glyph-name="aogonek" unicode="&#x105;" horiz-adv-x="585" 
d="M431 -2q-56 -20 -87.5 -51.5t-31.5 -61.5q0 -23 18.5 -36t52.5 -13q16 0 35 3l-2 -50q-38 -10 -64 -10q-49 0 -76.5 22t-27.5 57q0 39 32 80.5t91 70.5l23 143q-39 -78 -97.5 -119.5t-114.5 -41.5q-62 0 -101.5 49t-39.5 147q0 95 38.5 175.5t105.5 128t149 47.5
q68 0 132 -35l14 25h45l-73 -462l76 -19l-8 -46zM290.5 87.5q41.5 30.5 74.5 91t47 145.5l20 122q-51 29 -100 29q-59 0 -107 -38.5t-75 -102.5t-27 -138q0 -70 24 -104.5t64 -34.5q38 0 79.5 30.5z" />
    <glyph glyph-name="Cacute" unicode="&#x106;" horiz-adv-x="623" 
d="M594 501h-50l3 113q-68 27 -127 27q-80 0 -140 -53t-92.5 -137t-32.5 -172q0 -108 48 -163.5t124 -55.5q46 0 96 21t96 61l28 -53q-57 -48 -118.5 -73t-120.5 -25q-67 0 -121.5 32t-86 96t-31.5 157q0 111 44.5 210t125 160t184.5 61q98 0 201 -50zM584 846l-221 -96
l-20 41l213 123z" />
    <glyph glyph-name="cacute" unicode="&#x107;" horiz-adv-x="481" 
d="M452 371h-55l1 85q-42 21 -81 21q-55 0 -99 -37t-69 -98.5t-25 -130.5q0 -80 32.5 -118.5t88.5 -38.5q61 0 138 44l24 -50q-91 -57 -180 -57q-83 0 -134 54.5t-51 161.5q0 92 38 167.5t102.5 119t142.5 43.5q75 0 148 -41zM470 741l-197 -122l-31 43l185 143z" />
    <glyph glyph-name="Ccircumflex" unicode="&#x108;" horiz-adv-x="623" 
d="M594 501h-50l3 113q-68 27 -127 27q-80 0 -140 -53t-92.5 -137t-32.5 -172q0 -108 48 -163.5t124 -55.5q46 0 96 21t96 61l28 -53q-57 -48 -118.5 -73t-120.5 -25q-67 0 -121.5 32t-86 96t-31.5 157q0 111 44.5 210t125 160t184.5 61q98 0 201 -50zM496 903l122 -123
l-34 -35l-119 90l-143 -90l-24 35l151 119z" />
    <glyph glyph-name="ccircumflex" unicode="&#x109;" horiz-adv-x="481" 
d="M452 371h-55l1 85q-42 21 -81 21q-55 0 -99 -37t-69 -98.5t-25 -130.5q0 -80 32.5 -118.5t88.5 -38.5q61 0 138 44l24 -50q-91 -57 -180 -57q-83 0 -134 54.5t-51 161.5q0 92 38 167.5t102.5 119t142.5 43.5q75 0 148 -41zM372 793l116 -133l-34 -33l-114 98l-140 -98
l-24 33l148 129z" />
    <glyph glyph-name="Cdotaccent" unicode="&#x10a;" horiz-adv-x="623" 
d="M594 501h-50l3 113q-68 27 -127 27q-80 0 -140 -53t-92.5 -137t-32.5 -172q0 -108 48 -163.5t124 -55.5q46 0 96 21t96 61l28 -53q-57 -48 -118.5 -73t-120.5 -25q-67 0 -121.5 32t-86 96t-31.5 157q0 111 44.5 210t125 160t184.5 61q98 0 201 -50zM423 780
q-13 14 -13 37q0 27 17 45t43 18q22 0 35 -13.5t13 -36.5q0 -28 -17 -46t-43 -18q-22 0 -35 14z" />
    <glyph glyph-name="cdotaccent" unicode="&#x10b;" horiz-adv-x="481" 
d="M452 371h-55l1 85q-42 21 -81 21q-55 0 -99 -37t-69 -98.5t-25 -130.5q0 -80 32.5 -118.5t88.5 -38.5q61 0 138 44l24 -50q-91 -57 -180 -57q-83 0 -134 54.5t-51 161.5q0 92 38 167.5t102.5 119t142.5 43.5q75 0 148 -41zM294 652q-13 14 -13 37q0 27 17 45t43 18
q22 0 35 -13.5t13 -36.5q0 -28 -17 -46t-43 -18q-22 0 -35 14z" />
    <glyph glyph-name="Ccaron" unicode="&#x10c;" horiz-adv-x="623" 
d="M594 501h-50l3 113q-68 27 -127 27q-80 0 -140 -53t-92.5 -137t-32.5 -172q0 -108 48 -163.5t124 -55.5q46 0 96 21t96 61l28 -53q-57 -48 -118.5 -73t-120.5 -25q-67 0 -121.5 32t-86 96t-31.5 157q0 111 44.5 210t125 160t184.5 61q98 0 201 -50zM465 823l143 90
l24 -35l-151 -119l-48 -4l-121 123l34 35z" />
    <glyph glyph-name="ccaron" unicode="&#x10d;" horiz-adv-x="481" 
d="M452 371h-55l1 85q-42 21 -81 21q-55 0 -99 -37t-69 -98.5t-25 -130.5q0 -80 32.5 -118.5t88.5 -38.5q61 0 138 44l24 -50q-91 -57 -180 -57q-83 0 -134 54.5t-51 161.5q0 92 38 167.5t102.5 119t142.5 43.5q75 0 148 -41zM335 698l140 97l24 -33l-148 -129l-48 -4
l-116 133l34 33z" />
    <glyph glyph-name="Dcaron" unicode="&#x10e;" horiz-adv-x="710" 
d="M400 698q268 0 268 -269q0 -114 -46 -212t-132 -157.5t-201 -59.5h-279l7 44l85 18l91 571l-80 16l7 44l182 5h98zM303 63q86 0 149.5 56t97 142.5t33.5 172.5q0 101 -50 151.5t-147 50.5h-112l-91 -573h120zM399 822l143 90l24 -35l-151 -119l-48 -4l-121 123l34 35z
" />
    <glyph glyph-name="dcaron" unicode="&#x10f;" horiz-adv-x="586" 
d="M563 772l-111 -706l76 -19l-8 -46l-151 -5l25 156q-39 -78 -97.5 -119.5t-114.5 -41.5q-62 0 -101.5 49t-39.5 147q0 95 38.5 175.5t105.5 128t149 47.5q55 0 109 -24l30 188l-79 20l7 44zM290 87.5q41 30.5 74.5 91t47.5 145.5l20 122q-51 29 -100 29q-59 0 -107 -38.5
t-75 -102.5t-27 -138q0 -70 24 -104.5t64 -34.5q38 0 79 30.5zM581 585q43 121 53 192l76 -4q-21 -76 -80 -196z" />
    <glyph glyph-name="Dcroat" unicode="&#x110;" horiz-adv-x="710" 
d="M400 698q268 0 268 -269q0 -114 -46 -212t-132 -157.5t-201 -59.5h-279l7 44l85 18l42 265h-82l9 59h83l39 247l-80 16l7 44l182 5h98zM303 63q86 0 149.5 56t97 142.5t33.5 172.5q0 101 -50 151.5t-147 50.5h-112l-40 -250h149l-9 -59h-149l-42 -264h120z" />
    <glyph glyph-name="dcroat" unicode="&#x111;" horiz-adv-x="588" 
d="M611 599h-75l-84 -533l76 -19l-7 -46l-152 -5l25 156q-39 -78 -97.5 -119.5t-114.5 -41.5q-62 0 -101.5 49t-39.5 147q0 95 38.5 175.5t105.5 128t149 47.5q55 0 109 -24l13 85h-189l7 49h190l9 56l-76 19l6 42l160 7l-20 -124h75zM290 87.5q41 30.5 74.5 91t47.5 145.5
l20 122q-51 29 -100 29q-59 0 -107 -38.5t-75 -102.5t-27 -138q0 -70 24 -104.5t64 -34.5q38 0 79 30.5z" />
    <glyph glyph-name="Emacron" unicode="&#x112;" horiz-adv-x="606" 
d="M594 698l-25 -159h-49v97h-246l-40 -248h241l-10 -61h-241l-41 -264h258l31 102h50l-27 -165h-485l7 44l84 17l91 572l-79 16l7 44l163 5h311zM274 847h256l-9 -60h-256z" />
    <glyph glyph-name="emacron" unicode="&#x113;" horiz-adv-x="504" 
d="M122 227q-1 -8 -1 -24q0 -77 33.5 -114.5t92.5 -37.5q72 0 154 47l21 -47q-96 -60 -191 -60q-84 0 -136 52.5t-52 158.5q0 86 35 163t99.5 124.5t149.5 47.5q72 0 114 -33.5t42 -88.5q0 -58 -48 -100.5t-124.5 -65t-160.5 -22.5h-28zM198 423q-49 -55 -68 -137
q24 -2 37 -2q57 0 112 15t90.5 42.5t35.5 65.5q0 32 -24 51.5t-66 19.5q-68 0 -117 -55zM222 731h256l-9 -60h-256z" />
    <glyph glyph-name="Ebreve" unicode="&#x114;" horiz-adv-x="606" 
d="M594 698l-25 -159h-49v97h-246l-40 -248h241l-10 -61h-241l-41 -264h258l31 102h50l-27 -165h-485l7 44l84 17l91 572l-79 16l7 44l163 5h311zM311.5 789.5q-34.5 28.5 -34.5 78.5q0 7 2 21h48q-2 -38 18.5 -55t53.5 -17t61.5 20t36.5 54l47 -4q-9 -60 -52.5 -93
t-96.5 -33q-49 0 -83.5 28.5z" />
    <glyph glyph-name="ebreve" unicode="&#x115;" horiz-adv-x="504" 
d="M122 227q-1 -8 -1 -24q0 -77 33.5 -114.5t92.5 -37.5q72 0 154 47l21 -47q-96 -60 -191 -60q-84 0 -136 52.5t-52 158.5q0 86 35 163t99.5 124.5t149.5 47.5q72 0 114 -33.5t42 -88.5q0 -58 -48 -100.5t-124.5 -65t-160.5 -22.5h-28zM198 423q-49 -55 -68 -137
q24 -2 37 -2q57 0 112 15t90.5 42.5t35.5 65.5q0 32 -24 51.5t-66 19.5q-68 0 -117 -55zM259 660.5q-33 29.5 -33 81.5q0 7 2 23h50q-2 -36 16.5 -54.5t49.5 -18.5q33 0 59.5 20t35.5 55l48 -3q-9 -64 -51.5 -98.5t-94.5 -34.5q-49 0 -82 29.5z" />
    <glyph glyph-name="Edotaccent" unicode="&#x116;" horiz-adv-x="606" 
d="M594 698l-25 -159h-49v97h-246l-40 -248h241l-10 -61h-241l-41 -264h258l31 102h50l-27 -165h-485l7 44l84 17l91 572l-79 16l7 44l163 5h311zM359 780q-13 14 -13 37q0 27 17 45t43 18q22 0 35 -13.5t13 -36.5q0 -28 -17 -46t-43 -18q-22 0 -35 14z" />
    <glyph glyph-name="edotaccent" unicode="&#x117;" horiz-adv-x="504" 
d="M122 227q-1 -8 -1 -24q0 -77 33.5 -114.5t92.5 -37.5q72 0 154 47l21 -47q-96 -60 -191 -60q-84 0 -136 52.5t-52 158.5q0 86 35 163t99.5 124.5t149.5 47.5q72 0 114 -33.5t42 -88.5q0 -58 -48 -100.5t-124.5 -65t-160.5 -22.5h-28zM198 423q-49 -55 -68 -137
q24 -2 37 -2q57 0 112 15t90.5 42.5t35.5 65.5q0 32 -24 51.5t-66 19.5q-68 0 -117 -55zM304 652q-13 14 -13 37q0 27 17 45t43 18q22 0 35 -13.5t13 -36.5q0 -28 -17 -46t-43 -18q-22 0 -35 14z" />
    <glyph glyph-name="Eogonek" unicode="&#x118;" horiz-adv-x="606" 
d="M569 539h-49v97h-246l-40 -248h241l-10 -61h-241l-41 -264h258l31 102h50l-27 -163l1 -2q-71 -15 -112 -48t-41 -67q0 -23 18.5 -36t52.5 -13q22 0 49 6l-3 -49q-43 -13 -78 -13q-49 0 -76 22t-27 57q0 37 28 75.5t81 65.5h-378l7 44l84 17l91 572l-79 16l7 44l163 5h311
z" />
    <glyph glyph-name="eogonek" unicode="&#x119;" horiz-adv-x="504" 
d="M122 227q-1 -8 -1 -24q0 -77 33.5 -114.5t92.5 -37.5q72 0 154 47l21 -47q-73 -45 -144 -56q-52 -21 -81 -51t-29 -59q0 -23 18.5 -36t52.5 -13q16 0 35 3l-2 -50q-38 -10 -64 -10q-49 0 -76.5 22t-27.5 57q0 33 24.5 69.5t70.5 65.5q-71 10 -113.5 62t-42.5 147
q0 86 35 163t99.5 124.5t149.5 47.5q72 0 114 -33.5t42 -88.5q0 -58 -48 -100.5t-124.5 -65t-160.5 -22.5h-28zM198 423q-49 -55 -68 -137q24 -2 37 -2q57 0 112 15t90.5 42.5t35.5 65.5q0 32 -24 51.5t-66 19.5q-68 0 -117 -55z" />
    <glyph glyph-name="Ecaron" unicode="&#x11a;" horiz-adv-x="606" 
d="M594 698l-25 -159h-49v97h-246l-40 -248h241l-10 -61h-241l-41 -264h258l31 102h50l-27 -165h-485l7 44l84 17l91 572l-79 16l7 44l163 5h311zM401 823l143 90l24 -35l-151 -119l-48 -4l-121 123l34 35z" />
    <glyph glyph-name="ecaron" unicode="&#x11b;" horiz-adv-x="504" 
d="M122 227q-1 -8 -1 -24q0 -77 33.5 -114.5t92.5 -37.5q72 0 154 47l21 -47q-96 -60 -191 -60q-84 0 -136 52.5t-52 158.5q0 86 35 163t99.5 124.5t149.5 47.5q72 0 114 -33.5t42 -88.5q0 -58 -48 -100.5t-124.5 -65t-160.5 -22.5h-28zM198 423q-49 -55 -68 -137
q24 -2 37 -2q57 0 112 15t90.5 42.5t35.5 65.5q0 32 -24 51.5t-66 19.5q-68 0 -117 -55zM346 698l140 97l24 -33l-148 -129l-48 -4l-116 133l34 33z" />
    <glyph glyph-name="Gcircumflex" unicode="&#x11c;" horiz-adv-x="718" 
d="M694 337l-7 -47l-83 -17l-34 -226q-138 -56 -246 -56q-120 0 -187.5 69.5t-67.5 213.5q0 121 47.5 220t132.5 156t195 57q104 0 216 -51l-30 -157h-49l1 114q-69 28 -132 28q-86 0 -153.5 -48.5t-104.5 -132t-37 -185.5q0 -113 46.5 -164.5t134.5 -51.5q69 0 165 33
l27 182l-80 12l7 46zM500 902l122 -123l-34 -35l-119 90l-143 -90l-24 35l151 119z" />
    <glyph glyph-name="gcircumflex" unicode="&#x11d;" horiz-adv-x="572" 
d="M480 528h45l-86 -540q-19 -119 -83.5 -173t-162.5 -54q-77 0 -176 32l18 60q88 -31 157 -31q149 0 175 164l25 161q-39 -76 -97 -116t-113 -40q-62 0 -101.5 49t-39.5 147q0 95 38.5 175.5t105.5 127.5t149 47q66 0 133 -34zM290 87.5q41 30.5 74.5 91t47.5 145.5l20 122
q-51 29 -100 29q-59 0 -107 -38.5t-75 -102.5t-27 -138q0 -70 24 -104.5t64 -34.5q38 0 79 30.5zM390 793l116 -133l-34 -33l-114 98l-140 -98l-24 33l148 129z" />
    <glyph glyph-name="Gbreve" unicode="&#x11e;" horiz-adv-x="718" 
d="M694 337l-7 -47l-83 -17l-34 -226q-138 -56 -246 -56q-120 0 -187.5 69.5t-67.5 213.5q0 121 47.5 220t132.5 156t195 57q104 0 216 -51l-30 -157h-49l1 114q-69 28 -132 28q-86 0 -153.5 -48.5t-104.5 -132t-37 -185.5q0 -113 46.5 -164.5t134.5 -51.5q69 0 165 33
l27 182l-80 12l7 46zM379.5 788.5q-34.5 28.5 -34.5 78.5q0 7 2 21h48q-2 -38 18.5 -55t53.5 -17t61.5 20t36.5 54l47 -4q-9 -60 -52.5 -93t-96.5 -33q-49 0 -83.5 28.5z" />
    <glyph glyph-name="gbreve" unicode="&#x11f;" horiz-adv-x="572" 
d="M480 528h45l-86 -540q-19 -119 -83.5 -173t-162.5 -54q-77 0 -176 32l18 60q88 -31 157 -31q149 0 175 164l25 161q-39 -76 -97 -116t-113 -40q-62 0 -101.5 49t-39.5 147q0 95 38.5 175.5t105.5 127.5t149 47q66 0 133 -34zM290 87.5q41 30.5 74.5 91t47.5 145.5l20 122
q-51 29 -100 29q-59 0 -107 -38.5t-75 -102.5t-27 -138q0 -70 24 -104.5t64 -34.5q38 0 79 30.5zM267 660.5q-33 29.5 -33 81.5q0 7 2 23h50q-2 -36 16.5 -54.5t49.5 -18.5q33 0 59.5 20t35.5 55l48 -3q-9 -64 -51.5 -98.5t-94.5 -34.5q-49 0 -82 29.5z" />
    <glyph glyph-name="Gdotaccent" unicode="&#x120;" horiz-adv-x="718" 
d="M694 337l-7 -47l-83 -17l-34 -226q-138 -56 -246 -56q-120 0 -187.5 69.5t-67.5 213.5q0 121 47.5 220t132.5 156t195 57q104 0 216 -51l-30 -157h-49l1 114q-69 28 -132 28q-86 0 -153.5 -48.5t-104.5 -132t-37 -185.5q0 -113 46.5 -164.5t134.5 -51.5q69 0 165 33
l27 182l-80 12l7 46zM427 779q-13 14 -13 37q0 27 17 45t43 18q22 0 35 -13.5t13 -36.5q0 -28 -17 -46t-43 -18q-22 0 -35 14z" />
    <glyph glyph-name="gdotaccent" unicode="&#x121;" horiz-adv-x="572" 
d="M480 528h45l-86 -540q-19 -119 -83.5 -173t-162.5 -54q-77 0 -176 32l18 60q88 -31 157 -31q149 0 175 164l25 161q-39 -76 -97 -116t-113 -40q-62 0 -101.5 49t-39.5 147q0 95 38.5 175.5t105.5 127.5t149 47q66 0 133 -34zM290 87.5q41 30.5 74.5 91t47.5 145.5l20 122
q-51 29 -100 29q-59 0 -107 -38.5t-75 -102.5t-27 -138q0 -70 24 -104.5t64 -34.5q38 0 79 30.5zM312 652q-13 14 -13 37q0 27 17 45t43 18q22 0 35 -13.5t13 -36.5q0 -28 -17 -46t-43 -18q-22 0 -35 14z" />
    <glyph glyph-name="uni0122" unicode="&#x122;" horiz-adv-x="718" 
d="M694 337l-7 -47l-83 -17l-34 -226q-138 -56 -246 -56q-120 0 -187.5 69.5t-67.5 213.5q0 121 47.5 220t132.5 156t195 57q104 0 216 -51l-30 -157h-49l1 114q-69 28 -132 28q-86 0 -153.5 -48.5t-104.5 -132t-37 -185.5q0 -113 46.5 -164.5t134.5 -51.5q69 0 165 33
l27 182l-80 12l7 46zM233 -254q45 60 45 85q0 7 -6 20.5t-6 26.5q0 25 15.5 39t35.5 14q19 0 31.5 -12t12.5 -35q0 -60 -100 -161z" />
    <glyph glyph-name="uni0123" unicode="&#x123;" horiz-adv-x="572" 
d="M480 528h45l-86 -540q-19 -119 -83.5 -173t-162.5 -54q-77 0 -176 32l18 60q88 -31 157 -31q149 0 175 164l25 161q-39 -76 -97 -116t-113 -40q-62 0 -101.5 49t-39.5 147q0 95 38.5 175.5t105.5 127.5t149 47q66 0 133 -34zM290 87.5q41 30.5 74.5 91t47.5 145.5l20 122
q-51 29 -100 29q-59 0 -107 -38.5t-75 -102.5t-27 -138q0 -70 24 -104.5t64 -34.5q38 0 79 30.5zM431 822q-45 -62 -45 -84q0 -7 2.5 -12.5t3.5 -7.5q7 -16 7 -28q0 -24 -16 -38.5t-36 -14.5q-18 0 -31 12t-13 35q0 28 24.5 69t75.5 92z" />
    <glyph glyph-name="Hcircumflex" unicode="&#x124;" horiz-adv-x="769" 
d="M787 698l-7 -44l-87 -20l-90 -571l80 -19l-7 -44h-246l6 44l85 17l42 263h-338l-42 -261l81 -19l-7 -44h-247l7 44l85 17l91 572l-80 16l7 44l247 5l-7 -44l-86 -20l-40 -247h338l40 246l-80 16l7 44zM508 903l122 -123l-34 -35l-119 90l-143 -90l-24 35l151 119z" />
    <glyph glyph-name="hcircumflex" unicode="&#x125;" horiz-adv-x="591" 
d="M464 65l75 -18l-7 -46l-160 -4l57 348q3 21 3 38q0 44 -18.5 66.5t-52.5 22.5q-39 0 -80 -29.5t-74 -89.5t-47 -146l-33 -207h-80l112 705l-76 15l7 46l159 6l-65 -383q40 74 96.5 111t112.5 37q55 0 88 -35t33 -99q0 -19 -3 -42zM242 955l122 -123l-34 -35l-119 90
l-143 -90l-24 35l151 119z" />
    <glyph glyph-name="Hbar" unicode="&#x126;" horiz-adv-x="769" 
d="M787 698l-7 -44l-87 -20l-15 -97h84l-8 -45h-83l-68 -429l80 -19l-7 -44h-246l6 44l85 17l41 258h-338l-41 -256l81 -19l-7 -44h-247l7 44l85 17l68 431h-82l7 45h83l15 96l-80 16l7 44l247 5l-7 -44l-86 -20l-15 -97h337l16 96l-80 16l7 44zM233 380h338l18 112h-338z
" />
    <glyph glyph-name="hbar" unicode="&#x127;" horiz-adv-x="591" 
d="M463 65l76 -18l-7 -46l-159 -4l56 348q3 21 3 38q0 44 -18.5 66.5t-52.5 22.5q-39 0 -80 -29.5t-74 -89.5t-47 -146l-33 -207h-80l95 599h-77l7 49h78l9 57l-76 15l7 46l159 6l-21 -124h181l-8 -49h-181l-36 -210q40 74 96.5 111t112.5 37q55 0 88 -35t33 -99
q0 -19 -3 -42z" />
    <glyph glyph-name="Itilde" unicode="&#x128;" horiz-adv-x="349" 
d="M367 698l-7 -44l-86 -20l-91 -571l81 -19l-7 -44h-247l7 44l85 17l90 573l-79 15l7 44zM100 795q24 44 48.5 64t52.5 20q18 0 33.5 -5.5t38.5 -17.5q18 -9 30.5 -14t24.5 -5q33 0 65 45l33 -21q-44 -84 -103 -84q-17 0 -31.5 5.5t-34.5 16.5q-22 11 -34 15.5t-26 4.5
q-17 0 -31.5 -10.5t-32.5 -34.5z" />
    <glyph glyph-name="itilde" unicode="&#x129;" horiz-adv-x="286" 
d="M226 532l-75 -467l76 -19l-7 -45l-159 -4l74 466l-75 18l7 45zM233.5 655.5q-12.5 6.5 -30.5 20.5q-13 11 -24 17t-25 6q-16 0 -29 -11t-33 -38l-33 20q26 49 48 70.5t50 21.5q18 0 31.5 -7t29.5 -20q14 -11 25.5 -17t24.5 -6q16 0 29.5 11t32.5 38l33 -19
q-25 -49 -47.5 -71t-51.5 -22q-18 0 -30.5 6.5z" />
    <glyph glyph-name="Imacron" unicode="&#x12a;" horiz-adv-x="349" 
d="M367 698l-7 -44l-86 -20l-91 -571l81 -19l-7 -44h-247l7 44l85 17l90 573l-79 15l7 44zM136 847h256l-9 -60h-256z" />
    <glyph glyph-name="imacron" unicode="&#x12b;" horiz-adv-x="286" 
d="M90 671l8 60h227l-8 -60h-227zM67 526l159 6l-75 -467l76 -19l-7 -45l-159 -4l74 466l-75 18z" />
    <glyph glyph-name="Ibreve" unicode="&#x12c;" horiz-adv-x="349" 
d="M367 698l-7 -44l-86 -20l-91 -571l81 -19l-7 -44h-247l7 44l85 17l90 573l-79 15l7 44zM173.5 789.5q-34.5 28.5 -34.5 78.5q0 7 2 21h48q-2 -38 18.5 -55t53.5 -17t61.5 20t36.5 54l47 -4q-9 -60 -52.5 -93t-96.5 -33q-49 0 -83.5 28.5z" />
    <glyph glyph-name="ibreve" unicode="&#x12d;" horiz-adv-x="286" 
d="M226 532l-75 -467l76 -19l-7 -45l-159 -4l74 466l-75 18l7 45zM124 660.5q-33 29.5 -33 81.5q0 7 2 23h50q-2 -36 16.5 -54.5t49.5 -18.5q33 0 59.5 20t35.5 55l48 -3q-9 -64 -51.5 -98.5t-94.5 -34.5q-49 0 -82 29.5z" />
    <glyph glyph-name="Iogonek" unicode="&#x12e;" horiz-adv-x="349" 
d="M360 654l-86 -20l-91 -571l81 -19l-7 -44h-39q-58 -20 -91 -52t-33 -63q0 -23 18.5 -36t52.5 -13q16 0 35 3l-2 -50q-38 -10 -64 -10q-49 0 -76.5 22t-27.5 57q0 36 28 74.5t79 67.5h-127l7 44l85 17l90 573l-79 15l7 44l247 5z" />
    <glyph glyph-name="iogonek" unicode="&#x12f;" horiz-adv-x="286" 
d="M251 738.5q13 -13.5 13 -36.5q0 -28 -17 -46t-43 -18q-22 0 -35 14t-13 37q0 27 17 45t43 18q22 0 35 -13.5zM226 532l-74 -468l75 -18l-7 -45l-69 -2q-47 -21 -73 -51t-26 -61q0 -51 70 -51q16 0 35 3l-2 -50q-38 -10 -65 -10q-48 0 -75.5 22t-27.5 61q0 34 23 70.5
t66 64.5h-15l74 466l-75 18l7 45z" />
    <glyph glyph-name="Idotaccent" unicode="&#x130;" horiz-adv-x="349" 
d="M367 698l-7 -44l-86 -20l-91 -571l81 -19l-7 -44h-247l7 44l85 17l90 573l-79 15l7 44zM221 780q-13 14 -13 37q0 27 17 45t43 18q22 0 35 -13.5t13 -36.5q0 -28 -17 -46t-43 -18q-22 0 -35 14z" />
    <glyph glyph-name="dotlessi" unicode="&#x131;" horiz-adv-x="286" 
d="M226 532l-75 -467l76 -19l-7 -45l-159 -4l74 466l-75 18l7 45z" />
    <glyph glyph-name="IJ" unicode="&#x132;" horiz-adv-x="681" 
d="M367 698l-7 -44l-86 -20l-91 -571l81 -19l-7 -44h-247l7 44l85 17l90 573l-79 15l7 44zM711 698l-7 -44l-87 -20l-94 -591q-28 -189 -192 -189q-27 0 -55 6l13 61q17 -3 34 -3q63 0 86 32t30 77l97 606l-85 16l7 44z" />
    <glyph glyph-name="ij" unicode="&#x133;" horiz-adv-x="561" 
d="M226 532l-75 -467l76 -19l-7 -45l-159 -4l74 466l-75 18l7 45zM169 652q-13 14 -13 37q0 27 17 45t43 18q22 0 35 -13.5t13 -36.5q0 -28 -17 -46t-43 -18q-22 0 -35 14zM356 526l158 6l-90 -571q-17 -107 -65 -153.5t-129 -46.5q-22 0 -52 5l13 58q22 -2 32 -2
q55 0 81.5 28t37.5 94l81 521l-74 16zM453 652q-13 14 -13 37q0 27 17 45t43 18q22 0 35 -13.5t13 -36.5q0 -28 -17 -46t-43 -18q-22 0 -35 14z" />
    <glyph glyph-name="Jcircumflex" unicode="&#x134;" horiz-adv-x="332" 
d="M362 698l-7 -44l-87 -20l-94 -591q-28 -189 -192 -189q-27 0 -55 6l13 61q17 -3 34 -3q63 0 86 32t30 77l97 606l-85 16l7 44zM289 903l122 -123l-34 -35l-119 90l-143 -90l-24 35l151 119z" />
    <glyph glyph-name="jcircumflex" unicode="&#x135;" horiz-adv-x="272" 
d="M187 789l47 4l89 -139l-35 -27l-83 95l-118 -95l-27 32zM60 481l7 45l158 6l-90 -571q-17 -107 -65 -153.5t-129 -46.5q-22 0 -52 5l13 58q22 -2 32 -2q55 0 81.5 28t37.5 94l81 521z" />
    <glyph glyph-name="uni0136" unicode="&#x136;" horiz-adv-x="688" 
d="M697 654l-82 -19l-215 -275l156 -299l79 -17l-7 -44h-134l-163 326h-106l-42 -263l79 -19l-6 -44h-246l7 44l85 18l91 571l-80 15l7 45l246 5l-7 -44l-85 -19l-39 -246h107l191 249l-71 11l6 44l235 5zM224 -254q45 60 45 85q0 7 -6 20.5t-6 26.5q0 25 15.5 39t35.5 14
q19 0 31.5 -12t12.5 -35q0 -60 -100 -161z" />
    <glyph glyph-name="uni0137" unicode="&#x137;" horiz-adv-x="543" 
d="M541 487l-71 -14l-132 -174l92 -238l70 -17l-6 -44h-125l-96 264h-105l-42 -264h-79l111 702l-76 19l7 45l160 6l-72 -451h102l113 150l-63 10l7 44l212 7zM131 -254q45 60 45 85q0 7 -6 20.5t-6 26.5q0 25 15.5 39t35.5 14q19 0 31.5 -12t12.5 -35q0 -60 -100 -161z" />
    <glyph glyph-name="kgreenlandic" unicode="&#x138;" horiz-adv-x="558" 
d="M556 487l-72 -14l-132 -176l92 -236l71 -17l-7 -44h-124l-96 259h-106l-41 -259h-80l74 462l-76 19l7 45l159 6l-35 -216h102l115 155l-63 10l7 44l212 7z" />
    <glyph glyph-name="Lacute" unicode="&#x139;" horiz-adv-x="534" 
d="M409 63l34 117h49l-28 -180h-454l7 44l85 17l91 572l-80 16l7 44l256 5l-6 -44l-96 -21l-91 -570h226zM383 846l-221 -96l-20 41l213 123z" />
    <glyph glyph-name="lacute" unicode="&#x13a;" horiz-adv-x="272" 
d="M90 766l159 6l-112 -707l76 -18l-7 -46l-160 -4l113 705l-76 18zM333 891l-221 -96l-20 41l213 123z" />
    <glyph glyph-name="uni013B" unicode="&#x13b;" horiz-adv-x="534" 
d="M409 63l34 117h49l-28 -180h-454l7 44l85 17l91 572l-80 16l7 44l256 5l-6 -44l-96 -21l-91 -570h226zM169 -254q45 60 45 85q0 7 -6 20.5t-6 26.5q0 25 15.5 39t35.5 14q19 0 31.5 -12t12.5 -35q0 -60 -100 -161z" />
    <glyph glyph-name="uni013C" unicode="&#x13c;" horiz-adv-x="272" 
d="M90 766l159 6l-112 -707l76 -18l-7 -46l-160 -4l113 705l-76 18zM-3 -254q45 60 45 85q0 7 -6 20.5t-6 26.5q0 25 15.5 39t35.5 14q19 0 31.5 -12t12.5 -35q0 -60 -100 -161z" />
    <glyph glyph-name="Lcaron" unicode="&#x13d;" horiz-adv-x="534" 
d="M409 63l34 117h49l-28 -180h-454l7 44l85 17l91 572l-80 16l7 44l256 5l-6 -44l-96 -21l-91 -570h226zM394 515q43 121 53 192l76 -4q-21 -76 -80 -196z" />
    <glyph glyph-name="lcaron" unicode="&#x13e;" horiz-adv-x="272" 
d="M90 766l159 6l-112 -707l76 -18l-7 -46l-160 -4l113 705l-76 18zM267 585q43 121 53 192l76 -4q-21 -76 -80 -196z" />
    <glyph glyph-name="Ldot" unicode="&#x13f;" horiz-adv-x="537" 
d="M409 63l34 117h49l-28 -180h-454l7 44l85 17l91 572l-80 16l7 44l256 5l-6 -44l-96 -21l-91 -570h226zM423.5 349q-12.5 13 -12.5 34q0 26 17 42.5t42 16.5q21 0 34 -13t13 -35q0 -26 -17 -42t-42 -16q-22 0 -34.5 13z" />
    <glyph glyph-name="ldot" unicode="&#x140;" horiz-adv-x="324" 
d="M90 766l159 6l-112 -707l76 -18l-7 -46l-160 -4l113 705l-76 18zM265 335q-13 14 -13 37q0 27 17 45t43 18q22 0 35 -13.5t13 -36.5q0 -28 -17 -46t-43 -18q-22 0 -35 14z" />
    <glyph glyph-name="Lslash" unicode="&#x141;" horiz-adv-x="556" 
d="M430 63l35 117h49l-30 -180h-455l7 44l86 17l35 222l-85 -46l-16 45l111 60l46 291l-81 16l7 44l258 5l-7 -44l-96 -21l-39 -243l171 92l15 -45l-195 -106l-43 -268h227z" />
    <glyph glyph-name="lslash" unicode="&#x142;" horiz-adv-x="314" 
d="M309 434l-98 -47l-52 -321l77 -19l-8 -46l-159 -4l55 349l-75 -36l-15 50l100 47l47 295l-75 18l6 46l160 6l-52 -324l75 35z" />
    <glyph glyph-name="Nacute" unicode="&#x143;" horiz-adv-x="763" 
d="M559 693l232 5l-6 -44l-85 -20l-101 -634h-86l-259 591l-84 -528l79 -19l-7 -44h-232l7 44l85 18l91 571l-80 16l7 44l176 5l254 -581l82 516l-80 16zM597 846l-221 -96l-20 41l213 123z" />
    <glyph glyph-name="nacute" unicode="&#x144;" horiz-adv-x="605" 
d="M478 65l76 -18l-8 -46l-159 -4l56 348q4 28 4 40q0 43 -19 65t-52 22q-39 0 -80.5 -29.5t-74.5 -89t-47 -146.5l-33 -207h-80l74 463l-75 18l7 45l155 6l-29 -152q41 79 98.5 118t114.5 39q56 0 89.5 -34.5t33.5 -97.5q0 -23 -4 -44zM505 741l-197 -122l-31 43l185 143z
" />
    <glyph glyph-name="uni0145" unicode="&#x145;" horiz-adv-x="763" 
d="M559 693l232 5l-6 -44l-85 -20l-101 -634h-86l-259 591l-84 -528l79 -19l-7 -44h-232l7 44l85 18l91 571l-80 16l7 44l176 5l254 -581l82 516l-80 16zM249 -254q45 60 45 85q0 7 -6 20.5t-6 26.5q0 25 15.5 39t35.5 14q19 0 31.5 -12t12.5 -35q0 -60 -100 -161z" />
    <glyph glyph-name="uni0146" unicode="&#x146;" horiz-adv-x="605" 
d="M478 65l76 -18l-8 -46l-159 -4l56 348q4 28 4 40q0 43 -19 65t-52 22q-39 0 -80.5 -29.5t-74.5 -89t-47 -146.5l-33 -207h-80l74 463l-75 18l7 45l155 6l-29 -152q41 79 98.5 118t114.5 39q56 0 89.5 -34.5t33.5 -97.5q0 -23 -4 -44zM161 -254q45 60 45 85q0 7 -6 20.5
t-6 26.5q0 25 15.5 39t35.5 14q19 0 31.5 -12t12.5 -35q0 -60 -100 -161z" />
    <glyph glyph-name="Ncaron" unicode="&#x147;" horiz-adv-x="763" 
d="M559 693l232 5l-6 -44l-85 -20l-101 -634h-86l-259 591l-84 -528l79 -19l-7 -44h-232l7 44l85 18l91 571l-80 16l7 44l176 5l254 -581l82 516l-80 16zM478 823l143 90l24 -35l-151 -119l-48 -4l-121 123l34 35z" />
    <glyph glyph-name="ncaron" unicode="&#x148;" horiz-adv-x="605" 
d="M478 65l76 -18l-8 -46l-159 -4l56 348q4 28 4 40q0 43 -19 65t-52 22q-39 0 -80.5 -29.5t-74.5 -89t-47 -146.5l-33 -207h-80l74 463l-75 18l7 45l155 6l-29 -152q41 79 98.5 118t114.5 39q56 0 89.5 -34.5t33.5 -97.5q0 -23 -4 -44zM370 698l140 97l24 -33l-148 -129
l-48 -4l-116 133l34 33z" />
    <glyph glyph-name="napostrophe" unicode="&#x149;" horiz-adv-x="762" 
d="M213.5 767.5q12.5 -12.5 12.5 -35.5q0 -31 -28.5 -81.5t-79.5 -103.5l-27 24q55 79 55 108q0 8 -5 20q-6 16 -6 28q0 24 14 38.5t34 14.5q18 0 30.5 -12.5zM634 65l76 -18l-7 -46l-160 -4l56 348q4 28 4 40q0 43 -19 65t-52 22q-39 0 -80.5 -29.5t-74.5 -89.5t-47 -146
l-32 -207h-80l74 462l-76 19l7 45l155 6l-29 -152q41 79 99 118t115 39q55 0 88.5 -34.5t33.5 -97.5q0 -23 -4 -44z" />
    <glyph glyph-name="Eng" unicode="&#x14a;" horiz-adv-x="762" 
d="M791 698l-6 -44l-85 -20l-107 -673q-17 -103 -63 -151.5t-129 -48.5q-22 0 -54 5l13 58q11 -2 32 -2q55 0 83 28t38 95l8 50l-267 596l-84 -528l79 -19l-7 -44h-232l7 44l85 18l91 571l-80 16l7 44l175 5l256 -574l81 509l-80 16l7 44z" />
    <glyph glyph-name="eng" unicode="&#x14b;" horiz-adv-x="598" 
d="M496 502q33 -35 33 -99q0 -12 -4 -42l-64 -400q-17 -107 -65 -153.5t-129 -46.5q-22 0 -52 5l13 58q22 -2 32 -2q55 0 81.5 27.5t37.5 94.5l64 401q4 28 4 40q0 43 -19 65t-52 22q-39 0 -80.5 -29.5t-74.5 -89t-47 -146.5l-33 -207h-80l73 462l-74 19l7 45l155 6
l-29 -152q41 79 99 118t116 39q55 0 88 -35z" />
    <glyph glyph-name="Omacron" unicode="&#x14c;" horiz-adv-x="726" 
d="M135.5 61.5q-66.5 70.5 -66.5 207.5q0 109 43 210t126 164.5t197 63.5q116 0 183.5 -70.5t67.5 -205.5q0 -107 -43 -208.5t-126.5 -166.5t-197.5 -65q-117 0 -183.5 70.5zM471.5 115q62.5 57 95.5 143.5t33 173.5q0 104 -47.5 156.5t-125.5 52.5q-83 0 -145 -56.5
t-94.5 -143.5t-32.5 -173q0 -105 46.5 -157.5t124.5 -52.5q83 0 145.5 57zM345 847h256l-9 -60h-256z" />
    <glyph glyph-name="omacron" unicode="&#x14d;" horiz-adv-x="557" 
d="M462.5 484.5q50.5 -52.5 50.5 -161.5q0 -86 -32 -162t-95.5 -123t-152.5 -47q-88 0 -138 52.5t-50 162.5q0 85 32 161t95 123t152 47q88 0 138.5 -52.5zM211 435q-42 -41 -63 -103t-21 -125q0 -75 29.5 -115t88.5 -40t101 41t63.5 103.5t21.5 125.5q0 75 -29.5 114.5
t-88.5 39.5q-60 0 -102 -41zM230 731h256l-9 -60h-256z" />
    <glyph glyph-name="Obreve" unicode="&#x14e;" horiz-adv-x="726" 
d="M135.5 61.5q-66.5 70.5 -66.5 207.5q0 109 43 210t126 164.5t197 63.5q116 0 183.5 -70.5t67.5 -205.5q0 -107 -43 -208.5t-126.5 -166.5t-197.5 -65q-117 0 -183.5 70.5zM471.5 115q62.5 57 95.5 143.5t33 173.5q0 104 -47.5 156.5t-125.5 52.5q-83 0 -145 -56.5
t-94.5 -143.5t-32.5 -173q0 -105 46.5 -157.5t124.5 -52.5q83 0 145.5 57zM381.5 789.5q-34.5 28.5 -34.5 78.5q0 7 2 21h48q-2 -38 18.5 -55t53.5 -17t61.5 20t36.5 54l47 -4q-9 -60 -52.5 -93t-96.5 -33q-49 0 -83.5 28.5z" />
    <glyph glyph-name="obreve" unicode="&#x14f;" horiz-adv-x="557" 
d="M462.5 484.5q50.5 -52.5 50.5 -161.5q0 -86 -32 -162t-95.5 -123t-152.5 -47q-88 0 -138 52.5t-50 162.5q0 85 32 161t95 123t152 47q88 0 138.5 -52.5zM211 435q-42 -41 -63 -103t-21 -125q0 -75 29.5 -115t88.5 -40t101 41t63.5 103.5t21.5 125.5q0 75 -29.5 114.5
t-88.5 39.5q-60 0 -102 -41zM266 660.5q-33 29.5 -33 81.5q0 7 2 23h50q-2 -36 16.5 -54.5t49.5 -18.5q33 0 59.5 20t35.5 55l48 -3q-9 -64 -51.5 -98.5t-94.5 -34.5q-49 0 -82 29.5z" />
    <glyph glyph-name="Ohungarumlaut" unicode="&#x150;" horiz-adv-x="726" 
d="M135.5 61.5q-66.5 70.5 -66.5 207.5q0 109 43 210t126 164.5t197 63.5q116 0 183.5 -70.5t67.5 -205.5q0 -107 -43 -208.5t-126.5 -166.5t-197.5 -65q-117 0 -183.5 70.5zM471.5 115q62.5 57 95.5 143.5t33 173.5q0 104 -47.5 156.5t-125.5 52.5q-83 0 -145 -56.5
t-94.5 -143.5t-32.5 -173q0 -105 46.5 -157.5t124.5 -52.5q83 0 145.5 57zM482 903l-91 -159l-44 20l74 167zM625 901l-96 -157l-43 21l78 166z" />
    <glyph glyph-name="ohungarumlaut" unicode="&#x151;" horiz-adv-x="557" 
d="M462.5 484.5q50.5 -52.5 50.5 -161.5q0 -86 -32 -162t-95.5 -123t-152.5 -47q-88 0 -138 52.5t-50 162.5q0 85 32 161t95 123t152 47q88 0 138.5 -52.5zM211 435q-42 -41 -63 -103t-21 -125q0 -75 29.5 -115t88.5 -40t101 41t63.5 103.5t21.5 125.5q0 75 -29.5 114.5
t-88.5 39.5q-60 0 -102 -41zM370 778l-91 -159l-44 20l74 167zM513 776l-96 -157l-43 21l78 166z" />
    <glyph glyph-name="OE" unicode="&#x152;" horiz-adv-x="917" 
d="M880 539h-49v97h-247l-39 -240h242l-10 -61h-241l-42 -272h258l31 102h49l-26 -165h-353l-53 -1l-72 -2q-123 0 -190.5 69t-67.5 209q0 114 45 211.5t130 156t201 58.5l79 -2l67 -1h313zM502 631q-29 4 -68 4q-82 0 -145.5 -50t-98 -133t-34.5 -177q0 -107 47.5 -159.5
t128.5 -52.5q46 0 81 4z" />
    <glyph glyph-name="oe" unicode="&#x153;" horiz-adv-x="881" 
d="M502 221v-16q0 -76 34 -114.5t92 -38.5q66 0 153 48l24 -51q-104 -58 -194 -58q-62 0 -105.5 29t-62.5 87q-35 -54 -89 -85t-123 -31q-87 0 -136.5 53t-49.5 163q0 86 31 161.5t92.5 122t147.5 46.5q65 0 110 -30t63 -91q37 56 92 88.5t125 32.5q73 0 115.5 -34t42.5 -89
q0 -58 -48.5 -102t-125 -68t-157.5 -24zM574.5 418q-49.5 -60 -65.5 -145q18 -2 30 -2q56 0 113 17t94 48t37 71q0 31 -24 51t-65 20q-70 0 -119.5 -60zM345 92.5q42 40.5 63.5 103t21.5 126.5q0 76 -29 115t-87 39q-61 0 -103 -40t-63 -101.5t-21 -125.5q0 -77 29.5 -117
t87.5 -40q59 0 101 40.5z" />
    <glyph glyph-name="Racute" unicode="&#x154;" horiz-adv-x="638" 
d="M524 62l59 -18l-7 -44h-118l-60 199q-16 50 -31 72.5t-35.5 29t-60.5 5.5h-48l-40 -243l96 -19l-6 -44h-263l7 44l85 18l91 571l-80 16l7 44l168 5h104q98 0 146.5 -38.5t48.5 -116.5q0 -85 -53 -144t-141 -76q28 -11 45.5 -37t32.5 -70zM232 367h68q61 0 107 22
t70.5 60.5t24.5 85.5q0 65 -38.5 83t-89.5 18h-100zM513 845l-221 -96l-20 41l213 123z" />
    <glyph glyph-name="racute" unicode="&#x155;" horiz-adv-x="407" 
d="M441 531l-25 -147h-51l2 89q-38 -2 -77.5 -34t-71 -91.5t-44.5 -140.5l-33 -207h-80l74 463l-75 18l7 45l155 6l-29 -151q38 73 95.5 114.5t113.5 41.5q25 0 39 -6zM424 741l-197 -122l-31 43l185 143z" />
    <glyph glyph-name="uni0156" unicode="&#x156;" horiz-adv-x="638" 
d="M524 62l59 -18l-7 -44h-118l-60 199q-16 50 -31 72.5t-35.5 29t-60.5 5.5h-48l-40 -243l96 -19l-6 -44h-263l7 44l85 18l91 571l-80 16l7 44l168 5h104q98 0 146.5 -38.5t48.5 -116.5q0 -85 -53 -144t-141 -76q28 -11 45.5 -37t32.5 -70zM232 367h68q61 0 107 22
t70.5 60.5t24.5 85.5q0 65 -38.5 83t-89.5 18h-100zM204 -254q45 60 45 85q0 7 -6 20.5t-6 26.5q0 25 15.5 39t35.5 14q19 0 31.5 -12t12.5 -35q0 -60 -100 -161z" />
    <glyph glyph-name="uni0157" unicode="&#x157;" horiz-adv-x="407" 
d="M441 531l-25 -147h-51l2 89q-38 -2 -77.5 -34t-71 -91.5t-44.5 -140.5l-33 -207h-80l74 463l-75 18l7 45l155 6l-29 -151q38 73 95.5 114.5t113.5 41.5q25 0 39 -6zM11 -254q45 60 45 85q0 7 -6 20.5t-6 26.5q0 25 15.5 39t35.5 14q19 0 31.5 -12t12.5 -35
q0 -60 -100 -161z" />
    <glyph glyph-name="Rcaron" unicode="&#x158;" horiz-adv-x="638" 
d="M524 62l59 -18l-7 -44h-118l-60 199q-16 50 -31 72.5t-35.5 29t-60.5 5.5h-48l-40 -243l96 -19l-6 -44h-263l7 44l85 18l91 571l-80 16l7 44l168 5h104q98 0 146.5 -38.5t48.5 -116.5q0 -85 -53 -144t-141 -76q28 -11 45.5 -37t32.5 -70zM232 367h68q61 0 107 22
t70.5 60.5t24.5 85.5q0 65 -38.5 83t-89.5 18h-100zM394 822l143 90l24 -35l-151 -119l-48 -4l-121 123l34 35z" />
    <glyph glyph-name="rcaron" unicode="&#x159;" horiz-adv-x="407" 
d="M441 531l-25 -147h-51l2 89q-38 -2 -77.5 -34t-71 -91.5t-44.5 -140.5l-33 -207h-80l74 463l-75 18l7 45l155 6l-29 -151q38 73 95.5 114.5t113.5 41.5q25 0 39 -6zM290 698l140 97l24 -33l-148 -129l-48 -4l-116 133l34 33z" />
    <glyph glyph-name="Sacute" unicode="&#x15a;" horiz-adv-x="581" 
d="M526 510h-49l5 112q-53 22 -112 22q-71 0 -121 -33.5t-50 -92.5q0 -33 17.5 -55t43.5 -35.5t71 -30.5q55 -21 90 -40t59 -54.5t24 -91.5q0 -70 -37.5 -119.5t-100.5 -75t-138 -25.5q-100 0 -192 42l30 165h49l-3 -115q60 -27 126 -27q78 0 131 36.5t53 101.5
q0 36 -18 59.5t-44.5 37.5t-74.5 33q-54 21 -87.5 39.5t-56.5 52t-23 86.5q0 65 34 111t92 70t128 24q96 0 185 -42zM511 846l-221 -96l-20 41l213 123z" />
    <glyph glyph-name="sacute" unicode="&#x15b;" horiz-adv-x="475" 
d="M196.5 456q-36.5 -24 -37.5 -63q0 -33 26 -51.5t82 -41.5q46 -19 74 -34t48 -42t20 -67q0 -50 -30.5 -87.5t-84.5 -58t-122 -20.5q-76 0 -158 22l25 139h52l-4 -89q39 -13 89 -13q64 0 107 25.5t44 69.5q0 36 -27 56t-83 41q-46 18 -73 32.5t-46 40.5t-19 66q0 72 59 114
t150 42q73 0 157 -28l-21 -118h-50l-3 76q-40 13 -82 13q-56 0 -92.5 -24zM435 741l-197 -122l-31 43l185 143z" />
    <glyph glyph-name="Scircumflex" unicode="&#x15c;" horiz-adv-x="581" 
d="M526 510h-49l5 112q-53 22 -112 22q-71 0 -121 -33.5t-50 -92.5q0 -33 17.5 -55t43.5 -35.5t71 -30.5q55 -21 90 -40t59 -54.5t24 -91.5q0 -70 -37.5 -119.5t-100.5 -75t-138 -25.5q-100 0 -192 42l30 165h49l-3 -115q60 -27 126 -27q78 0 131 36.5t53 101.5
q0 36 -18 59.5t-44.5 37.5t-74.5 33q-54 21 -87.5 39.5t-56.5 52t-23 86.5q0 65 34 111t92 70t128 24q96 0 185 -42zM423 903l122 -123l-34 -35l-119 90l-143 -90l-24 35l151 119z" />
    <glyph glyph-name="scircumflex" unicode="&#x15d;" horiz-adv-x="475" 
d="M196.5 456q-36.5 -24 -37.5 -63q0 -33 26 -51.5t82 -41.5q46 -19 74 -34t48 -42t20 -67q0 -50 -30.5 -87.5t-84.5 -58t-122 -20.5q-76 0 -158 22l25 139h52l-4 -89q39 -13 89 -13q64 0 107 25.5t44 69.5q0 36 -27 56t-83 41q-46 18 -73 32.5t-46 40.5t-19 66q0 72 59 114
t150 42q73 0 157 -28l-21 -118h-50l-3 76q-40 13 -82 13q-56 0 -92.5 -24zM337 793l116 -133l-34 -33l-114 98l-140 -98l-24 33l148 129z" />
    <glyph glyph-name="Scedilla" unicode="&#x15e;" horiz-adv-x="581" 
d="M526 510h-49l5 112q-53 22 -112 22q-71 0 -121 -33.5t-50 -92.5q0 -33 17.5 -55t43.5 -35.5t71 -30.5q55 -21 90 -40t59 -54.5t24 -91.5q0 -90 -61.5 -146.5t-158.5 -69.5l-8 -53q46 -5 67 -23.5t21 -49.5q0 -46 -36.5 -74.5t-91.5 -28.5q-44 0 -87 21l23 43
q32 -15 67 -15q28 0 46.5 11.5t18.5 32.5q0 41 -89 44l18 88h-5q-100 0 -192 42l30 165h49l-3 -115q60 -27 126 -27q78 0 131 36.5t53 101.5q0 36 -18 59.5t-44.5 37.5t-74.5 33q-54 21 -87.5 39.5t-56.5 52t-23 86.5q0 65 34 111t92 70t128 24q96 0 185 -42z" />
    <glyph glyph-name="scedilla" unicode="&#x15f;" horiz-adv-x="475" 
d="M196.5 456q-36.5 -24 -37.5 -63q0 -33 26 -51.5t82 -41.5q46 -19 74 -34t48 -42t20 -67q0 -69 -56 -113t-148 -52l-8 -50q46 -5 67 -23.5t21 -49.5q0 -46 -36.5 -74.5t-91.5 -28.5q-43 0 -87 21l23 43q31 -15 67 -15q28 0 46.5 11.5t18.5 32.5q0 41 -89 44l18 88
q-67 3 -140 22l25 139h52l-4 -89q39 -13 89 -13q64 0 107 25.5t44 69.5q0 36 -27 56t-83 41q-46 18 -73 32.5t-46 40.5t-19 66q0 72 59 114t150 42q73 0 157 -28l-21 -118h-50l-3 76q-40 13 -82 13q-56 0 -92.5 -24z" />
    <glyph glyph-name="Scaron" unicode="&#x160;" horiz-adv-x="581" 
d="M526 510h-49l5 112q-53 22 -112 22q-71 0 -121 -33.5t-50 -92.5q0 -33 17.5 -55t43.5 -35.5t71 -30.5q55 -21 90 -40t59 -54.5t24 -91.5q0 -70 -37.5 -119.5t-100.5 -75t-138 -25.5q-100 0 -192 42l30 165h49l-3 -115q60 -27 126 -27q78 0 131 36.5t53 101.5
q0 36 -18 59.5t-44.5 37.5t-74.5 33q-54 21 -87.5 39.5t-56.5 52t-23 86.5q0 65 34 111t92 70t128 24q96 0 185 -42zM392 823l143 90l24 -35l-151 -119l-48 -4l-121 123l34 35z" />
    <glyph glyph-name="scaron" unicode="&#x161;" horiz-adv-x="475" 
d="M196.5 456q-36.5 -24 -37.5 -63q0 -33 26 -51.5t82 -41.5q46 -19 74 -34t48 -42t20 -67q0 -50 -30.5 -87.5t-84.5 -58t-122 -20.5q-76 0 -158 22l25 139h52l-4 -89q39 -13 89 -13q64 0 107 25.5t44 69.5q0 36 -27 56t-83 41q-46 18 -73 32.5t-46 40.5t-19 66q0 72 59 114
t150 42q73 0 157 -28l-21 -118h-50l-3 76q-40 13 -82 13q-56 0 -92.5 -24zM301 698l140 97l24 -33l-148 -129l-48 -4l-116 133l34 33z" />
    <glyph glyph-name="uni0162" unicode="&#x162;" horiz-adv-x="569" 
d="M70 526l27 172h512l-27 -172h-49l-1 110h-147l-91 -573l93 -19l-7 -44h-273l7 44l98 18l91 574h-149l-34 -110h-50zM131 -213l23 43q32 -15 67 -15q28 0 46.5 11.5t18.5 32.5q0 41 -89 44l20 97h50l-9 -58q46 -5 67 -23.5t21 -49.5q0 -46 -36.5 -74.5t-91.5 -28.5
q-43 0 -87 21z" />
    <glyph glyph-name="uni0163" unicode="&#x163;" horiz-adv-x="357" 
d="M216 471l-54 -340q-2 -12 -2 -24q0 -53 47 -53q33 0 81 24l19 -53q-68 -32 -124 -34l-8 -49q46 -5 67 -23.5t21 -49.5q0 -46 -36.5 -74.5t-91.5 -28.5q-43 0 -87 21l23 43q31 -15 67 -15q28 0 46.5 11.5t18.5 32.5q0 41 -89 44l20 96q-26 10 -40.5 33.5t-14.5 60.5
q0 9 2 33l55 345h-87l7 45l89 13l19 118l82 13l-21 -132h139l-9 -57h-139z" />
    <glyph glyph-name="Tcaron" unicode="&#x164;" horiz-adv-x="569" 
d="M70 526l27 172h512l-27 -172h-49l-1 110h-147l-91 -573l93 -19l-7 -44h-273l7 44l98 18l91 574h-149l-34 -110h-50zM374 823l143 90l24 -35l-151 -119l-48 -4l-121 123l34 35z" />
    <glyph glyph-name="tcaron" unicode="&#x165;" horiz-adv-x="357" 
d="M216 471l-54 -340q-2 -12 -2 -24q0 -53 47 -53q33 0 81 24l19 -53q-69 -34 -127 -34q-47 0 -74 25.5t-27 76.5q0 9 2 33l55 345h-87l7 45l89 13l19 118l82 13l-21 -132h139l-9 -57h-139zM308 585q43 121 53 192l76 -4q-21 -76 -80 -196z" />
    <glyph glyph-name="Tbar" unicode="&#x166;" horiz-adv-x="569" 
d="M70 526l27 172h512l-27 -172h-49l-1 110h-147l-41 -260h131l-8 -54h-132l-41 -259l93 -19l-7 -44h-273l7 44l98 18l41 260h-131l8 54h132l41 260h-149l-34 -110h-50z" />
    <glyph glyph-name="tbar" unicode="&#x167;" horiz-adv-x="357" 
d="M355 471h-139l-24 -152h139l-8 -51h-139l-22 -137q-2 -12 -2 -24q0 -53 47 -53q33 0 81 24l19 -53q-69 -34 -127 -34q-47 0 -74 25.5t-27 76.5q0 9 2 33l23 142h-87l7 51h88l24 152h-87l7 45l89 13l19 118l82 13l-21 -132h139z" />
    <glyph glyph-name="Utilde" unicode="&#x168;" horiz-adv-x="729" 
d="M766 698l-7 -44l-87 -20l-58 -372q-22 -139 -91 -205t-202 -66q-110 0 -162.5 46.5t-52.5 141.5q0 38 7 77l60 378l-80 15l7 44l246 5l-7 -44l-84 -20l-61 -383q-7 -45 -7 -70q0 -65 32 -94.5t106 -29.5q99 0 144.5 51t63.5 159l58 367l-79 15l6 44zM288 795
q24 44 48.5 64t52.5 20q18 0 33.5 -5.5t38.5 -17.5q18 -9 30.5 -14t24.5 -5q33 0 65 45l33 -21q-44 -84 -103 -84q-17 0 -31.5 5.5t-34.5 16.5q-22 11 -34 15.5t-26 4.5q-17 0 -31.5 -10.5t-32.5 -34.5z" />
    <glyph glyph-name="utilde" unicode="&#x169;" horiz-adv-x="605" 
d="M471 62l76 -17l-6 -44l-153 -4l26 153q-40 -79 -99 -119t-118 -40q-55 0 -87.5 34.5t-32.5 96.5q0 24 4 45l47 298l-75 16l7 45l159 6l-56 -349q-4 -28 -4 -39q0 -43 19 -65.5t52 -22.5q39 0 80.5 29.5t74.5 89t47 146.5l32 207h80zM389 656q-15 7 -34 20
q-17 12 -29.5 17.5t-25.5 5.5q-18 0 -35 -12t-35 -37l-33 20q48 92 108 92q19 0 33.5 -7t35.5 -20q17 -12 29.5 -17.5t26.5 -5.5q18 0 34.5 11.5t34.5 37.5l33 -19q-48 -93 -109 -93q-19 0 -34 7z" />
    <glyph glyph-name="Umacron" unicode="&#x16a;" horiz-adv-x="729" 
d="M766 698l-7 -44l-87 -20l-58 -372q-22 -139 -91 -205t-202 -66q-110 0 -162.5 46.5t-52.5 141.5q0 38 7 77l60 378l-80 15l7 44l246 5l-7 -44l-84 -20l-61 -383q-7 -45 -7 -70q0 -65 32 -94.5t106 -29.5q99 0 144.5 51t63.5 159l58 367l-79 15l6 44zM325 847h256l-9 -60
h-256z" />
    <glyph glyph-name="umacron" unicode="&#x16b;" horiz-adv-x="605" 
d="M471 62l76 -17l-6 -44l-153 -4l26 153q-40 -79 -99 -119t-118 -40q-55 0 -87.5 34.5t-32.5 96.5q0 24 4 45l47 298l-75 16l7 45l159 6l-56 -349q-4 -28 -4 -39q0 -43 19 -65.5t52 -22.5q39 0 80.5 29.5t74.5 89t47 146.5l32 207h80zM240 731h256l-9 -60h-256z" />
    <glyph glyph-name="Ubreve" unicode="&#x16c;" horiz-adv-x="729" 
d="M766 698l-7 -44l-87 -20l-58 -372q-22 -139 -91 -205t-202 -66q-110 0 -162.5 46.5t-52.5 141.5q0 38 7 77l60 378l-80 15l7 44l246 5l-7 -44l-84 -20l-61 -383q-7 -45 -7 -70q0 -65 32 -94.5t106 -29.5q99 0 144.5 51t63.5 159l58 367l-79 15l6 44zM361.5 789.5
q-34.5 28.5 -34.5 78.5q0 7 2 21h48q-2 -38 18.5 -55t53.5 -17t61.5 20t36.5 54l47 -4q-9 -60 -52.5 -93t-96.5 -33q-49 0 -83.5 28.5z" />
    <glyph glyph-name="ubreve" unicode="&#x16d;" horiz-adv-x="605" 
d="M471 62l76 -17l-6 -44l-153 -4l26 153q-40 -79 -99 -119t-118 -40q-55 0 -87.5 34.5t-32.5 96.5q0 24 4 45l47 298l-75 16l7 45l159 6l-56 -349q-4 -28 -4 -39q0 -43 19 -65.5t52 -22.5q39 0 80.5 29.5t74.5 89t47 146.5l32 207h80zM277 660.5q-33 29.5 -33 81.5
q0 7 2 23h50q-2 -36 16.5 -54.5t49.5 -18.5q33 0 59.5 20t35.5 55l48 -3q-9 -64 -51.5 -98.5t-94.5 -34.5q-49 0 -82 29.5z" />
    <glyph glyph-name="Uring" unicode="&#x16e;" horiz-adv-x="729" 
d="M766 698l-7 -44l-87 -20l-58 -372q-22 -139 -91 -205t-202 -66q-110 0 -162.5 46.5t-52.5 141.5q0 38 7 77l60 378l-80 15l7 44l246 5l-7 -44l-84 -20l-61 -383q-7 -45 -7 -70q0 -65 32 -94.5t106 -29.5q99 0 144.5 51t63.5 159l58 367l-79 15l6 44zM372 754.5
q-24 22.5 -24 60.5q0 48 33.5 80t84.5 32q41 0 65 -22t24 -61q0 -48 -33.5 -80t-84.5 -32q-41 0 -65 22.5zM487 794.5q17 20.5 17 47.5q0 21 -11 32.5t-32 11.5q-28 0 -45.5 -20.5t-17.5 -48.5q0 -20 11.5 -31.5t32.5 -11.5q28 0 45 20.5z" />
    <glyph glyph-name="uring" unicode="&#x16f;" horiz-adv-x="605" 
d="M471 62l76 -17l-6 -44l-153 -4l26 153q-40 -79 -99 -119t-118 -40q-55 0 -87.5 34.5t-32.5 96.5q0 24 4 45l47 298l-75 16l7 45l159 6l-56 -349q-4 -28 -4 -39q0 -43 19 -65.5t52 -22.5q39 0 80.5 29.5t74.5 89t47 146.5l32 207h80zM288 640.5q-24 22.5 -24 60.5
q0 48 33.5 80t84.5 32q41 0 65 -22t24 -61q0 -48 -33.5 -80t-84.5 -32q-41 0 -65 22.5zM403 680.5q17 20.5 17 47.5q0 21 -11 32.5t-32 11.5q-28 0 -45.5 -20.5t-17.5 -48.5q0 -20 11.5 -31.5t32.5 -11.5q28 0 45 20.5z" />
    <glyph glyph-name="Uhungarumlaut" unicode="&#x170;" horiz-adv-x="729" 
d="M766 698l-7 -44l-87 -20l-58 -372q-22 -139 -91 -205t-202 -66q-110 0 -162.5 46.5t-52.5 141.5q0 38 7 77l60 378l-80 15l7 44l246 5l-7 -44l-84 -20l-61 -383q-7 -45 -7 -70q0 -65 32 -94.5t106 -29.5q99 0 144.5 51t63.5 159l58 367l-79 15l6 44zM461 903l-91 -159
l-44 20l74 167zM604 901l-96 -157l-43 21l78 166z" />
    <glyph glyph-name="uhungarumlaut" unicode="&#x171;" horiz-adv-x="605" 
d="M471 62l76 -17l-6 -44l-153 -4l26 153q-40 -79 -99 -119t-118 -40q-55 0 -87.5 34.5t-32.5 96.5q0 24 4 45l47 298l-75 16l7 45l159 6l-56 -349q-4 -28 -4 -39q0 -43 19 -65.5t52 -22.5q39 0 80.5 29.5t74.5 89t47 146.5l32 207h80zM381 778l-91 -159l-44 20l74 167z
M524 776l-96 -157l-43 21l78 166z" />
    <glyph glyph-name="Uogonek" unicode="&#x172;" horiz-adv-x="729" 
d="M766 698l-7 -44l-87 -20l-58 -372q-18 -115 -67.5 -179.5t-139.5 -83.5q-57 -20 -89.5 -51.5t-32.5 -62.5q0 -23 18.5 -36t52.5 -13q16 0 35 3l-2 -50q-38 -10 -64 -10q-49 0 -76.5 22t-27.5 57q0 33 24 69t68 64q-106 1 -156.5 47.5t-50.5 140.5q0 38 7 77l60 378
l-80 15l7 44l246 5l-7 -44l-84 -20l-61 -383q-7 -45 -7 -70q0 -65 32 -94.5t106 -29.5q99 0 144.5 51t63.5 159l58 367l-79 15l6 44z" />
    <glyph glyph-name="uogonek" unicode="&#x173;" horiz-adv-x="605" 
d="M454 -1q-56 -20 -88 -52t-32 -62q0 -23 18.5 -36t52.5 -13q15 0 35 3l-2 -50q-38 -10 -64 -10q-49 0 -76.5 22t-27.5 57q0 38 31 78.5t89 70.5l24 143q-40 -79 -99 -119t-118 -40q-55 0 -87.5 34.5t-32.5 96.5q0 24 4 45l47 298l-75 16l7 45l159 6l-56 -349
q-4 -28 -4 -39q0 -43 19 -65.5t52 -22.5q39 0 80.5 29.5t74.5 89t47 146.5l32 207h80l-73 -466l76 -17l-6 -44z" />
    <glyph glyph-name="Wcircumflex" unicode="&#x174;" horiz-adv-x="990" 
d="M812 693l239 5l-7 -44l-79 -18l-273 -637h-78l-73 566l-256 -566h-78l-63 636l-76 14l8 44l247 5l-6 -44l-90 -19l43 -527l259 587l75 3l71 -587l216 524l-86 14zM620 902l122 -123l-34 -35l-119 90l-143 -90l-24 35l151 119z" />
    <glyph glyph-name="wcircumflex" unicode="&#x175;" horiz-adv-x="778" 
d="M640 525l178 7l-6 -45l-46 -12l-213 -477h-88l-47 430l-189 -430h-87l-54 473l-56 10l7 44l121 7l39 -464l194 459l85 4l45 -469l173 407l-62 12zM500 793l116 -133l-34 -33l-114 98l-140 -98l-24 33l148 129z" />
    <glyph glyph-name="Ycircumflex" unicode="&#x176;" horiz-adv-x="624" 
d="M680 654l-74 -15l-256 -389l-29 -187l82 -19l-7 -44h-249l6 44l87 18l31 197l-131 376l-73 14l6 44l249 5l-7 -44l-93 -18l104 -318l205 316l-85 15l7 44l234 5zM438 903l122 -123l-34 -35l-119 90l-143 -90l-24 35l151 119z" />
    <glyph glyph-name="ycircumflex" unicode="&#x177;" horiz-adv-x="510" 
d="M556 532l-6 -45l-51 -13l-237 -476q-40 -79 -67.5 -123t-76.5 -79t-120 -35q-21 0 -51 5l11 60q7 -1 16 -2t21 -1q45 0 77.5 20t58.5 58.5t59 105.5l-106 464l-56 10l7 44l121 7l84 -439l183 378l-61 10l6 44zM333 793l116 -133l-34 -33l-114 98l-140 -98l-24 33l148 129
z" />
    <glyph glyph-name="Ydieresis" unicode="&#x178;" horiz-adv-x="624" 
d="M680 654l-74 -15l-256 -389l-29 -187l82 -19l-7 -44h-249l6 44l87 18l31 197l-131 376l-73 14l6 44l249 5l-7 -44l-93 -18l104 -318l205 316l-85 15l7 44l234 5zM275.5 780q-11.5 13 -11.5 35q0 25 14.5 41t37.5 16q19 0 30.5 -12.5t11.5 -34.5q0 -25 -14.5 -41.5
t-36.5 -16.5q-20 0 -31.5 13zM466 780q-12 13 -12 35q0 25 14.5 41t37.5 16q20 0 31.5 -12.5t11.5 -34.5q0 -25 -14.5 -41.5t-37.5 -16.5q-19 0 -31 13z" />
    <glyph glyph-name="Zacute" unicode="&#x179;" horiz-adv-x="591" 
d="M596 698l-6 -59l-475 -575h324l33 102h51l-29 -166h-488l6 57l481 577h-305l-32 -101h-50l27 165h463zM502 846l-221 -96l-20 41l213 123z" />
    <glyph glyph-name="zacute" unicode="&#x17a;" horiz-adv-x="470" 
d="M459 528l-8 -50l-348 -419h225l29 88h49l-22 -146l-384 -1l7 50l352 420h-217l-21 -77h-50l21 135h367zM439 741l-197 -122l-31 43l185 143z" />
    <glyph glyph-name="Zdotaccent" unicode="&#x17b;" horiz-adv-x="591" 
d="M596 698l-6 -59l-475 -575h324l33 102h51l-29 -166h-488l6 57l481 577h-305l-32 -101h-50l27 165h463zM341 780q-13 14 -13 37q0 27 17 45t43 18q22 0 35 -13.5t13 -36.5q0 -28 -17 -46t-43 -18q-22 0 -35 14z" />
    <glyph glyph-name="zdotaccent" unicode="&#x17c;" horiz-adv-x="470" 
d="M459 528l-8 -50l-348 -419h225l29 88h49l-22 -146l-384 -1l7 50l352 420h-217l-21 -77h-50l21 135h367zM263 652q-13 14 -13 37q0 27 17 45t43 18q22 0 35 -13.5t13 -36.5q0 -28 -17 -46t-43 -18q-22 0 -35 14z" />
    <glyph glyph-name="Zcaron" unicode="&#x17d;" horiz-adv-x="591" 
d="M596 698l-6 -59l-475 -575h324l33 102h51l-29 -166h-488l6 57l481 577h-305l-32 -101h-50l27 165h463zM383 823l143 90l24 -35l-151 -119l-48 -4l-121 123l34 35z" />
    <glyph glyph-name="zcaron" unicode="&#x17e;" horiz-adv-x="470" 
d="M459 528l-8 -50l-348 -419h225l29 88h49l-22 -146l-384 -1l7 50l352 420h-217l-21 -77h-50l21 135h367zM305 698l140 97l24 -33l-148 -129l-48 -4l-116 133l34 33z" />
    <glyph glyph-name="longs" unicode="&#x17f;" horiz-adv-x="363" 
d="M482 751l-20 -110h-50v68q-25 7 -54 7q-47 0 -79 -27.5t-41 -84.5l-101 -643q-18 -109 -67 -155t-126 -46q-15 0 -53 5l12 58q22 -2 32 -2q53 0 80.5 27t38.5 95l104 655q14 92 66 135.5t128 43.5q62 0 130 -26z" />
    <glyph glyph-name="uni018F" unicode="&#x18f;" horiz-adv-x="677" 
d="M570 636.5q64 -70.5 64 -204.5q0 -110 -44 -212t-123.5 -165.5t-182.5 -63.5q-101 0 -161.5 63t-60.5 173q0 64 17 132l466 -3q5 40 5 72q0 105 -44.5 158t-125.5 53q-104 0 -233 -81l-27 51q73 49 144.5 73.5t133.5 24.5q108 0 172 -70.5zM442.5 123.5
q61.5 67.5 89.5 170.5h-381q-5 -42 -5 -67q0 -84 40 -127.5t108 -43.5q87 0 148.5 67.5z" />
    <glyph glyph-name="florin" unicode="&#x192;" horiz-adv-x="472" 
d="M351.5 689q-24.5 -29 -31.5 -77l-28 -171h146l-9 -53h-145l-63 -393q-14 -87 -56.5 -142t-135.5 -55q-30 0 -55 4l13 61q24 -3 33 -3q46 0 71 19t34 44.5t15 62.5l64 402h-85l7 45l86 9l26 158q28 179 186 179q37 0 77 -9l-16 -57q-30 5 -51 5q-58 0 -82.5 -29z" />
    <glyph glyph-name="Ohorn" unicode="&#x1a0;" horiz-adv-x="733" 
d="M715.5 686.5q-36.5 -34.5 -100.5 -44.5q71 -73 71 -210q0 -108 -43 -210t-126 -166.5t-198 -64.5q-117 0 -183.5 70.5t-66.5 207.5q0 109 43 210t126.5 164.5t197.5 63.5q68 0 121 -24q128 6 128 98q0 23 -5 42l62 13q10 -35 10 -59q0 -56 -36.5 -90.5zM471.5 115
q62.5 57 95.5 143.5t33 173.5q0 104 -47.5 156.5t-125.5 52.5q-83 0 -145 -56.5t-94.5 -143.5t-32.5 -173q0 -105 46.5 -157.5t124.5 -52.5q83 0 145.5 57z" />
    <glyph glyph-name="ohorn" unicode="&#x1a1;" horiz-adv-x="570" 
d="M461 484q51 -57 51 -163q0 -85 -31.5 -160.5t-94.5 -122.5t-151 -47t-139 53.5t-51 163.5q0 85 32 160.5t94.5 122t150.5 46.5q47 0 81 -14q58 2 84 22.5t26 64.5q0 18 -5 46l62 15q8 -28 8 -58q0 -109 -117 -129zM346 92.5q42 40.5 63 103t21 126.5q0 154 -117 154
q-60 0 -102 -40t-63 -101.5t-21 -125.5q0 -77 29.5 -117t88.5 -40t101 40.5z" />
    <glyph glyph-name="Uhorn" unicode="&#x1af;" horiz-adv-x="734" 
d="M761 689q-30 -32 -86 -39l-61 -388q-20 -124 -83.5 -197.5t-209.5 -73.5q-110 0 -162.5 46.5t-52.5 142.5q0 38 7 76l60 378l-80 15l7 44l246 5l-7 -44l-84 -20l-61 -383q-1 -6 -4 -28.5t-3 -42.5q0 -63 32.5 -93t105.5 -30q101 0 146 53.5t62 156.5l58 367l-79 15l6 44
l125 3q81 3 81 81q0 26 -5 46l62 14q10 -38 10 -63q0 -53 -30 -85z" />
    <glyph glyph-name="uhorn" unicode="&#x1b0;" horiz-adv-x="605" 
d="M617 525q-28 -31 -79 -38l-67 -425l76 -17l-6 -44l-153 -4l26 153q-40 -79 -99 -119t-118 -40q-55 0 -87.5 34.5t-32.5 96.5q0 24 4 45l47 298l-75 16l7 45l159 6l-56 -349q-4 -28 -4 -39q0 -43 19 -65.5t52 -22.5q39 0 80.5 29.5t74.5 89t47 146.5l32 207h37
q42 1 60.5 22t18.5 60q0 19 -5 46l60 13q10 -33 10 -62q0 -51 -28 -82z" />
    <glyph glyph-name="uni01C4" unicode="&#x1c4;" horiz-adv-x="1271" 
d="M400 698q268 0 268 -269q0 -114 -46 -212t-132 -157.5t-201 -59.5h-279l7 44l85 18l91 571l-80 16l7 44l182 5h98zM303 63q86 0 149.5 56t97 142.5t33.5 172.5q0 101 -50 151.5t-147 50.5h-112l-91 -573h120zM1276 698l-6 -59l-475 -575h324l33 102h51l-29 -166h-488
l6 57l481 577h-305l-32 -101h-50l27 165h463zM1063 823l143 90l24 -35l-151 -119l-48 -4l-121 123l34 35z" />
    <glyph glyph-name="uni01C5" unicode="&#x1c5;" horiz-adv-x="1180" 
d="M400 698q268 0 268 -269q0 -114 -46 -212t-132 -157.5t-201 -59.5h-279l7 44l85 18l91 571l-80 16l7 44l182 5h98zM303 63q86 0 149.5 56t97 142.5t33.5 172.5q0 101 -50 151.5t-147 50.5h-112l-91 -573h120zM1169 528l-8 -50l-348 -419h225l29 88h49l-22 -146l-384 -1
l7 50l352 420h-217l-21 -77h-50l21 135h367zM1015 698l140 97l24 -33l-148 -129l-48 -4l-116 133l34 33z" />
    <glyph glyph-name="uni01C6" unicode="&#x1c6;" horiz-adv-x="1056" 
d="M563 772l-111 -706l76 -19l-8 -46l-151 -5l25 156q-39 -78 -97.5 -119.5t-114.5 -41.5q-62 0 -101.5 49t-39.5 147q0 95 38.5 175.5t105.5 128t149 47.5q55 0 109 -24l30 188l-79 20l7 44zM290 87.5q41 30.5 74.5 91t47.5 145.5l20 122q-51 29 -100 29q-59 0 -107 -38.5
t-75 -102.5t-27 -138q0 -70 24 -104.5t64 -34.5q38 0 79 30.5zM1045 528l-8 -50l-348 -419h225l29 88h49l-22 -146l-384 -1l7 50l352 420h-217l-21 -77h-50l21 135h367zM891 698l140 97l24 -33l-148 -129l-48 -4l-116 133l34 33z" />
    <glyph glyph-name="uni01C7" unicode="&#x1c7;" horiz-adv-x="853" 
d="M409 63l34 117h49l-28 -180h-454l7 44l85 17l91 572l-80 16l7 44l256 5l-6 -44l-96 -21l-91 -570h226zM883 698l-7 -44l-87 -20l-94 -591q-28 -189 -192 -189q-27 0 -55 6l13 61q17 -3 34 -3q63 0 86 32t30 77l97 606l-85 16l7 44z" />
    <glyph glyph-name="uni01C8" unicode="&#x1c8;" horiz-adv-x="806" 
d="M409 63l34 117h49l-28 -180h-454l7 44l85 17l91 572l-80 16l7 44l256 5l-6 -44l-96 -21l-91 -570h226zM601 526l158 6l-90 -571q-17 -107 -65 -153.5t-129 -46.5q-22 0 -52 5l13 58q22 -2 32 -2q55 0 81.5 28t37.5 94l81 521l-74 16zM698 652q-13 14 -13 37q0 27 17 45
t43 18q22 0 35 -13.5t13 -36.5q0 -28 -17 -46t-43 -18q-22 0 -35 14z" />
    <glyph glyph-name="uni01C9" unicode="&#x1c9;" horiz-adv-x="547" 
d="M90 766l159 6l-112 -707l76 -18l-7 -46l-160 -4l113 705l-76 18zM342 526l158 6l-90 -571q-17 -107 -65 -153.5t-129 -46.5q-22 0 -52 5l13 58q22 -2 32 -2q55 0 81.5 28t37.5 94l81 521l-74 16zM439 652q-13 14 -13 37q0 27 17 45t43 18q22 0 35 -13.5t13 -36.5
q0 -28 -17 -46t-43 -18q-22 0 -35 14z" />
    <glyph glyph-name="uni01CA" unicode="&#x1ca;" horiz-adv-x="1096" 
d="M559 693l232 5l-6 -44l-85 -20l-101 -634h-86l-259 591l-84 -528l79 -19l-7 -44h-232l7 44l85 18l91 571l-80 16l7 44l176 5l254 -581l82 516l-80 16zM1125 698l-7 -44l-87 -20l-94 -591q-28 -189 -192 -189q-27 0 -55 6l13 61q17 -3 34 -3q63 0 86 32t30 77l97 606
l-85 16l7 44z" />
    <glyph glyph-name="uni01CB" unicode="&#x1cb;" horiz-adv-x="1035" 
d="M559 693l232 5l-6 -44l-85 -20l-101 -634h-86l-259 591l-84 -528l79 -19l-7 -44h-232l7 44l85 18l91 571l-80 16l7 44l176 5l254 -581l82 516l-80 16zM830 526l158 6l-90 -571q-17 -107 -65 -153.5t-129 -46.5q-22 0 -52 5l13 58q22 -2 32 -2q55 0 81.5 28t37.5 94
l81 521l-74 16zM927 652q-13 14 -13 37q0 27 17 45t43 18q22 0 35 -13.5t13 -36.5q0 -28 -17 -46t-43 -18q-22 0 -35 14z" />
    <glyph glyph-name="uni01CC" unicode="&#x1cc;" horiz-adv-x="877" 
d="M478 65l76 -18l-8 -46l-159 -4l56 348q4 28 4 40q0 43 -19 65t-52 22q-39 0 -80.5 -29.5t-74.5 -89t-47 -146.5l-33 -207h-80l74 463l-75 18l7 45l155 6l-29 -152q41 79 98.5 118t114.5 39q56 0 89.5 -34.5t33.5 -97.5q0 -23 -4 -44zM672 526l158 6l-90 -571
q-17 -107 -65 -153.5t-129 -46.5q-22 0 -52 5l13 58q22 -2 32 -2q55 0 81.5 28t37.5 94l81 521l-74 16zM769 652q-13 14 -13 37q0 27 17 45t43 18q22 0 35 -13.5t13 -36.5q0 -28 -17 -46t-43 -18q-22 0 -35 14z" />
    <glyph glyph-name="uni01CD" unicode="&#x1cd;" horiz-adv-x="675" 
d="M453 700l115 -638l65 -18l-7 -44h-243l8 44l92 18l-22 135h-274l-68 -136l87 -17l-8 -44h-234l8 44l69 17l328 636zM452 258l-57 360l-180 -360h237zM434 823l143 90l24 -35l-151 -119l-48 -4l-121 123l34 35z" />
    <glyph glyph-name="uni01CE" unicode="&#x1ce;" horiz-adv-x="585" 
d="M452 66l76 -19l-8 -46l-151 -5l25 156q-39 -78 -97.5 -119.5t-114.5 -41.5q-62 0 -101.5 49t-39.5 147q0 95 38.5 175.5t105.5 128t149 47.5q68 0 132 -35l14 25h45zM290.5 87.5q41.5 30.5 74.5 91t47 145.5l20 122q-51 29 -100 29q-59 0 -107 -38.5t-75 -102.5t-27 -138
q0 -70 24 -104.5t64 -34.5q38 0 79.5 30.5zM357 698l140 97l24 -33l-148 -129l-48 -4l-116 133l34 33z" />
    <glyph glyph-name="uni01CF" unicode="&#x1cf;" horiz-adv-x="349" 
d="M367 698l-7 -44l-86 -20l-91 -571l81 -19l-7 -44h-247l7 44l85 17l90 573l-79 15l7 44zM264 823l143 90l24 -35l-151 -119l-48 -4l-121 123l34 35z" />
    <glyph glyph-name="uni01D0" unicode="&#x1d0;" horiz-adv-x="286" 
d="M226 532l-75 -467l76 -19l-7 -45l-159 -4l74 466l-75 18l7 45zM200 700l119 95l26 -32l-127 -130l-47 -4l-88 139l35 27z" />
    <glyph glyph-name="uni01D1" unicode="&#x1d1;" horiz-adv-x="726" 
d="M135.5 61.5q-66.5 70.5 -66.5 207.5q0 109 43 210t126 164.5t197 63.5q116 0 183.5 -70.5t67.5 -205.5q0 -107 -43 -208.5t-126.5 -166.5t-197.5 -65q-117 0 -183.5 70.5zM471.5 115q62.5 57 95.5 143.5t33 173.5q0 104 -47.5 156.5t-125.5 52.5q-83 0 -145 -56.5
t-94.5 -143.5t-32.5 -173q0 -105 46.5 -157.5t124.5 -52.5q83 0 145.5 57zM472 823l143 90l24 -35l-151 -119l-48 -4l-121 123l34 35z" />
    <glyph glyph-name="uni01D2" unicode="&#x1d2;" horiz-adv-x="557" 
d="M462.5 484.5q50.5 -52.5 50.5 -161.5q0 -86 -32 -162t-95.5 -123t-152.5 -47q-88 0 -138 52.5t-50 162.5q0 85 32 161t95 123t152 47q88 0 138.5 -52.5zM211 435q-42 -41 -63 -103t-21 -125q0 -75 29.5 -115t88.5 -40t101 41t63.5 103.5t21.5 125.5q0 75 -29.5 114.5
t-88.5 39.5q-60 0 -102 -41zM353 698l140 97l24 -33l-148 -129l-48 -4l-116 133l34 33z" />
    <glyph glyph-name="uni01D3" unicode="&#x1d3;" horiz-adv-x="729" 
d="M766 698l-7 -44l-87 -20l-58 -372q-22 -139 -91 -205t-202 -66q-110 0 -162.5 46.5t-52.5 141.5q0 38 7 77l60 378l-80 15l7 44l246 5l-7 -44l-84 -20l-61 -383q-7 -45 -7 -70q0 -65 32 -94.5t106 -29.5q99 0 144.5 51t63.5 159l58 367l-79 15l6 44zM452 823l143 90
l24 -35l-151 -119l-48 -4l-121 123l34 35z" />
    <glyph glyph-name="uni01D4" unicode="&#x1d4;" horiz-adv-x="605" 
d="M471 62l76 -17l-6 -44l-153 -4l26 153q-40 -79 -99 -119t-118 -40q-55 0 -87.5 34.5t-32.5 96.5q0 24 4 45l47 298l-75 16l7 45l159 6l-56 -349q-4 -28 -4 -39q0 -43 19 -65.5t52 -22.5q39 0 80.5 29.5t74.5 89t47 146.5l32 207h80zM364 698l140 97l24 -33l-148 -129
l-48 -4l-116 133l34 33z" />
    <glyph glyph-name="uni01D5" unicode="&#x1d5;" horiz-adv-x="729" 
d="M766 698l-7 -44l-87 -20l-58 -372q-22 -139 -91 -205t-202 -66q-110 0 -162.5 46.5t-52.5 141.5q0 38 7 77l60 378l-80 15l7 44l246 5l-7 -44l-84 -20l-61 -383q-7 -45 -7 -70q0 -65 32 -94.5t106 -29.5q99 0 144.5 51t63.5 159l58 367l-79 15l6 44zM316.5 761
q-11.5 13 -11.5 35q0 25 14.5 41t37.5 16q19 0 30.5 -12.5t11.5 -34.5q0 -25 -14.5 -41.5t-36.5 -16.5q-20 0 -31.5 13zM507 761q-12 13 -12 35q0 25 14.5 41t37.5 16q20 0 31.5 -12.5t11.5 -34.5q0 -25 -14.5 -41.5t-37.5 -16.5q-19 0 -31 13zM343 960h256l-9 -60h-256z
" />
    <glyph glyph-name="uni01D6" unicode="&#x1d6;" horiz-adv-x="605" 
d="M471 62l76 -17l-6 -44l-153 -4l26 153q-40 -79 -99 -119t-118 -40q-55 0 -87.5 34.5t-32.5 96.5q0 24 4 45l47 298l-75 16l7 45l159 6l-56 -349q-4 -28 -4 -39q0 -43 19 -65.5t52 -22.5q39 0 80.5 29.5t74.5 89t47 146.5l32 207h80zM256 828h256l-9 -60h-256zM225.5 622
q-11.5 13 -11.5 35q0 25 14.5 41t37.5 16q19 0 30.5 -12.5t11.5 -34.5q0 -25 -14.5 -41.5t-36.5 -16.5q-20 0 -31.5 13zM416 622q-12 13 -12 35q0 25 14.5 41t37.5 16q20 0 31.5 -12.5t11.5 -34.5q0 -25 -14.5 -41.5t-37.5 -16.5q-19 0 -31 13z" />
    <glyph glyph-name="uni01D7" unicode="&#x1d7;" horiz-adv-x="729" 
d="M766 698l-7 -44l-87 -20l-58 -372q-22 -139 -91 -205t-202 -66q-110 0 -162.5 46.5t-52.5 141.5q0 38 7 77l60 378l-80 15l7 44l246 5l-7 -44l-84 -20l-61 -383q-7 -45 -7 -70q0 -65 32 -94.5t106 -29.5q99 0 144.5 51t63.5 159l58 367l-79 15l6 44zM582 936l-149 -118
l-29 35l137 131zM298 755.5q-11 12.5 -11 34.5q0 26 14.5 42.5t38.5 16.5q20 0 31 -12t11 -34q0 -26 -16 -43t-38 -17q-19 0 -30 12.5zM515 755.5q-11 12.5 -11 34.5q0 26 15 42.5t38 16.5q20 0 31 -12t11 -34q0 -26 -16 -43t-38 -17q-19 0 -30 12.5z" />
    <glyph glyph-name="uni01D8" unicode="&#x1d8;" horiz-adv-x="605" 
d="M471 62l76 -17l-6 -44l-153 -4l26 153q-40 -79 -99 -119t-118 -40q-55 0 -87.5 34.5t-32.5 96.5q0 24 4 45l47 298l-75 16l7 45l159 6l-56 -349q-4 -28 -4 -39q0 -43 19 -65.5t52 -22.5q39 0 80.5 29.5t74.5 89t47 146.5l32 207h80zM506 805l-149 -119l-30 35l137 132z
M224 620q-11 12 -11 33q0 28 14.5 44.5t36.5 16.5q20 0 31.5 -12t11.5 -33q0 -28 -15.5 -44.5t-36.5 -16.5q-20 0 -31 12zM422 620.5q-11 12.5 -11 33.5q0 27 15 43.5t36 16.5q20 0 31.5 -12t11.5 -33q0 -28 -15 -44.5t-37 -16.5q-20 0 -31 12.5z" />
    <glyph glyph-name="uni01D9" unicode="&#x1d9;" horiz-adv-x="729" 
d="M766 698l-7 -44l-87 -20l-58 -372q-22 -139 -91 -205t-202 -66q-110 0 -162.5 46.5t-52.5 141.5q0 38 7 77l60 378l-80 15l7 44l246 5l-7 -44l-84 -20l-61 -383q-7 -45 -7 -70q0 -65 32 -94.5t106 -29.5q99 0 144.5 51t63.5 159l58 367l-79 15l6 44zM461 890l146 93
l22 -33l-155 -121l-41 -3l-126 124l31 33zM364 838.5q11 -12.5 11 -34.5q0 -26 -15 -42.5t-38 -16.5q-19 0 -30 12t-11 34q0 26 15 43t38 17q19 0 30 -12.5zM603.5 838.5q11.5 -12.5 11.5 -34.5q0 -26 -15.5 -42.5t-38.5 -16.5q-19 0 -30 12t-11 34q0 26 15 43t38 17
q19 0 30.5 -12.5z" />
    <glyph glyph-name="uni01DA" unicode="&#x1da;" horiz-adv-x="605" 
d="M471 62l76 -17l-6 -44l-153 -4l26 153q-40 -79 -99 -119t-118 -40q-55 0 -87.5 34.5t-32.5 96.5q0 24 4 45l47 298l-75 16l7 45l159 6l-56 -349q-4 -28 -4 -39q0 -43 19 -65.5t52 -22.5q39 0 80.5 29.5t74.5 89t47 146.5l32 207h80zM367 766l143 90l23 -35l-150 -119
l-48 -4l-121 123l33 35zM275 702q11 -12 11 -34q0 -26 -15.5 -43t-38.5 -17q-19 0 -30 12.5t-11 34.5q0 26 15 42.5t38 16.5q20 0 31 -12zM499 702q11 -12 11 -34q0 -26 -15 -43t-38 -17q-19 0 -30 12.5t-11 34.5q0 25 15 42t37 17q20 0 31 -12z" />
    <glyph glyph-name="uni01DB" unicode="&#x1db;" horiz-adv-x="729" 
d="M766 698l-7 -44l-87 -20l-58 -372q-22 -139 -91 -205t-202 -66q-110 0 -162.5 46.5t-52.5 141.5q0 38 7 77l60 378l-80 15l7 44l246 5l-7 -44l-84 -20l-61 -383q-7 -45 -7 -70q0 -65 32 -94.5t106 -29.5q99 0 144.5 51t63.5 159l58 367l-79 15l6 44zM494 852l-37 -34
l-113 116l53 50zM299 757q-11 12 -11 34q0 26 15 43t38 17q19 0 30.5 -12.5t11.5 -34.5q0 -26 -15.5 -42.5t-38.5 -16.5q-19 0 -30 12zM516 757q-11 12 -11 34q0 26 14.5 43t37.5 17q19 0 30.5 -12.5t11.5 -34.5q0 -26 -15 -42.5t-38 -16.5q-19 0 -30 12z" />
    <glyph glyph-name="uni01DC" unicode="&#x1dc;" horiz-adv-x="605" 
d="M471 62l76 -17l-6 -44l-153 -4l26 153q-40 -79 -99 -119t-118 -40q-55 0 -87.5 34.5t-32.5 96.5q0 24 4 45l47 298l-75 16l7 45l159 6l-56 -349q-4 -28 -4 -39q0 -43 19 -65.5t52 -22.5q39 0 80.5 29.5t74.5 89t47 146.5l32 207h80zM394 709q20 -12 20 -42
q0 -26 -15 -42.5t-38 -16.5q-7 0 -10 1q-4 -1 -11 -1q-18 0 -29 12.5t-11 33.5q0 24 12 40.5t32 18.5l-87 91l53 49l98 -132z" />
    <glyph glyph-name="Gcaron" unicode="&#x1e6;" horiz-adv-x="718" 
d="M694 337l-7 -47l-83 -17l-34 -226q-138 -56 -246 -56q-120 0 -187.5 69.5t-67.5 213.5q0 121 47.5 220t132.5 156t195 57q104 0 216 -51l-30 -157h-49l1 114q-69 28 -132 28q-86 0 -153.5 -48.5t-104.5 -132t-37 -185.5q0 -113 46.5 -164.5t134.5 -51.5q69 0 165 33
l27 182l-80 12l7 46zM469 822l143 90l24 -35l-151 -119l-48 -4l-121 123l34 35z" />
    <glyph glyph-name="gcaron" unicode="&#x1e7;" horiz-adv-x="572" 
d="M480 528h45l-86 -540q-19 -119 -83.5 -173t-162.5 -54q-77 0 -176 32l18 60q88 -31 157 -31q149 0 175 164l25 161q-39 -76 -97 -116t-113 -40q-62 0 -101.5 49t-39.5 147q0 95 38.5 175.5t105.5 127.5t149 47q66 0 133 -34zM290 87.5q41 30.5 74.5 91t47.5 145.5l20 122
q-51 29 -100 29q-59 0 -107 -38.5t-75 -102.5t-27 -138q0 -70 24 -104.5t64 -34.5q38 0 79 30.5zM354 698l140 97l24 -33l-148 -129l-48 -4l-116 133l34 33z" />
    <glyph glyph-name="uni01EA" unicode="&#x1ea;" horiz-adv-x="726" 
d="M304 -53q-32 -32 -32 -62q0 -23 18.5 -36t52.5 -13q16 0 35 3l-2 -50q-38 -10 -64 -10q-49 0 -76.5 22t-27.5 57q0 33 24 69t69 64q-109 6 -170.5 76t-61.5 202q0 109 43 210t126 164.5t197 63.5q116 0 183.5 -70.5t67.5 -205.5q0 -95 -34 -187t-100.5 -158.5
t-159.5 -86.5q-56 -20 -88 -52zM201.5 110.5q46.5 -52.5 124.5 -52.5q83 0 145.5 57t95.5 143.5t33 173.5q0 104 -47.5 156.5t-125.5 52.5q-83 0 -145 -56.5t-94.5 -143.5t-32.5 -173q0 -105 46.5 -157.5z" />
    <glyph glyph-name="uni01EB" unicode="&#x1eb;" horiz-adv-x="557" 
d="M490 184q-23 -67 -69 -115.5t-112 -67.5q-58 -20 -91 -52t-33 -63q0 -23 18.5 -36t52.5 -13q16 0 35 3l-2 -50q-38 -10 -64 -10q-49 0 -76.5 22t-27.5 57q0 33 23.5 68.5t68.5 64.5q-79 6 -123.5 58.5t-44.5 155.5q0 85 32 161t95 123t152 47q88 0 138.5 -52.5
t50.5 -161.5q0 -72 -23 -139zM346 93q42 41 63.5 103.5t21.5 125.5q0 75 -29.5 114.5t-88.5 39.5q-60 0 -102 -41t-63 -103t-21 -125q0 -75 29.5 -115t88.5 -40t101 41z" />
    <glyph glyph-name="uni01F1" unicode="&#x1f1;" horiz-adv-x="1271" 
d="M400 698q268 0 268 -269q0 -114 -46 -212t-132 -157.5t-201 -59.5h-279l7 44l85 18l91 571l-80 16l7 44l182 5h98zM303 63q86 0 149.5 56t97 142.5t33.5 172.5q0 101 -50 151.5t-147 50.5h-112l-91 -573h120zM1276 698l-6 -59l-475 -575h324l33 102h51l-29 -166h-488
l6 57l481 577h-305l-32 -101h-50l27 165h463z" />
    <glyph glyph-name="uni01F2" unicode="&#x1f2;" horiz-adv-x="1180" 
d="M400 698q268 0 268 -269q0 -114 -46 -212t-132 -157.5t-201 -59.5h-279l7 44l85 18l91 571l-80 16l7 44l182 5h98zM303 63q86 0 149.5 56t97 142.5t33.5 172.5q0 101 -50 151.5t-147 50.5h-112l-91 -573h120zM1169 528l-8 -50l-348 -419h225l29 88h49l-22 -146l-384 -1
l7 50l352 420h-217l-21 -77h-50l21 135h367z" />
    <glyph glyph-name="uni01F3" unicode="&#x1f3;" horiz-adv-x="1056" 
d="M563 772l-111 -706l76 -19l-8 -46l-151 -5l25 156q-39 -78 -97.5 -119.5t-114.5 -41.5q-62 0 -101.5 49t-39.5 147q0 95 38.5 175.5t105.5 128t149 47.5q55 0 109 -24l30 188l-79 20l7 44zM290 87.5q41 30.5 74.5 91t47.5 145.5l20 122q-51 29 -100 29q-59 0 -107 -38.5
t-75 -102.5t-27 -138q0 -70 24 -104.5t64 -34.5q38 0 79 30.5zM1045 528l-8 -50l-348 -419h225l29 88h49l-22 -146l-384 -1l7 50l352 420h-217l-21 -77h-50l21 135h367z" />
    <glyph glyph-name="Aringacute" unicode="&#x1fa;" horiz-adv-x="675" 
d="M453 700l115 -638l65 -18l-7 -44h-243l8 44l92 18l-22 135h-274l-68 -136l87 -17l-8 -44h-234l8 44l69 17l328 636zM452 258l-57 360l-180 -360h237zM584 1007l-225 -86l-19 41l219 114zM358 750.5q-24 22.5 -24 61.5q0 48 33.5 80t84.5 32q41 0 65 -22.5t24 -61.5
q0 -47 -33.5 -79.5t-84.5 -32.5q-41 0 -65 22.5zM473 790.5q17 20.5 17 47.5q0 21 -11 32.5t-32 11.5q-28 0 -45.5 -20t-17.5 -48q0 -21 11 -32.5t32 -11.5q29 0 46 20.5z" />
    <glyph glyph-name="aringacute" unicode="&#x1fb;" horiz-adv-x="585" 
d="M452 66l76 -19l-8 -46l-151 -5l25 156q-39 -78 -97.5 -119.5t-114.5 -41.5q-62 0 -101.5 49t-39.5 147q0 95 38.5 175.5t105.5 128t149 47.5q68 0 132 -35l14 25h45zM290.5 87.5q41.5 30.5 74.5 91t47 145.5l20 122q-51 29 -100 29q-59 0 -107 -38.5t-75 -102.5t-27 -138
q0 -70 24 -104.5t64 -34.5q38 0 79.5 30.5zM500 860l-225 -86l-19 41l219 114zM274 603.5q-24 22.5 -24 61.5q0 48 33.5 80t84.5 32q41 0 65 -22.5t24 -61.5q0 -47 -33.5 -79.5t-84.5 -32.5q-41 0 -65 22.5zM389 643.5q17 20.5 17 47.5q0 21 -11 32.5t-32 11.5
q-28 0 -45.5 -20t-17.5 -48q0 -21 11 -32.5t32 -11.5q29 0 46 20.5z" />
    <glyph glyph-name="AEacute" unicode="&#x1fc;" horiz-adv-x="918" 
d="M906 698l-25 -159h-49v97h-242l-39 -248h235l-9 -61h-236l-41 -264h253l31 102h50l-27 -165h-477l7 44l81 19l24 151h-218l-99 -152l83 -18l-7 -44h-237l7 44l76 17l371 573l-77 15l7 44l185 5h373zM494 636l-234 -362h192l57 362h-15zM763 846l-221 -96l-20 41l213 123z
" />
    <glyph glyph-name="aeacute" unicode="&#x1fd;" horiz-adv-x="799" 
d="M674 270.5q-106 -42.5 -254 -43.5v-22q0 -76 33.5 -114.5t91.5 -38.5q68 0 153 48l24 -51q-101 -58 -193 -58q-67 0 -113 32.5t-65 90.5q-25 -49 -83 -86t-109 -37q-60 0 -95 33.5t-35 95.5q0 91 79 123t211 32h28l7 47q10 64 10 81q0 73 -85 73q-42 0 -112 -18l-19 -80
h-50l9 122q114 37 197 37q55 0 87 -24.5t32 -70.5v-6q37 47 88.5 74t113.5 27q73 0 114 -34.5t41 -93.5q0 -96 -106 -138.5zM495 420q-49 -58 -67 -142q273 7 273 124q0 35 -23.5 55.5t-64.5 20.5q-69 0 -118 -58zM254 73.5q36 22.5 60.5 56.5t24.5 66q0 20 1 30h-12
q-101 0 -160.5 -18.5t-59.5 -77.5q0 -37 21 -58t60 -21q29 0 65 22.5zM595 741l-197 -122l-31 43l185 143z" />
    <glyph glyph-name="Oslashacute" unicode="&#x1fe;" horiz-adv-x="738" 
d="M718 744l-87 -115q60 -71 60 -194q0 -110 -43 -212.5t-126 -167t-199 -64.5q-88 0 -148 42l-82 -108l-42 29l86 113q-63 71 -63 197q0 112 43 214t126.5 165.5t197.5 63.5q91 0 152 -43l83 108zM287.5 584.5q-62.5 -56.5 -95 -144t-32.5 -176.5q0 -80 31 -130l356 466
q-44 41 -113 41q-84 0 -146.5 -56.5zM476.5 114.5q62.5 56.5 95.5 144t33 176.5q0 76 -28 126l-356 -465q46 -38 110 -38q83 0 145.5 56.5zM596 846l-221 -96l-20 41l213 123z" />
    <glyph glyph-name="oslashacute" unicode="&#x1ff;" horiz-adv-x="582" 
d="M557 588l-80 -106q48 -54 48 -159q0 -86 -32 -162t-95 -123t-152 -47q-68 0 -114 31l-78 -104l-33 23l82 108q-46 56 -46 157q0 85 32 161t95 123t152 47q66 0 110 -29l77 102zM223.5 435q-42.5 -41 -63.5 -103.5t-21 -125.5q0 -54 15 -90l250 332q-28 28 -78 28
q-60 0 -102.5 -41zM357.5 93q42.5 41 64 103.5t21.5 125.5q0 57 -17 94l-249 -334q28 -30 79 -30q59 0 101.5 41zM494 741l-197 -122l-31 43l185 143z" />
    <glyph glyph-name="uni0200" unicode="&#x200;" horiz-adv-x="675" 
d="M453 700l115 -638l65 -18l-7 -44h-243l8 44l92 18l-22 135h-274l-68 -136l87 -17l-8 -44h-234l8 44l69 17l328 636zM452 258l-57 360l-180 -360h237zM397 764l-43 -21l-95 157l60 31zM536 763l-44 -20l-91 160l61 28z" />
    <glyph glyph-name="uni0201" unicode="&#x201;" horiz-adv-x="585" 
d="M452 66l76 -19l-8 -46l-151 -5l25 156q-39 -78 -97.5 -119.5t-114.5 -41.5q-62 0 -101.5 49t-39.5 147q0 95 38.5 175.5t105.5 128t149 47.5q68 0 132 -35l14 25h45zM290.5 87.5q41.5 30.5 74.5 91t47 145.5l20 122q-51 29 -100 29q-59 0 -107 -38.5t-75 -102.5t-27 -138
q0 -70 24 -104.5t64 -34.5q38 0 79.5 30.5zM327 640l-44 -21l-95 157l61 30zM465 639l-44 -20l-90 159l61 28z" />
    <glyph glyph-name="uni0202" unicode="&#x202;" horiz-adv-x="675" 
d="M453 700l115 -638l65 -18l-7 -44h-243l8 44l92 18l-22 135h-274l-68 -136l87 -17l-8 -44h-234l8 44l69 17l328 636zM452 258l-57 360l-180 -360h237zM522.5 859q33.5 -30 33.5 -82q0 -6 -2 -22h-50q2 36 -17 54.5t-50 18.5q-33 0 -59 -20t-35 -55l-48 3q8 64 51 98.5
t95 34.5q48 0 81.5 -30z" />
    <glyph glyph-name="uni0203" unicode="&#x203;" horiz-adv-x="585" 
d="M452 66l76 -19l-8 -46l-151 -5l25 156q-39 -78 -97.5 -119.5t-114.5 -41.5q-62 0 -101.5 49t-39.5 147q0 95 38.5 175.5t105.5 128t149 47.5q68 0 132 -35l14 25h45zM290.5 87.5q41.5 30.5 74.5 91t47 145.5l20 122q-51 29 -100 29q-59 0 -107 -38.5t-75 -102.5t-27 -138
q0 -70 24 -104.5t64 -34.5q38 0 79.5 30.5zM445.5 730q33.5 -30 33.5 -82q0 -6 -2 -22h-50q2 36 -17 54.5t-50 18.5q-33 0 -59 -20t-35 -55l-48 3q8 64 51 98.5t95 34.5q48 0 81.5 -30z" />
    <glyph glyph-name="uni0204" unicode="&#x204;" horiz-adv-x="606" 
d="M594 698l-25 -159h-49v97h-246l-40 -248h241l-10 -61h-241l-41 -264h258l31 102h50l-27 -165h-485l7 44l84 17l91 572l-79 16l7 44l163 5h311zM365 764l-43 -21l-95 157l60 31zM504 763l-44 -20l-91 160l61 28z" />
    <glyph glyph-name="uni0205" unicode="&#x205;" horiz-adv-x="504" 
d="M122 227q-1 -8 -1 -24q0 -77 33.5 -114.5t92.5 -37.5q72 0 154 47l21 -47q-96 -60 -191 -60q-84 0 -136 52.5t-52 158.5q0 86 35 163t99.5 124.5t149.5 47.5q72 0 114 -33.5t42 -88.5q0 -58 -48 -100.5t-124.5 -65t-160.5 -22.5h-28zM198 423q-49 -55 -68 -137
q24 -2 37 -2q57 0 112 15t90.5 42.5t35.5 65.5q0 32 -24 51.5t-66 19.5q-68 0 -117 -55zM316 640l-44 -21l-95 157l61 30zM454 639l-44 -20l-90 159l61 28z" />
    <glyph glyph-name="uni0206" unicode="&#x206;" horiz-adv-x="606" 
d="M594 698l-25 -159h-49v97h-246l-40 -248h241l-10 -61h-241l-41 -264h258l31 102h50l-27 -165h-485l7 44l84 17l91 572l-79 16l7 44l163 5h311zM490.5 859q33.5 -30 33.5 -82q0 -6 -2 -22h-50q2 36 -17 54.5t-50 18.5q-33 0 -59 -20t-35 -55l-48 3q8 64 51 98.5t95 34.5
q48 0 81.5 -30z" />
    <glyph glyph-name="uni0207" unicode="&#x207;" horiz-adv-x="504" 
d="M122 227q-1 -8 -1 -24q0 -77 33.5 -114.5t92.5 -37.5q72 0 154 47l21 -47q-96 -60 -191 -60q-84 0 -136 52.5t-52 158.5q0 86 35 163t99.5 124.5t149.5 47.5q72 0 114 -33.5t42 -88.5q0 -58 -48 -100.5t-124.5 -65t-160.5 -22.5h-28zM198 423q-49 -55 -68 -137
q24 -2 37 -2q57 0 112 15t90.5 42.5t35.5 65.5q0 32 -24 51.5t-66 19.5q-68 0 -117 -55zM435.5 730q33.5 -30 33.5 -82q0 -6 -2 -22h-50q2 36 -17 54.5t-50 18.5q-33 0 -59 -20t-35 -55l-48 3q8 64 51 98.5t95 34.5q48 0 81.5 -30z" />
    <glyph glyph-name="uni0208" unicode="&#x208;" horiz-adv-x="349" 
d="M367 698l-7 -44l-86 -20l-91 -571l81 -19l-7 -44h-247l7 44l85 17l90 573l-79 15l7 44zM227 764l-43 -21l-95 157l60 31zM366 763l-44 -20l-91 160l61 28z" />
    <glyph glyph-name="uni0209" unicode="&#x209;" horiz-adv-x="286" 
d="M226 532l-75 -467l76 -19l-7 -45l-159 -4l74 466l-75 18l7 45zM182 640l-44 -21l-95 157l61 30zM320 639l-44 -20l-90 159l61 28z" />
    <glyph glyph-name="uni020A" unicode="&#x20a;" horiz-adv-x="349" 
d="M367 698l-7 -44l-86 -20l-91 -571l81 -19l-7 -44h-247l7 44l85 17l90 573l-79 15l7 44zM352.5 859q33.5 -30 33.5 -82q0 -6 -2 -22h-50q2 36 -17 54.5t-50 18.5q-33 0 -59 -20t-35 -55l-48 3q8 64 51 98.5t95 34.5q48 0 81.5 -30z" />
    <glyph glyph-name="uni020B" unicode="&#x20b;" horiz-adv-x="286" 
d="M226 532l-75 -467l76 -19l-7 -45l-159 -4l74 466l-75 18l7 45zM300.5 730q33.5 -30 33.5 -82q0 -6 -2 -22h-50q2 36 -17 54.5t-50 18.5q-33 0 -59 -20t-35 -55l-48 3q8 64 51 98.5t95 34.5q48 0 81.5 -30z" />
    <glyph glyph-name="uni020C" unicode="&#x20c;" horiz-adv-x="726" 
d="M135.5 61.5q-66.5 70.5 -66.5 207.5q0 109 43 210t126 164.5t197 63.5q116 0 183.5 -70.5t67.5 -205.5q0 -107 -43 -208.5t-126.5 -166.5t-197.5 -65q-117 0 -183.5 70.5zM471.5 115q62.5 57 95.5 143.5t33 173.5q0 104 -47.5 156.5t-125.5 52.5q-83 0 -145 -56.5
t-94.5 -143.5t-32.5 -173q0 -105 46.5 -157.5t124.5 -52.5q83 0 145.5 57zM435 764l-43 -21l-95 157l60 31zM574 763l-44 -20l-91 160l61 28z" />
    <glyph glyph-name="uni020D" unicode="&#x20d;" horiz-adv-x="557" 
d="M462.5 484.5q50.5 -52.5 50.5 -161.5q0 -86 -32 -162t-95.5 -123t-152.5 -47q-88 0 -138 52.5t-50 162.5q0 85 32 161t95 123t152 47q88 0 138.5 -52.5zM211 435q-42 -41 -63 -103t-21 -125q0 -75 29.5 -115t88.5 -40t101 41t63.5 103.5t21.5 125.5q0 75 -29.5 114.5
t-88.5 39.5q-60 0 -102 -41zM324 640l-44 -21l-95 157l61 30zM462 639l-44 -20l-90 159l61 28z" />
    <glyph glyph-name="uni020E" unicode="&#x20e;" horiz-adv-x="726" 
d="M135.5 61.5q-66.5 70.5 -66.5 207.5q0 109 43 210t126 164.5t197 63.5q116 0 183.5 -70.5t67.5 -205.5q0 -107 -43 -208.5t-126.5 -166.5t-197.5 -65q-117 0 -183.5 70.5zM471.5 115q62.5 57 95.5 143.5t33 173.5q0 104 -47.5 156.5t-125.5 52.5q-83 0 -145 -56.5
t-94.5 -143.5t-32.5 -173q0 -105 46.5 -157.5t124.5 -52.5q83 0 145.5 57zM560.5 859q33.5 -30 33.5 -82q0 -6 -2 -22h-50q2 36 -17 54.5t-50 18.5q-33 0 -59 -20t-35 -55l-48 3q8 64 51 98.5t95 34.5q48 0 81.5 -30z" />
    <glyph glyph-name="uni020F" unicode="&#x20f;" horiz-adv-x="557" 
d="M462.5 484.5q50.5 -52.5 50.5 -161.5q0 -86 -32 -162t-95.5 -123t-152.5 -47q-88 0 -138 52.5t-50 162.5q0 85 32 161t95 123t152 47q88 0 138.5 -52.5zM211 435q-42 -41 -63 -103t-21 -125q0 -75 29.5 -115t88.5 -40t101 41t63.5 103.5t21.5 125.5q0 75 -29.5 114.5
t-88.5 39.5q-60 0 -102 -41zM442.5 730q33.5 -30 33.5 -82q0 -6 -2 -22h-50q2 36 -17 54.5t-50 18.5q-33 0 -59 -20t-35 -55l-48 3q8 64 51 98.5t95 34.5q48 0 81.5 -30z" />
    <glyph glyph-name="uni0210" unicode="&#x210;" horiz-adv-x="638" 
d="M524 62l59 -18l-7 -44h-118l-60 199q-16 50 -31 72.5t-35.5 29t-60.5 5.5h-48l-40 -243l96 -19l-6 -44h-263l7 44l85 18l91 571l-80 16l7 44l168 5h104q98 0 146.5 -38.5t48.5 -116.5q0 -85 -53 -144t-141 -76q28 -11 45.5 -37t32.5 -70zM232 367h68q61 0 107 22
t70.5 60.5t24.5 85.5q0 65 -38.5 83t-89.5 18h-100zM358 763l-43 -21l-95 157l60 31zM497 762l-44 -20l-91 160l61 28z" />
    <glyph glyph-name="uni0211" unicode="&#x211;" horiz-adv-x="407" 
d="M441 531l-25 -147h-51l2 89q-38 -2 -77.5 -34t-71 -91.5t-44.5 -140.5l-33 -207h-80l74 463l-75 18l7 45l155 6l-29 -151q38 73 95.5 114.5t113.5 41.5q25 0 39 -6zM260 640l-44 -21l-95 157l61 30zM398 639l-44 -20l-90 159l61 28z" />
    <glyph glyph-name="uni0212" unicode="&#x212;" horiz-adv-x="638" 
d="M524 62l59 -18l-7 -44h-118l-60 199q-16 50 -31 72.5t-35.5 29t-60.5 5.5h-48l-40 -243l96 -19l-6 -44h-263l7 44l85 18l91 571l-80 16l7 44l168 5h104q98 0 146.5 -38.5t48.5 -116.5q0 -85 -53 -144t-141 -76q28 -11 45.5 -37t32.5 -70zM232 367h68q61 0 107 22
t70.5 60.5t24.5 85.5q0 65 -38.5 83t-89.5 18h-100zM483.5 858q33.5 -30 33.5 -82q0 -6 -2 -22h-50q2 36 -17 54.5t-50 18.5q-33 0 -59 -20t-35 -55l-48 3q8 64 51 98.5t95 34.5q48 0 81.5 -30z" />
    <glyph glyph-name="uni0213" unicode="&#x213;" horiz-adv-x="407" 
d="M441 531l-25 -147h-51l2 89q-38 -2 -77.5 -34t-71 -91.5t-44.5 -140.5l-33 -207h-80l74 463l-75 18l7 45l155 6l-29 -151q38 73 95.5 114.5t113.5 41.5q25 0 39 -6zM378.5 730q33.5 -30 33.5 -82q0 -6 -2 -22h-50q2 36 -17 54.5t-50 18.5q-33 0 -59 -20t-35 -55l-48 3
q8 64 51 98.5t95 34.5q48 0 81.5 -30z" />
    <glyph glyph-name="uni0214" unicode="&#x214;" horiz-adv-x="729" 
d="M766 698l-7 -44l-87 -20l-58 -372q-22 -139 -91 -205t-202 -66q-110 0 -162.5 46.5t-52.5 141.5q0 38 7 77l60 378l-80 15l7 44l246 5l-7 -44l-84 -20l-61 -383q-7 -45 -7 -70q0 -65 32 -94.5t106 -29.5q99 0 144.5 51t63.5 159l58 367l-79 15l6 44zM415 764l-43 -21
l-95 157l60 31zM554 763l-44 -20l-91 160l61 28z" />
    <glyph glyph-name="uni0215" unicode="&#x215;" horiz-adv-x="605" 
d="M471 62l76 -17l-6 -44l-153 -4l26 153q-40 -79 -99 -119t-118 -40q-55 0 -87.5 34.5t-32.5 96.5q0 24 4 45l47 298l-75 16l7 45l159 6l-56 -349q-4 -28 -4 -39q0 -43 19 -65.5t52 -22.5q39 0 80.5 29.5t74.5 89t47 146.5l32 207h80zM335 640l-44 -21l-95 157l61 30z
M473 639l-44 -20l-90 159l61 28z" />
    <glyph glyph-name="uni0216" unicode="&#x216;" horiz-adv-x="729" 
d="M766 698l-7 -44l-87 -20l-58 -372q-22 -139 -91 -205t-202 -66q-110 0 -162.5 46.5t-52.5 141.5q0 38 7 77l60 378l-80 15l7 44l246 5l-7 -44l-84 -20l-61 -383q-7 -45 -7 -70q0 -65 32 -94.5t106 -29.5q99 0 144.5 51t63.5 159l58 367l-79 15l6 44zM540.5 859
q33.5 -30 33.5 -82q0 -6 -2 -22h-50q2 36 -17 54.5t-50 18.5q-33 0 -59 -20t-35 -55l-48 3q8 64 51 98.5t95 34.5q48 0 81.5 -30z" />
    <glyph glyph-name="uni0217" unicode="&#x217;" horiz-adv-x="605" 
d="M471 62l76 -17l-6 -44l-153 -4l26 153q-40 -79 -99 -119t-118 -40q-55 0 -87.5 34.5t-32.5 96.5q0 24 4 45l47 298l-75 16l7 45l159 6l-56 -349q-4 -28 -4 -39q0 -43 19 -65.5t52 -22.5q39 0 80.5 29.5t74.5 89t47 146.5l32 207h80zM453.5 730q33.5 -30 33.5 -82
q0 -6 -2 -22h-50q2 36 -17 54.5t-50 18.5q-33 0 -59 -20t-35 -55l-48 3q8 64 51 98.5t95 34.5q48 0 81.5 -30z" />
    <glyph glyph-name="uni0218" unicode="&#x218;" horiz-adv-x="581" 
d="M526 510h-49l5 112q-53 22 -112 22q-71 0 -121 -33.5t-50 -92.5q0 -33 17.5 -55t43.5 -35.5t71 -30.5q55 -21 90 -40t59 -54.5t24 -91.5q0 -70 -37.5 -119.5t-100.5 -75t-138 -25.5q-100 0 -192 42l30 165h49l-3 -115q60 -27 126 -27q78 0 131 36.5t53 101.5
q0 36 -18 59.5t-44.5 37.5t-74.5 33q-54 21 -87.5 39.5t-56.5 52t-23 86.5q0 65 34 111t92 70t128 24q96 0 185 -42zM163 -254q45 60 45 85q0 7 -6 20.5t-6 26.5q0 25 15.5 39t35.5 14q19 0 31.5 -12t12.5 -35q0 -60 -100 -161z" />
    <glyph glyph-name="uni0219" unicode="&#x219;" horiz-adv-x="475" 
d="M196.5 456q-36.5 -24 -37.5 -63q0 -33 26 -51.5t82 -41.5q46 -19 74 -34t48 -42t20 -67q0 -50 -30.5 -87.5t-84.5 -58t-122 -20.5q-76 0 -158 22l25 139h52l-4 -89q39 -13 89 -13q64 0 107 25.5t44 69.5q0 36 -27 56t-83 41q-46 18 -73 32.5t-46 40.5t-19 66q0 72 59 114
t150 42q73 0 157 -28l-21 -118h-50l-3 76q-40 13 -82 13q-56 0 -92.5 -24zM84 -254q45 60 45 85q0 7 -6 20.5t-6 26.5q0 25 15.5 39t35.5 14q19 0 31.5 -12t12.5 -35q0 -60 -100 -161z" />
    <glyph glyph-name="uni021A" unicode="&#x21a;" horiz-adv-x="569" 
d="M70 526l27 172h512l-27 -172h-49l-1 110h-147l-91 -573l93 -19l-7 -44h-273l7 44l98 18l91 574h-149l-34 -110h-50zM145 -254q45 60 45 85q0 7 -6 20.5t-6 26.5q0 25 15.5 39t35.5 14q19 0 31.5 -12t12.5 -35q0 -60 -100 -161z" />
    <glyph glyph-name="uni021B" unicode="&#x21b;" horiz-adv-x="357" 
d="M216 471l-54 -340q-2 -12 -2 -24q0 -53 47 -53q33 0 81 24l19 -53q-69 -34 -127 -34q-47 0 -74 25.5t-27 76.5q0 9 2 33l55 345h-87l7 45l89 13l19 118l82 13l-21 -132h139l-9 -57h-139zM62 -254q45 60 45 85q0 7 -6 20.5t-6 26.5q0 25 15.5 39t35.5 14q19 0 31.5 -12
t12.5 -35q0 -60 -100 -161z" />
    <glyph glyph-name="uni022A" unicode="&#x22a;" horiz-adv-x="726" 
d="M135.5 61.5q-66.5 70.5 -66.5 207.5q0 109 43 210t126 164.5t197 63.5q116 0 183.5 -70.5t67.5 -205.5q0 -107 -43 -208.5t-126.5 -166.5t-197.5 -65q-117 0 -183.5 70.5zM471.5 115q62.5 57 95.5 143.5t33 173.5q0 104 -47.5 156.5t-125.5 52.5q-83 0 -145 -56.5
t-94.5 -143.5t-32.5 -173q0 -105 46.5 -157.5t124.5 -52.5q83 0 145.5 57zM336.5 761q-11.5 13 -11.5 35q0 25 14.5 41t37.5 16q19 0 30.5 -12.5t11.5 -34.5q0 -25 -14.5 -41.5t-36.5 -16.5q-20 0 -31.5 13zM527 761q-12 13 -12 35q0 25 14.5 41t37.5 16q20 0 31.5 -12.5
t11.5 -34.5q0 -25 -14.5 -41.5t-37.5 -16.5q-19 0 -31 13zM363 960h256l-9 -60h-256z" />
    <glyph glyph-name="uni022B" unicode="&#x22b;" horiz-adv-x="557" 
d="M462.5 484.5q50.5 -52.5 50.5 -161.5q0 -86 -32 -162t-95.5 -123t-152.5 -47q-88 0 -138 52.5t-50 162.5q0 85 32 161t95 123t152 47q88 0 138.5 -52.5zM211 435q-42 -41 -63 -103t-21 -125q0 -75 29.5 -115t88.5 -40t101 41t63.5 103.5t21.5 125.5q0 75 -29.5 114.5
t-88.5 39.5q-60 0 -102 -41zM245 828h256l-9 -60h-256zM214.5 622q-11.5 13 -11.5 35q0 25 14.5 41t37.5 16q19 0 30.5 -12.5t11.5 -34.5q0 -25 -14.5 -41.5t-36.5 -16.5q-20 0 -31.5 13zM405 622q-12 13 -12 35q0 25 14.5 41t37.5 16q20 0 31.5 -12.5t11.5 -34.5
q0 -25 -14.5 -41.5t-37.5 -16.5q-19 0 -31 13z" />
    <glyph glyph-name="uni022C" unicode="&#x22c;" horiz-adv-x="726" 
d="M135.5 61.5q-66.5 70.5 -66.5 207.5q0 109 43 210t126 164.5t197 63.5q116 0 183.5 -70.5t67.5 -205.5q0 -107 -43 -208.5t-126.5 -166.5t-197.5 -65q-117 0 -183.5 70.5zM471.5 115q62.5 57 95.5 143.5t33 173.5q0 104 -47.5 156.5t-125.5 52.5q-83 0 -145 -56.5
t-94.5 -143.5t-32.5 -173q0 -105 46.5 -157.5t124.5 -52.5q83 0 145.5 57zM363 951h256l-9 -60h-256zM302 760q24 44 48.5 64t52.5 20q18 0 33.5 -5.5t38.5 -17.5q18 -9 30.5 -14t24.5 -5q33 0 65 45l33 -21q-44 -84 -103 -84q-17 0 -31.5 5.5t-34.5 16.5q-22 11 -34 15.5
t-26 4.5q-17 0 -31.5 -10.5t-32.5 -34.5z" />
    <glyph glyph-name="uni022D" unicode="&#x22d;" horiz-adv-x="557" 
d="M462.5 484.5q50.5 -52.5 50.5 -161.5q0 -86 -32 -162t-95.5 -123t-152.5 -47q-88 0 -138 52.5t-50 162.5q0 85 32 161t95 123t152 47q88 0 138.5 -52.5zM211 435q-42 -41 -63 -103t-21 -125q0 -75 29.5 -115t88.5 -40t101 41t63.5 103.5t21.5 125.5q0 75 -29.5 114.5
t-88.5 39.5q-60 0 -102 -41zM182 624q24 44 48.5 64t52.5 20q18 0 33.5 -5.5t38.5 -17.5q18 -9 30.5 -14t24.5 -5q33 0 65 45l33 -21q-44 -84 -103 -84q-17 0 -31.5 5.5t-34.5 16.5q-22 11 -34 15.5t-26 4.5q-17 0 -31.5 -10.5t-32.5 -34.5zM245 827h256l-9 -60h-256z" />
    <glyph glyph-name="uni0230" unicode="&#x230;" horiz-adv-x="726" 
d="M135.5 61.5q-66.5 70.5 -66.5 207.5q0 109 43 210t126 164.5t197 63.5q116 0 183.5 -70.5t67.5 -205.5q0 -107 -43 -208.5t-126.5 -166.5t-197.5 -65q-117 0 -183.5 70.5zM471.5 115q62.5 57 95.5 143.5t33 173.5q0 104 -47.5 156.5t-125.5 52.5q-83 0 -145 -56.5
t-94.5 -143.5t-32.5 -173q0 -105 46.5 -157.5t124.5 -52.5q83 0 145.5 57zM428 758q-13 14 -13 37q0 27 17 45t43 18q22 0 35 -13.5t13 -36.5q0 -28 -17 -46t-43 -18q-22 0 -35 14zM364 960h256l-9 -60h-256z" />
    <glyph glyph-name="uni0231" unicode="&#x231;" horiz-adv-x="557" 
d="M462.5 484.5q50.5 -52.5 50.5 -161.5q0 -86 -32 -162t-95.5 -123t-152.5 -47q-88 0 -138 52.5t-50 162.5q0 85 32 161t95 123t152 47q88 0 138.5 -52.5zM211 435q-42 -41 -63 -103t-21 -125q0 -75 29.5 -115t88.5 -40t101 41t63.5 103.5t21.5 125.5q0 75 -29.5 114.5
t-88.5 39.5q-60 0 -102 -41zM247 832h256l-9 -60h-256zM306 619q-13 14 -13 37q0 27 17 45t43 18q22 0 35 -13.5t13 -36.5q0 -28 -17 -46t-43 -18q-22 0 -35 14z" />
    <glyph glyph-name="uni0232" unicode="&#x232;" horiz-adv-x="624" 
d="M680 654l-74 -15l-256 -389l-29 -187l82 -19l-7 -44h-249l6 44l87 18l31 197l-131 376l-73 14l6 44l249 5l-7 -44l-93 -18l104 -318l205 316l-85 15l7 44l234 5zM280 847h256l-9 -60h-256z" />
    <glyph glyph-name="uni0233" unicode="&#x233;" horiz-adv-x="510" 
d="M556 532l-6 -45l-51 -13l-237 -476q-40 -79 -67.5 -123t-76.5 -79t-120 -35q-21 0 -51 5l11 60q7 -1 16 -2t21 -1q45 0 77.5 20t58.5 58.5t59 105.5l-106 464l-56 10l7 44l121 7l84 -439l183 378l-61 10l6 44zM173 731h256l-9 -60h-256z" />
    <glyph glyph-name="uni0237" unicode="&#x237;" horiz-adv-x="272" 
d="M67 526l158 6l-90 -571q-17 -107 -65 -153.5t-129 -46.5q-22 0 -52 5l13 58q22 -2 32 -2q55 0 81.5 28t37.5 94l81 521l-74 16z" />
    <glyph glyph-name="uni0259" unicode="&#x259;" horiz-adv-x="501" 
d="M409 484.5q52 -52.5 52 -158.5q0 -86 -35 -163t-99 -124.5t-149 -47.5q-73 0 -115 33.5t-42 88.5q0 58 48 100.5t125 65t161 22.5h27q1 8 1 24q0 77 -33.5 115t-92.5 38q-69 0 -154 -47l-21 46q96 60 191 60q84 0 136 -52.5zM306.5 106q49.5 55 67.5 137q-24 2 -36 2
q-57 0 -112.5 -15t-91 -43t-35.5 -66q0 -32 24 -51t66 -19q68 0 117.5 55z" />
    <glyph glyph-name="uni02BB" unicode="&#x2bb;" horiz-adv-x="146" 
d="M175 636q-15 -15 -36 -15q-18 0 -31 13t-13 36q0 33 29.5 85t82.5 107l28 -25q-57 -82 -57 -111q0 -6 2 -12t3 -10q7 -14 7 -29q0 -24 -15 -39z" />
    <glyph glyph-name="uni02BC" unicode="&#x2bc;" horiz-adv-x="187" 
d="M144 766.5q15 14.5 35 14.5q19 0 31.5 -12.5t12.5 -36.5q0 -32 -29.5 -84.5t-81.5 -106.5l-28 24q57 82 57 112q0 5 -2 11.5t-3 9.5q-7 14 -7 29q0 25 15 39.5z" />
    <glyph glyph-name="circumflex" unicode="&#x2c6;" horiz-adv-x="465" 
d="M336 794l116 -133l-34 -33l-114 98l-140 -98l-24 33l148 129z" />
    <glyph glyph-name="caron" horiz-adv-x="465" 
d="M303 698l140 97l24 -33l-148 -129l-48 -4l-116 133l34 33z" />
    <glyph glyph-name="breve" horiz-adv-x="411" 
d="M187 660.5q-33 29.5 -33 81.5q0 7 2 23h50q-2 -36 16.5 -54.5t49.5 -18.5q33 0 59.5 20t35.5 55l48 -3q-9 -64 -51.5 -98.5t-94.5 -34.5q-49 0 -82 29.5z" />
    <glyph glyph-name="ring" unicode="&#x2da;" horiz-adv-x="356" 
d="M170 640.5q-24 22.5 -24 60.5q0 48 33.5 80t84.5 32q41 0 65 -22t24 -61q0 -48 -33.5 -80t-84.5 -32q-41 0 -65 22.5zM285 680.5q17 20.5 17 47.5q0 21 -11 32.5t-32 11.5q-28 0 -45.5 -20.5t-17.5 -48.5q0 -20 11.5 -31.5t32.5 -11.5q28 0 45 20.5z" />
    <glyph glyph-name="tilde" unicode="&#x2dc;" horiz-adv-x="475" 
d="M331 656q-15 7 -34 20q-17 12 -29.5 17.5t-25.5 5.5q-18 0 -35 -12t-35 -37l-33 20q48 92 108 92q19 0 33.5 -7t35.5 -20q17 -12 29.5 -17.5t26.5 -5.5q18 0 34.5 11.5t34.5 37.5l33 -19q-48 -93 -109 -93q-19 0 -34 7z" />
    <glyph glyph-name="hungarumlaut" horiz-adv-x="408" 
d="M269 778l-91 -159l-44 20l74 167zM412 776l-96 -157l-43 21l78 166z" />
    <glyph glyph-name="gravecomb" 
d="M-236 743l45 64l175 -146l-29 -42z" />
    <glyph glyph-name="acutecomb" 
d="M-35 741l-197 -122l-31 43l185 143z" />
    <glyph glyph-name="uni0302" 
d="M-129 793l116 -133l-34 -33l-114 98l-140 -98l-24 33l148 129z" />
    <glyph glyph-name="tildecomb" 
d="M-144 656q-15 7 -34 20q-17 12 -29.5 17.5t-25.5 5.5q-18 0 -35 -12t-35 -37l-33 20q48 92 108 92q19 0 33.5 -7t35.5 -20q17 -12 29.5 -17.5t26.5 -5.5q18 0 34.5 11.5t34.5 37.5l33 -19q-48 -93 -109 -93q-19 0 -34 7z" />
    <glyph glyph-name="uni0304" 
d="M-258 731h256l-9 -60h-256z" />
    <glyph glyph-name="uni0306" 
d="M-224 660.5q-33 29.5 -33 81.5q0 7 2 23h50q-2 -36 16.5 -54.5t49.5 -18.5q33 0 59.5 20t35.5 55l48 -3q-9 -64 -51.5 -98.5t-94.5 -34.5q-49 0 -82 29.5z" />
    <glyph glyph-name="uni0307" 
d="M-56 652q-13 14 -13 37q0 27 17 45t43 18q22 0 35 -13.5t13 -36.5q0 -28 -17 -46t-43 -18q-22 0 -35 14z" />
    <glyph glyph-name="uni0308" 
d="M-280.5 656q-11.5 13 -11.5 35q0 25 14.5 41t37.5 16q19 0 30.5 -12.5t11.5 -34.5q0 -25 -14.5 -41.5t-36.5 -16.5q-20 0 -31.5 13zM-90 656q-12 13 -12 35q0 25 14.5 41t37.5 16q20 0 31.5 -12.5t11.5 -34.5q0 -25 -14.5 -41.5t-37.5 -16.5q-19 0 -31 13z" />
    <glyph glyph-name="hookabovecomb" 
d="M-142 677q38 3 58.5 16.5t20.5 35.5q0 31 -44 31q-28 0 -53 -9l-9 41q40 15 79 15q40 0 64 -17.5t24 -53.5q0 -34 -23 -57t-67 -30l-8 -43h-54z" />
    <glyph glyph-name="uni030A" 
d="M-186 640.5q-24 22.5 -24 60.5q0 48 33.5 80t84.5 32q41 0 65 -22t24 -61q0 -48 -33.5 -80t-84.5 -32q-41 0 -65 22.5zM-71 680.5q17 20.5 17 47.5q0 21 -11 32.5t-32 11.5q-28 0 -45.5 -20.5t-17.5 -48.5q0 -20 11.5 -31.5t32.5 -11.5q28 0 45 20.5z" />
    <glyph glyph-name="uni030B" 
d="M-126 778l-91 -159l-44 20l74 167zM17 776l-96 -157l-43 21l78 166z" />
    <glyph glyph-name="uni030C" 
d="M-162 698l140 97l24 -33l-148 -129l-48 -4l-116 133l34 33z" />
    <glyph glyph-name="uni030F" 
d="M-131 640l-44 -21l-95 157l61 30zM7 639l-44 -20l-90 159l61 28z" />
    <glyph glyph-name="uni0311" 
d="M-40.5 730q33.5 -30 33.5 -82q0 -6 -2 -22h-50q2 36 -17 54.5t-50 18.5q-33 0 -59 -20t-35 -55l-48 3q8 64 51 98.5t95 34.5q48 0 81.5 -30z" />
    <glyph glyph-name="uni0312" 
d="M17 822q-45 -62 -45 -84q0 -7 2.5 -12.5t3.5 -7.5q7 -16 7 -28q0 -24 -16 -38.5t-36 -14.5q-18 0 -31 12t-13 35q0 28 24.5 69t75.5 92z" />
    <glyph glyph-name="dotbelowcomb" 
d="M-234 -169q-13 14 -13 37q0 27 17 45t43 18q22 0 35 -13.5t13 -36.5q0 -28 -17 -46t-43 -18q-22 0 -35 14z" />
    <glyph glyph-name="uni0326" 
d="M-265 -254q45 60 45 85q0 7 -6 20.5t-6 26.5q0 25 15.5 39t35.5 14q19 0 31.5 -12t12.5 -35q0 -60 -100 -161z" />
    <glyph glyph-name="uni0327" 
d="M-315 -213l23 43q32 -15 67 -15q28 0 46.5 11.5t18.5 32.5q0 41 -89 44l20 97h50l-9 -58q46 -5 67 -23.5t21 -49.5q0 -46 -36.5 -74.5t-91.5 -28.5q-43 0 -87 21z" />
    <glyph glyph-name="uni032E" 
d="M-356 -179.5q-33 29.5 -33 81.5q0 7 2 23h50q-2 -36 16.5 -54.5t49.5 -18.5q33 0 59.5 20t35.5 55l48 -3q-9 -64 -51.5 -98.5t-94.5 -34.5q-49 0 -82 29.5z" />
    <glyph glyph-name="uni0331" 
d="M-390 -97h256l-9 -60h-256z" />
    <glyph glyph-name="uni04D8" horiz-adv-x="677" 
d="M570 636.5q64 -70.5 64 -204.5q0 -110 -44 -212t-123.5 -165.5t-182.5 -63.5q-101 0 -161.5 63t-60.5 173q0 64 17 132l466 -3q5 40 5 72q0 105 -44.5 158t-125.5 53q-104 0 -233 -81l-27 51q73 49 144.5 73.5t133.5 24.5q108 0 172 -70.5zM442.5 123.5
q61.5 67.5 89.5 170.5h-381q-5 -42 -5 -67q0 -84 40 -127.5t108 -43.5q87 0 148.5 67.5z" />
    <glyph glyph-name="uni04D9" horiz-adv-x="504" 
d="M409 484.5q52 -52.5 52 -158.5q0 -86 -35 -163t-99 -124.5t-149 -47.5q-73 0 -115 33.5t-42 88.5q0 58 48 100.5t125 65t161 22.5h27q1 8 1 24q0 77 -33.5 115t-92.5 38q-69 0 -154 -47l-21 46q96 60 191 60q84 0 136 -52.5zM306.5 106q49.5 55 67.5 137q-24 2 -36 2
q-57 0 -112.5 -15t-91 -43t-35.5 -66q0 -32 24 -51t66 -19q68 0 117.5 55z" />
    <glyph glyph-name="uni1E08" unicode="&#x1e08;" horiz-adv-x="623" 
d="M556 914l28 -68l-221 -96l-20 41zM594 501h-50l3 113q-68 27 -127 27q-80 0 -140 -53t-92.5 -137t-32.5 -172q0 -108 48 -163.5t124 -55.5q46 0 96 21t96 61l28 -53q-53 -45 -109.5 -69.5t-111.5 -27.5l-8 -50q46 -5 67 -23.5t21 -49.5q0 -46 -36.5 -74.5t-91.5 -28.5
q-43 0 -87 21l23 43q32 -15 67 -15q28 0 46.5 11.5t18.5 32.5q0 41 -89 44l19 90q-92 11 -149.5 83.5t-57.5 199.5q0 111 44.5 210t125 160t184.5 61q98 0 201 -50z" />
    <glyph glyph-name="uni1E09" unicode="&#x1e09;" horiz-adv-x="481" 
d="M427 805l43 -64l-197 -122l-31 43zM452 371h-55l1 85q-42 21 -81 21q-55 0 -99 -37t-69 -98.5t-25 -130.5q0 -80 32.5 -118.5t88.5 -38.5q61 0 138 44l24 -50q-79 -50 -160 -56l-8 -50q46 -5 67 -23.5t21 -49.5q0 -46 -36.5 -74.5t-91.5 -28.5q-43 0 -87 21l23 43
q32 -15 67 -15q28 0 46.5 11.5t18.5 32.5q0 41 -89 44l19 90q-70 9 -112.5 63.5t-42.5 150.5q0 92 38 167.5t102.5 119t142.5 43.5q75 0 148 -41z" />
    <glyph glyph-name="uni1E0C" unicode="&#x1e0c;" horiz-adv-x="710" 
d="M400 698q268 0 268 -269q0 -114 -46 -212t-132 -157.5t-201 -59.5h-279l7 44l85 18l91 571l-80 16l7 44l182 5h98zM303 63q86 0 149.5 56t97 142.5t33.5 172.5q0 101 -50 151.5t-147 50.5h-112l-91 -573h120zM227 -169q-13 14 -13 37q0 27 17 45t43 18q22 0 35 -13.5
t13 -36.5q0 -28 -17 -46t-43 -18q-22 0 -35 14z" />
    <glyph glyph-name="uni1E0D" unicode="&#x1e0d;" horiz-adv-x="586" 
d="M563 772l-111 -706l76 -19l-8 -46l-151 -5l25 156q-39 -78 -97.5 -119.5t-114.5 -41.5q-62 0 -101.5 49t-39.5 147q0 95 38.5 175.5t105.5 128t149 47.5q55 0 109 -24l30 188l-79 20l7 44zM290 87.5q41 30.5 74.5 91t47.5 145.5l20 122q-51 29 -100 29q-59 0 -107 -38.5
t-75 -102.5t-27 -138q0 -70 24 -104.5t64 -34.5q38 0 79 30.5zM191 -169q-13 14 -13 37q0 27 17 45t43 18q22 0 35 -13.5t13 -36.5q0 -28 -17 -46t-43 -18q-22 0 -35 14z" />
    <glyph glyph-name="uni1E0E" unicode="&#x1e0e;" horiz-adv-x="710" 
d="M400 698q268 0 268 -269q0 -114 -46 -212t-132 -157.5t-201 -59.5h-279l7 44l85 18l91 571l-80 16l7 44l182 5h98zM303 63q86 0 149.5 56t97 142.5t33.5 172.5q0 101 -50 151.5t-147 50.5h-112l-91 -573h120zM146 -97h256l-9 -60h-256z" />
    <glyph glyph-name="uni1E0F" unicode="&#x1e0f;" horiz-adv-x="586" 
d="M563 772l-111 -706l76 -19l-8 -46l-151 -5l25 156q-39 -78 -97.5 -119.5t-114.5 -41.5q-62 0 -101.5 49t-39.5 147q0 95 38.5 175.5t105.5 128t149 47.5q55 0 109 -24l30 188l-79 20l7 44zM290 87.5q41 30.5 74.5 91t47.5 145.5l20 122q-51 29 -100 29q-59 0 -107 -38.5
t-75 -102.5t-27 -138q0 -70 24 -104.5t64 -34.5q38 0 79 30.5zM108 -97h256l-9 -60h-256z" />
    <glyph glyph-name="uni1E14" unicode="&#x1e14;" horiz-adv-x="606" 
d="M594 698l-25 -159h-49v97h-246l-40 -248h241l-10 -61h-241l-41 -264h258l31 102h50l-27 -165h-485l7 44l84 17l91 572l-79 16l7 44l163 5h311zM530 875l-21 -43l-221 86l33 68zM267 809h256l-9 -61h-256z" />
    <glyph glyph-name="uni1E15" unicode="&#x1e15;" horiz-adv-x="504" 
d="M122 227q-1 -8 -1 -24q0 -77 33.5 -114.5t92.5 -37.5q72 0 154 47l21 -47q-96 -60 -191 -60q-84 0 -136 52.5t-52 158.5q0 86 35 163t99.5 124.5t149.5 47.5q72 0 114 -33.5t42 -88.5q0 -58 -48 -100.5t-124.5 -65t-160.5 -22.5h-28zM198 423q-49 -55 -68 -137
q24 -2 37 -2q57 0 112 15t90.5 42.5t35.5 65.5q0 32 -24 51.5t-66 19.5q-68 0 -117 -55zM483 757l-22 -44l-221 86l33 68zM212 674h256l-9 -60h-256z" />
    <glyph glyph-name="uni1E16" unicode="&#x1e16;" horiz-adv-x="606" 
d="M594 698l-25 -159h-49v97h-246l-40 -248h241l-10 -61h-241l-41 -264h258l31 102h50l-27 -165h-485l7 44l84 17l91 572l-79 16l7 44l163 5h311zM532 918l-225 -86l-19 41l218 114zM268 809h257l-10 -61h-256z" />
    <glyph glyph-name="uni1E17" unicode="&#x1e17;" horiz-adv-x="504" 
d="M122 227q-1 -8 -1 -24q0 -77 33.5 -114.5t92.5 -37.5q72 0 154 47l21 -47q-96 -60 -191 -60q-84 0 -136 52.5t-52 158.5q0 86 35 163t99.5 124.5t149.5 47.5q72 0 114 -33.5t42 -88.5q0 -58 -48 -100.5t-124.5 -65t-160.5 -22.5h-28zM198 423q-49 -55 -68 -137
q24 -2 37 -2q57 0 112 15t90.5 42.5t35.5 65.5q0 32 -24 51.5t-66 19.5q-68 0 -117 -55zM477 798l-225 -86l-19 42l218 113zM215 674h256l-10 -60h-256z" />
    <glyph glyph-name="uni1E1C" unicode="&#x1e1c;" horiz-adv-x="606" 
d="M594 698l-25 -159h-49v97h-246l-40 -248h241l-10 -61h-241l-41 -264h258l31 102h50l-27 -165h-485l7 44l84 17l91 572l-79 16l7 44l163 5h311zM152 -213l23 43q32 -15 67 -15q28 0 46.5 11.5t18.5 32.5q0 41 -89 44l20 97h50l-9 -58q46 -5 67 -23.5t21 -49.5
q0 -46 -36.5 -74.5t-91.5 -28.5q-43 0 -87 21zM311.5 789.5q-34.5 28.5 -34.5 78.5q0 7 2 21h48q-2 -38 18.5 -55t53.5 -17t61.5 20t36.5 54l47 -4q-9 -60 -52.5 -93t-96.5 -33q-49 0 -83.5 28.5z" />
    <glyph glyph-name="uni1E1D" unicode="&#x1e1d;" horiz-adv-x="504" 
d="M259 660.5q-33 29.5 -33 81.5q0 7 2 23h50q-2 -36 16.5 -54.5t49.5 -18.5q33 0 59.5 20t35.5 55l48 -3q-9 -64 -51.5 -98.5t-94.5 -34.5q-49 0 -82 29.5zM441 503.5q42 -33.5 42 -88.5q0 -58 -48 -100.5t-124.5 -65t-160.5 -22.5h-28q-1 -8 -1 -24q0 -77 33.5 -114.5
t92.5 -37.5q72 0 154 47l21 -47q-83 -51 -164 -59l-8 -50q46 -5 67 -23.5t21 -49.5q0 -46 -36.5 -74.5t-91.5 -28.5q-43 0 -87 21l23 43q32 -15 67 -15q28 0 46.5 11.5t18.5 32.5q0 41 -89 44l18 89q-75 7 -119.5 59.5t-44.5 150.5q0 86 35 163t99.5 124.5t149.5 47.5
q72 0 114 -33.5zM279 299q55 15 90.5 42.5t35.5 65.5q0 32 -24 51.5t-66 19.5q-68 0 -117 -55t-68 -137q24 -2 37 -2q57 0 112 15z" />
    <glyph glyph-name="uni1E20" unicode="&#x1e20;" horiz-adv-x="718" 
d="M694 337l-7 -47l-83 -17l-34 -226q-138 -56 -246 -56q-120 0 -187.5 69.5t-67.5 213.5q0 121 47.5 220t132.5 156t195 57q104 0 216 -51l-30 -157h-49l1 114q-69 28 -132 28q-86 0 -153.5 -48.5t-104.5 -132t-37 -185.5q0 -113 46.5 -164.5t134.5 -51.5q69 0 165 33
l27 182l-80 12l7 46zM342 846h256l-9 -60h-256z" />
    <glyph glyph-name="uni1E21" unicode="&#x1e21;" horiz-adv-x="572" 
d="M480 528h45l-86 -540q-19 -119 -83.5 -173t-162.5 -54q-77 0 -176 32l18 60q88 -31 157 -31q149 0 175 164l25 161q-39 -76 -97 -116t-113 -40q-62 0 -101.5 49t-39.5 147q0 95 38.5 175.5t105.5 127.5t149 47q66 0 133 -34zM290 87.5q41 30.5 74.5 91t47.5 145.5l20 122
q-51 29 -100 29q-59 0 -107 -38.5t-75 -102.5t-27 -138q0 -70 24 -104.5t64 -34.5q38 0 79 30.5zM230 731h256l-9 -60h-256z" />
    <glyph glyph-name="uni1E24" unicode="&#x1e24;" horiz-adv-x="769" 
d="M787 698l-7 -44l-87 -20l-90 -571l80 -19l-7 -44h-246l6 44l85 17l42 263h-338l-42 -261l81 -19l-7 -44h-247l7 44l85 17l91 572l-80 16l7 44l247 5l-7 -44l-86 -20l-40 -247h338l40 246l-80 16l7 44zM285 -169q-13 14 -13 37q0 27 17 45t43 18q22 0 35 -13.5t13 -36.5
q0 -28 -17 -46t-43 -18q-22 0 -35 14z" />
    <glyph glyph-name="uni1E25" unicode="&#x1e25;" horiz-adv-x="591" 
d="M464 65l75 -18l-7 -46l-160 -4l57 348q3 21 3 38q0 44 -18.5 66.5t-52.5 22.5q-39 0 -80 -29.5t-74 -89.5t-47 -146l-33 -207h-80l112 705l-76 15l7 46l159 6l-65 -383q40 74 96.5 111t112.5 37q55 0 88 -35t33 -99q0 -19 -3 -42zM189 -169q-13 14 -13 37q0 27 17 45
t43 18q22 0 35 -13.5t13 -36.5q0 -28 -17 -46t-43 -18q-22 0 -35 14z" />
    <glyph glyph-name="uni1E2A" unicode="&#x1e2a;" horiz-adv-x="769" 
d="M787 698l-7 -44l-87 -20l-90 -571l80 -19l-7 -44h-246l6 44l85 17l42 263h-338l-42 -261l81 -19l-7 -44h-247l7 44l85 17l91 572l-80 16l7 44l247 5l-7 -44l-86 -20l-40 -247h338l40 246l-80 16l7 44zM238 -179.5q-33 29.5 -33 81.5q0 7 2 23h50q-2 -36 16.5 -54.5
t49.5 -18.5q33 0 59.5 20t35.5 55l48 -3q-9 -64 -51.5 -98.5t-94.5 -34.5q-49 0 -82 29.5z" />
    <glyph glyph-name="uni1E2B" unicode="&#x1e2b;" horiz-adv-x="591" 
d="M464 65l75 -18l-7 -46l-160 -4l57 348q3 21 3 38q0 44 -18.5 66.5t-52.5 22.5q-39 0 -80 -29.5t-74 -89.5t-47 -146l-33 -207h-80l112 705l-76 15l7 46l159 6l-65 -383q40 74 96.5 111t112.5 37q55 0 88 -35t33 -99q0 -19 -3 -42zM142 -179.5q-33 29.5 -33 81.5q0 7 2 23
h50q-2 -36 16.5 -54.5t49.5 -18.5q33 0 59.5 20t35.5 55l48 -3q-9 -64 -51.5 -98.5t-94.5 -34.5q-49 0 -82 29.5z" />
    <glyph glyph-name="uni1E2E" unicode="&#x1e2e;" horiz-adv-x="349" 
d="M367 698l-7 -44l-86 -20l-91 -571l81 -19l-7 -44h-247l7 44l85 17l90 573l-79 15l7 44zM394 936l-149 -118l-29 35l137 131zM110 755.5q-11 12.5 -11 34.5q0 26 14.5 42.5t38.5 16.5q20 0 31 -12t11 -34q0 -26 -16 -43t-38 -17q-19 0 -30 12.5zM327 755.5
q-11 12.5 -11 34.5q0 26 15 42.5t38 16.5q20 0 31 -12t11 -34q0 -26 -16 -43t-38 -17q-19 0 -30 12.5z" />
    <glyph glyph-name="uni1E2F" unicode="&#x1e2f;" horiz-adv-x="286" 
d="M311 853l41 -48l-152 -115l-26 31zM74 620q-11 12 -11 33q0 28 14 44.5t36 16.5q19 0 30 -12t11 -33q0 -28 -14.5 -44.5t-35.5 -16.5q-19 0 -30 12zM333 702q11 -12 11 -33q0 -28 -14.5 -44.5t-35.5 -16.5q-19 0 -30 12.5t-11 33.5q0 28 14.5 44t35.5 16q19 0 30 -12z
M67 526l159 6l-75 -467l76 -19l-7 -45l-159 -4l74 466l-75 18z" />
    <glyph glyph-name="uni1E36" unicode="&#x1e36;" horiz-adv-x="534" 
d="M409 63l34 117h49l-28 -180h-454l7 44l85 17l91 572l-80 16l7 44l256 5l-6 -44l-96 -21l-91 -570h226zM206 -169q-13 14 -13 37q0 27 17 45t43 18q22 0 35 -13.5t13 -36.5q0 -28 -17 -46t-43 -18q-22 0 -35 14z" />
    <glyph glyph-name="uni1E37" unicode="&#x1e37;" horiz-adv-x="272" 
d="M90 766l159 6l-112 -707l76 -18l-7 -46l-160 -4l113 705l-76 18zM34 -169q-13 14 -13 37q0 27 17 45t43 18q22 0 35 -13.5t13 -36.5q0 -28 -17 -46t-43 -18q-22 0 -35 14z" />
    <glyph glyph-name="uni1E3A" unicode="&#x1e3a;" horiz-adv-x="534" 
d="M409 63l34 117h49l-28 -180h-454l7 44l85 17l91 572l-80 16l7 44l256 5l-6 -44l-96 -21l-91 -570h226zM124 -97h256l-9 -60h-256z" />
    <glyph glyph-name="uni1E3B" unicode="&#x1e3b;" horiz-adv-x="272" 
d="M90 766l159 6l-112 -707l76 -18l-7 -46l-160 -4l113 705l-76 18zM193 -158h-241l9 61h241z" />
    <glyph glyph-name="uni1E42" unicode="&#x1e42;" horiz-adv-x="865" 
d="M884 698l-7 -44l-87 -20l-90 -571l80 -19l-7 -44h-240l6 44l85 19l81 514l-264 -395l-55 -4l-135 398l-82 -513l81 -19l-7 -44h-233l7 44l85 18l91 571l-80 16l7 44l177 5l137 -422l274 417zM330 -169q-13 14 -13 37q0 27 17 45t43 18q22 0 35 -13.5t13 -36.5
q0 -28 -17 -46t-43 -18q-22 0 -35 14z" />
    <glyph glyph-name="uni1E43" unicode="&#x1e43;" horiz-adv-x="907" 
d="M779 65l76 -18l-7 -46l-160 -4l56 348q3 21 3 39q0 43 -17 65.5t-48 22.5q-36 0 -76 -30t-72.5 -90t-46.5 -145l-32 -207h-80l55 345q4 30 4 41q0 42 -17.5 64t-47.5 22q-36 0 -76.5 -30t-73 -90t-45.5 -145l-33 -207h-80l73 463l-74 18l7 45l155 6l-29 -155
q40 80 97 120t111 40t86 -38t28 -107q40 73 94.5 109t105.5 36q52 0 83.5 -34.5t31.5 -98.5q0 -13 -4 -43zM352 -169q-13 14 -13 37q0 27 17 45t43 18q22 0 35 -13.5t13 -36.5q0 -28 -17 -46t-43 -18q-22 0 -35 14z" />
    <glyph glyph-name="uni1E44" unicode="&#x1e44;" horiz-adv-x="763" 
d="M559 693l232 5l-6 -44l-85 -20l-101 -634h-86l-259 591l-84 -528l79 -19l-7 -44h-232l7 44l85 18l91 571l-80 16l7 44l176 5l254 -581l82 516l-80 16zM436 780q-13 14 -13 37q0 27 17 45t43 18q22 0 35 -13.5t13 -36.5q0 -28 -17 -46t-43 -18q-22 0 -35 14z" />
    <glyph glyph-name="uni1E45" unicode="&#x1e45;" horiz-adv-x="605" 
d="M478 65l76 -18l-8 -46l-159 -4l56 348q4 28 4 40q0 43 -19 65t-52 22q-39 0 -80.5 -29.5t-74.5 -89t-47 -146.5l-33 -207h-80l74 463l-75 18l7 45l155 6l-29 -152q41 79 98.5 118t114.5 39q56 0 89.5 -34.5t33.5 -97.5q0 -23 -4 -44zM328 652q-13 14 -13 37q0 27 17 45
t43 18q22 0 35 -13.5t13 -36.5q0 -28 -17 -46t-43 -18q-22 0 -35 14z" />
    <glyph glyph-name="uni1E46" unicode="&#x1e46;" horiz-adv-x="763" 
d="M559 693l232 5l-6 -44l-85 -20l-101 -634h-86l-259 591l-84 -528l79 -19l-7 -44h-232l7 44l85 18l91 571l-80 16l7 44l176 5l254 -581l82 516l-80 16zM286 -169q-13 14 -13 37q0 27 17 45t43 18q22 0 35 -13.5t13 -36.5q0 -28 -17 -46t-43 -18q-22 0 -35 14z" />
    <glyph glyph-name="uni1E47" unicode="&#x1e47;" horiz-adv-x="605" 
d="M478 65l76 -18l-8 -46l-159 -4l56 348q4 28 4 40q0 43 -19 65t-52 22q-39 0 -80.5 -29.5t-74.5 -89t-47 -146.5l-33 -207h-80l74 463l-75 18l7 45l155 6l-29 -152q41 79 98.5 118t114.5 39q56 0 89.5 -34.5t33.5 -97.5q0 -23 -4 -44zM199 -169q-13 14 -13 37q0 27 17 45
t43 18q22 0 35 -13.5t13 -36.5q0 -28 -17 -46t-43 -18q-22 0 -35 14z" />
    <glyph glyph-name="uni1E48" unicode="&#x1e48;" horiz-adv-x="763" 
d="M559 693l232 5l-6 -44l-85 -20l-101 -634h-86l-259 591l-84 -528l79 -19l-7 -44h-232l7 44l85 18l91 571l-80 16l7 44l176 5l254 -581l82 516l-80 16zM205 -97h256l-9 -60h-256z" />
    <glyph glyph-name="uni1E49" unicode="&#x1e49;" horiz-adv-x="605" 
d="M478 65l76 -18l-8 -46l-159 -4l56 348q4 28 4 40q0 43 -19 65t-52 22q-39 0 -80.5 -29.5t-74.5 -89t-47 -146.5l-33 -207h-80l74 463l-75 18l7 45l155 6l-29 -152q41 79 98.5 118t114.5 39q56 0 89.5 -34.5t33.5 -97.5q0 -23 -4 -44zM116 -97h256l-9 -60h-256z" />
    <glyph glyph-name="uni1E4C" unicode="&#x1e4c;" horiz-adv-x="726" 
d="M135.5 61.5q-66.5 70.5 -66.5 207.5q0 109 43 210t126 164.5t197 63.5q116 0 183.5 -70.5t67.5 -205.5q0 -107 -43 -208.5t-126.5 -166.5t-197.5 -65q-117 0 -183.5 70.5zM471.5 115q62.5 57 95.5 143.5t33 173.5q0 104 -47.5 156.5t-125.5 52.5q-83 0 -145 -56.5
t-94.5 -143.5t-32.5 -173q0 -105 46.5 -157.5t124.5 -52.5q83 0 145.5 57zM611 941l-231 -71l-16 43l225 99zM303 760q23 44 48.5 64t53.5 20q18 0 34 -6t37 -17q18 -10 31 -15t25 -5q32 0 65 46l33 -21q-45 -85 -104 -85q-18 0 -33.5 6t-33.5 17q-17 10 -30.5 15t-27.5 5
q-17 0 -31.5 -10.5t-32.5 -35.5z" />
    <glyph glyph-name="uni1E4D" unicode="&#x1e4d;" horiz-adv-x="557" 
d="M462.5 484.5q50.5 -52.5 50.5 -161.5q0 -86 -32 -162t-95.5 -123t-152.5 -47q-88 0 -138 52.5t-50 162.5q0 85 32 161t95 123t152 47q88 0 138.5 -52.5zM211 435q-42 -41 -63 -103t-21 -125q0 -75 29.5 -115t88.5 -40t101 41t63.5 103.5t21.5 125.5q0 75 -29.5 114.5
t-88.5 39.5q-60 0 -102 -41zM493 814l-214 -88l-24 47l206 112zM183 617q43 84 101 84q18 0 33.5 -5.5t38.5 -17.5q18 -9 30.5 -14t24.5 -5q32 0 65 45l33 -20q-44 -85 -104 -85q-18 0 -33.5 6t-33.5 17q-17 10 -30.5 15t-27.5 5q-17 0 -31.5 -10.5t-32.5 -35.5z" />
    <glyph glyph-name="uni1E4E" unicode="&#x1e4e;" horiz-adv-x="726" 
d="M135.5 61.5q-66.5 70.5 -66.5 207.5q0 109 43 210t126 164.5t197 63.5q116 0 183.5 -70.5t67.5 -205.5q0 -107 -43 -208.5t-126.5 -166.5t-197.5 -65q-117 0 -183.5 70.5zM471.5 115q62.5 57 95.5 143.5t33 173.5q0 104 -47.5 156.5t-125.5 52.5q-83 0 -145 -56.5
t-94.5 -143.5t-32.5 -173q0 -105 46.5 -157.5t124.5 -52.5q83 0 145.5 57zM356.5 889q-11.5 13 -11.5 35q0 25 14.5 41t37.5 16q19 0 30.5 -12.5t11.5 -34.5q0 -25 -14.5 -41.5t-36.5 -16.5q-20 0 -31.5 13zM547 889q-12 13 -12 35q0 25 14.5 41t37.5 16q20 0 31.5 -12.5
t11.5 -34.5q0 -25 -14.5 -41.5t-37.5 -16.5q-19 0 -31 13zM306 760q24 44 48.5 64t52.5 20q18 0 33.5 -5.5t38.5 -17.5q18 -9 30.5 -14t24.5 -5q33 0 65 45l33 -21q-44 -84 -103 -84q-17 0 -31.5 5.5t-34.5 16.5q-22 11 -34 15.5t-26 4.5q-17 0 -31.5 -10.5t-32.5 -34.5z
" />
    <glyph glyph-name="uni1E4F" unicode="&#x1e4f;" horiz-adv-x="557" 
d="M462.5 484.5q50.5 -52.5 50.5 -161.5q0 -86 -32 -162t-95.5 -123t-152.5 -47q-88 0 -138 52.5t-50 162.5q0 85 32 161t95 123t152 47q88 0 138.5 -52.5zM211 435q-42 -41 -63 -103t-21 -125q0 -75 29.5 -115t88.5 -40t101 41t63.5 103.5t21.5 125.5q0 75 -29.5 114.5
t-88.5 39.5q-60 0 -102 -41zM237.5 756q-11.5 13 -11.5 35q0 25 14.5 41t37.5 16q19 0 30.5 -12.5t11.5 -34.5q0 -25 -14.5 -41.5t-36.5 -16.5q-20 0 -31.5 13zM428 756q-12 13 -12 35q0 25 14.5 41t37.5 16q20 0 31.5 -12.5t11.5 -34.5q0 -25 -14.5 -41.5t-37.5 -16.5
q-19 0 -31 13zM184 617q24 44 48.5 64t52.5 20q18 0 33.5 -5.5t38.5 -17.5q18 -9 30.5 -14t24.5 -5q33 0 65 45l33 -21q-44 -84 -103 -84q-17 0 -31.5 5.5t-34.5 16.5q-22 11 -34 15.5t-26 4.5q-17 0 -31.5 -10.5t-32.5 -34.5z" />
    <glyph glyph-name="uni1E50" unicode="&#x1e50;" horiz-adv-x="726" 
d="M135.5 61.5q-66.5 70.5 -66.5 207.5q0 109 43 210t126 164.5t197 63.5q116 0 183.5 -70.5t67.5 -205.5q0 -107 -43 -208.5t-126.5 -166.5t-197.5 -65q-117 0 -183.5 70.5zM471.5 115q62.5 57 95.5 143.5t33 173.5q0 104 -47.5 156.5t-125.5 52.5q-83 0 -145 -56.5
t-94.5 -143.5t-32.5 -173q0 -105 46.5 -157.5t124.5 -52.5q83 0 145.5 57zM601 875l-21 -43l-221 86l33 68zM338 809h256l-9 -61h-256z" />
    <glyph glyph-name="uni1E51" unicode="&#x1e51;" horiz-adv-x="557" 
d="M462.5 484.5q50.5 -52.5 50.5 -161.5q0 -86 -32 -162t-95.5 -123t-152.5 -47q-88 0 -138 52.5t-50 162.5q0 85 32 161t95 123t152 47q88 0 138.5 -52.5zM211 435q-42 -41 -63 -103t-21 -125q0 -75 29.5 -115t88.5 -40t101 41t63.5 103.5t21.5 125.5q0 75 -29.5 114.5
t-88.5 39.5q-60 0 -102 -41zM490 757l-22 -44l-221 86l33 68zM219 674h256l-9 -60h-256z" />
    <glyph glyph-name="uni1E52" unicode="&#x1e52;" horiz-adv-x="726" 
d="M135.5 61.5q-66.5 70.5 -66.5 207.5q0 109 43 210t126 164.5t197 63.5q116 0 183.5 -70.5t67.5 -205.5q0 -107 -43 -208.5t-126.5 -166.5t-197.5 -65q-117 0 -183.5 70.5zM471.5 115q62.5 57 95.5 143.5t33 173.5q0 104 -47.5 156.5t-125.5 52.5q-83 0 -145 -56.5
t-94.5 -143.5t-32.5 -173q0 -105 46.5 -157.5t124.5 -52.5q83 0 145.5 57zM603 918l-225 -86l-19 41l218 114zM339 809h257l-10 -61h-256z" />
    <glyph glyph-name="uni1E53" unicode="&#x1e53;" horiz-adv-x="557" 
d="M462.5 484.5q50.5 -52.5 50.5 -161.5q0 -86 -32 -162t-95.5 -123t-152.5 -47q-88 0 -138 52.5t-50 162.5q0 85 32 161t95 123t152 47q88 0 138.5 -52.5zM211 435q-42 -41 -63 -103t-21 -125q0 -75 29.5 -115t88.5 -40t101 41t63.5 103.5t21.5 125.5q0 75 -29.5 114.5
t-88.5 39.5q-60 0 -102 -41zM484 798l-225 -86l-19 42l218 113zM222 674h256l-10 -60h-256z" />
    <glyph glyph-name="uni1E5A" unicode="&#x1e5a;" horiz-adv-x="638" 
d="M524 62l59 -18l-7 -44h-118l-60 199q-16 50 -31 72.5t-35.5 29t-60.5 5.5h-48l-40 -243l96 -19l-6 -44h-263l7 44l85 18l91 571l-80 16l7 44l168 5h104q98 0 146.5 -38.5t48.5 -116.5q0 -85 -53 -144t-141 -76q28 -11 45.5 -37t32.5 -70zM232 367h68q61 0 107 22
t70.5 60.5t24.5 85.5q0 65 -38.5 83t-89.5 18h-100zM241 -169q-13 14 -13 37q0 27 17 45t43 18q22 0 35 -13.5t13 -36.5q0 -28 -17 -46t-43 -18q-22 0 -35 14z" />
    <glyph glyph-name="uni1E5B" unicode="&#x1e5b;" horiz-adv-x="407" 
d="M441 531l-25 -147h-51l2 89q-38 -2 -77.5 -34t-71 -91.5t-44.5 -140.5l-33 -207h-80l74 463l-75 18l7 45l155 6l-29 -151q38 73 95.5 114.5t113.5 41.5q25 0 39 -6zM48 -169q-13 14 -13 37q0 27 17 45t43 18q22 0 35 -13.5t13 -36.5q0 -28 -17 -46t-43 -18q-22 0 -35 14z
" />
    <glyph glyph-name="uni1E5E" unicode="&#x1e5e;" horiz-adv-x="638" 
d="M524 62l59 -18l-7 -44h-118l-60 199q-16 50 -31 72.5t-35.5 29t-60.5 5.5h-48l-40 -243l96 -19l-6 -44h-263l7 44l85 18l91 571l-80 16l7 44l168 5h104q98 0 146.5 -38.5t48.5 -116.5q0 -85 -53 -144t-141 -76q28 -11 45.5 -37t32.5 -70zM232 367h68q61 0 107 22
t70.5 60.5t24.5 85.5q0 65 -38.5 83t-89.5 18h-100zM160 -97h256l-9 -60h-256z" />
    <glyph glyph-name="uni1E5F" unicode="&#x1e5f;" horiz-adv-x="407" 
d="M441 531l-25 -147h-51l2 89q-38 -2 -77.5 -34t-71 -91.5t-44.5 -140.5l-33 -207h-80l74 463l-75 18l7 45l155 6l-29 -151q38 73 95.5 114.5t113.5 41.5q25 0 39 -6zM210 -158h-250l9 61h251z" />
    <glyph glyph-name="uni1E60" unicode="&#x1e60;" horiz-adv-x="581" 
d="M526 510h-49l5 112q-53 22 -112 22q-71 0 -121 -33.5t-50 -92.5q0 -33 17.5 -55t43.5 -35.5t71 -30.5q55 -21 90 -40t59 -54.5t24 -91.5q0 -70 -37.5 -119.5t-100.5 -75t-138 -25.5q-100 0 -192 42l30 165h49l-3 -115q60 -27 126 -27q78 0 131 36.5t53 101.5
q0 36 -18 59.5t-44.5 37.5t-74.5 33q-54 21 -87.5 39.5t-56.5 52t-23 86.5q0 65 34 111t92 70t128 24q96 0 185 -42zM350 780q-13 14 -13 37q0 27 17 45t43 18q22 0 35 -13.5t13 -36.5q0 -28 -17 -46t-43 -18q-22 0 -35 14z" />
    <glyph glyph-name="uni1E61" unicode="&#x1e61;" horiz-adv-x="475" 
d="M196.5 456q-36.5 -24 -37.5 -63q0 -33 26 -51.5t82 -41.5q46 -19 74 -34t48 -42t20 -67q0 -50 -30.5 -87.5t-84.5 -58t-122 -20.5q-76 0 -158 22l25 139h52l-4 -89q39 -13 89 -13q64 0 107 25.5t44 69.5q0 36 -27 56t-83 41q-46 18 -73 32.5t-46 40.5t-19 66q0 72 59 114
t150 42q73 0 157 -28l-21 -118h-50l-3 76q-40 13 -82 13q-56 0 -92.5 -24zM259 652q-13 14 -13 37q0 27 17 45t43 18q22 0 35 -13.5t13 -36.5q0 -28 -17 -46t-43 -18q-22 0 -35 14z" />
    <glyph glyph-name="uni1E62" unicode="&#x1e62;" horiz-adv-x="581" 
d="M526 510h-49l5 112q-53 22 -112 22q-71 0 -121 -33.5t-50 -92.5q0 -33 17.5 -55t43.5 -35.5t71 -30.5q55 -21 90 -40t59 -54.5t24 -91.5q0 -70 -37.5 -119.5t-100.5 -75t-138 -25.5q-100 0 -192 42l30 165h49l-3 -115q60 -27 126 -27q78 0 131 36.5t53 101.5
q0 36 -18 59.5t-44.5 37.5t-74.5 33q-54 21 -87.5 39.5t-56.5 52t-23 86.5q0 65 34 111t92 70t128 24q96 0 185 -42zM200 -169q-13 14 -13 37q0 27 17 45t43 18q22 0 35 -13.5t13 -36.5q0 -28 -17 -46t-43 -18q-22 0 -35 14z" />
    <glyph glyph-name="uni1E63" unicode="&#x1e63;" horiz-adv-x="475" 
d="M196.5 456q-36.5 -24 -37.5 -63q0 -33 26 -51.5t82 -41.5q46 -19 74 -34t48 -42t20 -67q0 -50 -30.5 -87.5t-84.5 -58t-122 -20.5q-76 0 -158 22l25 139h52l-4 -89q39 -13 89 -13q64 0 107 25.5t44 69.5q0 36 -27 56t-83 41q-46 18 -73 32.5t-46 40.5t-19 66q0 72 59 114
t150 42q73 0 157 -28l-21 -118h-50l-3 76q-40 13 -82 13q-56 0 -92.5 -24zM122 -169q-13 14 -13 37q0 27 17 45t43 18q22 0 35 -13.5t13 -36.5q0 -28 -17 -46t-43 -18q-22 0 -35 14z" />
    <glyph glyph-name="uni1E64" unicode="&#x1e64;" horiz-adv-x="581" 
d="M526 510h-49l5 112q-53 22 -112 22q-71 0 -121 -33.5t-50 -92.5q0 -33 17.5 -55t43.5 -35.5t71 -30.5q55 -21 90 -40t59 -54.5t24 -91.5q0 -70 -37.5 -119.5t-100.5 -75t-138 -25.5q-100 0 -192 42l30 165h49l-3 -115q60 -27 126 -27q78 0 131 36.5t53 101.5
q0 36 -18 59.5t-44.5 37.5t-74.5 33q-54 21 -87.5 39.5t-56.5 52t-23 86.5q0 65 34 111t92 70t128 24q96 0 185 -42zM371 892q-12 13 -12 35q0 27 16 44t42 17q21 0 33.5 -13t12.5 -35q0 -27 -16 -44t-42 -17q-22 0 -34 13zM511 814l-227 -82l-18 42l220 110z" />
    <glyph glyph-name="uni1E65" unicode="&#x1e65;" horiz-adv-x="475" 
d="M196.5 456q-36.5 -24 -37.5 -63q0 -33 26 -51.5t82 -41.5q46 -19 74 -34t48 -42t20 -67q0 -50 -30.5 -87.5t-84.5 -58t-122 -20.5q-76 0 -158 22l25 139h52l-4 -89q39 -13 89 -13q64 0 107 25.5t44 69.5q0 36 -27 56t-83 41q-46 18 -73 32.5t-46 40.5t-19 66q0 72 59 114
t150 42q73 0 157 -28l-21 -118h-50l-3 76q-40 13 -82 13q-56 0 -92.5 -24zM276 765q-12 13 -12 35q0 27 16 44t42 17q21 0 33.5 -13t12.5 -35q0 -27 -16 -44t-42 -17q-22 0 -34 13zM429 689l-205 -106l-27 45l195 127z" />
    <glyph glyph-name="uni1E66" unicode="&#x1e66;" horiz-adv-x="581" 
d="M526 510h-49l5 112q-53 22 -112 22q-71 0 -121 -33.5t-50 -92.5q0 -33 17.5 -55t43.5 -35.5t71 -30.5q55 -21 90 -40t59 -54.5t24 -91.5q0 -70 -37.5 -119.5t-100.5 -75t-138 -25.5q-100 0 -192 42l30 165h49l-3 -115q60 -27 126 -27q78 0 131 36.5t53 101.5
q0 36 -18 59.5t-44.5 37.5t-74.5 33q-54 21 -87.5 39.5t-56.5 52t-23 86.5q0 65 34 111t92 70t128 24q96 0 185 -42zM368.5 892q-12.5 13 -12.5 35q0 27 16.5 44t41.5 17q22 0 34.5 -13t12.5 -35q0 -27 -16 -44t-42 -17q-22 0 -34.5 13zM389 813l143 90l24 -35l-151 -119
l-48 -4l-121 123l34 35z" />
    <glyph glyph-name="uni1E67" unicode="&#x1e67;" horiz-adv-x="475" 
d="M196.5 456q-36.5 -24 -37.5 -63q0 -33 26 -51.5t82 -41.5q46 -19 74 -34t48 -42t20 -67q0 -50 -30.5 -87.5t-84.5 -58t-122 -20.5q-76 0 -158 22l25 139h52l-4 -89q39 -13 89 -13q64 0 107 25.5t44 69.5q0 36 -27 56t-83 41q-46 18 -73 32.5t-46 40.5t-19 66q0 72 59 114
t150 42q73 0 157 -28l-21 -118h-50l-3 76q-40 13 -82 13q-56 0 -92.5 -24zM277.5 765q-12.5 13 -12.5 36q0 26 16.5 43.5t41.5 17.5q22 0 34.5 -13t12.5 -36q0 -27 -16 -44t-42 -17q-22 0 -34.5 13zM297 672l139 98l24 -33l-147 -129l-48 -4l-116 133l34 33z" />
    <glyph glyph-name="uni1E68" unicode="&#x1e68;" horiz-adv-x="581" 
d="M526 510h-49l5 112q-53 22 -112 22q-71 0 -121 -33.5t-50 -92.5q0 -33 17.5 -55t43.5 -35.5t71 -30.5q55 -21 90 -40t59 -54.5t24 -91.5q0 -70 -37.5 -119.5t-100.5 -75t-138 -25.5q-100 0 -192 42l30 165h49l-3 -115q60 -27 126 -27q78 0 131 36.5t53 101.5
q0 36 -18 59.5t-44.5 37.5t-74.5 33q-54 21 -87.5 39.5t-56.5 52t-23 86.5q0 65 34 111t92 70t128 24q96 0 185 -42zM350 780q-13 14 -13 37q0 27 17 45t43 18q22 0 35 -13.5t13 -36.5q0 -28 -17 -46t-43 -18q-22 0 -35 14zM200 -169q-13 14 -13 37q0 27 17 45t43 18
q22 0 35 -13.5t13 -36.5q0 -28 -17 -46t-43 -18q-22 0 -35 14z" />
    <glyph glyph-name="uni1E69" unicode="&#x1e69;" horiz-adv-x="475" 
d="M196.5 456q-36.5 -24 -37.5 -63q0 -33 26 -51.5t82 -41.5q46 -19 74 -34t48 -42t20 -67q0 -50 -30.5 -87.5t-84.5 -58t-122 -20.5q-76 0 -158 22l25 139h52l-4 -89q39 -13 89 -13q64 0 107 25.5t44 69.5q0 36 -27 56t-83 41q-46 18 -73 32.5t-46 40.5t-19 66q0 72 59 114
t150 42q73 0 157 -28l-21 -118h-50l-3 76q-40 13 -82 13q-56 0 -92.5 -24zM259 652q-13 14 -13 37q0 27 17 45t43 18q22 0 35 -13.5t13 -36.5q0 -28 -17 -46t-43 -18q-22 0 -35 14zM122 -169q-13 14 -13 37q0 27 17 45t43 18q22 0 35 -13.5t13 -36.5q0 -28 -17 -46t-43 -18
q-22 0 -35 14z" />
    <glyph glyph-name="uni1E6C" unicode="&#x1e6c;" horiz-adv-x="569" 
d="M70 526l27 172h512l-27 -172h-49l-1 110h-147l-91 -573l93 -19l-7 -44h-273l7 44l98 18l91 574h-149l-34 -110h-50zM182 -169q-13 14 -13 37q0 27 17 45t43 18q22 0 35 -13.5t13 -36.5q0 -28 -17 -46t-43 -18q-22 0 -35 14z" />
    <glyph glyph-name="uni1E6D" unicode="&#x1e6d;" horiz-adv-x="357" 
d="M216 471l-54 -340q-2 -12 -2 -24q0 -53 47 -53q33 0 81 24l19 -53q-69 -34 -127 -34q-47 0 -74 25.5t-27 76.5q0 9 2 33l55 345h-87l7 45l89 13l19 118l82 13l-21 -132h139l-9 -57h-139zM99 -169q-13 14 -13 37q0 27 17 45t43 18q22 0 35 -13.5t13 -36.5q0 -28 -17 -46
t-43 -18q-22 0 -35 14z" />
    <glyph glyph-name="uni1E6E" unicode="&#x1e6e;" horiz-adv-x="569" 
d="M70 526l27 172h512l-27 -172h-49l-1 110h-147l-91 -573l93 -19l-7 -44h-273l7 44l98 18l91 574h-149l-34 -110h-50zM349 -158h-261l9 61h262z" />
    <glyph glyph-name="uni1E6F" unicode="&#x1e6f;" horiz-adv-x="357" 
d="M216 471l-54 -340q-2 -12 -2 -24q0 -53 47 -53q33 0 81 24l19 -53q-69 -34 -127 -34q-47 0 -74 25.5t-27 76.5q0 9 2 33l55 345h-87l7 45l89 13l19 118l82 13l-21 -132h139l-9 -57h-139zM257 -158h-239l9 61h239z" />
    <glyph glyph-name="uni1E78" unicode="&#x1e78;" horiz-adv-x="729" 
d="M766 698l-7 -44l-87 -20l-58 -372q-22 -139 -91 -205t-202 -66q-110 0 -162.5 46.5t-52.5 141.5q0 38 7 77l60 378l-80 15l7 44l246 5l-7 -44l-84 -20l-61 -383q-7 -45 -7 -70q0 -65 32 -94.5t106 -29.5q99 0 144.5 51t63.5 159l58 367l-79 15l6 44zM591 941l-231 -71
l-16 43l225 99zM283 760q23 44 48.5 64t53.5 20q18 0 34 -6t37 -17q18 -10 31 -15t25 -5q32 0 65 46l33 -21q-45 -85 -104 -85q-18 0 -33.5 6t-33.5 17q-17 10 -30.5 15t-27.5 5q-17 0 -31.5 -10.5t-32.5 -35.5z" />
    <glyph glyph-name="uni1E79" unicode="&#x1e79;" horiz-adv-x="605" 
d="M471 62l76 -17l-6 -44l-153 -4l26 153q-40 -79 -99 -119t-118 -40q-55 0 -87.5 34.5t-32.5 96.5q0 24 4 45l47 298l-75 16l7 45l159 6l-56 -349q-4 -28 -4 -39q0 -43 19 -65.5t52 -22.5q39 0 80.5 29.5t74.5 89t47 146.5l32 207h80zM504 814l-214 -88l-24 47l206 112z
M194 617q43 84 101 84q18 0 33.5 -5.5t38.5 -17.5q18 -9 30.5 -14t24.5 -5q32 0 65 45l33 -20q-44 -85 -104 -85q-18 0 -33.5 6t-33.5 17q-17 10 -30.5 15t-27.5 5q-17 0 -31.5 -10.5t-32.5 -35.5z" />
    <glyph glyph-name="uni1E7A" unicode="&#x1e7a;" horiz-adv-x="729" 
d="M766 698l-7 -44l-87 -20l-58 -372q-22 -139 -91 -205t-202 -66q-110 0 -162.5 46.5t-52.5 141.5q0 38 7 77l60 378l-80 15l7 44l246 5l-7 -44l-84 -20l-61 -383q-7 -45 -7 -70q0 -65 32 -94.5t106 -29.5q99 0 144.5 51t63.5 159l58 367l-79 15l6 44zM320 809h256l-9 -60
h-256zM334.5 868q-11.5 13 -11.5 35q0 25 14.5 41t37.5 16q19 0 30.5 -12.5t11.5 -34.5q0 -25 -14.5 -41.5t-36.5 -16.5q-20 0 -31.5 13zM525 868q-12 13 -12 35q0 25 14.5 41t37.5 16q20 0 31.5 -12.5t11.5 -34.5q0 -25 -14.5 -41.5t-37.5 -16.5q-19 0 -31 13z" />
    <glyph glyph-name="uni1E7B" unicode="&#x1e7b;" horiz-adv-x="605" 
d="M471 62l76 -17l-6 -44l-153 -4l26 153q-40 -79 -99 -119t-118 -40q-55 0 -87.5 34.5t-32.5 96.5q0 24 4 45l47 298l-75 16l7 45l159 6l-56 -349q-4 -28 -4 -39q0 -43 19 -65.5t52 -22.5q39 0 80.5 29.5t74.5 89t47 146.5l32 207h80zM233 686h256l-9 -60h-256zM247.5 753
q-11.5 13 -11.5 35q0 25 14.5 41t37.5 16q19 0 30.5 -12.5t11.5 -34.5q0 -25 -14.5 -41.5t-36.5 -16.5q-20 0 -31.5 13zM438 753q-12 13 -12 35q0 25 14.5 41t37.5 16q20 0 31.5 -12.5t11.5 -34.5q0 -25 -14.5 -41.5t-37.5 -16.5q-19 0 -31 13z" />
    <glyph glyph-name="Wgrave" unicode="&#x1e80;" horiz-adv-x="990" 
d="M812 693l239 5l-7 -44l-79 -18l-273 -637h-78l-73 566l-256 -566h-78l-63 636l-76 14l8 44l247 5l-6 -44l-90 -19l43 -527l259 587l75 3l71 -587l216 524l-86 14zM692 792l-23 -43l-218 96l37 66z" />
    <glyph glyph-name="wgrave" unicode="&#x1e81;" horiz-adv-x="778" 
d="M640 525l178 7l-6 -45l-46 -12l-213 -477h-88l-47 430l-189 -430h-87l-54 473l-56 10l7 44l121 7l39 -464l194 459l85 4l45 -469l173 407l-62 12zM351 743l45 64l175 -146l-29 -42z" />
    <glyph glyph-name="Wacute" unicode="&#x1e82;" horiz-adv-x="990" 
d="M812 693l239 5l-7 -44l-79 -18l-273 -637h-78l-73 566l-256 -566h-78l-63 636l-76 14l8 44l247 5l-6 -44l-90 -19l43 -527l259 587l75 3l71 -587l216 524l-86 14zM708 845l-221 -96l-20 41l213 123z" />
    <glyph glyph-name="wacute" unicode="&#x1e83;" horiz-adv-x="778" 
d="M640 525l178 7l-6 -45l-46 -12l-213 -477h-88l-47 430l-189 -430h-87l-54 473l-56 10l7 44l121 7l39 -464l194 459l85 4l45 -469l173 407l-62 12zM598 741l-197 -122l-31 43l185 143z" />
    <glyph glyph-name="Wdieresis" unicode="&#x1e84;" horiz-adv-x="990" 
d="M812 693l239 5l-7 -44l-79 -18l-273 -637h-78l-73 566l-256 -566h-78l-63 636l-76 14l8 44l247 5l-6 -44l-90 -19l43 -527l259 587l75 3l71 -587l216 524l-86 14zM457.5 779q-11.5 13 -11.5 35q0 25 14.5 41t37.5 16q19 0 30.5 -12.5t11.5 -34.5q0 -25 -14.5 -41.5
t-36.5 -16.5q-20 0 -31.5 13zM648 779q-12 13 -12 35q0 25 14.5 41t37.5 16q20 0 31.5 -12.5t11.5 -34.5q0 -25 -14.5 -41.5t-37.5 -16.5q-19 0 -31 13z" />
    <glyph glyph-name="wdieresis" unicode="&#x1e85;" horiz-adv-x="778" 
d="M640 525l178 7l-6 -45l-46 -12l-213 -477h-88l-47 430l-189 -430h-87l-54 473l-56 10l7 44l121 7l39 -464l194 459l85 4l45 -469l173 407l-62 12zM331.5 656q-11.5 13 -11.5 35q0 25 14.5 41t37.5 16q19 0 30.5 -12.5t11.5 -34.5q0 -25 -14.5 -41.5t-36.5 -16.5
q-20 0 -31.5 13zM522 656q-12 13 -12 35q0 25 14.5 41t37.5 16q20 0 31.5 -12.5t11.5 -34.5q0 -25 -14.5 -41.5t-37.5 -16.5q-19 0 -31 13z" />
    <glyph glyph-name="uni1E8E" unicode="&#x1e8e;" horiz-adv-x="624" 
d="M680 654l-74 -15l-256 -389l-29 -187l82 -19l-7 -44h-249l6 44l87 18l31 197l-131 376l-73 14l6 44l249 5l-7 -44l-93 -18l104 -318l205 316l-85 15l7 44l234 5zM364 780q-13 14 -13 37q0 27 17 45t43 18q22 0 35 -13.5t13 -36.5q0 -28 -17 -46t-43 -18q-22 0 -35 14z
" />
    <glyph glyph-name="uni1E8F" unicode="&#x1e8f;" horiz-adv-x="510" 
d="M556 532l-6 -45l-51 -13l-237 -476q-40 -79 -67.5 -123t-76.5 -79t-120 -35q-21 0 -51 5l11 60q7 -1 16 -2t21 -1q45 0 77.5 20t58.5 58.5t59 105.5l-106 464l-56 10l7 44l121 7l84 -439l183 378l-61 10l6 44zM255 652q-13 14 -13 37q0 27 17 45t43 18q22 0 35 -13.5
t13 -36.5q0 -28 -17 -46t-43 -18q-22 0 -35 14z" />
    <glyph glyph-name="uni1E92" unicode="&#x1e92;" horiz-adv-x="591" 
d="M596 698l-6 -59l-475 -575h324l33 102h51l-29 -166h-488l6 57l481 577h-305l-32 -101h-50l27 165h463zM191 -169q-13 14 -13 37q0 27 17 45t43 18q22 0 35 -13.5t13 -36.5q0 -28 -17 -46t-43 -18q-22 0 -35 14z" />
    <glyph glyph-name="uni1E93" unicode="&#x1e93;" horiz-adv-x="470" 
d="M459 528l-8 -50l-348 -419h225l29 88h49l-22 -146l-384 -1l7 50l352 420h-217l-21 -77h-50l21 135h367zM133 -169q-13 14 -13 37q0 27 17 45t43 18q22 0 35 -13.5t13 -36.5q0 -28 -17 -46t-43 -18q-22 0 -35 14z" />
    <glyph glyph-name="uni1E97" unicode="&#x1e97;" horiz-adv-x="357" 
d="M216 471l-54 -340q-2 -12 -2 -24q0 -53 47 -53q33 0 81 24l19 -53q-69 -34 -127 -34q-47 0 -74 25.5t-27 76.5q0 9 2 33l55 345h-87l7 45l89 13l19 118l82 13l-21 -132h139l-9 -57h-139zM108.5 716q-11.5 13 -11.5 35q0 25 14.5 41t37.5 16q19 0 30.5 -12.5t11.5 -34.5
q0 -25 -14.5 -41.5t-36.5 -16.5q-20 0 -31.5 13zM299 716q-12 13 -12 35q0 25 14.5 41t37.5 16q20 0 31.5 -12.5t11.5 -34.5q0 -25 -14.5 -41.5t-37.5 -16.5q-19 0 -31 13z" />
    <glyph glyph-name="uni1E9E" unicode="&#x1e9e;" horiz-adv-x="716" 
d="M460 401q104 -15 154 -53.5t50 -122.5q0 -69 -32.5 -122t-91.5 -82t-136 -29q-73 0 -148 23l28 142h46v-90q39 -12 84 -12q51 0 89 22.5t58 61t20 84.5q0 68 -46.5 96.5t-152.5 36.5l8 53l194 227l-311 -1l-100 -635h-163l7 44l85 18l91 571l-80 16l7 44l162 5h385
l-7 -61z" />
    <glyph glyph-name="uni1EA0" unicode="&#x1ea0;" horiz-adv-x="675" 
d="M453 700l115 -638l65 -18l-7 -44h-243l8 44l92 18l-22 135h-274l-68 -136l87 -17l-8 -44h-234l8 44l69 17l328 636zM452 258l-57 360l-180 -360h237zM230 -169q-13 14 -13 37q0 27 17 45t43 18q22 0 35 -13.5t13 -36.5q0 -28 -17 -46t-43 -18q-22 0 -35 14z" />
    <glyph glyph-name="uni1EA1" unicode="&#x1ea1;" horiz-adv-x="585" 
d="M452 66l76 -19l-8 -46l-151 -5l25 156q-39 -78 -97.5 -119.5t-114.5 -41.5q-62 0 -101.5 49t-39.5 147q0 95 38.5 175.5t105.5 128t149 47.5q68 0 132 -35l14 25h45zM290.5 87.5q41.5 30.5 74.5 91t47 145.5l20 122q-51 29 -100 29q-59 0 -107 -38.5t-75 -102.5t-27 -138
q0 -70 24 -104.5t64 -34.5q38 0 79.5 30.5zM196 -169q-13 14 -13 37q0 27 17 45t43 18q22 0 35 -13.5t13 -36.5q0 -28 -17 -46t-43 -18q-22 0 -35 14z" />
    <glyph glyph-name="uni1EA2" unicode="&#x1ea2;" horiz-adv-x="675" 
d="M453 700l115 -638l65 -18l-7 -44h-243l8 44l92 18l-22 135h-274l-68 -136l87 -17l-8 -44h-234l8 44l69 17l328 636zM452 258l-57 360l-180 -360h237zM398 801q38 2 58.5 16t20.5 38q0 30 -43 30q-25 0 -54 -8l-9 40q41 15 80 15t63 -17.5t24 -52.5q0 -75 -90 -90l-5 -33
h-55z" />
    <glyph glyph-name="uni1EA3" unicode="&#x1ea3;" horiz-adv-x="585" 
d="M452 66l76 -19l-8 -46l-151 -5l25 156q-39 -78 -97.5 -119.5t-114.5 -41.5q-62 0 -101.5 49t-39.5 147q0 95 38.5 175.5t105.5 128t149 47.5q68 0 132 -35l14 25h45zM290.5 87.5q41.5 30.5 74.5 91t47 145.5l20 122q-51 29 -100 29q-59 0 -107 -38.5t-75 -102.5t-27 -138
q0 -70 24 -104.5t64 -34.5q38 0 79.5 30.5zM323 677q38 3 58.5 16.5t20.5 35.5q0 31 -44 31q-28 0 -53 -9l-9 41q40 15 79 15q40 0 64 -17.5t24 -53.5q0 -34 -23 -57t-67 -30l-8 -43h-54z" />
    <glyph glyph-name="uni1EA4" unicode="&#x1ea4;" horiz-adv-x="675" 
d="M453 700l115 -638l65 -18l-7 -44h-243l8 44l92 18l-22 135h-274l-68 -136l87 -17l-8 -44h-234l8 44l69 17l328 636zM452 258l-57 360l-180 -360h237zM671 995l38 -51l-157 -108l-27 37zM264 767l151 119l48 4l121 -123l-33 -35l-120 90l-143 -90z" />
    <glyph glyph-name="uni1EA5" unicode="&#x1ea5;" horiz-adv-x="585" 
d="M452 66l76 -19l-8 -46l-151 -5l25 156q-39 -78 -97.5 -119.5t-114.5 -41.5q-62 0 -101.5 49t-39.5 147q0 95 38.5 175.5t105.5 128t149 47.5q68 0 132 -35l14 25h45zM290.5 87.5q41.5 30.5 74.5 91t47 145.5l20 122q-51 29 -100 29q-59 0 -107 -38.5t-75 -102.5t-27 -138
q0 -70 24 -104.5t64 -34.5q38 0 79.5 30.5zM557 883l46 -44l-134 -134l-34 32zM189 610l148 129l48 4l115 -133l-33 -33l-114 98l-140 -98z" />
    <glyph glyph-name="uni1EA6" unicode="&#x1ea6;" horiz-adv-x="675" 
d="M453 700l115 -638l65 -18l-7 -44h-243l8 44l92 18l-22 135h-274l-68 -136l87 -17l-8 -44h-234l8 44l69 17l328 636zM452 258l-57 360l-180 -360h237zM479 955l54 48l94 -135l-39 -33zM264 767l151 119l48 4l121 -123l-33 -35l-120 90l-143 -90z" />
    <glyph glyph-name="uni1EA7" unicode="&#x1ea7;" horiz-adv-x="585" 
d="M452 66l76 -19l-8 -46l-151 -5l25 156q-39 -78 -97.5 -119.5t-114.5 -41.5q-62 0 -101.5 49t-39.5 147q0 95 38.5 175.5t105.5 128t149 47.5q68 0 132 -35l14 25h45zM290.5 87.5q41.5 30.5 74.5 91t47 145.5l20 122q-51 29 -100 29q-59 0 -107 -38.5t-75 -102.5t-27 -138
q0 -70 24 -104.5t64 -34.5q38 0 79.5 30.5zM447 878l88 -139l-40 -31l-104 125zM188 610l148 129l47 4l116 -133l-33 -33l-114 98l-140 -98z" />
    <glyph glyph-name="uni1EA8" unicode="&#x1ea8;" horiz-adv-x="675" 
d="M453 700l115 -638l65 -18l-7 -44h-243l8 44l92 18l-22 135h-274l-68 -136l87 -17l-8 -44h-234l8 44l69 17l328 636zM452 258l-57 360l-180 -360h237zM462 886l122 -123l-34 -35l-119 90l-143 -90l-24 35l151 119zM536 913q38 2 58.5 16t20.5 38q0 30 -43 30q-25 0 -54 -8
l-9 40q41 15 80 15t63 -17.5t24 -52.5q0 -75 -90 -90l-5 -33h-55z" />
    <glyph glyph-name="uni1EA9" unicode="&#x1ea9;" horiz-adv-x="585" 
d="M452 66l76 -19l-8 -46l-151 -5l25 156q-39 -78 -97.5 -119.5t-114.5 -41.5q-62 0 -101.5 49t-39.5 147q0 95 38.5 175.5t105.5 128t149 47.5q68 0 132 -35l14 25h45zM290.5 87.5q41.5 30.5 74.5 91t47 145.5l20 122q-51 29 -100 29q-59 0 -107 -38.5t-75 -102.5t-27 -138
q0 -70 24 -104.5t64 -34.5q38 0 79.5 30.5zM465 758q38 2 58.5 16t20.5 38q0 30 -43 30q-25 0 -54 -8l-9 40q41 15 80 15t63 -17.5t24 -52.5q0 -75 -90 -90l-5 -33h-55zM385 743l116 -133l-34 -33l-114 98l-140 -98l-24 33l148 129z" />
    <glyph glyph-name="uni1EAA" unicode="&#x1eaa;" horiz-adv-x="675" 
d="M453 700l115 -638l65 -18l-7 -44h-243l8 44l92 18l-22 135h-274l-68 -136l87 -17l-8 -44h-234l8 44l69 17l328 636zM452 258l-57 360l-180 -360h237zM370.5 935.5q-14.5 -10.5 -31.5 -35.5l-32 22q42 84 98 84q17 0 33 -6t36 -18q19 -10 30.5 -14.5t23.5 -4.5q16 0 31 11
t31 35l33 -21q-44 -85 -101 -85q-17 0 -31.5 5.5t-32.5 16.5q-17 10 -30 15.5t-27 5.5q-16 0 -30.5 -10.5zM265 767l151 119l47 4l121 -123l-33 -35l-119 90l-144 -90z" />
    <glyph glyph-name="uni1EAB" unicode="&#x1eab;" horiz-adv-x="585" 
d="M452 66l76 -19l-8 -46l-151 -5l25 156q-39 -78 -97.5 -119.5t-114.5 -41.5q-62 0 -101.5 49t-39.5 147q0 95 38.5 175.5t105.5 128t149 47.5q68 0 132 -35l14 25h45zM290.5 87.5q41.5 30.5 74.5 91t47 145.5l20 122q-51 29 -100 29q-59 0 -107 -38.5t-75 -102.5t-27 -138
q0 -70 24 -104.5t64 -34.5q38 0 79.5 30.5zM283 792.5q-14 -10.5 -30 -34.5l-31 21q41 84 95 84q16 0 30 -5.5t37 -17.5q19 -11 30 -15.5t22 -4.5q30 0 61 46l31 -21q-43 -84 -98 -84q-16 0 -29.5 5.5t-32.5 16.5q-19 10 -30.5 15t-24.5 5q-16 0 -30 -10.5zM185 609l148 129
l47 3l116 -132l-33 -33l-114 97l-140 -97z" />
    <glyph glyph-name="uni1EAC" unicode="&#x1eac;" horiz-adv-x="675" 
d="M453 700l115 -638l65 -18l-7 -44h-243l8 44l92 18l-22 135h-274l-68 -136l87 -17l-8 -44h-234l8 44l69 17l328 636zM452 258l-57 360l-180 -360h237zM465 903l122 -123l-34 -35l-119 90l-143 -90l-24 35l151 119zM230 -169q-13 14 -13 37q0 27 17 45t43 18q22 0 35 -13.5
t13 -36.5q0 -28 -17 -46t-43 -18q-22 0 -35 14z" />
    <glyph glyph-name="uni1EAD" unicode="&#x1ead;" horiz-adv-x="585" 
d="M452 66l76 -19l-8 -46l-151 -5l25 156q-39 -78 -97.5 -119.5t-114.5 -41.5q-62 0 -101.5 49t-39.5 147q0 95 38.5 175.5t105.5 128t149 47.5q68 0 132 -35l14 25h45zM290.5 87.5q41.5 30.5 74.5 91t47 145.5l20 122q-51 29 -100 29q-59 0 -107 -38.5t-75 -102.5t-27 -138
q0 -70 24 -104.5t64 -34.5q38 0 79.5 30.5zM393 793l116 -133l-34 -33l-114 98l-140 -98l-24 33l148 129zM196 -169q-13 14 -13 37q0 27 17 45t43 18q22 0 35 -13.5t13 -36.5q0 -28 -17 -46t-43 -18q-22 0 -35 14z" />
    <glyph glyph-name="uni1EAE" unicode="&#x1eae;" horiz-adv-x="675" 
d="M453 700l115 -638l65 -18l-7 -44h-243l8 44l92 18l-22 135h-274l-68 -136l87 -17l-8 -44h-234l8 44l69 17l328 636zM452 258l-57 360l-180 -360h237zM340.5 766.5q-34.5 28.5 -34.5 78.5q0 7 2 21h48q-2 -38 18.5 -55t53.5 -17t61.5 20t36.5 54l47 -4q-9 -60 -52.5 -93
t-96.5 -33q-49 0 -83.5 28.5zM563 971l-149 -119l-30 35l137 132z" />
    <glyph glyph-name="uni1EAF" unicode="&#x1eaf;" horiz-adv-x="585" 
d="M452 66l76 -19l-8 -46l-151 -5l25 156q-39 -78 -97.5 -119.5t-114.5 -41.5q-62 0 -101.5 49t-39.5 147q0 95 38.5 175.5t105.5 128t149 47.5q68 0 132 -35l14 25h45zM290.5 87.5q41.5 30.5 74.5 91t47 145.5l20 122q-51 29 -100 29q-59 0 -107 -38.5t-75 -102.5t-27 -138
q0 -70 24 -104.5t64 -34.5q38 0 79.5 30.5zM258.5 619.5q-34.5 28.5 -34.5 78.5q0 7 2 21h48q-2 -38 18.5 -55t53.5 -17t61.5 20t36.5 54l47 -4q-9 -60 -52.5 -93t-96.5 -33q-49 0 -83.5 28.5zM478 831l-149 -119l-30 35l137 132z" />
    <glyph glyph-name="uni1EB0" unicode="&#x1eb0;" horiz-adv-x="675" 
d="M453 700l115 -638l65 -18l-7 -44h-243l8 44l92 18l-22 135h-274l-68 -136l87 -17l-8 -44h-234l8 44l69 17l328 636zM452 258l-57 360l-180 -360h237zM481 888l-30 -35l-148 118l41 48zM338 766.5q-34 28.5 -34 79.5q0 12 1 19h48q-2 -37 19 -54.5t53 -17.5q33 0 61.5 20
t36.5 54l47 -3q-9 -60 -52.5 -93t-96.5 -33q-49 0 -83 28.5z" />
    <glyph glyph-name="uni1EB1" unicode="&#x1eb1;" horiz-adv-x="585" 
d="M452 66l76 -19l-8 -46l-151 -5l25 156q-39 -78 -97.5 -119.5t-114.5 -41.5q-62 0 -101.5 49t-39.5 147q0 95 38.5 175.5t105.5 128t149 47.5q68 0 132 -35l14 25h45zM290.5 87.5q41.5 30.5 74.5 91t47 145.5l20 122q-51 29 -100 29q-59 0 -107 -38.5t-75 -102.5t-27 -138
q0 -70 24 -104.5t64 -34.5q38 0 79.5 30.5zM423 747l-30 -35l-149 119l42 48zM261 619.5q-34 28.5 -34 79.5q0 12 1 19l48 1q-1 -38 19.5 -55t53.5 -17t61.5 19.5t36.5 53.5l47 -3q-9 -60 -52.5 -93t-97.5 -33q-49 0 -83 28.5z" />
    <glyph glyph-name="uni1EB2" unicode="&#x1eb2;" horiz-adv-x="675" 
d="M453 700l115 -638l65 -18l-7 -44h-243l8 44l92 18l-22 135h-274l-68 -136l87 -17l-8 -44h-234l8 44l69 17l328 636zM452 258l-57 360l-180 -360h237zM341.5 766.5q-34.5 28.5 -34.5 78.5q0 7 2 21h48q-2 -38 18.5 -55t53.5 -17t61.5 20t36.5 54l47 -4q-9 -60 -52.5 -93
t-96.5 -33q-49 0 -83.5 28.5zM414 905q38 2 58.5 16t20.5 38q0 30 -43 30q-25 0 -54 -8l-9 40q41 15 80 15t63 -17.5t24 -52.5q0 -75 -90 -90l-5 -33h-55z" />
    <glyph glyph-name="uni1EB3" unicode="&#x1eb3;" horiz-adv-x="585" 
d="M452 66l76 -19l-8 -46l-151 -5l25 156q-39 -78 -97.5 -119.5t-114.5 -41.5q-62 0 -101.5 49t-39.5 147q0 95 38.5 175.5t105.5 128t149 47.5q68 0 132 -35l14 25h45zM290.5 87.5q41.5 30.5 74.5 91t47 145.5l20 122q-51 29 -100 29q-59 0 -107 -38.5t-75 -102.5t-27 -138
q0 -70 24 -104.5t64 -34.5q38 0 79.5 30.5zM259.5 619.5q-34.5 28.5 -34.5 78.5q0 7 2 21h48q-2 -38 18.5 -55t53.5 -17t61.5 20t36.5 54l47 -4q-9 -60 -52.5 -93t-96.5 -33q-49 0 -83.5 28.5zM338 776q38 2 58.5 16t20.5 38q0 30 -43 30q-25 0 -54 -8l-9 40q41 15 80 15
t63 -17.5t24 -52.5q0 -75 -90 -90l-5 -33h-55z" />
    <glyph glyph-name="uni1EB4" unicode="&#x1eb4;" horiz-adv-x="675" 
d="M453 700l115 -638l65 -18l-7 -44h-243l8 44l92 18l-22 135h-274l-68 -136l87 -17l-8 -44h-234l8 44l69 17l328 636zM452 258l-57 360l-180 -360h237zM304 908q21 44 44 64t49 20q17 0 32 -6t34 -18q32 -19 50 -19q30 0 60 46l30 -21q-40 -84 -95 -84q-16 0 -30 5.5
t-31 16.5q-17 10 -29 15t-25 5q-15 0 -28.5 -10.5t-29.5 -35.5zM339 766.5q-34 28.5 -34 79.5q0 12 1 19h48q-1 -38 19.5 -55t53.5 -17t61.5 20t36.5 54l47 -3q-9 -60 -52.5 -93t-96.5 -33q-50 0 -84 28.5z" />
    <glyph glyph-name="uni1EB5" unicode="&#x1eb5;" horiz-adv-x="585" 
d="M452 66l76 -19l-8 -46l-151 -5l25 156q-39 -78 -97.5 -119.5t-114.5 -41.5q-62 0 -101.5 49t-39.5 147q0 95 38.5 175.5t105.5 128t149 47.5q68 0 132 -35l14 25h45zM290.5 87.5q41.5 30.5 74.5 91t47 145.5l20 122q-51 29 -100 29q-59 0 -107 -38.5t-75 -102.5t-27 -138
q0 -70 24 -104.5t64 -34.5q38 0 79.5 30.5zM218 774q21 44 44 64t49 20q17 0 32 -6t34 -18q32 -19 50 -19q16 0 30.5 11t29.5 35l30 -21q-40 -85 -95 -85q-16 0 -30 5.5t-31 16.5q-16 10 -28 15.5t-26 5.5q-15 0 -28.5 -10.5t-29.5 -35.5zM259 619.5q-34 28.5 -34 79.5
q0 12 1 19l48 1q-1 -38 19.5 -55t53.5 -17t61.5 19.5t36.5 53.5l47 -3q-9 -60 -52.5 -93t-96.5 -33q-50 0 -84 28.5z" />
    <glyph glyph-name="uni1EB6" unicode="&#x1eb6;" horiz-adv-x="675" 
d="M453 700l115 -638l65 -18l-7 -44h-243l8 44l92 18l-22 135h-274l-68 -136l87 -17l-8 -44h-234l8 44l69 17l328 636zM452 258l-57 360l-180 -360h237zM343.5 789.5q-34.5 28.5 -34.5 78.5q0 7 2 21h48q-2 -38 18.5 -55t53.5 -17t61.5 20t36.5 54l47 -4q-9 -60 -52.5 -93
t-96.5 -33q-49 0 -83.5 28.5zM230 -169q-13 14 -13 37q0 27 17 45t43 18q22 0 35 -13.5t13 -36.5q0 -28 -17 -46t-43 -18q-22 0 -35 14z" />
    <glyph glyph-name="uni1EB7" unicode="&#x1eb7;" horiz-adv-x="585" 
d="M452 66l76 -19l-8 -46l-151 -5l25 156q-39 -78 -97.5 -119.5t-114.5 -41.5q-62 0 -101.5 49t-39.5 147q0 95 38.5 175.5t105.5 128t149 47.5q68 0 132 -35l14 25h45zM290.5 87.5q41.5 30.5 74.5 91t47 145.5l20 122q-51 29 -100 29q-59 0 -107 -38.5t-75 -102.5t-27 -138
q0 -70 24 -104.5t64 -34.5q38 0 79.5 30.5zM269 660.5q-33 29.5 -33 81.5q0 7 2 23h50q-2 -36 16.5 -54.5t49.5 -18.5q33 0 59.5 20t35.5 55l48 -3q-9 -64 -51.5 -98.5t-94.5 -34.5q-49 0 -82 29.5zM196 -169q-13 14 -13 37q0 27 17 45t43 18q22 0 35 -13.5t13 -36.5
q0 -28 -17 -46t-43 -18q-22 0 -35 14z" />
    <glyph glyph-name="uni1EB8" unicode="&#x1eb8;" horiz-adv-x="606" 
d="M594 698l-25 -159h-49v97h-246l-40 -248h241l-10 -61h-241l-41 -264h258l31 102h50l-27 -165h-485l7 44l84 17l91 572l-79 16l7 44l163 5h311zM203 -169q-13 14 -13 37q0 27 17 45t43 18q22 0 35 -13.5t13 -36.5q0 -28 -17 -46t-43 -18q-22 0 -35 14z" />
    <glyph glyph-name="uni1EB9" unicode="&#x1eb9;" horiz-adv-x="504" 
d="M122 227q-1 -8 -1 -24q0 -77 33.5 -114.5t92.5 -37.5q72 0 154 47l21 -47q-96 -60 -191 -60q-84 0 -136 52.5t-52 158.5q0 86 35 163t99.5 124.5t149.5 47.5q72 0 114 -33.5t42 -88.5q0 -58 -48 -100.5t-124.5 -65t-160.5 -22.5h-28zM198 423q-49 -55 -68 -137
q24 -2 37 -2q57 0 112 15t90.5 42.5t35.5 65.5q0 32 -24 51.5t-66 19.5q-68 0 -117 -55zM174 -169q-13 14 -13 37q0 27 17 45t43 18q22 0 35 -13.5t13 -36.5q0 -28 -17 -46t-43 -18q-22 0 -35 14z" />
    <glyph glyph-name="uni1EBA" unicode="&#x1eba;" horiz-adv-x="606" 
d="M594 698l-25 -159h-49v97h-246l-40 -248h241l-10 -61h-241l-41 -264h258l31 102h50l-27 -165h-485l7 44l84 17l91 572l-79 16l7 44l163 5h311zM366 801q38 2 58.5 16t20.5 38q0 30 -43 30q-25 0 -54 -8l-9 40q41 15 80 15t63 -17.5t24 -52.5q0 -75 -90 -90l-5 -33h-55z
" />
    <glyph glyph-name="uni1EBB" unicode="&#x1ebb;" horiz-adv-x="504" 
d="M122 227q-1 -8 -1 -24q0 -77 33.5 -114.5t92.5 -37.5q72 0 154 47l21 -47q-96 -60 -191 -60q-84 0 -136 52.5t-52 158.5q0 86 35 163t99.5 124.5t149.5 47.5q72 0 114 -33.5t42 -88.5q0 -58 -48 -100.5t-124.5 -65t-160.5 -22.5h-28zM198 423q-49 -55 -68 -137
q24 -2 37 -2q57 0 112 15t90.5 42.5t35.5 65.5q0 32 -24 51.5t-66 19.5q-68 0 -117 -55zM312 677q38 3 58.5 16.5t20.5 35.5q0 31 -44 31q-28 0 -53 -9l-9 41q40 15 79 15q40 0 64 -17.5t24 -53.5q0 -34 -23 -57t-67 -30l-8 -43h-54z" />
    <glyph glyph-name="uni1EBC" unicode="&#x1ebc;" horiz-adv-x="606" 
d="M594 698l-25 -159h-49v97h-246l-40 -248h241l-10 -61h-241l-41 -264h258l31 102h50l-27 -165h-485l7 44l84 17l91 572l-79 16l7 44l163 5h311zM238 795q24 44 48.5 64t52.5 20q18 0 33.5 -5.5t38.5 -17.5q18 -9 30.5 -14t24.5 -5q33 0 65 45l33 -21q-44 -84 -103 -84
q-17 0 -31.5 5.5t-34.5 16.5q-22 11 -34 15.5t-26 4.5q-17 0 -31.5 -10.5t-32.5 -34.5z" />
    <glyph glyph-name="uni1EBD" unicode="&#x1ebd;" horiz-adv-x="504" 
d="M122 227q-1 -8 -1 -24q0 -77 33.5 -114.5t92.5 -37.5q72 0 154 47l21 -47q-96 -60 -191 -60q-84 0 -136 52.5t-52 158.5q0 86 35 163t99.5 124.5t149.5 47.5q72 0 114 -33.5t42 -88.5q0 -58 -48 -100.5t-124.5 -65t-160.5 -22.5h-28zM198 423q-49 -55 -68 -137
q24 -2 37 -2q57 0 112 15t90.5 42.5t35.5 65.5q0 32 -24 51.5t-66 19.5q-68 0 -117 -55zM371 656q-15 7 -34 20q-17 12 -29.5 17.5t-25.5 5.5q-18 0 -35 -12t-35 -37l-33 20q48 92 108 92q19 0 33.5 -7t35.5 -20q17 -12 29.5 -17.5t26.5 -5.5q18 0 34.5 11.5t34.5 37.5
l33 -19q-48 -93 -109 -93q-19 0 -34 7z" />
    <glyph glyph-name="uni1EBE" unicode="&#x1ebe;" horiz-adv-x="606" 
d="M594 698l-25 -159h-49v97h-246l-40 -248h241l-10 -61h-241l-41 -264h258l31 102h50l-27 -165h-485l7 44l84 17l91 572l-79 16l7 44l163 5h311zM639 995l38 -51l-157 -108l-27 37zM232 767l151 119l48 4l121 -123l-33 -35l-120 90l-143 -90z" />
    <glyph glyph-name="uni1EBF" unicode="&#x1ebf;" horiz-adv-x="504" 
d="M122 227q-1 -8 -1 -24q0 -77 33.5 -114.5t92.5 -37.5q72 0 154 47l21 -47q-96 -60 -191 -60q-84 0 -136 52.5t-52 158.5q0 86 35 163t99.5 124.5t149.5 47.5q72 0 114 -33.5t42 -88.5q0 -58 -48 -100.5t-124.5 -65t-160.5 -22.5h-28zM198 423q-49 -55 -68 -137
q24 -2 37 -2q57 0 112 15t90.5 42.5t35.5 65.5q0 32 -24 51.5t-66 19.5q-68 0 -117 -55zM546 883l46 -44l-134 -134l-34 32zM178 610l148 129l48 4l115 -133l-33 -33l-114 98l-140 -98z" />
    <glyph glyph-name="uni1EC0" unicode="&#x1ec0;" horiz-adv-x="606" 
d="M594 698l-25 -159h-49v97h-246l-40 -248h241l-10 -61h-241l-41 -264h258l31 102h50l-27 -165h-485l7 44l84 17l91 572l-79 16l7 44l163 5h311zM447 955l54 48l94 -135l-39 -33zM232 767l151 119l48 4l121 -123l-33 -35l-120 90l-143 -90z" />
    <glyph glyph-name="uni1EC1" unicode="&#x1ec1;" horiz-adv-x="504" 
d="M122 227q-1 -8 -1 -24q0 -77 33.5 -114.5t92.5 -37.5q72 0 154 47l21 -47q-96 -60 -191 -60q-84 0 -136 52.5t-52 158.5q0 86 35 163t99.5 124.5t149.5 47.5q72 0 114 -33.5t42 -88.5q0 -58 -48 -100.5t-124.5 -65t-160.5 -22.5h-28zM198 423q-49 -55 -68 -137
q24 -2 37 -2q57 0 112 15t90.5 42.5t35.5 65.5q0 32 -24 51.5t-66 19.5q-68 0 -117 -55zM436 878l88 -139l-40 -31l-104 125zM177 610l148 129l47 4l116 -133l-33 -33l-114 98l-140 -98z" />
    <glyph glyph-name="uni1EC2" unicode="&#x1ec2;" horiz-adv-x="606" 
d="M594 698l-25 -159h-49v97h-246l-40 -248h241l-10 -61h-241l-41 -264h258l31 102h50l-27 -165h-485l7 44l84 17l91 572l-79 16l7 44l163 5h311zM429 886l122 -123l-34 -35l-119 90l-143 -90l-24 35l151 119zM503 913q38 2 58.5 16t20.5 38q0 30 -43 30q-25 0 -54 -8l-9 40
q41 15 80 15t63 -17.5t24 -52.5q0 -75 -90 -90l-5 -33h-55z" />
    <glyph glyph-name="uni1EC3" unicode="&#x1ec3;" horiz-adv-x="504" 
d="M122 227q-1 -8 -1 -24q0 -77 33.5 -114.5t92.5 -37.5q72 0 154 47l21 -47q-96 -60 -191 -60q-84 0 -136 52.5t-52 158.5q0 86 35 163t99.5 124.5t149.5 47.5q72 0 114 -33.5t42 -88.5q0 -58 -48 -100.5t-124.5 -65t-160.5 -22.5h-28zM198 423q-49 -55 -68 -137
q24 -2 37 -2q57 0 112 15t90.5 42.5t35.5 65.5q0 32 -24 51.5t-66 19.5q-68 0 -117 -55zM454 758q38 2 58.5 16t20.5 38q0 30 -43 30q-25 0 -54 -8l-9 40q41 15 80 15t63 -17.5t24 -52.5q0 -75 -90 -90l-5 -33h-55zM374 743l116 -133l-34 -33l-114 98l-140 -98l-24 33
l148 129z" />
    <glyph glyph-name="uni1EC4" unicode="&#x1ec4;" horiz-adv-x="606" 
d="M594 698l-25 -159h-49v97h-246l-40 -248h241l-10 -61h-241l-41 -264h258l31 102h50l-27 -165h-485l7 44l84 17l91 572l-79 16l7 44l163 5h311zM337.5 935.5q-14.5 -10.5 -31.5 -35.5l-32 22q42 84 98 84q17 0 33 -6t36 -18q19 -10 30.5 -14.5t23.5 -4.5q16 0 31 11t31 35
l33 -21q-44 -85 -101 -85q-17 0 -31.5 5.5t-32.5 16.5q-17 10 -30 15.5t-27 5.5q-16 0 -30.5 -10.5zM232 767l151 119l47 4l121 -123l-33 -35l-119 90l-144 -90z" />
    <glyph glyph-name="uni1EC5" unicode="&#x1ec5;" horiz-adv-x="504" 
d="M122 227q-1 -8 -1 -24q0 -77 33.5 -114.5t92.5 -37.5q72 0 154 47l21 -47q-96 -60 -191 -60q-84 0 -136 52.5t-52 158.5q0 86 35 163t99.5 124.5t149.5 47.5q72 0 114 -33.5t42 -88.5q0 -58 -48 -100.5t-124.5 -65t-160.5 -22.5h-28zM198 423q-49 -55 -68 -137
q24 -2 37 -2q57 0 112 15t90.5 42.5t35.5 65.5q0 32 -24 51.5t-66 19.5q-68 0 -117 -55zM272 792.5q-14 -10.5 -30 -34.5l-31 21q41 84 95 84q16 0 30 -5.5t37 -17.5q19 -11 30 -15.5t22 -4.5q30 0 61 46l31 -21q-43 -84 -98 -84q-16 0 -29.5 5.5t-32.5 16.5
q-19 10 -30.5 15t-24.5 5q-16 0 -30 -10.5zM174 609l148 129l47 3l116 -132l-33 -33l-114 97l-140 -97z" />
    <glyph glyph-name="uni1EC6" unicode="&#x1ec6;" horiz-adv-x="606" 
d="M594 698l-25 -159h-49v97h-246l-40 -248h241l-10 -61h-241l-41 -264h258l31 102h50l-27 -165h-485l7 44l84 17l91 572l-79 16l7 44l163 5h311zM432 903l122 -123l-34 -35l-119 90l-143 -90l-24 35l151 119zM203 -169q-13 14 -13 37q0 27 17 45t43 18q22 0 35 -13.5
t13 -36.5q0 -28 -17 -46t-43 -18q-22 0 -35 14z" />
    <glyph glyph-name="uni1EC7" unicode="&#x1ec7;" horiz-adv-x="504" 
d="M122 227q-1 -8 -1 -24q0 -77 33.5 -114.5t92.5 -37.5q72 0 154 47l21 -47q-96 -60 -191 -60q-84 0 -136 52.5t-52 158.5q0 86 35 163t99.5 124.5t149.5 47.5q72 0 114 -33.5t42 -88.5q0 -58 -48 -100.5t-124.5 -65t-160.5 -22.5h-28zM198 423q-49 -55 -68 -137
q24 -2 37 -2q57 0 112 15t90.5 42.5t35.5 65.5q0 32 -24 51.5t-66 19.5q-68 0 -117 -55zM382 793l116 -133l-34 -33l-114 98l-140 -98l-24 33l148 129zM174 -169q-13 14 -13 37q0 27 17 45t43 18q22 0 35 -13.5t13 -36.5q0 -28 -17 -46t-43 -18q-22 0 -35 14z" />
    <glyph glyph-name="uni1EC8" unicode="&#x1ec8;" horiz-adv-x="349" 
d="M367 698l-7 -44l-86 -20l-91 -571l81 -19l-7 -44h-247l7 44l85 17l90 573l-79 15l7 44zM228 801q38 2 58.5 16t20.5 38q0 30 -43 30q-25 0 -54 -8l-9 40q41 15 80 15t63 -17.5t24 -52.5q0 -75 -90 -90l-5 -33h-55z" />
    <glyph glyph-name="uni1EC9" unicode="&#x1ec9;" horiz-adv-x="286" 
d="M226 532l-75 -467l76 -19l-7 -45l-159 -4l74 466l-75 18l7 45zM177 677q38 3 58.5 16.5t20.5 35.5q0 31 -44 31q-28 0 -53 -9l-9 41q40 15 79 15q40 0 64 -17.5t24 -53.5q0 -34 -23 -57t-67 -30l-8 -43h-54z" />
    </font>
</defs>
</svg>
