<?xml version="1.0" standalone="no"?>
<!DOCTYPE svg PUBLIC "-//W3C//DTD SVG 1.1//EN" "http://www.w3.org/Graphics/SVG/1.1/DTD/svg11.dtd" >
<svg xmlns="http://www.w3.org/2000/svg" xmlns:xlink="http://www.w3.org/1999/xlink" version="1.1">
<metadata>
Created by FontForge 20170731 at Tue Sep 29 15:44:33 2020
 By Aleksey,,,
Copyright 2011 The Bitter Project Authors (https://github.com/solmatas/bitter)
</metadata>
<defs>
<font id="BitterPro-Medium" horiz-adv-x="0" >
  <font-face 
    font-family="Bitter Pro Medium"
    font-weight="500"
    font-stretch="normal"
    units-per-em="1000"
    panose-1="0 0 6 0 0 0 0 0 0 0"
    ascent="800"
    descent="-200"
    x-height="530"
    cap-height="700"
    bbox="-499 -290 1258 1104"
    underline-thickness="50"
    underline-position="-150"
    unicode-range="U+000D-2215"
  />
<missing-glyph horiz-adv-x="500" 
d="M410 -230h-317v999h317v-999zM167 633v-33h166v33h-66v37h66v32h-165v-32h65v-37h-66zM167 574v-104h166v34h-66v70h-100zM233 504h-33v36h33v-36zM167 373v-33h100v70h66v33h-166v-33h66v-37h-66zM167 317v-34h166v100h-33v-66h-133zM167 261v-113h166v113h-100v-56h34
v23h33v-47h-100v80h-33zM167 88v-113h166v113h-166zM300 8h-100v47h100v-47zM167 -128v-33h166v33h-102l70 47h32v33h-166v-33h70z" />
    <glyph glyph-name="fi" unicode="fi" horiz-adv-x="643" 
d="M548 71l74 -18v-53h-249v53l75 18v388h-237v-388l90 -18v-53h-265v53l75 17v389h-77v55l77 14v60q0 96 49.5 144t137.5 48q22 0 49.5 -4t48.5 -10l-9 -70q-39 11 -68 11q-108 0 -108 -110v-68l337 4v-462zM449.5 648q-17.5 17 -17.5 48t17.5 48t46.5 17q28 0 45.5 -17
t17.5 -48t-18 -48t-46 -17t-45.5 17z" />
    <glyph glyph-name="fl" unicode="fl" horiz-adv-x="655" 
d="M559 70l74 -17v-53h-250v53l76 17v627q-63 11 -106 11q-65 0 -96 -21t-38.5 -46t-7.5 -54v-61h134l-3 -69h-131v-387l90 -17v-53h-265v53l75 17v387h-77v55l77 14v59q0 100 62 147.5t169 47.5q64 0 132 -16l85 5v-699z" />
    <glyph glyph-name="f_f" unicode="ff" horiz-adv-x="693" 
d="M574.5 681q-27.5 -27 -27.5 -84v-71h135l-2 -69h-133v-386l90 -18v-53h-264v53l74 17v387h-236v-386l80 -18v-53h-255v53l75 17v387h-77v55l77 13v49q0 97 58 143.5t155 46.5q83 0 173 -32q50 48 137 48q53 0 114 -19l-15 -68q-50 15 -83 15q-48 0 -75.5 -27zM211 525
l236 1v62q0 47 12 81q-69 24 -124 24q-57 0 -90.5 -28t-33.5 -85v-55z" />
    <glyph glyph-name="f_f_i" unicode="ffi" horiz-adv-x="979" 
d="M884 71l74 -18v-53h-248v53l74 18v388h-237v-388l90 -18v-53h-264v53l74 17v389h-236v-388l80 -18v-53h-255v53l75 17v390h-77v54l77 14v46q0 96 59 143t156 47q78 0 171 -32q50 48 137 48q22 0 49.5 -4t48.5 -10l-9 -70q-39 11 -68 11q-108 0 -108 -110v-68l337 4v-462z
M786 648q-17 17 -17 48t17.5 48t45.5 17t45.5 -17t17.5 -48t-17.5 -48t-46.5 -17q-28 0 -45 17zM211 528h236v60q0 46 12 82q-69 23 -122 23q-57 0 -91.5 -28t-34.5 -85v-52z" />
    <glyph glyph-name="f_f_l" unicode="ffl" horiz-adv-x="993" 
d="M898 70l74 -17v-53h-250v53l76 17v627q-59 10 -109 10q-70 0 -105 -27.5t-35 -92.5v-61h128l-3 -69h-125v-386l90 -18v-53h-264v53l74 17v387h-238v-386l80 -18v-53h-255v53l75 17v387h-77v55l77 13v49q0 96 59 143t156 47q84 0 181 -35q60 51 173 51q65 0 132 -16l86 5
v-699zM211 525h238v60q0 46 14 83q-67 25 -126 25q-57 0 -91.5 -28t-34.5 -85v-55z" />
    <glyph glyph-name=".notdef" horiz-adv-x="500" 
d="M410 -230h-317v999h317v-999zM167 633v-33h166v33h-66v37h66v32h-165v-32h65v-37h-66zM167 574v-104h166v34h-66v70h-100zM233 504h-33v36h33v-36zM167 373v-33h100v70h66v33h-166v-33h66v-37h-66zM167 317v-34h166v100h-33v-66h-133zM167 261v-113h166v113h-100v-56h34
v23h33v-47h-100v80h-33zM167 88v-113h166v113h-166zM300 8h-100v47h100v-47zM167 -128v-33h166v33h-102l70 47h32v33h-166v-33h70z" />
    <glyph glyph-name=".null" 
 />
    <glyph glyph-name="nonmarkingreturn" unicode="&#xd;" horiz-adv-x="193" 
 />
    <glyph glyph-name="NULL" 
 />
    <glyph glyph-name="NULL" 
 />
    <glyph glyph-name="space" unicode=" " horiz-adv-x="193" 
 />
    <glyph glyph-name="exclam" unicode="!" horiz-adv-x="329" 
d="M202 232l-75 -5l-16 473h107zM121 97.5q18 17.5 43 17.5q28 0 45 -17t17 -44t-18 -44t-44 -17q-28 0 -44.5 16.5t-16.5 44.5q0 26 18 43.5z" />
    <glyph glyph-name="quotedbl" unicode="&#x22;" horiz-adv-x="401" 
d="M149 520h-61l-16 250h93zM312 520h-61l-16 250h93z" />
    <glyph glyph-name="numbersign" unicode="#" horiz-adv-x="670" 
d="M624 521v-63h-109l-29 -206h99v-63h-108l-27 -189h-83l27 189h-164l-27 -189h-82l27 189h-101v63h110l29 206h-100v63h109l25 179h82l-25 -179h164l25 179h83l-25 -179h100zM239 252h164l29 206h-164z" />
    <glyph glyph-name="dollar" unicode="$" horiz-adv-x="618" 
d="M493.5 71.5q-54.5 -50.5 -142.5 -64.5v-143h-70v138q-47 0 -100.5 10.5t-103.5 31.5l3 173h63l15 -110q63 -27 132 -27q68 0 112.5 29t44.5 84q0 36 -21.5 59.5t-53.5 37t-86 29.5q-65 19 -106 38t-69.5 55t-28.5 94q0 82 55 131t144 58v133h70v-131q42 -3 91 -14.5
t86 -27.5l-9 -162h-62l-15 106q-55 21 -114 21q-63 0 -104.5 -25.5t-41.5 -75.5q0 -34 20.5 -56t51 -35t84.5 -30q66 -20 108.5 -39.5t72 -57t29.5 -97.5q0 -82 -54.5 -132.5z" />
    <glyph glyph-name="percent" unicode="%" horiz-adv-x="853" 
d="M96 397q-43 48 -43 130q0 84 44.5 133.5t129.5 49.5q82 0 122.5 -45.5t40.5 -125.5q0 -88 -44 -139t-127 -51q-80 0 -123 48zM233 -10h-83l470 720h84zM292.5 440.5q21.5 33.5 21.5 97.5q0 59 -20.5 87t-67.5 28q-51 0 -74 -32t-23 -94q0 -120 92 -120q50 0 71.5 33.5z
M505 38q-43 48 -43 129q0 84 44 133.5t129 49.5q82 0 123 -45.5t41 -125.5q0 -87 -44 -138t-127 -51q-80 0 -123 48zM700 79.5q22 32.5 23 93.5q0 61 -20.5 90.5t-68.5 29.5q-50 0 -73 -32t-23 -93q0 -121 92 -121q48 0 70 32.5z" />
    <glyph glyph-name="ampersand" unicode="&#x26;" horiz-adv-x="684" 
d="M645 407v-55l-74 -17v-115q0 -111 -68.5 -170.5t-184.5 -59.5q-109 0 -175.5 51.5t-66.5 148.5q0 67 39 116.5t116 66.5q-66 15 -101 56.5t-35 98.5q0 91 65.5 136.5t171.5 45.5q103 0 205 -37l-8 -149h-64l-15 94q-59 16 -111 16q-140 0 -140 -114q0 -53 41 -83t111 -30
h294zM433.5 106.5q38.5 36.5 38.5 105.5v121h-131q-78 0 -119 -36.5t-41 -91.5q0 -63 40.5 -99t106.5 -36q67 0 105.5 36.5z" />
    <glyph glyph-name="quotesingle" unicode="'" horiz-adv-x="238" 
d="M149 520h-61l-16 250h93z" />
    <glyph glyph-name="parenleft" unicode="(" horiz-adv-x="311" 
d="M297 835q-75 -104 -114.5 -223.5t-39.5 -238.5q0 -118 39.5 -238t114.5 -223l-64 -40q-92 110 -139 240t-47 261q0 132 47 262t139 240z" />
    <glyph glyph-name="parenright" unicode=")" horiz-adv-x="311" 
d="M14 -88q75 103 114.5 223t39.5 239q0 118 -39.5 238t-114.5 224l64 39q92 -110 139 -240t47 -261q0 -132 -47 -262t-139 -239z" />
    <glyph glyph-name="asterisk" unicode="*" horiz-adv-x="472" 
d="M261 634l-25 -21l-24 21l-10 126l64 1zM400 618l-125 -31l-26 19l12 28l119 46zM225 604l-27 -15l-129 27l20 62l123 -44zM236 560l-71 -115l-53 37l86 107l31 2zM360 484l-50 -38l-74 114l7 31l32 -4z" />
    <glyph glyph-name="plus" unicode="+" horiz-adv-x="563" 
d="M320 386h196v-73h-196v-203h-77v203h-197v73h197v204h77v-204z" />
    <glyph glyph-name="comma" unicode="," horiz-adv-x="239" 
d="M48 -128q50 75 50 108q0 11 -12 29q-8 11 -12.5 21t-4.5 24q0 28 18.5 44.5t43.5 16.5t42.5 -17t17.5 -51q0 -37 -25.5 -90.5t-80.5 -111.5z" />
    <glyph glyph-name="hyphen" unicode="-" horiz-adv-x="454" 
d="M79 332h296v-77h-296v77z" />
    <glyph glyph-name="period" unicode="." horiz-adv-x="218" 
d="M66 97.5q18 17.5 43 17.5q28 0 45 -17t17 -44t-18 -44t-44 -17q-28 0 -44.5 16.5t-16.5 44.5q0 26 18 43.5z" />
    <glyph glyph-name="slash" unicode="/" horiz-adv-x="323" 
d="M254 804h71l-257 -885h-70z" />
    <glyph glyph-name="zero" unicode="0" horiz-adv-x="639" 
d="M122 77.5q-62 87.5 -62 266.5q0 184 65.5 275t203.5 91q133 0 191 -83.5t58 -262.5q0 -187 -65 -280.5t-198 -93.5q-131 0 -193 87.5zM435.5 140.5q36.5 71.5 36.5 222.5q0 144 -35 206t-112 62q-84 0 -121.5 -69t-37.5 -214q0 -144 36.5 -211.5t115.5 -67.5
q81 0 117.5 71.5z" />
    <glyph glyph-name="one" unicode="1" horiz-adv-x="415" 
d="M293 703v-629l112 -20v-54h-351v54l137 19v525l-144 -83l-33 63l195 125h84z" />
    <glyph glyph-name="two" unicode="2" horiz-adv-x="550" 
d="M509 82v-82h-469v87q129 114 200.5 185.5t108 130.5t36.5 113q0 57 -38 86.5t-100 29.5q-49 0 -117 -21l-14 -103h-62l-10 164q124 38 219 38q105 0 167.5 -44.5t62.5 -135.5q0 -67 -35.5 -133t-102.5 -138t-182 -177h336z" />
    <glyph glyph-name="three" unicode="3" horiz-adv-x="572" 
d="M473.5 314.5q39.5 -43.5 39.5 -114.5q0 -102 -73.5 -155.5t-187.5 -53.5q-120 0 -217 56l29 73q92 -49 184 -49q73 0 117 33.5t44 98.5q0 59 -40 92.5t-123 33.5h-84v74h83q74 0 112 30t38 87q0 59 -37.5 87t-101.5 28q-53 0 -120 -20l-12 -102h-61l-8 157q115 40 223 40
q102 0 161.5 -42t59.5 -132q0 -136 -144 -165q79 -13 118.5 -56.5z" />
    <glyph glyph-name="four" unicode="4" horiz-adv-x="592" 
d="M463 248h115v-80h-115v-168h-102v168h-339l-11 73l332 471l120 -12v-452zM363 248v349l-245 -349h245z" />
    <glyph glyph-name="five" unicode="5" horiz-adv-x="538" 
d="M217 422q280 0 280 -203q0 -71 -32 -122.5t-88 -78.5t-129 -27q-103 0 -209 50l29 74q89 -43 165 -43q71 0 113.5 38.5t42.5 105.5q0 73 -58 101.5t-183 28.5h-67l14 354h371l-1 -80h-270l-9 -198h31z" />
    <glyph glyph-name="six" unicode="6" horiz-adv-x="588" 
d="M447.5 401q47.5 -23 75 -69.5t27.5 -112.5q0 -70 -31.5 -121.5t-86.5 -79.5t-126 -28q-116 0 -184.5 78.5t-68.5 237.5q0 123 41.5 214.5t117 140.5t176.5 49q54 0 114 -15l-8 -75q-49 10 -94 10q-108 0 -167.5 -66.5t-71.5 -191.5q87 52 180 52q59 0 106.5 -23z
M407.5 108.5q37.5 38.5 37.5 106.5q0 66 -37.5 101t-97.5 35q-37 0 -76.5 -13t-75.5 -39q1 -229 149 -229q63 0 100.5 38.5z" />
    <glyph glyph-name="seven" unicode="7" horiz-adv-x="514" 
d="M22 514v186h476v-73l-267 -627h-113l268 618h-282l-19 -104h-63z" />
    <glyph glyph-name="eight" unicode="8" horiz-adv-x="601" 
d="M505 306q40 -39 40 -108q0 -65 -36 -112t-94.5 -71t-124.5 -24q-63 0 -117 22t-86.5 64.5t-32.5 101.5q0 68 42 114t106 70q-61 25 -95.5 62t-34.5 99q0 59 32.5 101.5t86.5 63.5t117 21q62 0 113.5 -20t82 -59.5t30.5 -95.5q0 -63 -39 -102t-102 -60q72 -28 112 -67z
M207 452q36 -28 104 -51q124 34 124 125q0 52 -37.5 81t-93.5 29t-94.5 -28.5t-38.5 -79.5q0 -48 36 -76zM403 101q42 36 42 92q0 39 -22.5 65.5t-56 42t-88.5 34.5q-53 -19 -88.5 -54t-35.5 -89q0 -58 40.5 -92.5t102.5 -34.5q64 0 106 36z" />
    <glyph glyph-name="nine" unicode="9" horiz-adv-x="588" 
d="M466.5 632q68.5 -78 68.5 -237q0 -122 -41 -213.5t-117 -141t-178 -49.5q-58 0 -113 15l8 74q49 -10 93 -10q109 0 169 67t71 193q-87 -53 -181 -53q-93 0 -151 54t-58 150q0 70 31.5 122t87 79.5t125.5 27.5q117 0 185.5 -78zM179.5 384q36.5 -34 96.5 -34q38 0 77.5 14
t76.5 40q-3 226 -149 226q-64 0 -101 -38.5t-37 -105.5q0 -68 36.5 -102z" />
    <glyph glyph-name="colon" unicode=":" horiz-adv-x="218" 
d="M66 97.5q18 17.5 43 17.5q28 0 45 -17t17 -44t-18 -44t-44 -17q-28 0 -44.5 16.5t-16.5 44.5q0 26 18 43.5zM66 450.5q18 17.5 43 17.5q28 0 45 -17t17 -44t-18 -44t-44 -17q-28 0 -44.5 16.5t-16.5 44.5q0 26 18 43.5z" />
    <glyph glyph-name="semicolon" unicode=";" horiz-adv-x="239" 
d="M48 -128q50 75 50 108q0 11 -12 29q-8 11 -12.5 21t-4.5 24q0 28 18.5 44.5t43.5 16.5t42.5 -17t17.5 -51q0 -37 -25.5 -90.5t-80.5 -111.5zM86 450.5q18 17.5 43 17.5q28 0 45 -17t17 -44t-18 -44t-44 -17q-28 0 -44.5 16.5t-16.5 44.5q0 26 18 43.5z" />
    <glyph glyph-name="less" unicode="&#x3c;" horiz-adv-x="556" 
d="M493 520l-348 -166l349 -157l-28 -73l-417 190v76l417 200z" />
    <glyph glyph-name="equal" unicode="=" horiz-adv-x="545" 
d="M47 479h451v-73h-451v73zM47 287h451v-73h-451v73z" />
    <glyph glyph-name="greater" unicode="&#x3e;" horiz-adv-x="551" 
d="M62 492l27 77l413 -170v-76l-414 -179l-26 69l340 145z" />
    <glyph glyph-name="question" unicode="?" horiz-adv-x="428" 
d="M121 229q-7 37 -7 66q0 44 23 74t68 67q41 34 61 59t20 60q0 40 -27.5 60t-73.5 20q-51 0 -127 -26l-22 66q87 36 175 36q80 0 129 -34t49 -105q0 -39 -14.5 -69.5t-35.5 -51.5t-56 -50q-44 -36 -65 -62.5t-21 -62.5l2 -43zM129 97.5q18 17.5 44 17.5q27 0 43.5 -17
t16.5 -43q0 -28 -18 -45t-44 -17q-27 0 -43.5 16.5t-16.5 43.5t18 44.5z" />
    <glyph glyph-name="at" unicode="@" horiz-adv-x="872" 
d="M640 608.5q83 -43.5 129 -124.5t46 -190t-47.5 -169.5t-131.5 -60.5q-94 0 -116 78q-26 -36 -63 -56.5t-75 -20.5q-48 0 -80 32t-32 88q0 116 147 116h96v52q0 36 -23.5 52.5t-62.5 16.5q-54 0 -119 -26l-14 52q82 34 154 34q67 0 105.5 -33t38.5 -100v-169q0 -61 53 -61
q45 0 67.5 44t22.5 116q0 145 -77 227t-212 82q-92 0 -159.5 -38t-104 -111t-36.5 -175q0 -95 32 -164.5t92 -107t141 -37.5q77 0 152 29l22 -57q-94 -37 -183 -37q-99 0 -175.5 45.5t-119 129.5t-42.5 197q0 122 49.5 210t136.5 134t198 46q108 0 191 -43.5zM464 140
q27 16 49 44v75h-75q-46 0 -66 -17t-20 -50q0 -32 16.5 -50t43.5 -18q25 0 52 16z" />
    <glyph glyph-name="A" unicode="A" horiz-adv-x="710" 
d="M414 702l221 -631l71 -18v-53h-269v53l84 18l-40 123h-269l-43 -123l86 -18v-53h-251v53l70 17l235 629zM460 267l-106 339l-118 -339h224z" />
    <glyph glyph-name="B" unicode="B" horiz-adv-x="646" 
d="M544.5 307.5q44.5 -42.5 44.5 -116.5q0 -90 -65 -140.5t-194 -50.5h-285v53l82 19v553l-82 17v53l180 5h117q108 0 164 -43.5t56 -128.5q0 -67 -35.5 -109t-110.5 -60q84 -9 128.5 -51.5zM321 626h-92v-233h68q162 0 162 121q0 112 -138 112zM321 74q80 0 121.5 31
t41.5 93q0 60 -36.5 91.5t-99.5 31.5h-119v-247h92z" />
    <glyph glyph-name="C" unicode="C" horiz-adv-x="641" 
d="M599 90q-59 -50 -124 -75t-128 -25q-82 0 -148.5 41.5t-105.5 122.5t-39 193t39 194t110.5 125.5t166.5 43.5q102 0 219 -51l-8 -164h-61l-18 109q-70 26 -130 26q-97 0 -152.5 -72t-55.5 -199q0 -91 27 -155t74.5 -97t107.5 -33q45 0 93 19t93 57z" />
    <glyph glyph-name="D" unicode="D" horiz-adv-x="716" 
d="M348 700q94 0 165 -37.5t110.5 -113.5t39.5 -188q0 -116 -42 -197t-116.5 -122.5t-173.5 -41.5h-286v53l82 19v552l-82 18v53l201 5h102zM335 75q95 0 156.5 63.5t61.5 215.5q0 148 -58.5 209.5t-148.5 61.5h-117v-550h106z" />
    <glyph glyph-name="E" unicode="E" horiz-adv-x="617" 
d="M478 75l16 97h62l-1 -172h-510v53l82 19v553l-82 17v53l182 5h316v-165h-61l-16 90h-237v-231h240v-73h-240v-246h249z" />
    <glyph glyph-name="F" unicode="F" horiz-adv-x="563" 
d="M45 695l182 5h309v-167h-61l-17 92h-229v-238h232v-75h-232v-240l102 -19v-53h-286v53l82 19v553l-82 17v53z" />
    <glyph glyph-name="G" unicode="G" horiz-adv-x="731" 
d="M702 343v-55l-79 -18v-225q-130 -54 -247 -54q-98 0 -170.5 40.5t-112 119.5t-39.5 193q0 115 40 197t115 125.5t179 43.5q116 0 238 -52l-8 -163h-61l-18 109q-80 26 -147 26q-107 0 -167.5 -74t-60.5 -210q0 -131 59 -203t166 -72q66 0 138 26v174l-82 12v55z" />
    <glyph glyph-name="H" unicode="H" horiz-adv-x="793" 
d="M749 700v-53l-82 -21v-554l82 -19v-53h-267v53l82 19v247h-335v-247l82 -19v-53h-266v53l82 19v553l-82 17v53l266 5v-53l-82 -22v-231h335v232l-82 16v53z" />
    <glyph glyph-name="I" unicode="I" horiz-adv-x="355" 
d="M311 700v-53l-82 -21v-554l82 -19v-53h-266v53l82 19v553l-82 17v53z" />
    <glyph glyph-name="J" unicode="J" horiz-adv-x="335" 
d="M301 700v-52l-82 -22v-554q0 -112 -42.5 -168t-141.5 -56q-29 0 -64 6l9 74q18 -3 34 -3q55 0 79 30.5t24 96.5v574l-90 16v53z" />
    <glyph glyph-name="K" unicode="K" horiz-adv-x="712" 
d="M419 365l205 -294l74 -18v-53h-261v53l71 18l-168 250h-111v-248l80 -20v-53h-264v53l82 19v554l-82 16v53l264 5v-52l-80 -21v-231h114l140 234l-75 12v53l252 5v-53l-78 -20z" />
    <glyph glyph-name="L" unicode="L" horiz-adv-x="555" 
d="M451 75l17 114h62v-189h-485v53l82 19v553l-82 17v53l276 5v-53l-92 -22v-550h222z" />
    <glyph glyph-name="M" unicode="M" horiz-adv-x="885" 
d="M841 700v-53l-82 -22v-553l82 -19v-53h-259v53l82 19v485l-197 -375l-66 -4l-191 381v-488l83 -18v-53h-248v53l82 19v553l-82 17v53l207 5l193 -406l200 401z" />
    <glyph glyph-name="N" unicode="N" horiz-adv-x="785" 
d="M503 695l250 5v-53l-82 -21v-626h-116l-342 567v-495l82 -19v-53h-250v53l82 19v553l-82 17v53l204 5l336 -556v482l-82 16v53z" />
    <glyph glyph-name="O" unicode="O" horiz-adv-x="741" 
d="M200 30q-69 40 -107.5 119.5t-38.5 192.5q0 119 41.5 202t114.5 124.5t166 41.5q91 0 161 -39.5t110 -118t40 -190.5q0 -115 -42 -199t-116.5 -128.5t-169.5 -44.5q-90 0 -159 40zM518 141q59 71 59 216q0 138 -55.5 205.5t-149.5 67.5t-151 -69t-57 -215
q0 -139 55 -207.5t147 -68.5q93 0 152 71z" />
    <glyph glyph-name="P" unicode="P" horiz-adv-x="601" 
d="M229 261v-189l105 -19v-53h-289v53l82 19v554l-82 16v53l186 5h106q114 0 172.5 -57t58.5 -152q0 -105 -69.5 -167.5t-202.5 -62.5h-67zM229 625v-289h67q80 0 124 41t44 112q0 65 -36.5 100.5t-106.5 35.5h-92z" />
    <glyph glyph-name="Q" unicode="Q" horiz-adv-x="749" 
d="M813 -122q-50 -31 -82.5 -44.5t-63.5 -13.5t-67.5 15t-82 43.5t-141.5 91.5l-30 20q-88 4 -153.5 45.5t-102 119.5t-36.5 188q0 119 42 201.5t115.5 124t168.5 41.5q93 0 164 -39.5t111 -117.5t40 -190q0 -147 -67.5 -241.5t-179.5 -119.5l33 -19q84 -48 120.5 -64.5
t66.5 -16.5q24 0 48 9t60 30zM219.5 138.5q55.5 -68.5 150.5 -68.5q98 0 156.5 72t58.5 215q0 137 -56.5 205t-152.5 68q-98 0 -155 -70.5t-57 -213.5q0 -139 55.5 -207.5z" />
    <glyph glyph-name="R" unicode="R" horiz-adv-x="661" 
d="M580 71l63 -18v-53h-137l-91 196q-21 45 -36 65.5t-38.5 29.5t-66.5 9l-45 -1v-226l96 -20v-53h-280v53l82 19v553l-82 17v53l188 5h110q115 0 174.5 -48t59.5 -139q0 -76 -43.5 -126.5t-128.5 -67.5q35 -10 56.5 -32.5t42.5 -63.5zM229 372h73q83 0 126.5 34.5
t43.5 100.5q0 58 -35.5 88t-105.5 30h-102v-253z" />
    <glyph glyph-name="S" unicode="S" horiz-adv-x="600" 
d="M191.5 470q20.5 -23 51.5 -36.5t85 -31.5q68 -21 110.5 -42t72.5 -60.5t30 -102.5q0 -101 -75.5 -154t-191.5 -53q-105 0 -209 42l6 172h60l17 -110q67 -27 132 -27q69 0 114.5 30.5t45.5 86.5q0 37 -21 60.5t-52.5 37.5t-87.5 32q-67 21 -108.5 41t-70.5 58t-29 100
q0 96 68 146.5t177 50.5q102 0 205 -42l-9 -163h-61l-16 108q-54 20 -115 20q-64 0 -106.5 -26t-42.5 -79q0 -35 20.5 -58z" />
    <glyph glyph-name="T" unicode="T" horiz-adv-x="594" 
d="M25 519v181h544v-181h-61l-19 106h-141v-553l95 -19v-53h-292v53l95 19v553h-141l-19 -106h-61z" />
    <glyph glyph-name="U" unicode="U" horiz-adv-x="747" 
d="M722 700v-53l-82 -20v-359q0 -278 -270 -278q-120 0 -178 45.5t-71.5 100.5t-13.5 120v370l-82 16v53l267 5v-53l-82 -21v-370q0 -55 9.5 -94t44.5 -66t107 -27q73 0 109.5 28.5t46.5 70t10 100.5v358l-82 16v53z" />
    <glyph glyph-name="V" unicode="V" horiz-adv-x="698" 
d="M439 695l256 5v-53l-75 -18l-222 -630h-108l-211 627l-74 16v53l274 5v-53l-86 -19l160 -516l173 514l-87 16v53z" />
    <glyph glyph-name="W" unicode="W" horiz-adv-x="1023" 
d="M767 695l252 5v-53l-76 -18l-178 -630h-98l-157 545l-166 -545h-97l-166 628l-76 15v53l262 5v-53l-82 -19l120 -496l165 564l94 4l158 -567l132 494l-87 15v53z" />
    <glyph glyph-name="X" unicode="X" horiz-adv-x="702" 
d="M409 364l204 -294l69 -17v-53h-272v53l86 18l-155 226l-154 -225l79 -19v-53h-245v53l73 18l199 283l-191 276l-69 12v53l267 5v-53l-77 -18l140 -208l141 206l-76 15v53l241 5v-53l-74 -22z" />
    <glyph glyph-name="Y" unicode="Y" horiz-adv-x="643" 
d="M640 647l-73 -18l-196 -379v-178l84 -19v-53h-271v53l85 20v181l-193 372l-73 16v53l264 5v-53l-84 -18l145 -299l148 296l-86 16v53l250 5v-53z" />
    <glyph glyph-name="Z" unicode="Z" horiz-adv-x="619" 
d="M490 76l18 107h62l-2 -183h-527v69l404 555h-301l-19 -107h-61v183h501v-68l-400 -556h325z" />
    <glyph glyph-name="bracketleft" unicode="[" horiz-adv-x="345" 
d="M333 -100l-231 -5v958l231 -5v-62l-144 -6v-812l144 -5v-63z" />
    <glyph glyph-name="backslash" unicode="\" horiz-adv-x="330" 
d="M257 -81l-256 885h73l256 -885h-73z" />
    <glyph glyph-name="bracketright" unicode="]" horiz-adv-x="345" 
d="M13 848l230 5v-958l-230 5v63l143 5v812l-143 6v62z" />
    <glyph glyph-name="asciicircum" unicode="^" horiz-adv-x="545" 
d="M309 869l189 -339h-93l-133 254l-134 -254h-90l188 339h73z" />
    <glyph glyph-name="underscore" unicode="_" horiz-adv-x="494" 
d="M-1 -67h496v-66h-496v66z" />
    <glyph glyph-name="grave" unicode="`" horiz-adv-x="321" 
d="M37 744l55 72l188 -149l-38 -52z" />
    <glyph glyph-name="a" unicode="a" horiz-adv-x="551" 
d="M459 72l75 -18v-53l-152 -7l-13 86q-40 -44 -88.5 -67t-94.5 -23q-61 0 -101 39.5t-40 112.5q0 82 51.5 116.5t149.5 34.5h113v75q0 97 -102 97q-42 0 -99 -17l-10 -79h-66l-8 133q123 38 208 38q177 0 177 -154v-314zM166 86q20 -21 54 -21q30 0 67 18.5t72 50.5v95h-97
q-64 0 -90 -19.5t-26 -60.5q0 -42 20 -63z" />
    <glyph glyph-name="b" unicode="b" horiz-adv-x="582" 
d="M444.5 509q44.5 -31 70 -91.5t25.5 -144.5q0 -135 -70 -209t-220 -74q-72 0 -169 20v686l-74 18v53l174 7v-302q77 68 162 68q57 0 101.5 -31zM393.5 114.5q42.5 51.5 42.5 150.5q0 93 -35.5 146.5t-94.5 53.5q-63 0 -125 -58v-333q49 -11 87 -11q83 0 125.5 51.5z" />
    <glyph glyph-name="c" unicode="c" horiz-adv-x="514" 
d="M484 70q-105 -80 -212 -80q-66 0 -118.5 32t-83 93t-30.5 144q0 95 35.5 158.5t94 93t128.5 29.5q42 0 88 -11t81 -29l-4 -133h-66l-13 86q-38 14 -86 14q-73 0 -113.5 -54t-40.5 -148q0 -95 41.5 -147t109.5 -52q72 0 154 57z" />
    <glyph glyph-name="d" unicode="d" horiz-adv-x="597" 
d="M501 72l75 -18v-53l-152 -7l-12 73q-83 -77 -172 -77q-57 0 -101.5 31t-70 91t-25.5 144q0 140 71 212t201 72q43 0 86 -10v164l-79 20v53l179 7v-702zM182.5 118.5q35.5 -53.5 94.5 -53.5q61 0 124 56v333q-52 13 -89 13q-81 0 -123 -53t-42 -149q0 -93 35.5 -146.5z
" />
    <glyph glyph-name="e" unicode="e" horiz-adv-x="547" 
d="M466 122l35 -55q-111 -77 -225 -77q-106 0 -169.5 69.5t-63.5 196.5q0 87 30.5 151t87 98.5t132.5 34.5q105 0 158 -63.5t53 -168.5q0 -27 -4 -56h-354q4 -86 43 -136t111 -50q78 0 166 56zM193.5 426.5q-34.5 -38.5 -44.5 -105.5h252q0 64 -28.5 104t-87.5 40
q-57 0 -91.5 -38.5z" />
    <glyph glyph-name="f" unicode="f" horiz-adv-x="357" 
d="M238.5 681q-27.5 -27 -27.5 -84v-71h135l-3 -69h-132v-386l90 -18v-53h-265v53l75 17v387h-77v55l77 14v62q0 96 49.5 144t137.5 48q51 0 114 -19l-16 -68q-48 15 -82 15q-48 0 -75.5 -27z" />
    <glyph glyph-name="g" unicode="g" horiz-adv-x="564" 
d="M338 78q98 0 148.5 -37.5t50.5 -109.5q0 -84 -69.5 -127.5t-205.5 -43.5q-118 0 -177.5 33.5t-59.5 97.5q0 78 92 126q-41 13 -41 48q0 14 9.5 36t45.5 92q-41 23 -63 63t-22 92q0 89 59.5 140.5t164.5 51.5q63 0 112 -19l147 6l1 -59l-72 -14q30 -39 30 -98
q0 -89 -61 -141t-162 -52q-44 0 -83 11l-18 -96h174zM178.5 440q-31.5 -31 -31.5 -89t30 -88.5t87 -30.5q59 0 91.5 31.5t32.5 90.5q0 58 -30.5 87.5t-88.5 29.5q-59 0 -90.5 -31zM399.5 -143.5q41.5 21.5 41.5 66.5q0 39 -30 59t-89 20h-147q-62 -42 -62 -91
q0 -38 38.5 -57t119.5 -19q87 0 128.5 21.5z" />
    <glyph glyph-name="h" unicode="h" horiz-adv-x="623" 
d="M534 70l75 -17v-53h-245v53l70 17v281q1 55 -24.5 83.5t-70.5 28.5q-33 0 -70 -17t-73 -51v-326l70 -16v-53h-245v53l75 18v625l-75 18v53l175 7v-311q44 38 91.5 57.5t92.5 19.5q70 0 112.5 -43t41.5 -124v-303z" />
    <glyph glyph-name="i" unicode="i" horiz-adv-x="305" 
d="M209 533v-462l75 -18v-53h-249v53l74 18v386l-74 17v53zM109 648q-17 17 -17 48t17.5 48t45.5 17t45.5 -17t17.5 -48t-17.5 -48t-46.5 -17q-28 0 -45 17z" />
    <glyph glyph-name="j" unicode="j" horiz-adv-x="278" 
d="M21 527l175 6v-555q0 -111 -46.5 -164.5t-141.5 -53.5q-22 0 -55 5l8 72q28 -2 37 -2q53 0 75.5 25.5t22.5 86.5v510l-75 17v53zM92 648q-17 17 -17 48t17.5 48t45.5 17t45.5 -17t17.5 -48t-17.5 -48t-46.5 -17q-28 0 -45 17z" />
    <glyph glyph-name="k" unicode="k" horiz-adv-x="576" 
d="M372 301l128 -232l70 -17v-52h-137l-138 258h-99v-187l72 -18v-53h-247v53l75 18v626l-75 17v53l175 7v-448h100l86 138l-64 10v53l228 7v-52l-68 -15z" />
    <glyph glyph-name="l" unicode="l" horiz-adv-x="292" 
d="M196 774v-703l74 -18v-53h-249v53l75 18v626l-75 17v53z" />
    <glyph glyph-name="m" unicode="m" horiz-adv-x="954" 
d="M865 70l74 -17v-53h-242v53l68 17v281q0 56 -23.5 84t-63.5 28q-31 0 -68 -17.5t-73 -51.5q1 -6 1 -17v-307l67 -17v-53h-235v53l68 17v281q0 56 -24 84t-63 28q-33 0 -70 -17.5t-72 -50.5v-326l68 -16v-53h-242v53l74 18v385l-74 18v53l152 7l11 -81q45 42 96.5 64.5
t98.5 22.5q45 0 79.5 -22.5t51.5 -67.5q46 44 97.5 67t98.5 23q64 0 104.5 -42.5t40.5 -123.5v-304z" />
    <glyph glyph-name="n" unicode="n" horiz-adv-x="637" 
d="M548 70l74 -17v-53h-244v53l70 17v281q0 56 -25.5 84t-69.5 28q-33 0 -70.5 -17t-73.5 -51v-326l70 -16v-53h-244v53l74 18v385l-74 18v53l152 7l11 -81q46 43 97.5 65t98.5 22q70 0 112.5 -43t41.5 -125v-302z" />
    <glyph glyph-name="o" unicode="o" horiz-adv-x="576" 
d="M471 470q64 -70 64 -196q0 -87 -31 -151t-89 -98.5t-138 -34.5q-112 0 -173.5 68.5t-61.5 195.5q0 133 67 209.5t186 76.5q112 0 176 -70zM183 413.5q-37 -53.5 -37 -154.5q0 -196 137 -196q72 0 109.5 53.5t37.5 152.5q0 98 -35.5 148t-104.5 50q-70 0 -107 -53.5z" />
    <glyph glyph-name="p" unicode="p" horiz-adv-x="600" 
d="M462.5 509q44.5 -31 70 -91t25.5 -143q0 -138 -69.5 -212t-188.5 -74q-42 0 -101 13v-161l87 -18v-53h-261v53l74 19v614l-74 18v53l152 7l10 -71q88 77 174 77q57 0 101.5 -31zM411.5 115q42.5 53 42.5 150q0 92 -36 146t-94 54q-63 0 -125 -58v-331q50 -14 89 -14
q81 0 123.5 53z" />
    <glyph glyph-name="q" unicode="q" horiz-adv-x="582" 
d="M501 -155l75 -20v-55h-264v55l89 20v212q-80 -68 -161 -68q-57 0 -101.5 31.5t-70 91.5t-25.5 144q0 145 74 214.5t206 69.5q73 0 178 -23v-672zM183 118q36 -54 94 -54q60 0 124 57v333q-52 13 -89 13q-81 0 -123 -53t-42 -149q0 -93 36 -147z" />
    <glyph glyph-name="r" unicode="r" horiz-adv-x="451" 
d="M437 530l-7 -154h-61l-11 82q-14 2 -20 2q-33 0 -66 -18.5t-63 -51.5v-319l93 -18v-53h-267v53l74 17v386l-74 18v53l152 7l11 -82q44 44 85 66t86 22q32 0 68 -10z" />
    <glyph glyph-name="s" unicode="s" horiz-adv-x="479" 
d="M182 349q28 -17 88 -36q53 -17 86 -32.5t56.5 -45.5t23.5 -78q0 -79 -62.5 -123t-161.5 -44q-76 0 -162 24l7 141h63l10 -85q42 -11 85 -11q50 0 85.5 21.5t35.5 60.5q0 25 -15.5 41.5t-38.5 26.5t-63 23q-52 16 -84.5 31.5t-55.5 45.5t-23 78q0 75 56 114t139 39
q77 0 165 -28l-5 -121h-64l-13 68q-42 12 -80 12q-45 0 -72.5 -19t-27.5 -52q0 -34 28 -51z" />
    <glyph glyph-name="t" unicode="t" horiz-adv-x="373" 
d="M360 31q-77 -41 -142 -41q-58 0 -89.5 36t-31.5 106v330h-86v54l86 15v117l100 17v-135h143l-3 -68h-140v-316q0 -80 61 -80q35 0 82 22z" />
    <glyph glyph-name="u" unicode="u" horiz-adv-x="624" 
d="M527 71l74 -17v-53l-152 -7l-12 83q-46 -43 -96.5 -65t-98.5 -22q-69 0 -111 43.5t-42 126.5v297l-75 17v53l175 6v-356q0 -55 24.5 -82.5t69.5 -27.5q33 0 70.5 17.5t73.5 50.5v322l-75 17v53l175 7v-463z" />
    <glyph glyph-name="v" unicode="v" horiz-adv-x="533" 
d="M322 527l215 7v-53l-54 -18l-166 -465h-117l-151 464l-54 12v53l229 7v-53l-74 -16l117 -389l126 387l-71 11v53z" />
    <glyph glyph-name="w" unicode="w" horiz-adv-x="810" 
d="M610 527l205 7v-53l-55 -14l-131 -469h-109l-113 422l-123 -422h-109l-123 464l-57 12v53l223 7v-53l-72 -14l92 -377l121 438l105 6l115 -448l98 376l-67 12v53z" />
    <glyph glyph-name="x" unicode="x" horiz-adv-x="559" 
d="M328 269l143 -202l73 -14v-53h-237v53l56 10l-97 141l-135 -204h-121v52l68 13l142 205l-135 192l-64 12v53l226 7v-53l-58 -11l95 -138l130 195l120 7v-53l-65 -15z" />
    <glyph glyph-name="y" unicode="y" horiz-adv-x="538" 
d="M542 534v-53l-54 -14l-170 -468q-29 -80 -58 -130.5t-73.5 -79.5t-110.5 -29q-28 0 -63 6l9 72q34 -4 46 -4q44 0 72 17.5t48 53t41 96.5l-181 463l-54 10v53l229 7v-53l-74 -14l126 -362l119 358l-72 11v53z" />
    <glyph glyph-name="z" unicode="z" horiz-adv-x="489" 
d="M386 153h62l1 -152l-411 -1v59l290 402h-210l-11 -73h-61l-1 142h395v-60l-287 -401h217z" />
    <glyph glyph-name="braceleft" unicode="{" horiz-adv-x="348" 
d="M208 504q0 -108 -87 -130q87 -22 87 -130v-179q0 -45 9 -67t32.5 -31t71.5 -9v-63h-51q-80 0 -115.5 39t-35.5 124v176q0 51 -20.5 78.5t-70.5 27.5v69q52 0 71.5 27t19.5 79v176q0 85 35.5 123.5t115.5 38.5h51v-62q-48 0 -71.5 -9t-32.5 -31.5t-9 -66.5v-180z" />
    <glyph glyph-name="bar" unicode="|" horiz-adv-x="324" 
d="M123 -102v908h78v-908h-78z" />
    <glyph glyph-name="braceright" unicode="}" horiz-adv-x="348" 
d="M229 515q0 -52 19.5 -79t71.5 -27v-69q-50 0 -70.5 -27.5t-20.5 -78.5v-176q0 -85 -35.5 -124t-115.5 -39h-52v63q49 0 72.5 9t32.5 31t9 67v179q0 108 86 130q-86 22 -86 130v180q0 44 -9 66.5t-33 31.5t-72 9v62h52q80 0 115.5 -38.5t35.5 -123.5v-176z" />
    <glyph glyph-name="asciitilde" unicode="~" horiz-adv-x="602" 
d="M356 291.5q-25 9.5 -65 28.5q-32 17 -54.5 25.5t-44.5 8.5q-25 0 -48 -12.5t-46 -43.5l-42 27q29 54 63 78.5t75 24.5q28 0 52.5 -9t66.5 -29q32 -17 54.5 -25.5t44.5 -8.5q50 0 93 56l42 -28q-30 -53 -64 -77.5t-74 -24.5q-28 0 -53 9.5z" />
    <glyph glyph-name="uni00A0" unicode="&#xa0;" horiz-adv-x="193" 
 />
    <glyph glyph-name="exclamdown" unicode="&#xa1;" horiz-adv-x="329" 
d="M208 399q-18 -17 -44 -17q-28 0 -44.5 16.5t-16.5 44.5q0 27 18 43.5t43 16.5q29 0 45.5 -16t16.5 -44q0 -27 -18 -44zM126 264l76 5l16 -472h-107z" />
    <glyph glyph-name="cent" unicode="&#xa2;" horiz-adv-x="559" 
d="M495 181q-82 -62 -164 -73v-129h-68v127q-90 9 -144.5 75.5t-54.5 172.5q0 108 55.5 173.5t143.5 79.5v128h68v-125q41 -2 79.5 -12.5t66.5 -25.5l-4 -124h-59l-12 79q-20 8 -44 12.5t-44 4.5q-72 0 -112.5 -51t-40.5 -133q0 -87 40 -136.5t109 -49.5q74 0 153 57z" />
    <glyph glyph-name="sterling" unicode="&#xa3;" horiz-adv-x="671" 
d="M518 181h61v-181h-510v53l88 24q27 38 27 114q0 50 -13 145h-102v55l95 8q-10 86 -10 117q0 104 58.5 149t163.5 45q86 0 196 -28l-8 -158h-62l-15 98q-51 12 -103 12q-63 0 -95 -27t-32 -90q0 -31 10 -117h179v-64h-170q9 -70 9 -114q0 -97 -49 -145l264 -2z" />
    <glyph glyph-name="currency" unicode="&#xa4;" horiz-adv-x="665" 
d="M577 123l-49 -53l-83 77q-49 -34 -115 -34t-114 35l-82 -77l-44 48l81 76q-27 46 -27 99q0 55 29 105l-87 81l50 53l89 -82q50 32 114 32q63 0 108 -29l82 78l45 -49l-81 -75q29 -46 29 -104q0 -59 -28 -105zM412.5 211.5q26.5 35.5 26.5 92.5q0 54 -26 85t-76 31
q-54 0 -81.5 -34.5t-27.5 -89.5q0 -54 26.5 -87t77.5 -33q54 0 80.5 35.5z" />
    <glyph glyph-name="yen" unicode="&#xa5;" horiz-adv-x="712" 
d="M673 700v-53l-71 -18l-155 -297h127v-51h-438v51h128l-153 294l-71 16v53l262 5v-53l-86 -18l146 -298l148 295l-85 16v53zM304 168h-168v50h438v-50h-168v-96l82 -19v-53h-266v53l82 19v96z" />
    <glyph glyph-name="brokenbar" unicode="&#xa6;" horiz-adv-x="324" 
d="M201 437h-78v369h78v-369zM201 -102h-78v369h78v-369z" />
    <glyph glyph-name="section" unicode="&#xa7;" horiz-adv-x="563" 
d="M439.5 53.5q19.5 -33.5 19.5 -76.5q0 -76 -58.5 -116.5t-152.5 -40.5q-74 0 -154 24l6 133h62l9 -80q41 -12 78 -12q51 0 83.5 23t32.5 66q0 30 -17.5 53.5t-43 41.5t-68.5 42q-50 28 -80.5 50t-52 54t-21.5 75q0 49 27.5 83t75.5 52q-37 28 -57 61t-20 76
q0 70 52.5 108.5t139.5 38.5q77 0 161 -27l-5 -115h-63l-11 66q-41 11 -76 11q-49 0 -77.5 -21t-28.5 -59q0 -29 17 -51.5t42.5 -40t68.5 -41.5q51 -28 82 -50t53 -54.5t22 -75.5q0 -47 -27 -81.5t-73 -55.5q35 -27 54.5 -60.5zM200.5 232.5q31.5 -27.5 95.5 -62.5l47 -27
q23 18 38 43t15 53q0 29 -17.5 52t-42.5 40.5t-70 42.5l-40 23q-24 -17 -40.5 -42t-16.5 -54q0 -41 31.5 -68.5z" />
    <glyph glyph-name="dieresis" unicode="&#xa8;" horiz-adv-x="456" 
d="M85.5 652.5q-14.5 15.5 -15.5 43.5q0 27 15.5 43.5t39.5 16.5q25 0 40 -16t15 -44q0 -27 -16 -43t-39 -16q-25 0 -39.5 15.5zM290 653q-14 16 -14 45q0 26 16 42t39 16q25 0 40 -16t15 -44q0 -27 -16 -43t-39 -16q-27 0 -41 16z" />
    <glyph glyph-name="copyright" unicode="&#xa9;" horiz-adv-x="882" 
d="M630.5 664.5q83.5 -45.5 131 -125.5t47.5 -181q0 -104 -50 -188t-137 -132t-193 -48q-103 0 -184 45t-126.5 125.5t-45.5 181.5q0 105 48 189t133 131.5t190 47.5q103 0 186.5 -45.5zM591.5 86.5q69.5 39.5 108.5 109.5t39 157t-38.5 155t-106.5 106.5t-155 38.5
t-154.5 -39t-105 -108.5t-37.5 -157.5q0 -87 36.5 -155.5t102.5 -107t153 -38.5q88 0 157.5 39.5zM564 253l27 -41q-73 -57 -154 -57q-75 0 -122.5 51t-47.5 141q0 62 24 107t65.5 68.5t94.5 23.5q61 0 125 -30l-2 -97h-50l-8 60q-29 10 -59 10q-53 0 -81.5 -37t-28.5 -100
q0 -68 28.5 -103.5t77.5 -35.5q53 0 111 40z" />
    <glyph glyph-name="ordfeminine" unicode="&#xaa;" horiz-adv-x="438" 
d="M357 374l53 -13v-39l-114 -5l-9 61q-30 -31 -65.5 -47.5t-71.5 -16.5q-49 0 -79 30t-30 82q0 58 38.5 82.5t110.5 24.5h89v53q0 67 -78 67q-36 0 -79 -13l-7 -53h-49l-7 95q95 28 161 28q137 0 137 -111v-225zM135 387q16 -17 42 -17q23 0 50 11.5t52 32.5v80h-77
q-35 0 -59 -11.5t-24 -49.5q0 -29 16 -46zM410 168h-367v70h367v-70z" />
    <glyph glyph-name="guillemotleft" unicode="&#xab;" horiz-adv-x="511" 
d="M210 482l48 -36l-122 -176l121 -174l-48 -38l-156 185v54zM409 482l48 -36l-122 -176l121 -174l-48 -38l-156 185v54z" />
    <glyph glyph-name="logicalnot" unicode="&#xac;" horiz-adv-x="607" 
d="M51 313v73h480v-273h-82v200h-398z" />
    <glyph glyph-name="uni00AD" unicode="&#xad;" horiz-adv-x="432" 
d="M68 332h296v-77h-296v77z" />
    <glyph glyph-name="registered" unicode="&#xae;" horiz-adv-x="740" 
d="M524.5 710.5q67.5 -36.5 105.5 -101.5t38 -148q0 -84 -40.5 -151.5t-111 -107t-155.5 -39.5q-84 0 -149.5 36.5t-102 101.5t-36.5 148q0 84 39 152t107.5 107t152.5 39q85 0 152.5 -36.5zM491.5 241.5q57.5 32.5 90.5 90t33 128.5q0 70 -31.5 125t-87 85t-125.5 30
q-71 0 -126.5 -32t-87 -88.5t-31.5 -128.5q0 -71 30 -126t83.5 -85.5t123.5 -30.5q71 0 128.5 32.5zM502 334l29 -8v-29h-72l-44 96q-14 29 -28.5 36.5t-43.5 7.5h-20v-100l48 -11v-29h-143v29l39 10v246l-39 7v29l100 3h51q57 0 87.5 -22.5t30.5 -63.5q0 -64 -78 -83
q16 -5 27 -16.5t21 -31.5zM323 475h31q41 0 62.5 14.5t21.5 41.5q0 48 -70 48h-45v-104z" />
    <glyph glyph-name="macron" unicode="&#xaf;" horiz-adv-x="429" 
d="M76 739h277v-71h-277v71z" />
    <glyph glyph-name="degree" unicode="&#xb0;" horiz-adv-x="444" 
d="M86.5 474q-42.5 41 -42.5 111q0 67 43.5 109t112.5 42t112 -40.5t43 -108.5q0 -70 -43 -112t-113 -42t-112.5 41zM263 515q23 25 23 71q0 44 -23 69t-63 25t-63 -24t-24 -69q1 -46 23.5 -71t63.5 -26q40 0 63 25z" />
    <glyph glyph-name="plusminus" unicode="&#xb1;" horiz-adv-x="591" 
d="M334 634v-188h188v-72h-188v-188h-77v188h-187v72h187v188h77zM522 40h-452v72h452v-72z" />
    <glyph glyph-name="uni00B2" unicode="&#xb2;" horiz-adv-x="359" 
d="M325 412v-66h-294v61q104 87 152.5 144.5t48.5 102.5q0 32 -19.5 46.5t-52.5 14.5q-35 0 -63 -11l-7 -59h-51l-7 111q81 23 141 23q65 0 105 -27.5t40 -83.5q0 -42 -24.5 -83t-60 -76.5t-103.5 -96.5h195z" />
    <glyph glyph-name="uni00B3" unicode="&#xb3;" horiz-adv-x="369" 
d="M306 535.5q24 -26.5 24 -68.5q0 -63 -47.5 -96t-118.5 -33q-75 0 -140 35l26 53q55 -26 106 -26q39 0 63.5 17.5t24.5 53.5q0 66 -86 66h-58v54h53q84 0 84 65q0 64 -75 64q-23 0 -63 -9l-7 -58h-51l-5 100q77 25 143 25q65 0 104 -26t39 -82q0 -83 -89 -101
q49 -7 73 -33.5z" />
    <glyph glyph-name="acute" unicode="&#xb4;" horiz-adv-x="329" 
d="M308 742l-209 -127l-36 50l191 150z" />
    <glyph glyph-name="uni00B5" unicode="&#xb5;" horiz-adv-x="655" 
d="M533 72l74 -18v-53l-152 -7l-12 85q-44 -44 -91 -66.5t-90 -22.5q-63 0 -97 46q15 -84 22 -139t7 -127h-100v687l-74 17v53l174 5v-359q0 -53 25 -79.5t68 -26.5q34 0 72.5 17.5t73.5 51.5v321l-75 17v53l175 5v-460z" />
    <glyph glyph-name="paragraph" unicode="&#xb6;" horiz-adv-x="614" 
d="M560 700v-53l-82 -21v-796h-84v795l-91 -1v-794h-166v53l82 19v420q-79 6 -126 56.5t-47 132.5q0 56 24.5 99t69 66.5t101.5 23.5h319z" />
    <glyph glyph-name="periodcentered" unicode="&#xb7;" horiz-adv-x="218" 
d="M66 371.5q18 17.5 43 17.5q28 0 45 -17t17 -44t-18 -44t-44 -17q-28 0 -44.5 16.5t-16.5 44.5q0 26 18 43.5z" />
    <glyph glyph-name="cedilla" unicode="&#xb8;" horiz-adv-x="322" 
d="M52 -218l20 50q40 -15 76 -15q25 0 40.5 9.5t15.5 28.5q0 21 -27.5 32t-74.5 13l6 100h62v-55q55 -6 81.5 -28.5t26.5 -58.5q0 -47 -37 -72.5t-92 -25.5q-53 0 -97 22z" />
    <glyph glyph-name="uni00B9" unicode="&#xb9;" horiz-adv-x="282" 
d="M200 773v-368l70 -16v-43h-233v43l84 15v285l-87 -50l-25 50l128 84h63z" />
    <glyph glyph-name="ordmasculine" unicode="&#xba;" horiz-adv-x="478" 
d="M97 364q-48 51 -48 139q0 95 52.5 151t143.5 56q86 0 135 -51t49 -138q0 -94 -53.5 -151t-146.5 -57q-84 0 -132 51zM316 410.5q28 38.5 28 105.5q0 64 -26.5 99.5t-77.5 35.5q-52 0 -79 -38t-27 -105q0 -66 26 -101t75 -35q53 0 81 38.5zM416 168h-353v70h353v-70z" />
    <glyph glyph-name="guillemotright" unicode="&#xbb;" horiz-adv-x="511" 
d="M103 482l156 -185v-54l-157 -185l-48 36l121 175l-120 174zM254 443l48 39l156 -185v-54l-157 -185l-48 36l121 175z" />
    <glyph glyph-name="onequarter" unicode="&#xbc;" horiz-adv-x="855" 
d="M219 703v-368l70 -16v-43h-233v43l84 15v285l-87 -50l-25 50l128 84h63zM241 -8h-81l428 716h81zM757 156h64v-59h-64v-97h-82v97h-195l-11 59l185 276l103 -8v-268zM675 156v208l-139 -208h139z" />
    <glyph glyph-name="onehalf" unicode="&#xbd;" horiz-adv-x="878" 
d="M225 703v-368l70 -16v-43h-233v43l84 15v285l-87 -50l-25 50l128 84h63zM246 -8h-81l428 716h81zM829 66v-66h-294v61q104 87 152.5 144.5t48.5 102.5q0 32 -19.5 46.5t-52.5 14.5q-35 0 -63 -11l-7 -59h-51l-7 111q81 23 141 23q65 0 105 -27.5t40 -83.5
q0 -42 -24.5 -83t-60 -76.5t-103.5 -96.5h195z" />
    <glyph glyph-name="threequarters" unicode="&#xbe;" horiz-adv-x="892" 
d="M306 465.5q24 -26.5 24 -68.5q0 -63 -47.5 -96t-118.5 -33q-75 0 -140 35l26 53q55 -26 106 -26q39 0 63.5 17.5t24.5 53.5q0 66 -86 66h-58v54h53q84 0 84 65q0 64 -75 64q-23 0 -63 -9l-7 -58h-51l-5 100q77 25 143 25q65 0 104 -26t39 -82q0 -83 -89 -101
q49 -7 73 -33.5zM279 -8h-81l428 716h81zM796 156h64v-59h-64v-97h-82v97h-195l-11 59l185 276l103 -8v-268zM714 156v208l-139 -208h139z" />
    <glyph glyph-name="questiondown" unicode="&#xbf;" horiz-adv-x="426" 
d="M287 432.5q-18 -17.5 -45 -17.5t-43.5 17t-16.5 43q0 28 18 45t45 17q26 0 43 -16.5t17 -43.5t-18 -44.5zM295 301q7 -37 7 -66q0 -31 -12.5 -55.5t-30 -42t-48.5 -43.5q-42 -34 -62 -59t-20 -60q0 -40 28 -60t74 -20q51 0 126 26l22 -66q-87 -36 -175 -36
q-80 0 -129 34.5t-49 104.5q0 39 14.5 69.5t35.5 51.5t56 50q44 36 65 62.5t21 62.5l-2 43z" />
    <glyph glyph-name="Agrave" unicode="&#xc0;" horiz-adv-x="710" 
d="M414 702l221 -631l71 -18v-53h-269v53l84 18l-40 123h-269l-43 -123l86 -18v-53h-251v53l70 17l235 629zM460 267l-106 339l-118 -339h224zM489 807l-28 -56l-225 96l44 81z" />
    <glyph glyph-name="Aacute" unicode="&#xc1;" horiz-adv-x="710" 
d="M414 702l221 -631l71 -18v-53h-269v53l84 18l-40 123h-269l-43 -123l86 -18v-53h-251v53l70 17l235 629zM460 267l-106 339l-118 -339h224zM493 848l-222 -97l-30 55l211 122z" />
    <glyph glyph-name="Acircumflex" unicode="&#xc2;" horiz-adv-x="710" 
d="M414 702l221 -631l71 -18v-53h-269v53l84 18l-40 123h-269l-43 -123l86 -18v-53h-251v53l70 17l235 629zM460 267l-106 339l-118 -339h224zM386 915l149 -128l-35 -41l-141 90l-137 -90l-34 41l140 123z" />
    <glyph glyph-name="Atilde" unicode="&#xc3;" horiz-adv-x="710" 
d="M414 702l221 -631l71 -18v-53h-269v53l84 18l-40 123h-269l-43 -123l86 -18v-53h-251v53l70 17l235 629zM460 267l-106 339l-118 -339h224zM189 795q18 50 42 73t56 23q18 0 36.5 -6t43.5 -18q42 -19 61 -19q18 0 32 10.5t29 34.5l44 -19q-18 -51 -43.5 -74t-58.5 -23
q-17 0 -33.5 5.5t-41.5 17.5q-25 11 -38 15.5t-27 4.5q-17 0 -30 -10.5t-28 -34.5z" />
    <glyph glyph-name="Adieresis" unicode="&#xc4;" horiz-adv-x="710" 
d="M414 702l221 -631l71 -18v-53h-269v53l84 18l-40 123h-269l-43 -123l86 -18v-53h-251v53l70 17l235 629zM460 267l-106 339l-118 -339h224zM219.5 780.5q-14.5 15.5 -15.5 43.5q0 27 15.5 43.5t39.5 16.5q25 0 40 -16t15 -44q0 -27 -16 -43t-39 -16q-25 0 -39.5 15.5z
M424 781q-14 16 -14 45q0 26 16 42t39 16q25 0 40 -16t15 -44q0 -27 -16 -43t-39 -16q-27 0 -41 16z" />
    <glyph glyph-name="Aring" unicode="&#xc5;" horiz-adv-x="710" 
d="M414 702l221 -631l71 -18v-53h-269v53l84 18l-40 123h-269l-43 -123l86 -18v-53h-251v53l70 17l235 629zM460 267l-106 339l-118 -339h224zM277.5 761q-31.5 29 -31.5 75q0 47 32 76.5t85 29.5q51 0 82.5 -28.5t31.5 -74.5q0 -47 -32 -77t-85 -30q-51 0 -82.5 29z
M400 796.5q14 15.5 14 41.5q0 25 -13.5 40t-38.5 15q-26 0 -39.5 -15.5t-13.5 -40.5t13.5 -40.5t38.5 -15.5t39 15.5z" />
    <glyph glyph-name="AE" unicode="&#xc6;" horiz-adv-x="945" 
d="M805 75l17 97h61l-1 -172h-501v53l78 20v137h-221l-69 -139l83 -18v-53h-252v53l72 17l276 555l-80 17v53l203 5h399v-165h-61l-16 90h-232v-224h235v-73h-235v-253h244zM441 625l-170 -342h188v342h-18z" />
    <glyph glyph-name="Ccedilla" unicode="&#xc7;" horiz-adv-x="641" 
d="M381 -55q55 -6 81.5 -28.5t26.5 -58.5q0 -47 -37 -72.5t-92 -25.5q-53 0 -97 22l20 50q40 -15 76 -15q25 0 40.5 9.5t15.5 28.5q0 21 -27.5 32t-74.5 13l5 91q-75 7 -135 50.5t-94.5 121.5t-34.5 184q0 112 39 194t110.5 125.5t166.5 43.5q102 0 219 -51l-8 -164h-61
l-18 109q-70 26 -130 26q-97 0 -152.5 -72t-55.5 -199q0 -91 27 -155t74.5 -97t107.5 -33q45 0 93 19t93 57l40 -60q-51 -43 -107 -68t-111 -30v-47z" />
    <glyph glyph-name="Egrave" unicode="&#xc8;" horiz-adv-x="617" 
d="M478 75l16 97h62l-1 -172h-510v53l82 19v553l-82 17v53l182 5h316v-165h-61l-16 90h-237v-231h240v-73h-240v-246h249zM445 807l-28 -56l-225 96l44 81z" />
    <glyph glyph-name="Eacute" unicode="&#xc9;" horiz-adv-x="617" 
d="M478 75l16 97h62l-1 -172h-510v53l82 19v553l-82 17v53l182 5h316v-165h-61l-16 90h-237v-231h240v-73h-240v-246h249zM450 848l-222 -97l-30 55l211 122z" />
    <glyph glyph-name="Ecircumflex" unicode="&#xca;" horiz-adv-x="617" 
d="M478 75l16 97h62l-1 -172h-510v53l82 19v553l-82 17v53l182 5h316v-165h-61l-16 90h-237v-231h240v-73h-240v-246h249zM342 915l149 -128l-35 -41l-141 90l-137 -90l-34 41l140 123z" />
    <glyph glyph-name="Edieresis" unicode="&#xcb;" horiz-adv-x="617" 
d="M478 75l16 97h62l-1 -172h-510v53l82 19v553l-82 17v53l182 5h316v-165h-61l-16 90h-237v-231h240v-73h-240v-246h249zM175.5 780.5q-14.5 15.5 -15.5 43.5q0 27 15.5 43.5t39.5 16.5q25 0 40 -16t15 -44q0 -27 -16 -43t-39 -16q-25 0 -39.5 15.5zM380 781q-14 16 -14 45
q0 26 16 42t39 16q25 0 40 -16t15 -44q0 -27 -16 -43t-39 -16q-27 0 -41 16z" />
    <glyph glyph-name="Igrave" unicode="&#xcc;" horiz-adv-x="355" 
d="M311 700v-53l-82 -21v-554l82 -19v-53h-266v53l82 19v553l-82 17v53zM305 807l-28 -56l-225 96l44 81z" />
    <glyph glyph-name="Iacute" unicode="&#xcd;" horiz-adv-x="355" 
d="M311 700v-53l-82 -21v-554l82 -19v-53h-266v53l82 19v553l-82 17v53zM309 848l-222 -97l-30 55l211 122z" />
    <glyph glyph-name="Icircumflex" unicode="&#xce;" horiz-adv-x="355" 
d="M311 700v-53l-82 -21v-554l82 -19v-53h-266v53l82 19v553l-82 17v53zM202 915l149 -128l-35 -41l-141 90l-137 -90l-34 41l140 123z" />
    <glyph glyph-name="Idieresis" unicode="&#xcf;" horiz-adv-x="355" 
d="M311 700v-53l-82 -21v-554l82 -19v-53h-266v53l82 19v553l-82 17v53zM35.5 780.5q-14.5 15.5 -15.5 43.5q0 27 15.5 43.5t39.5 16.5q25 0 40 -16t15 -44q0 -27 -16 -43t-39 -16q-25 0 -39.5 15.5zM240 781q-14 16 -14 45q0 26 16 42t39 16q25 0 40 -16t15 -44
q0 -27 -16 -43t-39 -16q-27 0 -41 16z" />
    <glyph glyph-name="Eth" unicode="&#xd0;" horiz-adv-x="716" 
d="M348 700q94 0 165 -37.5t110.5 -113.5t39.5 -188q0 -116 -42 -197t-116.5 -122.5t-173.5 -41.5h-286v53l82 19v250h-79v69h79v233l-82 18v53l201 5h102zM335 75q95 0 156.5 63.5t61.5 215.5q0 148 -58.5 209.5t-148.5 61.5h-117v-234h156v-69h-156v-247h106z" />
    <glyph glyph-name="Ntilde" unicode="&#xd1;" horiz-adv-x="785" 
d="M503 695l250 5v-53l-82 -21v-626h-116l-342 567v-495l82 -19v-53h-250v53l82 19v553l-82 17v53l204 5l336 -556v482l-82 16v53zM233 795q18 50 42 73t56 23q18 0 36.5 -6t43.5 -18q42 -19 61 -19q18 0 32 10.5t29 34.5l44 -19q-18 -51 -43.5 -74t-58.5 -23
q-17 0 -33.5 5.5t-41.5 17.5q-25 11 -38 15.5t-27 4.5q-17 0 -30 -10.5t-28 -34.5z" />
    <glyph glyph-name="Ograve" unicode="&#xd2;" horiz-adv-x="741" 
d="M200 30q-69 40 -107.5 119.5t-38.5 192.5q0 119 41.5 202t114.5 124.5t166 41.5q91 0 161 -39.5t110 -118t40 -190.5q0 -115 -42 -199t-116.5 -128.5t-169.5 -44.5q-90 0 -159 40zM518 141q59 71 59 216q0 138 -55.5 205.5t-149.5 67.5t-151 -69t-57 -215
q0 -139 55 -207.5t147 -68.5q93 0 152 71zM502 807l-28 -56l-225 96l44 81z" />
    <glyph glyph-name="Oacute" unicode="&#xd3;" horiz-adv-x="741" 
d="M200 30q-69 40 -107.5 119.5t-38.5 192.5q0 119 41.5 202t114.5 124.5t166 41.5q91 0 161 -39.5t110 -118t40 -190.5q0 -115 -42 -199t-116.5 -128.5t-169.5 -44.5q-90 0 -159 40zM518 141q59 71 59 216q0 138 -55.5 205.5t-149.5 67.5t-151 -69t-57 -215
q0 -139 55 -207.5t147 -68.5q93 0 152 71zM506 848l-222 -97l-30 55l211 122z" />
    <glyph glyph-name="Ocircumflex" unicode="&#xd4;" horiz-adv-x="741" 
d="M200 30q-69 40 -107.5 119.5t-38.5 192.5q0 119 41.5 202t114.5 124.5t166 41.5q91 0 161 -39.5t110 -118t40 -190.5q0 -115 -42 -199t-116.5 -128.5t-169.5 -44.5q-90 0 -159 40zM518 141q59 71 59 216q0 138 -55.5 205.5t-149.5 67.5t-151 -69t-57 -215
q0 -139 55 -207.5t147 -68.5q93 0 152 71zM399 915l149 -128l-35 -41l-141 90l-137 -90l-34 41l140 123z" />
    <glyph glyph-name="Otilde" unicode="&#xd5;" horiz-adv-x="741" 
d="M200 30q-69 40 -107.5 119.5t-38.5 192.5q0 119 41.5 202t114.5 124.5t166 41.5q91 0 161 -39.5t110 -118t40 -190.5q0 -115 -42 -199t-116.5 -128.5t-169.5 -44.5q-90 0 -159 40zM518 141q59 71 59 216q0 138 -55.5 205.5t-149.5 67.5t-151 -69t-57 -215
q0 -139 55 -207.5t147 -68.5q93 0 152 71zM202 795q18 50 42 73t56 23q18 0 36.5 -6t43.5 -18q42 -19 61 -19q18 0 32 10.5t29 34.5l44 -19q-18 -51 -43.5 -74t-58.5 -23q-17 0 -33.5 5.5t-41.5 17.5q-25 11 -38 15.5t-27 4.5q-17 0 -30 -10.5t-28 -34.5z" />
    <glyph glyph-name="Odieresis" unicode="&#xd6;" horiz-adv-x="741" 
d="M200 30q-69 40 -107.5 119.5t-38.5 192.5q0 119 41.5 202t114.5 124.5t166 41.5q91 0 161 -39.5t110 -118t40 -190.5q0 -115 -42 -199t-116.5 -128.5t-169.5 -44.5q-90 0 -159 40zM518 141q59 71 59 216q0 138 -55.5 205.5t-149.5 67.5t-151 -69t-57 -215
q0 -139 55 -207.5t147 -68.5q93 0 152 71zM231.5 780.5q-14.5 15.5 -15.5 43.5q0 27 15.5 43.5t39.5 16.5q25 0 40 -16t15 -44q0 -27 -16 -43t-39 -16q-25 0 -39.5 15.5zM436 781q-14 16 -14 45q0 26 16 42t39 16q25 0 40 -16t15 -44q0 -27 -16 -43t-39 -16q-27 0 -41 16z
" />
    <glyph glyph-name="multiply" unicode="&#xd7;" horiz-adv-x="504" 
d="M399 550l54 -54l-147 -146l147 -147l-55 -55l-147 147l-146 -146l-54 54l147 146l-147 147l55 55l147 -147z" />
    <glyph glyph-name="Oslash" unicode="&#xd8;" horiz-adv-x="742" 
d="M587 635q49 -44 75.5 -113t26.5 -160q0 -115 -42 -199t-116.5 -128.5t-170.5 -44.5q-88 0 -156 38l-65 -104l-55 33l69 110q-47 45 -72.5 114.5t-25.5 160.5q0 119 41.5 202t114.5 124.5t167 41.5q88 0 158 -38l64 102l55 -32zM222.5 561q-57.5 -69 -57.5 -215
q0 -123 45 -193l280 442q-48 35 -117 35q-93 0 -150.5 -69zM520 141q59 71 59 216q0 124 -48 194l-280 -444q49 -37 116 -37q94 0 153 71z" />
    <glyph glyph-name="Ugrave" unicode="&#xd9;" horiz-adv-x="747" 
d="M722 700v-53l-82 -20v-359q0 -278 -270 -278q-120 0 -178 45.5t-71.5 100.5t-13.5 120v370l-82 16v53l267 5v-53l-82 -21v-370q0 -55 9.5 -94t44.5 -66t107 -27q73 0 109.5 28.5t46.5 70t10 100.5v358l-82 16v53zM502 807l-28 -56l-225 96l44 81z" />
    <glyph glyph-name="Uacute" unicode="&#xda;" horiz-adv-x="747" 
d="M722 700v-53l-82 -20v-359q0 -278 -270 -278q-120 0 -178 45.5t-71.5 100.5t-13.5 120v370l-82 16v53l267 5v-53l-82 -21v-370q0 -55 9.5 -94t44.5 -66t107 -27q73 0 109.5 28.5t46.5 70t10 100.5v358l-82 16v53zM507 848l-222 -97l-30 55l211 122z" />
    <glyph glyph-name="Ucircumflex" unicode="&#xdb;" horiz-adv-x="747" 
d="M722 700v-53l-82 -20v-359q0 -278 -270 -278q-120 0 -178 45.5t-71.5 100.5t-13.5 120v370l-82 16v53l267 5v-53l-82 -21v-370q0 -55 9.5 -94t44.5 -66t107 -27q73 0 109.5 28.5t46.5 70t10 100.5v358l-82 16v53zM399 915l149 -128l-35 -41l-141 90l-137 -90l-34 41
l140 123z" />
    <glyph glyph-name="Udieresis" unicode="&#xdc;" horiz-adv-x="747" 
d="M722 700v-53l-82 -20v-359q0 -278 -270 -278q-120 0 -178 45.5t-71.5 100.5t-13.5 120v370l-82 16v53l267 5v-53l-82 -21v-370q0 -55 9.5 -94t44.5 -66t107 -27q73 0 109.5 28.5t46.5 70t10 100.5v358l-82 16v53zM232.5 780.5q-14.5 15.5 -15.5 43.5q0 27 15.5 43.5
t39.5 16.5q25 0 40 -16t15 -44q0 -27 -16 -43t-39 -16q-25 0 -39.5 15.5zM437 781q-14 16 -14 45q0 26 16 42t39 16q25 0 40 -16t15 -44q0 -27 -16 -43t-39 -16q-27 0 -41 16z" />
    <glyph glyph-name="Yacute" unicode="&#xdd;" horiz-adv-x="643" 
d="M640 647l-73 -18l-196 -379v-178l84 -19v-53h-271v53l85 20v181l-193 372l-73 16v53l264 5v-53l-84 -18l145 -299l148 296l-86 16v53l250 5v-53zM456 848l-222 -97l-30 55l211 122z" />
    <glyph glyph-name="Thorn" unicode="&#xde;" horiz-adv-x="588" 
d="M229 152v-79l103 -20v-53h-287v53l82 19v553l-82 17v53l266 5v-53l-82 -22v-68h113q104 0 159 -47.5t55 -140.5q0 -106 -66.5 -161.5t-186.5 -55.5h-74zM414.5 454.5q-37.5 30.5 -105.5 30.5h-80v-260h56q78 0 122.5 33.5t44.5 103.5q0 62 -37.5 92.5z" />
    <glyph glyph-name="germandbls" unicode="&#xdf;" horiz-adv-x="666" 
d="M434.5 364.5q24.5 -19.5 74.5 -43.5q46 -22 74 -40.5t48 -49.5t20 -76q0 -81 -56 -123t-146 -42q-65 0 -142 24l6 135h62l10 -80q32 -13 68 -13q45 0 73.5 21.5t28.5 63.5q0 27 -14.5 46.5t-36 33.5t-58.5 33q-43 23 -68.5 40t-43.5 44t-18 65q0 42 20 66t60 50
q35 23 52 42t17 51q0 45 -33.5 70.5t-86.5 25.5q-62 0 -98 -31t-36 -93v-584h-175v53l75 18v386h-77v55l77 14v49q0 105 65.5 155t170.5 50q95 0 155.5 -41.5t60.5 -116.5q0 -47 -23 -73.5t-65 -52.5q-34 -22 -49.5 -38t-15.5 -42q0 -32 24.5 -51.5z" />
    <glyph glyph-name="agrave" unicode="&#xe0;" horiz-adv-x="551" 
d="M459 72l75 -18v-53l-152 -7l-13 86q-40 -44 -88.5 -67t-94.5 -23q-61 0 -101 39.5t-40 112.5q0 82 51.5 116.5t149.5 34.5h113v75q0 97 -102 97q-42 0 -99 -17l-10 -79h-66l-8 133q123 38 208 38q177 0 177 -154v-314zM166 86q20 -21 54 -21q30 0 67 18.5t72 50.5v95h-97
q-64 0 -90 -19.5t-26 -60.5q0 -42 20 -63zM147 744l55 72l188 -149l-38 -52z" />
    <glyph glyph-name="aacute" unicode="&#xe1;" horiz-adv-x="551" 
d="M459 72l75 -18v-53l-152 -7l-13 86q-40 -44 -88.5 -67t-94.5 -23q-61 0 -101 39.5t-40 112.5q0 82 51.5 116.5t149.5 34.5h113v75q0 97 -102 97q-42 0 -99 -17l-10 -79h-66l-8 133q123 38 208 38q177 0 177 -154v-314zM166 86q20 -21 54 -21q30 0 67 18.5t72 50.5v95h-97
q-64 0 -90 -19.5t-26 -60.5q0 -42 20 -63zM415 742l-209 -127l-36 50l191 150z" />
    <glyph glyph-name="acircumflex" unicode="&#xe2;" horiz-adv-x="551" 
d="M459 72l75 -18v-53l-152 -7l-13 86q-40 -44 -88.5 -67t-94.5 -23q-61 0 -101 39.5t-40 112.5q0 82 51.5 116.5t149.5 34.5h113v75q0 97 -102 97q-42 0 -99 -17l-10 -79h-66l-8 133q123 38 208 38q177 0 177 -154v-314zM166 86q20 -21 54 -21q30 0 67 18.5t72 50.5v95h-97
q-64 0 -90 -19.5t-26 -60.5q0 -42 20 -63zM296 802l146 -138l-36 -39l-137 98l-135 -98l-35 39l139 133z" />
    <glyph glyph-name="atilde" unicode="&#xe3;" horiz-adv-x="551" 
d="M459 72l75 -18v-53l-152 -7l-13 86q-40 -44 -88.5 -67t-94.5 -23q-61 0 -101 39.5t-40 112.5q0 82 51.5 116.5t149.5 34.5h113v75q0 97 -102 97q-42 0 -99 -17l-10 -79h-66l-8 133q123 38 208 38q177 0 177 -154v-314zM166 86q20 -21 54 -21q30 0 67 18.5t72 50.5v95h-97
q-64 0 -90 -19.5t-26 -60.5q0 -42 20 -63zM304.5 652.5q-16.5 6.5 -40.5 20.5q-20 11 -34 17t-28 6q-37 0 -63 -48l-45 19q35 103 104 103q19 0 36.5 -7t40.5 -20q23 -12 35 -17t26 -5q19 0 34 11.5t30 36.5l44 -18q-35 -105 -104 -105q-19 0 -35.5 6.5z" />
    <glyph glyph-name="adieresis" unicode="&#xe4;" horiz-adv-x="551" 
d="M459 72l75 -18v-53l-152 -7l-13 86q-40 -44 -88.5 -67t-94.5 -23q-61 0 -101 39.5t-40 112.5q0 82 51.5 116.5t149.5 34.5h113v75q0 97 -102 97q-42 0 -99 -17l-10 -79h-66l-8 133q123 38 208 38q177 0 177 -154v-314zM166 86q20 -21 54 -21q30 0 67 18.5t72 50.5v95h-97
q-64 0 -90 -19.5t-26 -60.5q0 -42 20 -63zM126.5 652.5q-14.5 15.5 -15.5 43.5q0 27 15.5 43.5t39.5 16.5q25 0 40 -16t15 -44q0 -27 -16 -43t-39 -16q-25 0 -39.5 15.5zM331 653q-14 16 -14 45q0 26 16 42t39 16q25 0 40 -16t15 -44q0 -27 -16 -43t-39 -16q-27 0 -41 16z
" />
    <glyph glyph-name="aring" unicode="&#xe5;" horiz-adv-x="551" 
d="M459 72l75 -18v-53l-152 -7l-13 86q-40 -44 -88.5 -67t-94.5 -23q-61 0 -101 39.5t-40 112.5q0 82 51.5 116.5t149.5 34.5h113v75q0 97 -102 97q-42 0 -99 -17l-10 -79h-66l-8 133q123 38 208 38q177 0 177 -154v-314zM166 86q20 -21 54 -21q30 0 67 18.5t72 50.5v95h-97
q-64 0 -90 -19.5t-26 -60.5q0 -42 20 -63zM184.5 643q-31.5 29 -31.5 75q0 47 32 76.5t85 29.5q51 0 82.5 -28.5t31.5 -74.5q0 -47 -32 -77t-85 -30q-51 0 -82.5 29zM307 678.5q14 15.5 14 41.5q0 25 -13.5 40t-38.5 15q-26 0 -39.5 -15.5t-13.5 -40.5t13.5 -40.5
t38.5 -15.5t39 15.5z" />
    <glyph glyph-name="ae" unicode="&#xe6;" horiz-adv-x="863" 
d="M781 123l35 -56q-112 -77 -223 -77q-61 0 -108.5 26t-75.5 73q-41 -49 -94 -74.5t-107 -25.5q-69 0 -116 41t-47 113q0 80 48.5 120.5t148.5 40.5h120v64q0 98 -102 98q-47 0 -107 -19l-10 -73h-63l-8 128q114 38 200 38q67 0 106.5 -25t47.5 -74l1 -5q28 50 76 77
t108 27q99 0 154 -62.5t55 -174.5q0 -43 -5 -68h-351q4 -78 45 -123.5t107 -45.5q77 0 165 57zM505 424.5q-36 -42.5 -41 -120.5h252q-1 83 -29.5 123t-85.5 40q-60 0 -96 -42.5zM309.5 81q36.5 18 65.5 51q-12 43 -13 103h-100q-65 0 -90.5 -16t-25.5 -63q0 -45 26 -69
t67 -24q34 0 70.5 18z" />
    <glyph glyph-name="ccedilla" unicode="&#xe7;" horiz-adv-x="514" 
d="M304 -55q55 -6 81.5 -28.5t26.5 -58.5q0 -47 -37 -72.5t-92 -25.5q-53 0 -97 22l20 50q40 -15 76 -15q25 0 40.5 9.5t15.5 28.5q0 21 -27.5 32t-74.5 13l6 92q-59 7 -104.5 41t-71.5 91.5t-26 134.5q0 95 35.5 158.5t94 93t128.5 29.5q42 0 88 -11t81 -29l-4 -133h-66
l-13 86q-38 14 -86 14q-73 0 -113.5 -54t-40.5 -148q0 -95 41.5 -147t109.5 -52q72 0 154 57l35 -53q-87 -67 -180 -78v-47z" />
    <glyph glyph-name="egrave" unicode="&#xe8;" horiz-adv-x="547" 
d="M466 122l35 -55q-111 -77 -225 -77q-106 0 -169.5 69.5t-63.5 196.5q0 87 30.5 151t87 98.5t132.5 34.5q105 0 158 -63.5t53 -168.5q0 -27 -4 -56h-354q4 -86 43 -136t111 -50q78 0 166 56zM193.5 426.5q-34.5 -38.5 -44.5 -105.5h252q0 64 -28.5 104t-87.5 40
q-57 0 -91.5 -38.5zM162 744l55 72l188 -149l-38 -52z" />
    <glyph glyph-name="eacute" unicode="&#xe9;" horiz-adv-x="547" 
d="M466 122l35 -55q-111 -77 -225 -77q-106 0 -169.5 69.5t-63.5 196.5q0 87 30.5 151t87 98.5t132.5 34.5q105 0 158 -63.5t53 -168.5q0 -27 -4 -56h-354q4 -86 43 -136t111 -50q78 0 166 56zM193.5 426.5q-34.5 -38.5 -44.5 -105.5h252q0 64 -28.5 104t-87.5 40
q-57 0 -91.5 -38.5zM430 742l-209 -127l-36 50l191 150z" />
    <glyph glyph-name="ecircumflex" unicode="&#xea;" horiz-adv-x="547" 
d="M466 122l35 -55q-111 -77 -225 -77q-106 0 -169.5 69.5t-63.5 196.5q0 87 30.5 151t87 98.5t132.5 34.5q105 0 158 -63.5t53 -168.5q0 -27 -4 -56h-354q4 -86 43 -136t111 -50q78 0 166 56zM193.5 426.5q-34.5 -38.5 -44.5 -105.5h252q0 64 -28.5 104t-87.5 40
q-57 0 -91.5 -38.5zM311 802l146 -138l-36 -39l-137 98l-135 -98l-35 39l139 133z" />
    <glyph glyph-name="edieresis" unicode="&#xeb;" horiz-adv-x="547" 
d="M466 122l35 -55q-111 -77 -225 -77q-106 0 -169.5 69.5t-63.5 196.5q0 87 30.5 151t87 98.5t132.5 34.5q105 0 158 -63.5t53 -168.5q0 -27 -4 -56h-354q4 -86 43 -136t111 -50q78 0 166 56zM193.5 426.5q-34.5 -38.5 -44.5 -105.5h252q0 64 -28.5 104t-87.5 40
q-57 0 -91.5 -38.5zM141.5 652.5q-14.5 15.5 -15.5 43.5q0 27 15.5 43.5t39.5 16.5q25 0 40 -16t15 -44q0 -27 -16 -43t-39 -16q-25 0 -39.5 15.5zM346 653q-14 16 -14 45q0 26 16 42t39 16q25 0 40 -16t15 -44q0 -27 -16 -43t-39 -16q-27 0 -41 16z" />
    <glyph glyph-name="igrave" unicode="&#xec;" horiz-adv-x="305" 
d="M209 533v-462l75 -18v-53h-249v53l74 18v386l-74 17v53zM20 744l55 72l188 -149l-38 -52z" />
    <glyph glyph-name="iacute" unicode="&#xed;" horiz-adv-x="305" 
d="M209 533v-462l75 -18v-53h-249v53l74 18v386l-74 17v53zM302 742l-209 -127l-36 50l191 150z" />
    <glyph glyph-name="icircumflex" unicode="&#xee;" horiz-adv-x="305" 
d="M268 625l-115 94l-112 -94l-37 39l118 133l58 5l126 -138zM35 527l174 6v-462l75 -18v-53h-249v53l74 18v386l-74 17v53z" />
    <glyph glyph-name="idieresis" unicode="&#xef;" horiz-adv-x="305" 
d="M88.5 653q-15.5 -16 -37.5 -16q-25 0 -38.5 16t-13.5 45q0 26 15 42t37 16q24 0 38.5 -16t14.5 -44q0 -27 -15.5 -43zM205 652.5q-14 15.5 -15 43.5q0 27 15.5 43.5t37.5 16.5q24 0 38.5 -16t14.5 -44q0 -27 -15.5 -43t-37.5 -16q-24 0 -38 15.5zM35 527l174 6v-462
l75 -18v-53h-249v53l74 18v386l-74 17v53z" />
    <glyph glyph-name="eth" unicode="&#xf0;" horiz-adv-x="584" 
d="M393 685q69 -64 104 -162t35 -208q0 -152 -66 -238.5t-193 -86.5q-112 0 -172.5 67.5t-60.5 183.5q0 82 29.5 142.5t81.5 92.5t118 32q53 0 94.5 -21.5t69.5 -62.5q-24 142 -111 215l-104 -68l-32 43l88 58q-62 34 -146 35l8 73q121 0 212 -59l93 61l32 -44zM388.5 115.5
q39.5 52.5 39.5 146.5q0 87 -35.5 132t-101.5 45q-69 0 -108 -49.5t-39 -143.5q0 -90 36 -136.5t100 -46.5q69 0 108.5 52.5z" />
    <glyph glyph-name="ntilde" unicode="&#xf1;" horiz-adv-x="637" 
d="M548 70l74 -17v-53h-244v53l70 17v281q0 56 -25.5 84t-69.5 28q-33 0 -70.5 -17t-73.5 -51v-326l70 -16v-53h-244v53l74 18v385l-74 18v53l152 7l11 -81q46 43 97.5 65t98.5 22q70 0 112.5 -43t41.5 -125v-302zM363.5 652.5q-16.5 6.5 -40.5 20.5q-20 11 -34 17t-28 6
q-37 0 -63 -48l-45 19q35 103 104 103q19 0 36.5 -7t40.5 -20q23 -12 35 -17t26 -5q19 0 34 11.5t30 36.5l44 -18q-35 -105 -104 -105q-19 0 -35.5 6.5z" />
    <glyph glyph-name="ograve" unicode="&#xf2;" horiz-adv-x="576" 
d="M471 470q64 -70 64 -196q0 -87 -31 -151t-89 -98.5t-138 -34.5q-112 0 -173.5 68.5t-61.5 195.5q0 133 67 209.5t186 76.5q112 0 176 -70zM183 413.5q-37 -53.5 -37 -154.5q0 -196 137 -196q72 0 109.5 53.5t37.5 152.5q0 98 -35.5 148t-104.5 50q-70 0 -107 -53.5z
M166 744l55 72l188 -149l-38 -52z" />
    <glyph glyph-name="oacute" unicode="&#xf3;" horiz-adv-x="576" 
d="M471 470q64 -70 64 -196q0 -87 -31 -151t-89 -98.5t-138 -34.5q-112 0 -173.5 68.5t-61.5 195.5q0 133 67 209.5t186 76.5q112 0 176 -70zM183 413.5q-37 -53.5 -37 -154.5q0 -196 137 -196q72 0 109.5 53.5t37.5 152.5q0 98 -35.5 148t-104.5 50q-70 0 -107 -53.5z
M434 742l-209 -127l-36 50l191 150z" />
    <glyph glyph-name="ocircumflex" unicode="&#xf4;" horiz-adv-x="576" 
d="M471 470q64 -70 64 -196q0 -87 -31 -151t-89 -98.5t-138 -34.5q-112 0 -173.5 68.5t-61.5 195.5q0 133 67 209.5t186 76.5q112 0 176 -70zM183 413.5q-37 -53.5 -37 -154.5q0 -196 137 -196q72 0 109.5 53.5t37.5 152.5q0 98 -35.5 148t-104.5 50q-70 0 -107 -53.5z
M314 802l146 -138l-36 -39l-137 98l-135 -98l-35 39l139 133z" />
    <glyph glyph-name="otilde" unicode="&#xf5;" horiz-adv-x="576" 
d="M471 470q64 -70 64 -196q0 -87 -31 -151t-89 -98.5t-138 -34.5q-112 0 -173.5 68.5t-61.5 195.5q0 133 67 209.5t186 76.5q112 0 176 -70zM183 413.5q-37 -53.5 -37 -154.5q0 -196 137 -196q72 0 109.5 53.5t37.5 152.5q0 98 -35.5 148t-104.5 50q-70 0 -107 -53.5z
M323.5 652.5q-16.5 6.5 -40.5 20.5q-20 11 -34 17t-28 6q-37 0 -63 -48l-45 19q35 103 104 103q19 0 36.5 -7t40.5 -20q23 -12 35 -17t26 -5q19 0 34 11.5t30 36.5l44 -18q-35 -105 -104 -105q-19 0 -35.5 6.5z" />
    <glyph glyph-name="odieresis" unicode="&#xf6;" horiz-adv-x="576" 
d="M471 470q64 -70 64 -196q0 -87 -31 -151t-89 -98.5t-138 -34.5q-112 0 -173.5 68.5t-61.5 195.5q0 133 67 209.5t186 76.5q112 0 176 -70zM183 413.5q-37 -53.5 -37 -154.5q0 -196 137 -196q72 0 109.5 53.5t37.5 152.5q0 98 -35.5 148t-104.5 50q-70 0 -107 -53.5z
M145.5 652.5q-14.5 15.5 -15.5 43.5q0 27 15.5 43.5t39.5 16.5q25 0 40 -16t15 -44q0 -27 -16 -43t-39 -16q-25 0 -39.5 15.5zM350 653q-14 16 -14 45q0 26 16 42t39 16q25 0 40 -16t15 -44q0 -27 -16 -43t-39 -16q-27 0 -41 16z" />
    <glyph glyph-name="divide" unicode="&#xf7;" horiz-adv-x="545" 
d="M47 386h451v-73h-451v73zM229 216.5q18 17.5 43 17.5q28 0 45 -17t17 -44t-18 -44t-44 -17q-28 0 -44.5 16.5t-16.5 44.5q0 26 18 43.5zM229 571.5q18 17.5 43 17.5q28 0 45 -17t17 -44t-18 -44t-44 -17q-28 0 -44.5 16.5t-16.5 44.5q0 26 18 43.5z" />
    <glyph glyph-name="oslash" unicode="&#xf8;" horiz-adv-x="579" 
d="M462 482q75 -72 75 -208q0 -87 -31 -151t-89 -98.5t-137 -34.5q-62 0 -109 21l-61 -99l-53 31l63 102q-37 33 -56.5 86t-19.5 123q0 133 67 209.5t186 76.5q67 0 115 -24l64 102l52 -30zM185 413.5q-37 -53.5 -37 -154.5q0 -88 27 -136l198 319q-31 25 -81 25
q-70 0 -107 -53.5zM395 116.5q38 53.5 38 152.5q0 85 -27 133l-196 -318q30 -21 75 -21q72 0 110 53.5z" />
    <glyph glyph-name="ugrave" unicode="&#xf9;" horiz-adv-x="624" 
d="M527 71l74 -17v-53l-152 -7l-12 83q-46 -43 -96.5 -65t-98.5 -22q-69 0 -111 43.5t-42 126.5v297l-75 17v53l175 6v-356q0 -55 24.5 -82.5t69.5 -27.5q33 0 70.5 17.5t73.5 50.5v322l-75 17v53l175 7v-463zM180 744l55 72l188 -149l-38 -52z" />
    <glyph glyph-name="uacute" unicode="&#xfa;" horiz-adv-x="624" 
d="M527 71l74 -17v-53l-152 -7l-12 83q-46 -43 -96.5 -65t-98.5 -22q-69 0 -111 43.5t-42 126.5v297l-75 17v53l175 6v-356q0 -55 24.5 -82.5t69.5 -27.5q33 0 70.5 17.5t73.5 50.5v322l-75 17v53l175 7v-463zM448 742l-209 -127l-36 50l191 150z" />
    <glyph glyph-name="ucircumflex" unicode="&#xfb;" horiz-adv-x="624" 
d="M527 71l74 -17v-53l-152 -7l-12 83q-46 -43 -96.5 -65t-98.5 -22q-69 0 -111 43.5t-42 126.5v297l-75 17v53l175 6v-356q0 -55 24.5 -82.5t69.5 -27.5q33 0 70.5 17.5t73.5 50.5v322l-75 17v53l175 7v-463zM328 802l146 -138l-36 -39l-137 98l-135 -98l-35 39l139 133z
" />
    <glyph glyph-name="udieresis" unicode="&#xfc;" horiz-adv-x="624" 
d="M527 71l74 -17v-53l-152 -7l-12 83q-46 -43 -96.5 -65t-98.5 -22q-69 0 -111 43.5t-42 126.5v297l-75 17v53l175 6v-356q0 -55 24.5 -82.5t69.5 -27.5q33 0 70.5 17.5t73.5 50.5v322l-75 17v53l175 7v-463zM158.5 652.5q-14.5 15.5 -15.5 43.5q0 27 15.5 43.5t39.5 16.5
q25 0 40 -16t15 -44q0 -27 -16 -43t-39 -16q-25 0 -39.5 15.5zM363 653q-14 16 -14 45q0 26 16 42t39 16q25 0 40 -16t15 -44q0 -27 -16 -43t-39 -16q-27 0 -41 16z" />
    <glyph glyph-name="yacute" unicode="&#xfd;" horiz-adv-x="538" 
d="M542 534v-53l-54 -14l-170 -468q-29 -80 -58 -130.5t-73.5 -79.5t-110.5 -29q-28 0 -63 6l9 72q34 -4 46 -4q44 0 72 17.5t48 53t41 96.5l-181 463l-54 10v53l229 7v-53l-74 -14l126 -362l119 358l-72 11v53zM415 742l-209 -127l-36 50l191 150z" />
    <glyph glyph-name="thorn" unicode="&#xfe;" horiz-adv-x="585" 
d="M446.5 509q44.5 -31 70 -91t25.5 -143q0 -138 -69 -212t-188 -74q-42 0 -101 13v-161l87 -18v-53h-262v53l75 19v853l-75 19v53l175 7v-301q79 67 161 67q57 0 101.5 -31zM396 115q42 53 42 150q0 93 -35.5 146.5t-94.5 53.5q-61 0 -124 -57v-332q50 -14 89 -14
q81 0 123 53z" />
    <glyph glyph-name="ydieresis" unicode="&#xff;" horiz-adv-x="538" 
d="M542 534v-53l-54 -14l-170 -468q-29 -80 -58 -130.5t-73.5 -79.5t-110.5 -29q-28 0 -63 6l9 72q34 -4 46 -4q44 0 72 17.5t48 53t41 96.5l-181 463l-54 10v53l229 7v-53l-74 -14l126 -362l119 358l-72 11v53zM125.5 652.5q-14.5 15.5 -15.5 43.5q0 27 15.5 43.5
t39.5 16.5q25 0 40 -16t15 -44q0 -27 -16 -43t-39 -16q-25 0 -39.5 15.5zM330 653q-14 16 -14 45q0 26 16 42t39 16q25 0 40 -16t15 -44q0 -27 -16 -43t-39 -16q-27 0 -41 16z" />
    <glyph glyph-name="Amacron" unicode="&#x100;" horiz-adv-x="710" 
d="M414 702l221 -631l71 -18v-53h-269v53l84 18l-40 123h-269l-43 -123l86 -18v-53h-251v53l70 17l235 629zM460 267l-106 339l-118 -339h224zM223 858h277v-71h-277v71z" />
    <glyph glyph-name="amacron" unicode="&#x101;" horiz-adv-x="551" 
d="M459 72l75 -18v-53l-152 -7l-13 86q-40 -44 -88.5 -67t-94.5 -23q-61 0 -101 39.5t-40 112.5q0 82 51.5 116.5t149.5 34.5h113v75q0 97 -102 97q-42 0 -99 -17l-10 -79h-66l-8 133q123 38 208 38q177 0 177 -154v-314zM166 86q20 -21 54 -21q30 0 67 18.5t72 50.5v95h-97
q-64 0 -90 -19.5t-26 -60.5q0 -42 20 -63zM130 739h277v-71h-277v71z" />
    <glyph glyph-name="Abreve" unicode="&#x102;" horiz-adv-x="710" 
d="M414 702l221 -631l71 -18v-53h-269v53l84 18l-40 123h-269l-43 -123l86 -18v-53h-251v53l70 17l235 629zM460 267l-106 339l-118 -339h224zM259 798.5q-43 35.5 -44 97.5l60 7q4 -36 30 -55t60 -19q32 0 56 18.5t27 51.5l59 3q0 -44 -20.5 -75.5t-54.5 -47.5t-72 -16
q-58 0 -101 35.5z" />
    <glyph glyph-name="abreve" unicode="&#x103;" horiz-adv-x="551" 
d="M459 72l75 -18v-53l-152 -7l-13 86q-40 -44 -88.5 -67t-94.5 -23q-61 0 -101 39.5t-40 112.5q0 82 51.5 116.5t149.5 34.5h113v75q0 97 -102 97q-42 0 -99 -17l-10 -79h-66l-8 133q123 38 208 38q177 0 177 -154v-314zM166 86q20 -21 54 -21q30 0 67 18.5t72 50.5v95h-97
q-64 0 -90 -19.5t-26 -60.5q0 -42 20 -63zM167.5 668q-39.5 39 -41.5 101l61 7q4 -35 27 -55.5t58 -20.5q34 0 55 19.5t24 51.5l60 3q1 -64 -38.5 -104.5t-103.5 -40.5q-62 0 -101.5 39z" />
    <glyph glyph-name="Aogonek" unicode="&#x104;" horiz-adv-x="710" 
d="M635 71l71 -18v-53h-109q-64 -13 -100 -41t-36 -60q0 -25 21 -39.5t57 -14.5q20 0 48 5l6 -57q-43 -14 -84 -14q-57 0 -89.5 27t-32.5 68q0 45 37 92t106 71l-49 157h-269l-43 -123l86 -18v-53h-251v53l70 17l235 629l105 3zM460 267l-106 339l-118 -339h224z" />
    <glyph glyph-name="aogonek" unicode="&#x105;" horiz-adv-x="551" 
d="M541 -207q-39 -13 -74 -13q-52 0 -84.5 25.5t-32.5 69.5q0 31 18.5 63t53.5 58l-40 -2l-13 86q-40 -44 -88.5 -67t-94.5 -23q-61 0 -101 39.5t-40 112.5q0 82 51.5 116.5t149.5 34.5h113v75q0 97 -102 97q-42 0 -99 -17l-10 -79h-66l-8 133q123 38 208 38q177 0 177 -154
v-314l75 -18v-53q-51 -19 -80.5 -48t-29.5 -56q0 -23 20 -37t52 -14q16 0 39 5zM166 86q20 -21 54 -21q30 0 67 18.5t72 50.5v95h-97q-64 0 -90 -19.5t-26 -60.5q0 -42 20 -63z" />
    <glyph glyph-name="Cacute" unicode="&#x106;" horiz-adv-x="641" 
d="M599 90q-59 -50 -124 -75t-128 -25q-82 0 -148.5 41.5t-105.5 122.5t-39 193t39 194t110.5 125.5t166.5 43.5q102 0 219 -51l-8 -164h-61l-18 109q-70 26 -130 26q-97 0 -152.5 -72t-55.5 -199q0 -91 27 -155t74.5 -97t107.5 -33q45 0 93 19t93 57zM484 848l-222 -97
l-30 55l211 122z" />
    <glyph glyph-name="cacute" unicode="&#x107;" horiz-adv-x="514" 
d="M484 70q-105 -80 -212 -80q-66 0 -118.5 32t-83 93t-30.5 144q0 95 35.5 158.5t94 93t128.5 29.5q42 0 88 -11t81 -29l-4 -133h-66l-13 86q-38 14 -86 14q-73 0 -113.5 -54t-40.5 -148q0 -95 41.5 -147t109.5 -52q72 0 154 57zM430 742l-209 -127l-36 50l191 150z" />
    <glyph glyph-name="Ccircumflex" unicode="&#x108;" horiz-adv-x="641" 
d="M599 90q-59 -50 -124 -75t-128 -25q-82 0 -148.5 41.5t-105.5 122.5t-39 193t39 194t110.5 125.5t166.5 43.5q102 0 219 -51l-8 -164h-61l-18 109q-70 26 -130 26q-97 0 -152.5 -72t-55.5 -199q0 -91 27 -155t74.5 -97t107.5 -33q45 0 93 19t93 57zM377 915l149 -128
l-35 -41l-141 90l-137 -90l-34 41l140 123z" />
    <glyph glyph-name="ccircumflex" unicode="&#x109;" horiz-adv-x="514" 
d="M484 70q-105 -80 -212 -80q-66 0 -118.5 32t-83 93t-30.5 144q0 95 35.5 158.5t94 93t128.5 29.5q42 0 88 -11t81 -29l-4 -133h-66l-13 86q-38 14 -86 14q-73 0 -113.5 -54t-40.5 -148q0 -95 41.5 -147t109.5 -52q72 0 154 57zM310 802l146 -138l-36 -39l-137 98
l-135 -98l-35 39l139 133z" />
    <glyph glyph-name="Cdotaccent" unicode="&#x10a;" horiz-adv-x="641" 
d="M599 90q-59 -50 -124 -75t-128 -25q-82 0 -148.5 41.5t-105.5 122.5t-39 193t39 194t110.5 125.5t166.5 43.5q102 0 219 -51l-8 -164h-61l-18 109q-70 26 -130 26q-97 0 -152.5 -72t-55.5 -199q0 -91 27 -155t74.5 -97t107.5 -33q45 0 93 19t93 57zM307 781
q-17 17 -17 48t17.5 48t45.5 17t45.5 -17t17.5 -48t-17.5 -48t-46.5 -17q-28 0 -45 17z" />
    <glyph glyph-name="cdotaccent" unicode="&#x10b;" horiz-adv-x="514" 
d="M484 70q-105 -80 -212 -80q-66 0 -118.5 32t-83 93t-30.5 144q0 95 35.5 158.5t94 93t128.5 29.5q42 0 88 -11t81 -29l-4 -133h-66l-13 86q-38 14 -86 14q-73 0 -113.5 -54t-40.5 -148q0 -95 41.5 -147t109.5 -52q72 0 154 57zM237 648q-17 17 -17 48t17.5 48t45.5 17
t45.5 -17t17.5 -48t-17.5 -48t-46.5 -17q-28 0 -45 17z" />
    <glyph glyph-name="Ccaron" unicode="&#x10c;" horiz-adv-x="641" 
d="M599 90q-59 -50 -124 -75t-128 -25q-82 0 -148.5 41.5t-105.5 122.5t-39 193t39 194t110.5 125.5t166.5 43.5q102 0 219 -51l-8 -164h-61l-18 109q-70 26 -130 26q-97 0 -152.5 -72t-55.5 -199q0 -91 27 -155t74.5 -97t107.5 -33q45 0 93 19t93 57zM354 835l137 89
l34 -41l-140 -122l-58 -5l-149 127l35 41z" />
    <glyph glyph-name="ccaron" unicode="&#x10d;" horiz-adv-x="514" 
d="M484 70q-105 -80 -212 -80q-66 0 -118.5 32t-83 93t-30.5 144q0 95 35.5 158.5t94 93t128.5 29.5q42 0 88 -11t81 -29l-4 -133h-66l-13 86q-38 14 -86 14q-73 0 -113.5 -54t-40.5 -148q0 -95 41.5 -147t109.5 -52q72 0 154 57zM285 706l132 97l34 -39l-135 -133l-58 -5
l-143 138l35 39z" />
    <glyph glyph-name="Dcaron" unicode="&#x10e;" horiz-adv-x="716" 
d="M348 700q94 0 165 -37.5t110.5 -113.5t39.5 -188q0 -116 -42 -197t-116.5 -122.5t-173.5 -41.5h-286v53l82 19v552l-82 18v53l201 5h102zM335 75q95 0 156.5 63.5t61.5 215.5q0 148 -58.5 209.5t-148.5 61.5h-117v-550h106zM326 835l137 89l34 -41l-140 -122l-58 -5
l-149 127l35 41z" />
    <glyph glyph-name="dcaron" unicode="&#x10f;" horiz-adv-x="597" 
d="M501 72l75 -18v-53l-152 -7l-12 73q-83 -77 -172 -77q-57 0 -101.5 31t-70 91t-25.5 144q0 140 71 212t201 72q43 0 86 -10v164l-79 20v53l179 7v-702zM182.5 118.5q35.5 -53.5 94.5 -53.5q61 0 124 56v333q-52 13 -89 13q-81 0 -123 -53t-42 -149q0 -93 35.5 -146.5z
M554 583q23 113 20 198l90 -5q-10 -80 -50 -202z" />
    <glyph glyph-name="Dcroat" unicode="&#x110;" horiz-adv-x="716" 
d="M348 700q94 0 165 -37.5t110.5 -113.5t39.5 -188q0 -116 -42 -197t-116.5 -122.5t-173.5 -41.5h-286v53l82 19v250h-79v69h79v233l-82 18v53l201 5h102zM335 75q95 0 156.5 63.5t61.5 215.5q0 148 -58.5 209.5t-148.5 61.5h-117v-234h156v-69h-156v-247h106z" />
    <glyph glyph-name="dcroat" unicode="&#x111;" horiz-adv-x="597" 
d="M501 71l75 -18v-52l-152 -8l-12 74q-83 -77 -172 -77q-57 0 -101.5 31t-70 90.5t-25.5 142.5q0 139 70 209t199 70q45 0 89 -10v70h-190v57h190v49l-79 18v49l179 7v-123h73v-57h-73v-522zM182.5 118q35.5 -53 94.5 -53q62 0 124 55v327q-49 13 -91 13q-80 0 -121.5 -50
t-41.5 -147q0 -92 35.5 -145z" />
    <glyph glyph-name="Emacron" unicode="&#x112;" horiz-adv-x="617" 
d="M478 75l16 97h62l-1 -172h-510v53l82 19v553l-82 17v53l182 5h316v-165h-61l-16 90h-237v-231h240v-73h-240v-246h249zM179 858h277v-71h-277v71z" />
    <glyph glyph-name="emacron" unicode="&#x113;" horiz-adv-x="547" 
d="M466 122l35 -55q-111 -77 -225 -77q-106 0 -169.5 69.5t-63.5 196.5q0 87 30.5 151t87 98.5t132.5 34.5q105 0 158 -63.5t53 -168.5q0 -27 -4 -56h-354q4 -86 43 -136t111 -50q78 0 166 56zM193.5 426.5q-34.5 -38.5 -44.5 -105.5h252q0 64 -28.5 104t-87.5 40
q-57 0 -91.5 -38.5zM145 739h277v-71h-277v71z" />
    <glyph glyph-name="Ebreve" unicode="&#x114;" horiz-adv-x="617" 
d="M478 75l16 97h62l-1 -172h-510v53l82 19v553l-82 17v53l182 5h316v-165h-61l-16 90h-237v-231h240v-73h-240v-246h249zM216 798.5q-43 35.5 -44 97.5l60 7q4 -36 30 -55t60 -19q32 0 56 18.5t27 51.5l59 3q0 -44 -20.5 -75.5t-54.5 -47.5t-72 -16q-58 0 -101 35.5z" />
    <glyph glyph-name="ebreve" unicode="&#x115;" horiz-adv-x="547" 
d="M466 122l35 -55q-111 -77 -225 -77q-106 0 -169.5 69.5t-63.5 196.5q0 87 30.5 151t87 98.5t132.5 34.5q105 0 158 -63.5t53 -168.5q0 -27 -4 -56h-354q4 -86 43 -136t111 -50q78 0 166 56zM193.5 426.5q-34.5 -38.5 -44.5 -105.5h252q0 64 -28.5 104t-87.5 40
q-57 0 -91.5 -38.5zM182.5 668q-39.5 39 -41.5 101l61 7q4 -35 27 -55.5t58 -20.5q34 0 55 19.5t24 51.5l60 3q1 -64 -38.5 -104.5t-103.5 -40.5q-62 0 -101.5 39z" />
    <glyph glyph-name="Edotaccent" unicode="&#x116;" horiz-adv-x="617" 
d="M478 75l16 97h62l-1 -172h-510v53l82 19v553l-82 17v53l182 5h316v-165h-61l-16 90h-237v-231h240v-73h-240v-246h249zM272 781q-17 17 -17 48t17.5 48t45.5 17t45.5 -17t17.5 -48t-17.5 -48t-46.5 -17q-28 0 -45 17z" />
    <glyph glyph-name="edotaccent" unicode="&#x117;" horiz-adv-x="547" 
d="M466 122l35 -55q-111 -77 -225 -77q-106 0 -169.5 69.5t-63.5 196.5q0 87 30.5 151t87 98.5t132.5 34.5q105 0 158 -63.5t53 -168.5q0 -27 -4 -56h-354q4 -86 43 -136t111 -50q78 0 166 56zM193.5 426.5q-34.5 -38.5 -44.5 -105.5h252q0 64 -28.5 104t-87.5 40
q-57 0 -91.5 -38.5zM237 648q-17 17 -17 48t17.5 48t45.5 17t45.5 -17t17.5 -48t-17.5 -48t-46.5 -17q-28 0 -45 17z" />
    <glyph glyph-name="Eogonek" unicode="&#x118;" horiz-adv-x="617" 
d="M494 172h62l-1 -172h-1q-64 -13 -100 -41t-36 -60q0 -25 21 -39.5t57 -14.5q20 0 48 5l6 -57q-43 -14 -84 -14q-57 0 -89.5 27t-32.5 68q0 30 18.5 64.5t54.5 61.5h-372v53l82 19v553l-82 17v53l182 5h316v-165h-61l-16 90h-237v-231h240v-73h-240v-246h249z" />
    <glyph glyph-name="eogonek" unicode="&#x119;" horiz-adv-x="547" 
d="M270.5 -49q-27.5 -28 -27.5 -55q0 -23 20 -37t52 -14q16 0 39 5l6 -58q-39 -13 -74 -13q-52 0 -84.5 25.5t-32.5 69.5q0 31 17.5 61.5t51.5 57.5q-90 12 -142.5 80t-52.5 183q0 87 30.5 151t87 98.5t132.5 34.5q105 0 158 -63.5t53 -168.5q0 -27 -4 -56h-354
q4 -86 43 -136t111 -50q78 0 166 56l35 -55q-76 -52 -154 -69q-49 -19 -76.5 -47zM193.5 426.5q-34.5 -38.5 -44.5 -105.5h252q0 64 -28.5 104t-87.5 40q-57 0 -91.5 -38.5z" />
    <glyph glyph-name="Ecaron" unicode="&#x11a;" horiz-adv-x="617" 
d="M478 75l16 97h62l-1 -172h-510v53l82 19v553l-82 17v53l182 5h316v-165h-61l-16 90h-237v-231h240v-73h-240v-246h249zM319 835l137 89l34 -41l-140 -122l-58 -5l-149 127l35 41z" />
    <glyph glyph-name="ecaron" unicode="&#x11b;" horiz-adv-x="547" 
d="M466 122l35 -55q-111 -77 -225 -77q-106 0 -169.5 69.5t-63.5 196.5q0 87 30.5 151t87 98.5t132.5 34.5q105 0 158 -63.5t53 -168.5q0 -27 -4 -56h-354q4 -86 43 -136t111 -50q78 0 166 56zM193.5 426.5q-34.5 -38.5 -44.5 -105.5h252q0 64 -28.5 104t-87.5 40
q-57 0 -91.5 -38.5zM285 706l132 97l34 -39l-135 -133l-58 -5l-143 138l35 39z" />
    <glyph glyph-name="Gcircumflex" unicode="&#x11c;" horiz-adv-x="731" 
d="M702 343v-55l-79 -18v-225q-130 -54 -247 -54q-98 0 -170.5 40.5t-112 119.5t-39.5 193q0 115 40 197t115 125.5t179 43.5q116 0 238 -52l-8 -163h-61l-18 109q-80 26 -147 26q-107 0 -167.5 -74t-60.5 -210q0 -131 59 -203t166 -72q66 0 138 26v174l-82 12v55zM400 915
l149 -128l-35 -41l-141 90l-137 -90l-34 41l140 123z" />
    <glyph glyph-name="gcircumflex" unicode="&#x11d;" horiz-adv-x="564" 
d="M338 78q98 0 148.5 -37.5t50.5 -109.5q0 -84 -69.5 -127.5t-205.5 -43.5q-118 0 -177.5 33.5t-59.5 97.5q0 78 92 126q-41 13 -41 48q0 14 9.5 36t45.5 92q-41 23 -63 63t-22 92q0 89 59.5 140.5t164.5 51.5q63 0 112 -19l147 6l1 -59l-72 -14q30 -39 30 -98
q0 -89 -61 -141t-162 -52q-44 0 -83 11l-18 -96h174zM178.5 440q-31.5 -31 -31.5 -89t30 -88.5t87 -30.5q59 0 91.5 31.5t32.5 90.5q0 58 -30.5 87.5t-88.5 29.5q-59 0 -90.5 -31zM399.5 -143.5q41.5 21.5 41.5 66.5q0 39 -30 59t-89 20h-147q-62 -42 -62 -91
q0 -38 38.5 -57t119.5 -19q87 0 128.5 21.5zM289 802l146 -138l-36 -39l-137 98l-135 -98l-35 39l139 133z" />
    <glyph glyph-name="Gbreve" unicode="&#x11e;" horiz-adv-x="731" 
d="M702 343v-55l-79 -18v-225q-130 -54 -247 -54q-98 0 -170.5 40.5t-112 119.5t-39.5 193q0 115 40 197t115 125.5t179 43.5q116 0 238 -52l-8 -163h-61l-18 109q-80 26 -147 26q-107 0 -167.5 -74t-60.5 -210q0 -131 59 -203t166 -72q66 0 138 26v174l-82 12v55z
M273 798.5q-43 35.5 -44 97.5l60 7q4 -36 30 -55t60 -19q32 0 56 18.5t27 51.5l59 3q0 -44 -20.5 -75.5t-54.5 -47.5t-72 -16q-58 0 -101 35.5z" />
    <glyph glyph-name="gbreve" unicode="&#x11f;" horiz-adv-x="564" 
d="M338 78q98 0 148.5 -37.5t50.5 -109.5q0 -84 -69.5 -127.5t-205.5 -43.5q-118 0 -177.5 33.5t-59.5 97.5q0 78 92 126q-41 13 -41 48q0 14 9.5 36t45.5 92q-41 23 -63 63t-22 92q0 89 59.5 140.5t164.5 51.5q63 0 112 -19l147 6l1 -59l-72 -14q30 -39 30 -98
q0 -89 -61 -141t-162 -52q-44 0 -83 11l-18 -96h174zM178.5 440q-31.5 -31 -31.5 -89t30 -88.5t87 -30.5q59 0 91.5 31.5t32.5 90.5q0 58 -30.5 87.5t-88.5 29.5q-59 0 -90.5 -31zM399.5 -143.5q41.5 21.5 41.5 66.5q0 39 -30 59t-89 20h-147q-62 -42 -62 -91
q0 -38 38.5 -57t119.5 -19q87 0 128.5 21.5zM160.5 668q-39.5 39 -41.5 101l61 7q4 -35 27 -55.5t58 -20.5q34 0 55 19.5t24 51.5l60 3q1 -64 -38.5 -104.5t-103.5 -40.5q-62 0 -101.5 39z" />
    <glyph glyph-name="Gdotaccent" unicode="&#x120;" horiz-adv-x="731" 
d="M702 343v-55l-79 -18v-225q-130 -54 -247 -54q-98 0 -170.5 40.5t-112 119.5t-39.5 193q0 115 40 197t115 125.5t179 43.5q116 0 238 -52l-8 -163h-61l-18 109q-80 26 -147 26q-107 0 -167.5 -74t-60.5 -210q0 -131 59 -203t166 -72q66 0 138 26v174l-82 12v55zM329 781
q-17 17 -17 48t17.5 48t45.5 17t45.5 -17t17.5 -48t-17.5 -48t-46.5 -17q-28 0 -45 17z" />
    <glyph glyph-name="gdotaccent" unicode="&#x121;" horiz-adv-x="564" 
d="M338 78q98 0 148.5 -37.5t50.5 -109.5q0 -84 -69.5 -127.5t-205.5 -43.5q-118 0 -177.5 33.5t-59.5 97.5q0 78 92 126q-41 13 -41 48q0 14 9.5 36t45.5 92q-41 23 -63 63t-22 92q0 89 59.5 140.5t164.5 51.5q63 0 112 -19l147 6l1 -59l-72 -14q30 -39 30 -98
q0 -89 -61 -141t-162 -52q-44 0 -83 11l-18 -96h174zM178.5 440q-31.5 -31 -31.5 -89t30 -88.5t87 -30.5q59 0 91.5 31.5t32.5 90.5q0 58 -30.5 87.5t-88.5 29.5q-59 0 -90.5 -31zM399.5 -143.5q41.5 21.5 41.5 66.5q0 39 -30 59t-89 20h-147q-62 -42 -62 -91
q0 -38 38.5 -57t119.5 -19q87 0 128.5 21.5zM215 648q-17 17 -17 48t17.5 48t45.5 17t45.5 -17t17.5 -48t-17.5 -48t-46.5 -17q-28 0 -45 17z" />
    <glyph glyph-name="uni0122" unicode="&#x122;" horiz-adv-x="731" 
d="M702 343v-55l-79 -18v-225q-130 -54 -247 -54q-98 0 -170.5 40.5t-112 119.5t-39.5 193q0 115 40 197t115 125.5t179 43.5q116 0 238 -52l-8 -163h-61l-18 109q-80 26 -147 26q-107 0 -167.5 -74t-60.5 -210q0 -131 59 -203t166 -72q66 0 138 26v174l-82 12v55zM308 -267
q34 55 34 82q0 7 -3 13t-7 12q-6 11 -9.5 19t-3.5 21q0 25 16.5 39.5t39.5 14.5t40 -15.5t17 -43.5q0 -31 -21.5 -73t-66.5 -92z" />
    <glyph glyph-name="uni0123" unicode="&#x123;" horiz-adv-x="564" 
d="M338 78q98 0 148.5 -37.5t50.5 -109.5q0 -84 -69.5 -127.5t-205.5 -43.5q-118 0 -177.5 33.5t-59.5 97.5q0 78 92 126q-41 13 -41 48q0 14 9.5 36t45.5 92q-41 23 -63 63t-22 92q0 89 59.5 140.5t164.5 51.5q63 0 112 -19l147 6l1 -59l-72 -14q30 -39 30 -98
q0 -89 -61 -141t-162 -52q-44 0 -83 11l-18 -96h174zM178.5 440q-31.5 -31 -31.5 -89t30 -88.5t87 -30.5q59 0 91.5 31.5t32.5 90.5q0 58 -30.5 87.5t-88.5 29.5q-59 0 -90.5 -31zM399.5 -143.5q41.5 21.5 41.5 66.5q0 39 -30 59t-89 20h-147q-62 -42 -62 -91
q0 -38 38.5 -57t119.5 -19q87 0 128.5 21.5zM329 833q-34 -55 -34 -82q0 -7 3 -13t7 -12q6 -11 9.5 -19t3.5 -21q0 -26 -16.5 -40.5t-39.5 -14.5t-40 15.5t-17 43.5q0 67 88 166z" />
    <glyph glyph-name="Hcircumflex" unicode="&#x124;" horiz-adv-x="793" 
d="M749 700v-53l-82 -21v-554l82 -19v-53h-267v53l82 19v247h-335v-247l82 -19v-53h-266v53l82 19v553l-82 17v53l266 5v-53l-82 -22v-231h335v232l-82 16v53zM420 915l149 -128l-35 -41l-141 90l-137 -90l-34 41l140 123z" />
    <glyph glyph-name="hcircumflex" unicode="&#x125;" horiz-adv-x="623" 
d="M534 70l75 -17v-53h-245v53l70 17v281q1 55 -24.5 83.5t-70.5 28.5q-33 0 -70 -17t-73 -51v-326l70 -16v-53h-245v53l75 18v625l-75 18v53l175 7v-311q44 38 91.5 57.5t92.5 19.5q70 0 112.5 -43t41.5 -124v-303zM161 963l149 -128l-35 -41l-141 90l-137 -90l-34 41
l140 123z" />
    <glyph glyph-name="Hbar" unicode="&#x126;" horiz-adv-x="803" 
d="M754 700v-53l-82 -21v-86h82v-53h-82v-415l82 -19v-53h-267v53l82 19v240h-335v-240l82 -19v-53h-266v53l82 19v415h-82v53h82v85l-82 17v53l266 5v-53l-82 -22v-85h335v86l-82 16v53zM234 385h335v102h-335v-102z" />
    <glyph glyph-name="hbar" unicode="&#x127;" horiz-adv-x="623" 
d="M536 70l70 -17v-53h-240v53l70 17v281q1 52 -24 78.5t-69 26.5q-33 0 -70.5 -17t-74.5 -51v-319l70 -16v-53h-245v53l75 18v522h-79v57h79v52l-75 16v49l175 7v-124h182v-57h-182v-140q43 40 92 60t94 20q68 0 110.5 -42.5t41.5 -120.5v-300z" />
    <glyph glyph-name="Itilde" unicode="&#x128;" horiz-adv-x="355" 
d="M311 700v-53l-82 -21v-554l82 -19v-53h-266v53l82 19v553l-82 17v53zM5 795q18 50 42 73t56 23q18 0 36.5 -6t43.5 -18q42 -19 61 -19q18 0 32 10.5t29 34.5l44 -19q-18 -51 -43.5 -74t-58.5 -23q-17 0 -33.5 5.5t-41.5 17.5q-25 11 -38 15.5t-27 4.5q-17 0 -30 -10.5
t-28 -34.5z" />
    <glyph glyph-name="itilde" unicode="&#x129;" horiz-adv-x="305" 
d="M209 533v-462l75 -18v-53h-249v53l74 18v386l-74 17v53zM175.5 652.5q-13.5 6.5 -33.5 20.5q-16 12 -28 17.5t-25 5.5q-17 0 -30.5 -11.5t-28.5 -36.5l-44 19q17 51 42.5 77t56.5 26q17 0 32 -7t34 -20q18 -11 28.5 -16.5t23.5 -5.5q32 0 60 48l43 -18q-16 -52 -42 -78.5
t-58 -26.5q-17 0 -30.5 6.5z" />
    <glyph glyph-name="Imacron" unicode="&#x12a;" horiz-adv-x="355" 
d="M311 700v-53l-82 -21v-554l82 -19v-53h-266v53l82 19v553l-82 17v53zM39 858h277v-71h-277v71z" />
    <glyph glyph-name="imacron" unicode="&#x12b;" horiz-adv-x="305" 
d="M39 739h239v-71h-239v71zM209 533v-462l75 -18v-53h-249v53l74 18v386l-74 17v53z" />
    <glyph glyph-name="Ibreve" unicode="&#x12c;" horiz-adv-x="355" 
d="M311 700v-53l-82 -21v-554l82 -19v-53h-266v53l82 19v553l-82 17v53zM75 798.5q-43 35.5 -44 97.5l60 7q4 -36 30 -55t60 -19q32 0 56 18.5t27 51.5l59 3q0 -44 -20.5 -75.5t-54.5 -47.5t-72 -16q-58 0 -101 35.5z" />
    <glyph glyph-name="ibreve" unicode="&#x12d;" horiz-adv-x="305" 
d="M209 533v-462l75 -18v-53h-249v53l74 18v386l-74 17v53zM53.5 668q-39.5 39 -41.5 101l61 7q4 -35 27 -55.5t58 -20.5q34 0 55 19.5t24 51.5l60 3q1 -64 -38.5 -104.5t-103.5 -40.5q-62 0 -101.5 39z" />
    <glyph glyph-name="Iogonek" unicode="&#x12e;" horiz-adv-x="355" 
d="M311 647l-82 -21v-554l82 -19v-53h-42q-51 -19 -80.5 -48t-29.5 -56q0 -23 20 -37t52 -14q16 0 39 5l6 -58q-39 -13 -74 -13q-52 0 -84.5 25.5t-32.5 69.5q0 33 20 66t59 60h-119v53l82 19v553l-82 17v53l266 5v-53z" />
    <glyph glyph-name="iogonek" unicode="&#x12f;" horiz-adv-x="305" 
d="M109 648q-17 17 -17 48t17.5 48t45.5 17t45.5 -17t17.5 -48t-17.5 -48t-46.5 -17q-28 0 -45 17zM246 0q-51 -19 -80.5 -48t-29.5 -56q0 -23 20 -37t52 -14q16 0 39 5l6 -58q-39 -13 -74 -13q-52 0 -84.5 25.5t-32.5 69.5q0 33 20 66t59 60h-106v53l74 18v386l-74 17v53
l174 6v-462l75 -18v-53h-38z" />
    <glyph glyph-name="Idotaccent" unicode="&#x130;" horiz-adv-x="355" 
d="M311 700v-53l-82 -21v-554l82 -19v-53h-266v53l82 19v553l-82 17v53zM132 781q-17 17 -17 48t17.5 48t45.5 17t45.5 -17t17.5 -48t-17.5 -48t-46.5 -17q-28 0 -45 17z" />
    <glyph glyph-name="dotlessi" unicode="&#x131;" horiz-adv-x="305" 
d="M209 533v-462l75 -18v-53h-249v53l74 18v386l-74 17v53z" />
    <glyph glyph-name="IJ" unicode="&#x132;" horiz-adv-x="703" 
d="M311 700v-53l-82 -21v-554l82 -19v-53h-266v53l82 19v553l-82 17v53zM669 700v-52l-82 -22v-554q0 -112 -42.5 -168t-141.5 -56q-29 0 -64 6l9 74q18 -3 34 -3q55 0 79 30.5t24 96.5v574l-90 16v53z" />
    <glyph glyph-name="ij" unicode="&#x133;" horiz-adv-x="587" 
d="M209 533v-462l75 -18v-53h-249v53l74 18v386l-74 17v53zM109 648q-17 17 -17 48t17.5 48t45.5 17t45.5 -17t17.5 -48t-17.5 -48t-46.5 -17q-28 0 -45 17zM330 527l175 6v-555q0 -111 -46.5 -164.5t-141.5 -53.5q-22 0 -55 5l8 72q28 -2 37 -2q53 0 75.5 25.5t22.5 86.5
v510l-75 17v53zM401 648q-17 17 -17 48t17.5 48t45.5 17t45.5 -17t17.5 -48t-17.5 -48t-46.5 -17q-28 0 -45 17z" />
    <glyph glyph-name="Jcircumflex" unicode="&#x134;" horiz-adv-x="335" 
d="M301 700v-52l-82 -22v-554q0 -112 -42.5 -168t-141.5 -56q-29 0 -64 6l9 74q18 -3 34 -3q55 0 79 30.5t24 96.5v574l-90 16v53zM189 915l149 -128l-35 -41l-141 90l-137 -90l-34 41l140 123z" />
    <glyph glyph-name="jcircumflex" unicode="&#x135;" horiz-adv-x="278" 
d="M107 797l58 5l126 -138l-38 -39l-115 94l-112 -94l-37 39zM21 474v53l175 6v-555q0 -111 -46.5 -164.5t-141.5 -53.5q-22 0 -55 5l8 72q28 -2 37 -2q53 0 75.5 25.5t22.5 86.5v510z" />
    <glyph glyph-name="uni0136" unicode="&#x136;" horiz-adv-x="712" 
d="M419 365l205 -294l74 -18v-53h-261v53l71 18l-168 250h-111v-248l80 -20v-53h-264v53l82 19v554l-82 16v53l264 5v-52l-80 -21v-231h114l140 234l-75 12v53l252 5v-53l-78 -20zM282 -267q34 55 34 82q0 7 -3 13t-7 12q-6 11 -9.5 19t-3.5 21q0 25 16.5 39.5t39.5 14.5
t40 -15.5t17 -43.5q0 -31 -21.5 -73t-66.5 -92z" />
    <glyph glyph-name="uni0137" unicode="&#x137;" horiz-adv-x="576" 
d="M372 301l128 -232l70 -17v-52h-137l-138 258h-99v-187l72 -18v-53h-247v53l75 18v626l-75 17v53l175 7v-448h100l86 138l-64 10v53l228 7v-52l-68 -15zM237 -267q34 55 34 82q0 7 -3 13t-7 12q-6 11 -9.5 19t-3.5 21q0 25 16.5 39.5t39.5 14.5t40 -15.5t17 -43.5
q0 -31 -21.5 -73t-66.5 -92z" />
    <glyph glyph-name="kgreenlandic" unicode="&#x138;" horiz-adv-x="592" 
d="M386 300l128 -230l73 -18v-52h-141l-135 255h-102v-184l80 -18v-53h-254v53l74 18v386l-74 17v53l174 7v-210h99l88 140l-66 10v53l229 7v-52l-67 -14z" />
    <glyph glyph-name="Lacute" unicode="&#x139;" horiz-adv-x="555" 
d="M451 75l17 114h62v-189h-485v53l82 19v553l-82 17v53l276 5v-53l-92 -22v-550h222zM310 848l-222 -97l-30 55l211 122z" />
    <glyph glyph-name="lacute" unicode="&#x13a;" horiz-adv-x="292" 
d="M196 774v-703l74 -18v-53h-249v53l75 18v626l-75 17v53zM270 892l-222 -97l-30 55l211 122z" />
    <glyph glyph-name="uni013B" unicode="&#x13b;" horiz-adv-x="555" 
d="M451 75l17 114h62v-189h-485v53l82 19v553l-82 17v53l276 5v-53l-92 -22v-550h222zM238 -267q34 55 34 82q0 7 -3 13t-7 12q-6 11 -9.5 19t-3.5 21q0 25 16.5 39.5t39.5 14.5t40 -15.5t17 -43.5q0 -31 -21.5 -73t-66.5 -92z" />
    <glyph glyph-name="uni013C" unicode="&#x13c;" horiz-adv-x="292" 
d="M196 774v-703l74 -18v-53h-249v53l75 18v626l-75 17v53zM75 -267q34 55 34 82q0 7 -3 13t-7 12q-6 11 -9.5 19t-3.5 21q0 25 16.5 39.5t39.5 14.5t40 -15.5t17 -43.5q0 -31 -21.5 -73t-66.5 -92z" />
    <glyph glyph-name="Lcaron" unicode="&#x13d;" horiz-adv-x="555" 
d="M451 75l17 114h62v-189h-485v53l82 19v553l-82 17v53l276 5v-53l-92 -22v-550h222zM393 513q23 113 20 198l90 -5q-10 -80 -50 -202z" />
    <glyph glyph-name="lcaron" unicode="&#x13e;" horiz-adv-x="292" 
d="M196 774v-703l74 -18v-53h-249v53l75 18v626l-75 17v53zM248 583q23 113 20 198l90 -5q-10 -80 -50 -202z" />
    <glyph glyph-name="Ldot" unicode="&#x13f;" horiz-adv-x="578" 
d="M451 75l17 114h62v-189h-485v53l82 19v553l-82 17v53l276 5v-53l-92 -22v-550h222zM409 436.5q18 17.5 43 17.5q28 0 45 -17t17 -44t-18 -44t-44 -17q-28 0 -44.5 16.5t-16.5 44.5q0 26 18 43.5z" />
    <glyph glyph-name="ldot" unicode="&#x140;" horiz-adv-x="412" 
d="M196 774v-703l74 -18v-53h-249v53l75 18v626l-75 17v53zM305 329q-17 17 -17 48t17.5 48t45.5 17t45.5 -17t17.5 -48t-17.5 -48t-46.5 -17q-28 0 -45 17z" />
    <glyph glyph-name="Lslash" unicode="&#x141;" horiz-adv-x="573" 
d="M469 75l17 114h62v-189h-485v53l82 19v206l-79 -44l-24 54l103 57v280l-82 17v53l276 5v-53l-91 -22v-222l152 84l24 -54l-176 -98v-260h221z" />
    <glyph glyph-name="lslash" unicode="&#x142;" horiz-adv-x="346" 
d="M320 433l-97 -46v-316l74 -18v-53h-249v53l75 18v268l-73 -35l-20 58l93 44v291l-75 17v53l175 7v-320l77 37z" />
    <glyph glyph-name="Nacute" unicode="&#x143;" horiz-adv-x="785" 
d="M503 695l250 5v-53l-82 -21v-626h-116l-342 567v-495l82 -19v-53h-250v53l82 19v553l-82 17v53l204 5l336 -556v482l-82 16v53zM537 848l-222 -97l-30 55l211 122z" />
    <glyph glyph-name="nacute" unicode="&#x144;" horiz-adv-x="637" 
d="M548 70l74 -17v-53h-244v53l70 17v281q0 56 -25.5 84t-69.5 28q-33 0 -70.5 -17t-73.5 -51v-326l70 -16v-53h-244v53l74 18v385l-74 18v53l152 7l11 -81q46 43 97.5 65t98.5 22q70 0 112.5 -43t41.5 -125v-302zM474 742l-209 -127l-36 50l191 150z" />
    <glyph glyph-name="uni0145" unicode="&#x145;" horiz-adv-x="785" 
d="M503 695l250 5v-53l-82 -21v-626h-116l-342 567v-495l82 -19v-53h-250v53l82 19v553l-82 17v53l204 5l336 -556v482l-82 16v53zM328 -267q34 55 34 82q0 7 -3 13t-7 12q-6 11 -9.5 19t-3.5 21q0 25 16.5 39.5t39.5 14.5t40 -15.5t17 -43.5q0 -31 -21.5 -73t-66.5 -92z
" />
    <glyph glyph-name="uni0146" unicode="&#x146;" horiz-adv-x="637" 
d="M548 70l74 -17v-53h-244v53l70 17v281q0 56 -25.5 84t-69.5 28q-33 0 -70.5 -17t-73.5 -51v-326l70 -16v-53h-244v53l74 18v385l-74 18v53l152 7l11 -81q46 43 97.5 65t98.5 22q70 0 112.5 -43t41.5 -125v-302zM256 -267q34 55 34 82q0 7 -3 13t-7 12q-6 11 -9.5 19
t-3.5 21q0 25 16.5 39.5t39.5 14.5t40 -15.5t17 -43.5q0 -31 -21.5 -73t-66.5 -92z" />
    <glyph glyph-name="Ncaron" unicode="&#x147;" horiz-adv-x="785" 
d="M503 695l250 5v-53l-82 -21v-626h-116l-342 567v-495l82 -19v-53h-250v53l82 19v553l-82 17v53l204 5l336 -556v482l-82 16v53zM407 835l137 89l34 -41l-140 -122l-58 -5l-149 127l35 41z" />
    <glyph glyph-name="ncaron" unicode="&#x148;" horiz-adv-x="637" 
d="M548 70l74 -17v-53h-244v53l70 17v281q0 56 -25.5 84t-69.5 28q-33 0 -70.5 -17t-73.5 -51v-326l70 -16v-53h-244v53l74 18v385l-74 18v53l152 7l11 -81q46 43 97.5 65t98.5 22q70 0 112.5 -43t41.5 -125v-302zM329 706l132 97l34 -39l-135 -133l-58 -5l-143 138l35 39z
" />
    <glyph glyph-name="napostrophe" unicode="&#x149;" horiz-adv-x="747" 
d="M130.5 766q16.5 -16 16.5 -45q0 -33 -22.5 -81.5t-70.5 -104.5l-34 22q42 73 42 103q0 10 -10 28q-14 20 -14 40q0 26 15.5 40t37.5 14q23 0 39.5 -16zM658 70l74 -17v-53h-244v53l70 17v281q0 56 -25.5 84t-69.5 28q-33 0 -71 -17.5t-73 -50.5v-326l70 -16v-53h-244v53
l74 18v385l-74 18v53l152 7l11 -81q46 43 97.5 65t98.5 22q70 0 112.5 -43t41.5 -125v-302z" />
    <glyph glyph-name="Eng" unicode="&#x14a;" horiz-adv-x="796" 
d="M762 700v-53l-86 -21v-683q0 -96 -53.5 -139.5t-134.5 -43.5q-26 0 -58 5l8 72q28 -2 39 -2q51 0 74.5 22.5t23.5 73.5v66l-359 561v-485l95 -20v-53h-266v53l86 19v553l-86 17v53l204 5l342 -548v474l-95 16v53z" />
    <glyph glyph-name="eng" unicode="&#x14b;" horiz-adv-x="624" 
d="M505.5 497q42.5 -43 42.5 -125v-394q0 -111 -47 -164.5t-142 -53.5q-25 0 -58 5l8 73q24 -3 42 -3q52 0 74.5 25.5t22.5 86.5v404q0 56 -25.5 84t-69.5 28q-33 0 -70.5 -17t-73.5 -51v-326l70 -16v-53h-244v53l74 18v385l-74 18v53l152 7l11 -81q46 43 97.5 65t98.5 22
q69 0 111.5 -43z" />
    <glyph glyph-name="Omacron" unicode="&#x14c;" horiz-adv-x="741" 
d="M200 30q-69 40 -107.5 119.5t-38.5 192.5q0 119 41.5 202t114.5 124.5t166 41.5q91 0 161 -39.5t110 -118t40 -190.5q0 -115 -42 -199t-116.5 -128.5t-169.5 -44.5q-90 0 -159 40zM518 141q59 71 59 216q0 138 -55.5 205.5t-149.5 67.5t-151 -69t-57 -215
q0 -139 55 -207.5t147 -68.5q93 0 152 71zM235 858h277v-71h-277v71z" />
    <glyph glyph-name="omacron" unicode="&#x14d;" horiz-adv-x="576" 
d="M471 470q64 -70 64 -196q0 -87 -31 -151t-89 -98.5t-138 -34.5q-112 0 -173.5 68.5t-61.5 195.5q0 133 67 209.5t186 76.5q112 0 176 -70zM183 413.5q-37 -53.5 -37 -154.5q0 -196 137 -196q72 0 109.5 53.5t37.5 152.5q0 98 -35.5 148t-104.5 50q-70 0 -107 -53.5z
M149 739h277v-71h-277v71z" />
    <glyph glyph-name="Obreve" unicode="&#x14e;" horiz-adv-x="741" 
d="M200 30q-69 40 -107.5 119.5t-38.5 192.5q0 119 41.5 202t114.5 124.5t166 41.5q91 0 161 -39.5t110 -118t40 -190.5q0 -115 -42 -199t-116.5 -128.5t-169.5 -44.5q-90 0 -159 40zM518 141q59 71 59 216q0 138 -55.5 205.5t-149.5 67.5t-151 -69t-57 -215
q0 -139 55 -207.5t147 -68.5q93 0 152 71zM272 798.5q-43 35.5 -44 97.5l60 7q4 -36 30 -55t60 -19q32 0 56 18.5t27 51.5l59 3q0 -44 -20.5 -75.5t-54.5 -47.5t-72 -16q-58 0 -101 35.5z" />
    <glyph glyph-name="obreve" unicode="&#x14f;" horiz-adv-x="576" 
d="M471 470q64 -70 64 -196q0 -87 -31 -151t-89 -98.5t-138 -34.5q-112 0 -173.5 68.5t-61.5 195.5q0 133 67 209.5t186 76.5q112 0 176 -70zM183 413.5q-37 -53.5 -37 -154.5q0 -196 137 -196q72 0 109.5 53.5t37.5 152.5q0 98 -35.5 148t-104.5 50q-70 0 -107 -53.5z
M186.5 668q-39.5 39 -41.5 101l61 7q4 -35 27 -55.5t58 -20.5q34 0 55 19.5t24 51.5l60 3q1 -64 -38.5 -104.5t-103.5 -40.5q-62 0 -101.5 39z" />
    <glyph glyph-name="Ohungarumlaut" unicode="&#x150;" horiz-adv-x="741" 
d="M200 30q-69 40 -107.5 119.5t-38.5 192.5q0 119 41.5 202t114.5 124.5t166 41.5q91 0 161 -39.5t110 -118t40 -190.5q0 -115 -42 -199t-116.5 -128.5t-169.5 -44.5q-90 0 -159 40zM518 141q59 71 59 216q0 138 -55.5 205.5t-149.5 67.5t-151 -69t-57 -215
q0 -139 55 -207.5t147 -68.5q93 0 152 71zM405 909l-92 -166l-54 26l72 175zM556 906l-96 -163l-53 27l78 174z" />
    <glyph glyph-name="ohungarumlaut" unicode="&#x151;" horiz-adv-x="576" 
d="M471 470q64 -70 64 -196q0 -87 -31 -151t-89 -98.5t-138 -34.5q-112 0 -173.5 68.5t-61.5 195.5q0 133 67 209.5t186 76.5q112 0 176 -70zM183 413.5q-37 -53.5 -37 -154.5q0 -196 137 -196q72 0 109.5 53.5t37.5 152.5q0 98 -35.5 148t-104.5 50q-70 0 -107 -53.5z
M323 781l-92 -166l-54 26l72 175zM474 778l-96 -163l-53 27l78 174z" />
    <glyph glyph-name="OE" unicode="&#x152;" horiz-adv-x="937" 
d="M814 172h61l-1 -172h-359l-64 -2q-64 -2 -93 -2q-141 0 -222.5 88t-81.5 259q0 179 89 270t242 91l96 -2l71 -2h311v-165h-62l-15 90h-232v-224h234v-73h-234v-253h244zM370 75q29 0 81 5v540q-42 4 -69 4q-104 0 -161 -65t-57 -213q0 -271 206 -271z" />
    <glyph glyph-name="oe" unicode="&#x153;" horiz-adv-x="939" 
d="M858 123l35 -56q-55 -38 -112 -57.5t-110 -19.5q-64 0 -111.5 28t-73.5 81q-60 -109 -207 -109q-112 0 -174.5 67.5t-62.5 195.5q0 135 68 210.5t187 75.5q73 0 123 -27t75 -79q30 52 78.5 79.5t113.5 27.5q101 0 155 -62t54 -169q0 -30 -4 -57h-350v-3q0 -82 41 -132.5
t111 -50.5q76 0 164 57zM397 114.5q39 51.5 39 156.5q0 196 -140 196q-71 0 -110.5 -51t-39.5 -157q0 -196 140 -196q72 0 111 51.5zM586.5 427q-33.5 -40 -42.5 -106h249q0 63 -27.5 104.5t-88.5 41.5q-57 0 -90.5 -40z" />
    <glyph glyph-name="Racute" unicode="&#x154;" horiz-adv-x="661" 
d="M580 71l63 -18v-53h-137l-91 196q-21 45 -36 65.5t-38.5 29.5t-66.5 9l-45 -1v-226l96 -20v-53h-280v53l82 19v553l-82 17v53l188 5h110q115 0 174.5 -48t59.5 -139q0 -76 -43.5 -126.5t-128.5 -67.5q35 -10 56.5 -32.5t42.5 -63.5zM229 372h73q83 0 126.5 34.5
t43.5 100.5q0 58 -35.5 88t-105.5 30h-102v-253zM445 848l-222 -97l-30 55l211 122z" />
    <glyph glyph-name="racute" unicode="&#x155;" horiz-adv-x="451" 
d="M437 530l-7 -154h-61l-11 82q-14 2 -20 2q-33 0 -66 -18.5t-63 -51.5v-319l93 -18v-53h-267v53l74 17v386l-74 18v53l152 7l11 -82q44 44 85 66t86 22q32 0 68 -10zM381 742l-209 -127l-36 50l191 150z" />
    <glyph glyph-name="uni0156" unicode="&#x156;" horiz-adv-x="661" 
d="M580 71l63 -18v-53h-137l-91 196q-21 45 -36 65.5t-38.5 29.5t-66.5 9l-45 -1v-226l96 -20v-53h-280v53l82 19v553l-82 17v53l188 5h110q115 0 174.5 -48t59.5 -139q0 -76 -43.5 -126.5t-128.5 -67.5q35 -10 56.5 -32.5t42.5 -63.5zM229 372h73q83 0 126.5 34.5
t43.5 100.5q0 58 -35.5 88t-105.5 30h-102v-253zM275 -267q34 55 34 82q0 7 -3 13t-7 12q-6 11 -9.5 19t-3.5 21q0 25 16.5 39.5t39.5 14.5t40 -15.5t17 -43.5q0 -31 -21.5 -73t-66.5 -92z" />
    <glyph glyph-name="uni0157" unicode="&#x157;" horiz-adv-x="451" 
d="M437 530l-7 -154h-61l-11 82q-14 2 -20 2q-33 0 -66 -18.5t-63 -51.5v-319l93 -18v-53h-267v53l74 17v386l-74 18v53l152 7l11 -82q44 44 85 66t86 22q32 0 68 -10zM88 -267q34 55 34 82q0 7 -3 13t-7 12q-6 11 -9.5 19t-3.5 21q0 25 16.5 39.5t39.5 14.5t40 -15.5
t17 -43.5q0 -31 -21.5 -73t-66.5 -92z" />
    <glyph glyph-name="Rcaron" unicode="&#x158;" horiz-adv-x="661" 
d="M580 71l63 -18v-53h-137l-91 196q-21 45 -36 65.5t-38.5 29.5t-66.5 9l-45 -1v-226l96 -20v-53h-280v53l82 19v553l-82 17v53l188 5h110q115 0 174.5 -48t59.5 -139q0 -76 -43.5 -126.5t-128.5 -67.5q35 -10 56.5 -32.5t42.5 -63.5zM229 372h73q83 0 126.5 34.5
t43.5 100.5q0 58 -35.5 88t-105.5 30h-102v-253zM315 835l137 89l34 -41l-140 -122l-58 -5l-149 127l35 41z" />
    <glyph glyph-name="rcaron" unicode="&#x159;" horiz-adv-x="451" 
d="M437 530l-7 -154h-61l-11 82q-14 2 -20 2q-33 0 -66 -18.5t-63 -51.5v-319l93 -18v-53h-267v53l74 17v386l-74 18v53l152 7l11 -82q44 44 85 66t86 22q32 0 68 -10zM236 706l132 97l34 -39l-135 -133l-58 -5l-143 138l35 39z" />
    <glyph glyph-name="Sacute" unicode="&#x15a;" horiz-adv-x="600" 
d="M191.5 470q20.5 -23 51.5 -36.5t85 -31.5q68 -21 110.5 -42t72.5 -60.5t30 -102.5q0 -101 -75.5 -154t-191.5 -53q-105 0 -209 42l6 172h60l17 -110q67 -27 132 -27q69 0 114.5 30.5t45.5 86.5q0 37 -21 60.5t-52.5 37.5t-87.5 32q-67 21 -108.5 41t-70.5 58t-29 100
q0 96 68 146.5t177 50.5q102 0 205 -42l-9 -163h-61l-16 108q-54 20 -115 20q-64 0 -106.5 -26t-42.5 -79q0 -35 20.5 -58zM443 848l-222 -97l-30 55l211 122z" />
    <glyph glyph-name="sacute" unicode="&#x15b;" horiz-adv-x="479" 
d="M182 349q28 -17 88 -36q53 -17 86 -32.5t56.5 -45.5t23.5 -78q0 -79 -62.5 -123t-161.5 -44q-76 0 -162 24l7 141h63l10 -85q42 -11 85 -11q50 0 85.5 21.5t35.5 60.5q0 25 -15.5 41.5t-38.5 26.5t-63 23q-52 16 -84.5 31.5t-55.5 45.5t-23 78q0 75 56 114t139 39
q77 0 165 -28l-5 -121h-64l-13 68q-42 12 -80 12q-45 0 -72.5 -19t-27.5 -52q0 -34 28 -51zM391 742l-209 -127l-36 50l191 150z" />
    <glyph glyph-name="Scircumflex" unicode="&#x15c;" horiz-adv-x="600" 
d="M191.5 470q20.5 -23 51.5 -36.5t85 -31.5q68 -21 110.5 -42t72.5 -60.5t30 -102.5q0 -101 -75.5 -154t-191.5 -53q-105 0 -209 42l6 172h60l17 -110q67 -27 132 -27q69 0 114.5 30.5t45.5 86.5q0 37 -21 60.5t-52.5 37.5t-87.5 32q-67 21 -108.5 41t-70.5 58t-29 100
q0 96 68 146.5t177 50.5q102 0 205 -42l-9 -163h-61l-16 108q-54 20 -115 20q-64 0 -106.5 -26t-42.5 -79q0 -35 20.5 -58zM336 915l149 -128l-35 -41l-141 90l-137 -90l-34 41l140 123z" />
    <glyph glyph-name="scircumflex" unicode="&#x15d;" horiz-adv-x="479" 
d="M182 349q28 -17 88 -36q53 -17 86 -32.5t56.5 -45.5t23.5 -78q0 -79 -62.5 -123t-161.5 -44q-76 0 -162 24l7 141h63l10 -85q42 -11 85 -11q50 0 85.5 21.5t35.5 60.5q0 25 -15.5 41.5t-38.5 26.5t-63 23q-52 16 -84.5 31.5t-55.5 45.5t-23 78q0 75 56 114t139 39
q77 0 165 -28l-5 -121h-64l-13 68q-42 12 -80 12q-45 0 -72.5 -19t-27.5 -52q0 -34 28 -51zM271 802l146 -138l-36 -39l-137 98l-135 -98l-35 39l139 133z" />
    <glyph glyph-name="Scedilla" unicode="&#x15e;" horiz-adv-x="600" 
d="M485 58.5q-56 -51.5 -148 -64.5v-49q55 -6 81.5 -28.5t26.5 -58.5q0 -47 -37 -72.5t-92 -25.5q-53 0 -97 22l20 50q40 -15 76 -15q25 0 40.5 9.5t15.5 28.5q0 21 -27.5 32t-74.5 13l5 90q-105 0 -209 42l6 172h60l17 -110q67 -27 132 -27q69 0 114.5 30.5t45.5 86.5
q0 37 -21 60.5t-52.5 37.5t-87.5 32q-67 21 -108.5 41t-70.5 58t-29 100q0 96 68 146.5t177 50.5q102 0 205 -42l-9 -163h-61l-16 108q-54 20 -115 20q-64 0 -106.5 -26t-42.5 -79q0 -35 20.5 -58t51.5 -36.5t85 -31.5q68 -21 110.5 -42t72.5 -60.5t30 -102.5
q0 -87 -56 -138.5z" />
    <glyph glyph-name="scedilla" unicode="&#x15f;" horiz-adv-x="479" 
d="M391.5 49q-44.5 -42 -118.5 -54v-50q55 -6 81.5 -28.5t26.5 -58.5q0 -47 -37 -72.5t-92 -25.5q-53 0 -97 22l20 50q40 -15 76 -15q25 0 40.5 9.5t15.5 28.5q0 21 -27.5 32t-74.5 13l5 90q-76 0 -160 24l7 141h63l10 -85q42 -11 85 -11q50 0 85.5 21.5t35.5 60.5
q0 25 -15.5 41.5t-38.5 26.5t-63 23q-52 16 -84.5 31.5t-55.5 45.5t-23 78q0 75 56 114t139 39q77 0 165 -28l-5 -121h-64l-13 68q-42 12 -80 12q-45 0 -72.5 -19t-27.5 -52q0 -34 28 -51t88 -36q53 -17 86 -32.5t56.5 -45.5t23.5 -78q0 -66 -44.5 -108z" />
    <glyph glyph-name="Scaron" unicode="&#x160;" horiz-adv-x="600" 
d="M191.5 470q20.5 -23 51.5 -36.5t85 -31.5q68 -21 110.5 -42t72.5 -60.5t30 -102.5q0 -101 -75.5 -154t-191.5 -53q-105 0 -209 42l6 172h60l17 -110q67 -27 132 -27q69 0 114.5 30.5t45.5 86.5q0 37 -21 60.5t-52.5 37.5t-87.5 32q-67 21 -108.5 41t-70.5 58t-29 100
q0 96 68 146.5t177 50.5q102 0 205 -42l-9 -163h-61l-16 108q-54 20 -115 20q-64 0 -106.5 -26t-42.5 -79q0 -35 20.5 -58zM313 835l137 89l34 -41l-140 -122l-58 -5l-149 127l35 41z" />
    <glyph glyph-name="scaron" unicode="&#x161;" horiz-adv-x="479" 
d="M182 349q28 -17 88 -36q53 -17 86 -32.5t56.5 -45.5t23.5 -78q0 -79 -62.5 -123t-161.5 -44q-76 0 -162 24l7 141h63l10 -85q42 -11 85 -11q50 0 85.5 21.5t35.5 60.5q0 25 -15.5 41.5t-38.5 26.5t-63 23q-52 16 -84.5 31.5t-55.5 45.5t-23 78q0 75 56 114t139 39
q77 0 165 -28l-5 -121h-64l-13 68q-42 12 -80 12q-45 0 -72.5 -19t-27.5 -52q0 -34 28 -51zM246 706l132 97l34 -39l-135 -133l-58 -5l-143 138l35 39z" />
    <glyph glyph-name="uni0162" unicode="&#x162;" horiz-adv-x="594" 
d="M25 519v181h544v-181h-61l-19 106h-141v-553l95 -19v-53h-292v53l95 19v553h-141l-19 -106h-61zM211 -218l20 50q40 -15 76 -15q25 0 40.5 9.5t15.5 28.5q0 21 -27.5 32t-74.5 13l6 100h62v-55q55 -6 81.5 -28.5t26.5 -58.5q0 -47 -37 -72.5t-92 -25.5q-53 0 -97 22z" />
    <glyph glyph-name="uni0163" unicode="&#x163;" horiz-adv-x="373" 
d="M226 -55q55 -6 81.5 -28.5t26.5 -58.5q0 -47 -37 -72.5t-92 -25.5q-53 0 -97 22l20 50q40 -15 76 -15q25 0 40.5 9.5t15.5 28.5q0 21 -27.5 32t-74.5 13l6 100q-67 28 -67 132v330h-86v54l86 15v117l100 17v-135h143l-3 -68h-140v-316q0 -80 61 -80q35 0 82 22l20 -57
q-73 -38 -134 -41v-45z" />
    <glyph glyph-name="Tcaron" unicode="&#x164;" horiz-adv-x="594" 
d="M25 519v181h544v-181h-61l-19 106h-141v-553l95 -19v-53h-292v53l95 19v553h-141l-19 -106h-61zM299 835l137 89l34 -41l-140 -122l-58 -5l-149 127l35 41z" />
    <glyph glyph-name="tcaron" unicode="&#x165;" horiz-adv-x="373" 
d="M360 31q-77 -41 -142 -41q-58 0 -89.5 36t-31.5 106v330h-86v54l86 15v117l100 17v-135h143l-3 -68h-140v-316q0 -80 61 -80q35 0 82 22zM259 583q23 113 20 198l90 -5q-10 -80 -50 -202z" />
    <glyph glyph-name="Tbar" unicode="&#x166;" horiz-adv-x="594" 
d="M25 519v181h544v-181h-61l-19 106h-141v-246h137v-65h-137v-242l95 -19v-53h-292v53l95 19v242h-138v65h138v246h-141l-19 -106h-61z" />
    <glyph glyph-name="tbar" unicode="&#x167;" horiz-adv-x="380" 
d="M360 31q-77 -41 -142 -41q-58 0 -89.5 36t-31.5 106v130h-86v59h86v141h-86v54l86 15v117l100 17v-135h143l-3 -68h-140v-141h142v-59h-142v-116q0 -80 61 -80q35 0 82 22z" />
    <glyph glyph-name="Utilde" unicode="&#x168;" horiz-adv-x="747" 
d="M722 700v-53l-82 -20v-359q0 -278 -270 -278q-120 0 -178 45.5t-71.5 100.5t-13.5 120v370l-82 16v53l267 5v-53l-82 -21v-370q0 -55 9.5 -94t44.5 -66t107 -27q73 0 109.5 28.5t46.5 70t10 100.5v358l-82 16v53zM203 795q18 50 42 73t56 23q18 0 36.5 -6t43.5 -18
q42 -19 61 -19q18 0 32 10.5t29 34.5l44 -19q-18 -51 -43.5 -74t-58.5 -23q-17 0 -33.5 5.5t-41.5 17.5q-25 11 -38 15.5t-27 4.5q-17 0 -30 -10.5t-28 -34.5z" />
    <glyph glyph-name="utilde" unicode="&#x169;" horiz-adv-x="624" 
d="M527 71l74 -17v-53l-152 -7l-12 83q-46 -43 -96.5 -65t-98.5 -22q-69 0 -111 43.5t-42 126.5v297l-75 17v53l175 6v-356q0 -55 24.5 -82.5t69.5 -27.5q33 0 70.5 17.5t73.5 50.5v322l-75 17v53l175 7v-463zM336.5 652.5q-16.5 6.5 -40.5 20.5q-20 11 -34 17t-28 6
q-37 0 -63 -48l-45 19q35 103 104 103q19 0 36.5 -7t40.5 -20q23 -12 35 -17t26 -5q19 0 34 11.5t30 36.5l44 -18q-35 -105 -104 -105q-19 0 -35.5 6.5z" />
    <glyph glyph-name="Umacron" unicode="&#x16a;" horiz-adv-x="747" 
d="M722 700v-53l-82 -20v-359q0 -278 -270 -278q-120 0 -178 45.5t-71.5 100.5t-13.5 120v370l-82 16v53l267 5v-53l-82 -21v-370q0 -55 9.5 -94t44.5 -66t107 -27q73 0 109.5 28.5t46.5 70t10 100.5v358l-82 16v53zM236 858h277v-71h-277v71z" />
    <glyph glyph-name="umacron" unicode="&#x16b;" horiz-adv-x="624" 
d="M527 71l74 -17v-53l-152 -7l-12 83q-46 -43 -96.5 -65t-98.5 -22q-69 0 -111 43.5t-42 126.5v297l-75 17v53l175 6v-356q0 -55 24.5 -82.5t69.5 -27.5q33 0 70.5 17.5t73.5 50.5v322l-75 17v53l175 7v-463zM163 739h277v-71h-277v71z" />
    <glyph glyph-name="Ubreve" unicode="&#x16c;" horiz-adv-x="747" 
d="M722 700v-53l-82 -20v-359q0 -278 -270 -278q-120 0 -178 45.5t-71.5 100.5t-13.5 120v370l-82 16v53l267 5v-53l-82 -21v-370q0 -55 9.5 -94t44.5 -66t107 -27q73 0 109.5 28.5t46.5 70t10 100.5v358l-82 16v53zM273 798.5q-43 35.5 -44 97.5l60 7q4 -36 30 -55t60 -19
q32 0 56 18.5t27 51.5l59 3q0 -44 -20.5 -75.5t-54.5 -47.5t-72 -16q-58 0 -101 35.5z" />
    <glyph glyph-name="ubreve" unicode="&#x16d;" horiz-adv-x="624" 
d="M527 71l74 -17v-53l-152 -7l-12 83q-46 -43 -96.5 -65t-98.5 -22q-69 0 -111 43.5t-42 126.5v297l-75 17v53l175 6v-356q0 -55 24.5 -82.5t69.5 -27.5q33 0 70.5 17.5t73.5 50.5v322l-75 17v53l175 7v-463zM199.5 668q-39.5 39 -41.5 101l61 7q4 -35 27 -55.5t58 -20.5
q34 0 55 19.5t24 51.5l60 3q1 -64 -38.5 -104.5t-103.5 -40.5q-62 0 -101.5 39z" />
    <glyph glyph-name="Uring" unicode="&#x16e;" horiz-adv-x="747" 
d="M722 700v-53l-82 -20v-359q0 -278 -270 -278q-120 0 -178 45.5t-71.5 100.5t-13.5 120v370l-82 16v53l267 5v-53l-82 -21v-370q0 -55 9.5 -94t44.5 -66t107 -27q73 0 109.5 28.5t46.5 70t10 100.5v358l-82 16v53zM290.5 761q-31.5 29 -31.5 75q0 47 32 76.5t85 29.5
q51 0 82.5 -28.5t31.5 -74.5q0 -47 -32 -77t-85 -30q-51 0 -82.5 29zM413 796.5q14 15.5 14 41.5q0 25 -13.5 40t-38.5 15q-26 0 -39.5 -15.5t-13.5 -40.5t13.5 -40.5t38.5 -15.5t39 15.5z" />
    <glyph glyph-name="uring" unicode="&#x16f;" horiz-adv-x="624" 
d="M527 71l74 -17v-53l-152 -7l-12 83q-46 -43 -96.5 -65t-98.5 -22q-69 0 -111 43.5t-42 126.5v297l-75 17v53l175 6v-356q0 -55 24.5 -82.5t69.5 -27.5q33 0 70.5 17.5t73.5 50.5v322l-75 17v53l175 7v-463zM217.5 643q-31.5 29 -31.5 75q0 47 32 76.5t85 29.5
q51 0 82.5 -28.5t31.5 -74.5q0 -47 -32 -77t-85 -30q-51 0 -82.5 29zM340 678.5q14 15.5 14 41.5q0 25 -13.5 40t-38.5 15q-26 0 -39.5 -15.5t-13.5 -40.5t13.5 -40.5t38.5 -15.5t39 15.5z" />
    <glyph glyph-name="Uhungarumlaut" unicode="&#x170;" horiz-adv-x="747" 
d="M722 700v-53l-82 -20v-359q0 -278 -270 -278q-120 0 -178 45.5t-71.5 100.5t-13.5 120v370l-82 16v53l267 5v-53l-82 -21v-370q0 -55 9.5 -94t44.5 -66t107 -27q73 0 109.5 28.5t46.5 70t10 100.5v358l-82 16v53zM406 909l-92 -166l-54 26l72 175zM557 906l-96 -163
l-53 27l78 174z" />
    <glyph glyph-name="uhungarumlaut" unicode="&#x171;" horiz-adv-x="624" 
d="M527 71l74 -17v-53l-152 -7l-12 83q-46 -43 -96.5 -65t-98.5 -22q-69 0 -111 43.5t-42 126.5v297l-75 17v53l175 6v-356q0 -55 24.5 -82.5t69.5 -27.5q33 0 70.5 17.5t73.5 50.5v322l-75 17v53l175 7v-463zM337 781l-92 -166l-54 26l72 175zM488 778l-96 -163l-53 27
l78 174z" />
    <glyph glyph-name="Uogonek" unicode="&#x172;" horiz-adv-x="747" 
d="M722 700v-53l-82 -20v-359q0 -227 -179 -268q-51 -19 -80 -48t-29 -56q0 -23 20 -37t52 -14q16 0 39 5l6 -58q-39 -13 -74 -13q-52 0 -84.5 25.5t-32.5 69.5q0 30 16.5 60t49.5 57q-108 5 -160 51t-64.5 99t-12.5 115v370l-82 16v53l267 5v-53l-82 -21v-370
q0 -55 9.5 -94t44.5 -66t107 -27q73 0 109.5 28.5t46.5 70t10 100.5v358l-82 16v53z" />
    <glyph glyph-name="uogonek" unicode="&#x173;" horiz-adv-x="624" 
d="M508 -3q-47 -19 -74 -47t-27 -54q0 -23 20 -37t52 -14q16 0 39 5l6 -58q-39 -13 -74 -13q-52 0 -84.5 25.5t-32.5 69.5q0 40 29 78.5t83 67.5l-8 57q-46 -43 -96.5 -65t-98.5 -22q-69 0 -111 43.5t-42 126.5v297l-75 17v53l175 6v-356q0 -55 24.5 -82.5t69.5 -27.5
q33 0 70.5 17.5t73.5 50.5v322l-75 17v53l175 7v-463l74 -17v-53z" />
    <glyph glyph-name="Wcircumflex" unicode="&#x174;" horiz-adv-x="1023" 
d="M767 695l252 5v-53l-76 -18l-178 -630h-98l-157 545l-166 -545h-97l-166 628l-76 15v53l262 5v-53l-82 -19l120 -496l165 564l94 4l158 -567l132 494l-87 15v53zM544 915l149 -128l-35 -41l-141 90l-137 -90l-34 41l140 123z" />
    <glyph glyph-name="wcircumflex" unicode="&#x175;" horiz-adv-x="810" 
d="M610 527l205 7v-53l-55 -14l-131 -469h-109l-113 422l-123 -422h-109l-123 464l-57 12v53l223 7v-53l-72 -14l92 -377l121 438l105 6l115 -448l98 376l-67 12v53zM436 802l146 -138l-36 -39l-137 98l-135 -98l-35 39l139 133z" />
    <glyph glyph-name="Ycircumflex" unicode="&#x176;" horiz-adv-x="643" 
d="M640 647l-73 -18l-196 -379v-178l84 -19v-53h-271v53l85 20v181l-193 372l-73 16v53l264 5v-53l-84 -18l145 -299l148 296l-86 16v53l250 5v-53zM349 915l149 -128l-35 -41l-141 90l-137 -90l-34 41l140 123z" />
    <glyph glyph-name="ycircumflex" unicode="&#x177;" horiz-adv-x="538" 
d="M542 534v-53l-54 -14l-170 -468q-29 -80 -58 -130.5t-73.5 -79.5t-110.5 -29q-28 0 -63 6l9 72q34 -4 46 -4q44 0 72 17.5t48 53t41 96.5l-181 463l-54 10v53l229 7v-53l-74 -14l126 -362l119 358l-72 11v53zM295 802l146 -138l-36 -39l-137 98l-135 -98l-35 39l139 133z
" />
    <glyph glyph-name="Ydieresis" unicode="&#x178;" horiz-adv-x="643" 
d="M640 647l-73 -18l-196 -379v-178l84 -19v-53h-271v53l85 20v181l-193 372l-73 16v53l264 5v-53l-84 -18l145 -299l148 296l-86 16v53l250 5v-53zM181.5 780.5q-14.5 15.5 -15.5 43.5q0 27 15.5 43.5t39.5 16.5q25 0 40 -16t15 -44q0 -27 -16 -43t-39 -16
q-25 0 -39.5 15.5zM386 781q-14 16 -14 45q0 26 16 42t39 16q25 0 40 -16t15 -44q0 -27 -16 -43t-39 -16q-27 0 -41 16z" />
    <glyph glyph-name="Zacute" unicode="&#x179;" horiz-adv-x="619" 
d="M490 76l18 107h62l-2 -183h-527v69l404 555h-301l-19 -107h-61v183h501v-68l-400 -556h325zM443 848l-222 -97l-30 55l211 122z" />
    <glyph glyph-name="zacute" unicode="&#x17a;" horiz-adv-x="489" 
d="M386 153h62l1 -152l-411 -1v59l290 402h-210l-11 -73h-61l-1 142h395v-60l-287 -401h217zM391 742l-209 -127l-36 50l191 150z" />
    <glyph glyph-name="Zdotaccent" unicode="&#x17b;" horiz-adv-x="619" 
d="M490 76l18 107h62l-2 -183h-527v69l404 555h-301l-19 -107h-61v183h501v-68l-400 -556h325zM265 781q-17 17 -17 48t17.5 48t45.5 17t45.5 -17t17.5 -48t-17.5 -48t-46.5 -17q-28 0 -45 17z" />
    <glyph glyph-name="zdotaccent" unicode="&#x17c;" horiz-adv-x="489" 
d="M386 153h62l1 -152l-411 -1v59l290 402h-210l-11 -73h-61l-1 142h395v-60l-287 -401h217zM198 648q-17 17 -17 48t17.5 48t45.5 17t45.5 -17t17.5 -48t-17.5 -48t-46.5 -17q-28 0 -45 17z" />
    <glyph glyph-name="Zcaron" unicode="&#x17d;" horiz-adv-x="619" 
d="M490 76l18 107h62l-2 -183h-527v69l404 555h-301l-19 -107h-61v183h501v-68l-400 -556h325zM312 835l137 89l34 -41l-140 -122l-58 -5l-149 127l35 41z" />
    <glyph glyph-name="zcaron" unicode="&#x17e;" horiz-adv-x="489" 
d="M386 153h62l1 -152l-411 -1v59l290 402h-210l-11 -73h-61l-1 142h395v-60l-287 -401h217zM245 706l132 97l34 -39l-135 -133l-58 -5l-143 138l35 39z" />
    <glyph glyph-name="longs" unicode="&#x17f;" horiz-adv-x="354" 
d="M409 761l-15 -68q-48 15 -82 15q-49 0 -76.5 -27.5t-27.5 -83.5v-526l90 -18v-53h-264v53l74 17v518q0 96 50 144t138 48q52 0 113 -19z" />
    <glyph glyph-name="uni018F" unicode="&#x18f;" horiz-adv-x="687" 
d="M488 669.5q67 -40.5 106 -119.5t39 -189q0 -120 -41.5 -203.5t-111.5 -125.5t-153 -42q-78 0 -140.5 35.5t-98.5 106t-36 170.5q0 40 4 68h468q-4 123 -60.5 189.5t-148.5 66.5q-101 0 -216 -76l-41 60q70 50 141 75t137 25q85 0 152 -40.5zM459.5 124q50.5 54 61.5 166
h-359q3 -109 49 -164.5t122 -55.5t126.5 54z" />
    <glyph glyph-name="florin" unicode="&#x192;" horiz-adv-x="546" 
d="M372.5 678q-22.5 -26 -27.5 -85l-14 -147h137l-2 -63h-141l-34 -387q-18 -200 -189 -200q-36 0 -76 9l9 71q29 -3 49 -3q57 0 79 25.5t28 83.5l36 401h-81v55l87 9l12 135q9 105 56 151.5t130 46.5q35 0 78 -8l-8 -71q-27 3 -49 3q-57 0 -79.5 -26z" />
    <glyph glyph-name="Ohorn" unicode="&#x1a0;" horiz-adv-x="753" 
d="M659.5 525q27.5 -70 27.5 -163q0 -115 -42 -199t-116.5 -128.5t-169.5 -44.5q-90 0 -159 40t-107.5 119.5t-38.5 192.5q0 119 41.5 202t114.5 124.5t166 41.5q72 0 130 -24q54 2 82.5 20.5t28.5 51.5q0 26 -15 66l75 17q22 -51 22 -90q0 -44 -31 -72.5t-87 -38.5
q51 -45 78.5 -115zM518 141q59 71 59 216q0 138 -55.5 205.5t-149.5 67.5t-151 -69t-57 -215q0 -139 55 -207.5t147 -68.5q93 0 152 71z" />
    <glyph glyph-name="ohorn" unicode="&#x1a1;" horiz-adv-x="578" 
d="M535 276q0 -132 -68.5 -209t-190.5 -77q-110 0 -172 68.5t-62 194.5q0 134 67 210.5t186 76.5q47 0 89 -14q46 2 67.5 17.5t21.5 46.5q0 29 -15 68l75 18q22 -51 22 -91t-24.5 -66t-71.5 -37q76 -70 76 -206zM392.5 116.5q37.5 53.5 37.5 154.5q0 97 -35.5 146.5
t-104.5 49.5q-70 0 -107 -53.5t-37 -154.5q0 -196 137 -196q72 0 109.5 53.5z" />
    <glyph glyph-name="Uhorn" unicode="&#x1af;" horiz-adv-x="748" 
d="M718 680.5q-27 -28.5 -78 -35.5v-377q0 -141 -65 -209.5t-207 -68.5q-136 0 -198.5 64.5t-62.5 201.5v370l-82 16v53l267 5v-53l-82 -21v-370q0 -99 35 -143t125 -44q65 0 101.5 22t51 65t14.5 112v358l-82 16v53l138 3q70 1 70 57q0 24 -15 69l74 17q23 -51 23 -89
q0 -43 -27 -71.5z" />
    <glyph glyph-name="uhorn" unicode="&#x1b0;" horiz-adv-x="640" 
d="M527 71l74 -17v-53l-152 -7l-12 83q-46 -43 -96.5 -65t-98.5 -22q-69 0 -111 43.5t-42 126.5v297l-75 17v53l175 6v-356q0 -55 24.5 -82.5t69.5 -27.5q33 0 70.5 17.5t73.5 50.5v322l-75 17v53l118 5q35 2 51 15t16 41t-15 70l75 18q22 -51 22 -90q0 -41 -24 -67t-68 -34
v-414z" />
    <glyph glyph-name="uni01C4" unicode="&#x1c4;" horiz-adv-x="1307" 
d="M348 700q94 0 165 -37.5t110.5 -113.5t39.5 -188q0 -116 -42 -197t-116.5 -122.5t-173.5 -41.5h-286v53l82 19v552l-82 18v53l201 5h102zM335 75q95 0 156.5 63.5t61.5 215.5q0 148 -58.5 209.5t-148.5 61.5h-117v-550h106zM1178 76l18 107h62l-2 -183h-527v69l404 555
h-301l-19 -107h-61v183h501v-68l-400 -556h325zM1000 835l137 89l34 -41l-140 -122l-58 -5l-149 127l35 41z" />
    <glyph glyph-name="uni01C5" unicode="&#x1c5;" horiz-adv-x="1205" 
d="M348 700q94 0 165 -37.5t110.5 -113.5t39.5 -188q0 -116 -42 -197t-116.5 -122.5t-173.5 -41.5h-286v53l82 19v552l-82 18v53l201 5h102zM335 75q95 0 156.5 63.5t61.5 215.5q0 148 -58.5 209.5t-148.5 61.5h-117v-550h106zM1102 153h62l1 -152l-411 -1v59l290 402h-210
l-11 -73h-61l-1 142h395v-60l-287 -401h217zM961 706l132 97l34 -39l-135 -133l-58 -5l-143 138l35 39z" />
    <glyph glyph-name="uni01C6" unicode="&#x1c6;" horiz-adv-x="1085" 
d="M501 72l75 -18v-53l-152 -7l-12 73q-83 -77 -172 -77q-57 0 -101.5 31t-70 91t-25.5 144q0 140 71 212t201 72q43 0 86 -10v164l-79 20v53l179 7v-702zM182.5 118.5q35.5 -53.5 94.5 -53.5q61 0 124 56v333q-52 13 -89 13q-81 0 -123 -53t-42 -149q0 -93 35.5 -146.5z
M983 153h62l1 -152l-411 -1v59l290 402h-210l-11 -73h-61l-1 142h395v-60l-287 -401h217zM842 706l132 97l34 -39l-135 -133l-58 -5l-143 138l35 39z" />
    <glyph glyph-name="uni01C7" unicode="&#x1c7;" horiz-adv-x="883" 
d="M451 75l17 114h62v-189h-485v53l82 19v553l-82 17v53l276 5v-53l-92 -22v-550h222zM849 700v-52l-82 -22v-554q0 -112 -42.5 -168t-141.5 -56q-29 0 -64 6l9 74q18 -3 34 -3q55 0 79 30.5t24 96.5v574l-90 16v53z" />
    <glyph glyph-name="uni01C8" unicode="&#x1c8;" horiz-adv-x="832" 
d="M451 75l17 114h62v-189h-485v53l82 19v553l-82 17v53l276 5v-53l-92 -22v-550h222zM576 527l175 6v-555q0 -111 -46.5 -164.5t-141.5 -53.5q-22 0 -55 5l8 72q28 -2 37 -2q53 0 75.5 25.5t22.5 86.5v510l-75 17v53zM647 648q-17 17 -17 48t17.5 48t45.5 17t45.5 -17
t17.5 -48t-17.5 -48t-46.5 -17q-28 0 -45 17z" />
    <glyph glyph-name="uni01C9" unicode="&#x1c9;" horiz-adv-x="565" 
d="M196 774v-703l74 -18v-53h-249v53l75 18v626l-75 17v53zM308 527l175 6v-555q0 -111 -46.5 -164.5t-141.5 -53.5q-22 0 -55 5l8 72q28 -2 37 -2q53 0 75.5 25.5t22.5 86.5v510l-75 17v53zM379 648q-17 17 -17 48t17.5 48t45.5 17t45.5 -17t17.5 -48t-17.5 -48t-46.5 -17
q-28 0 -45 17z" />
    <glyph glyph-name="uni01CA" unicode="&#x1ca;" horiz-adv-x="1120" 
d="M503 695l250 5v-53l-82 -21v-626h-116l-342 567v-495l82 -19v-53h-250v53l82 19v553l-82 17v53l204 5l336 -556v482l-82 16v53zM1086 700v-52l-82 -22v-554q0 -112 -42.5 -168t-141.5 -56q-29 0 -64 6l9 74q18 -3 34 -3q55 0 79 30.5t24 96.5v574l-90 16v53z" />
    <glyph glyph-name="uni01CB" unicode="&#x1cb;" horiz-adv-x="1050" 
d="M503 695l250 5v-53l-82 -21v-626h-116l-342 567v-495l82 -19v-53h-250v53l82 19v553l-82 17v53l204 5l336 -556v482l-82 16v53zM793 527l175 6v-555q0 -111 -46.5 -164.5t-141.5 -53.5q-22 0 -55 5l8 72q28 -2 37 -2q53 0 75.5 25.5t22.5 86.5v510l-75 17v53zM864 648
q-17 17 -17 48t17.5 48t45.5 17t45.5 -17t17.5 -48t-17.5 -48t-46.5 -17q-28 0 -45 17z" />
    <glyph glyph-name="uni01CC" unicode="&#x1cc;" horiz-adv-x="915" 
d="M548 70l74 -17v-53h-244v53l70 17v281q0 56 -25.5 84t-69.5 28q-33 0 -70.5 -17t-73.5 -51v-326l70 -16v-53h-244v53l74 18v385l-74 18v53l152 7l11 -81q46 43 97.5 65t98.5 22q70 0 112.5 -43t41.5 -125v-302zM658 527l175 6v-555q0 -111 -46.5 -164.5t-141.5 -53.5
q-22 0 -55 5l8 72q28 -2 37 -2q53 0 75.5 25.5t22.5 86.5v510l-75 17v53zM729 648q-17 17 -17 48t17.5 48t45.5 17t45.5 -17t17.5 -48t-17.5 -48t-46.5 -17q-28 0 -45 17z" />
    <glyph glyph-name="uni01CD" unicode="&#x1cd;" horiz-adv-x="710" 
d="M414 702l221 -631l71 -18v-53h-269v53l84 18l-40 123h-269l-43 -123l86 -18v-53h-251v53l70 17l235 629zM460 267l-106 339l-118 -339h224zM363 835l137 89l34 -41l-140 -122l-58 -5l-149 127l35 41z" />
    <glyph glyph-name="uni01CE" unicode="&#x1ce;" horiz-adv-x="551" 
d="M459 72l75 -18v-53l-152 -7l-13 86q-40 -44 -88.5 -67t-94.5 -23q-61 0 -101 39.5t-40 112.5q0 82 51.5 116.5t149.5 34.5h113v75q0 97 -102 97q-42 0 -99 -17l-10 -79h-66l-8 133q123 38 208 38q177 0 177 -154v-314zM166 86q20 -21 54 -21q30 0 67 18.5t72 50.5v95h-97
q-64 0 -90 -19.5t-26 -60.5q0 -42 20 -63zM270 706l132 97l34 -39l-135 -133l-58 -5l-143 138l35 39z" />
    <glyph glyph-name="uni01CF" unicode="&#x1cf;" horiz-adv-x="355" 
d="M311 700v-53l-82 -21v-554l82 -19v-53h-266v53l82 19v553l-82 17v53zM179 835l137 89l34 -41l-140 -122l-58 -5l-149 127l35 41z" />
    <glyph glyph-name="uni01D0" unicode="&#x1d0;" horiz-adv-x="305" 
d="M209 533v-462l75 -18v-53h-249v53l74 18v386l-74 17v53zM156 710l112 93l37 -39l-118 -133l-58 -5l-126 138l38 39z" />
    <glyph glyph-name="uni01D1" unicode="&#x1d1;" horiz-adv-x="741" 
d="M200 30q-69 40 -107.5 119.5t-38.5 192.5q0 119 41.5 202t114.5 124.5t166 41.5q91 0 161 -39.5t110 -118t40 -190.5q0 -115 -42 -199t-116.5 -128.5t-169.5 -44.5q-90 0 -159 40zM518 141q59 71 59 216q0 138 -55.5 205.5t-149.5 67.5t-151 -69t-57 -215
q0 -139 55 -207.5t147 -68.5q93 0 152 71zM376 835l137 89l34 -41l-140 -122l-58 -5l-149 127l35 41z" />
    <glyph glyph-name="uni01D2" unicode="&#x1d2;" horiz-adv-x="576" 
d="M471 470q64 -70 64 -196q0 -87 -31 -151t-89 -98.5t-138 -34.5q-112 0 -173.5 68.5t-61.5 195.5q0 133 67 209.5t186 76.5q112 0 176 -70zM183 413.5q-37 -53.5 -37 -154.5q0 -196 137 -196q72 0 109.5 53.5t37.5 152.5q0 98 -35.5 148t-104.5 50q-70 0 -107 -53.5z
M289 706l132 97l34 -39l-135 -133l-58 -5l-143 138l35 39z" />
    <glyph glyph-name="uni01D3" unicode="&#x1d3;" horiz-adv-x="747" 
d="M722 700v-53l-82 -20v-359q0 -278 -270 -278q-120 0 -178 45.5t-71.5 100.5t-13.5 120v370l-82 16v53l267 5v-53l-82 -21v-370q0 -55 9.5 -94t44.5 -66t107 -27q73 0 109.5 28.5t46.5 70t10 100.5v358l-82 16v53zM376 835l137 89l34 -41l-140 -122l-58 -5l-149 127l35 41
z" />
    <glyph glyph-name="uni01D4" unicode="&#x1d4;" horiz-adv-x="624" 
d="M527 71l74 -17v-53l-152 -7l-12 83q-46 -43 -96.5 -65t-98.5 -22q-69 0 -111 43.5t-42 126.5v297l-75 17v53l175 6v-356q0 -55 24.5 -82.5t69.5 -27.5q33 0 70.5 17.5t73.5 50.5v322l-75 17v53l175 7v-463zM302 706l132 97l34 -39l-135 -133l-58 -5l-143 138l35 39z" />
    <glyph glyph-name="uni01D5" unicode="&#x1d5;" horiz-adv-x="747" 
d="M722 700v-53l-82 -20v-359q0 -278 -270 -278q-120 0 -178 45.5t-71.5 100.5t-13.5 120v370l-82 16v53l267 5v-53l-82 -21v-370q0 -55 9.5 -94t44.5 -66t107 -27q73 0 109.5 28.5t46.5 70t10 100.5v358l-82 16v53zM232.5 764.5q-14.5 15.5 -15.5 43.5q0 27 15.5 43.5
t39.5 16.5q25 0 40 -16t15 -44q0 -27 -16 -43t-39 -16q-25 0 -39.5 15.5zM437 765q-14 16 -14 45q0 26 16 42t39 16q25 0 40 -16t15 -44q0 -27 -16 -43t-39 -16q-27 0 -41 16zM236 983h277v-71h-277v71z" />
    <glyph glyph-name="uni01D6" unicode="&#x1d6;" horiz-adv-x="624" 
d="M527 71l74 -17v-53l-152 -7l-12 83q-46 -43 -96.5 -65t-98.5 -22q-69 0 -111 43.5t-42 126.5v297l-75 17v53l175 6v-356q0 -55 24.5 -82.5t69.5 -27.5q33 0 70.5 17.5t73.5 50.5v322l-75 17v53l175 7v-463zM158.5 619.5q-14.5 15.5 -15.5 43.5q0 27 15.5 43.5t39.5 16.5
q25 0 40 -16t15 -44q0 -27 -16 -43t-39 -16q-25 0 -39.5 15.5zM363 620q-14 16 -14 45q0 26 16 42t39 16q25 0 40 -16t15 -44q0 -27 -16 -43t-39 -16q-27 0 -41 16zM163 843h277v-71h-277v71z" />
    <glyph glyph-name="uni01D7" unicode="&#x1d7;" horiz-adv-x="747" 
d="M722 700v-53l-82 -20v-359q0 -278 -270 -278q-120 0 -178 45.5t-71.5 100.5t-13.5 120v370l-82 16v53l267 5v-53l-82 -21v-370q0 -55 9.5 -94t44.5 -66t107 -27q73 0 109.5 28.5t46.5 70t10 100.5v358l-82 16v53zM510 950l-144 -123l-41 42l128 137zM221 761
q-14 16 -14 45q0 26 15.5 42t38.5 16q26 0 41 -16t15 -44q0 -27 -16 -43t-40 -16q-26 0 -40 16zM445 760.5q-14 15.5 -15 43.5q0 27 15.5 43.5t39.5 16.5q25 0 40 -16t15 -44q0 -27 -16 -43t-39 -16q-26 0 -40 15.5z" />
    <glyph glyph-name="uni01D8" unicode="&#x1d8;" horiz-adv-x="624" 
d="M527 71l74 -17v-53l-152 -7l-12 83q-46 -43 -96.5 -65t-98.5 -22q-69 0 -111 43.5t-42 126.5v297l-75 17v53l175 6v-356q0 -55 24.5 -82.5t69.5 -27.5q33 0 70.5 17.5t73.5 50.5v322l-75 17v53l175 7v-463zM440 814l-144 -123l-41 41l128 138zM151 620q-14 16 -14 45
q0 26 15.5 42t38.5 16q26 0 41 -16t15 -44q0 -27 -16.5 -43t-39.5 -16q-26 0 -40 16zM370.5 619.5q-14.5 15.5 -15.5 43.5q0 27 15.5 43.5t39.5 16.5q25 0 40 -16t15 -44q0 -27 -15.5 -43t-39.5 -16q-25 0 -39.5 15.5z" />
    <glyph glyph-name="uni01D9" unicode="&#x1d9;" horiz-adv-x="747" 
d="M722 700v-53l-82 -20v-359q0 -278 -270 -278q-120 0 -178 45.5t-71.5 100.5t-13.5 120v370l-82 16v53l267 5v-53l-82 -21v-370q0 -55 9.5 -94t44.5 -66t107 -27q73 0 109.5 28.5t46.5 70t10 100.5v358l-82 16v53zM378 912l139 93l30 -42l-145 -121l-45 -5l-150 129l31 39
zM288 848q15 -16 15 -44q0 -27 -16.5 -43t-39.5 -16q-26 0 -40 16t-14 45q0 26 15.5 42t38.5 16q26 0 41 -16zM543 848q15 -16 15 -44q0 -27 -16 -43t-40 -16q-26 0 -40 16t-14 45q0 26 15.5 42t38.5 16q26 0 41 -16z" />
    <glyph glyph-name="uni01DA" unicode="&#x1da;" horiz-adv-x="624" 
d="M527 71l74 -17v-53l-152 -7l-12 83q-46 -43 -96.5 -65t-98.5 -22q-69 0 -111 43.5t-42 126.5v297l-75 17v53l175 6v-356q0 -55 24.5 -82.5t69.5 -27.5q33 0 70.5 17.5t73.5 50.5v322l-75 17v53l175 7v-463zM303 784l138 89l34 -41l-140 -122l-58 -5l-149 127l35 41z
M225 707q15 -16 15 -44q0 -27 -16 -43t-39 -16q-26 0 -40 15.5t-15 43.5q0 27 15.5 43.5t39.5 16.5q25 0 40 -16zM457 707q15 -16 15 -44q0 -27 -16 -43t-39 -16q-27 0 -41 16t-14 45q0 26 16 42t39 16q25 0 40 -16z" />
    <glyph glyph-name="uni01DB" unicode="&#x1db;" horiz-adv-x="747" 
d="M722 700v-53l-82 -20v-359q0 -278 -270 -278q-120 0 -178 45.5t-71.5 100.5t-13.5 120v370l-82 16v53l267 5v-53l-82 -21v-370q0 -55 9.5 -94t44.5 -66t107 -27q73 0 109.5 28.5t46.5 70t10 100.5v358l-82 16v53zM425 868l-42 -41l-143 122l57 57zM221 761q-14 16 -14 45
q0 26 15.5 42t38.5 16q26 0 41 -16t15 -44q0 -27 -16 -43t-40 -16q-26 0 -40 16zM445 760.5q-14 15.5 -15 43.5q0 27 15.5 43.5t39.5 16.5q25 0 40 -16t15 -44q0 -27 -16 -43t-39 -16q-26 0 -40 15.5z" />
    <glyph glyph-name="uni01DC" unicode="&#x1dc;" horiz-adv-x="624" 
d="M527 71l74 -17v-53l-152 -7l-12 83q-46 -43 -96.5 -65t-98.5 -22q-69 0 -111 43.5t-42 126.5v297l-75 17v53l175 6v-356q0 -55 24.5 -82.5t69.5 -27.5q33 0 70.5 17.5t73.5 50.5v322l-75 17v53l175 7v-463zM348 731l-42 -40l-143 121l57 58zM151 620q-14 16 -14 45
q0 26 15.5 42t38.5 16q26 0 41 -16t15 -44q0 -27 -16.5 -43t-39.5 -16q-26 0 -40 16zM370.5 619.5q-14.5 15.5 -15.5 43.5q0 27 15.5 43.5t39.5 16.5q25 0 40 -16t15 -44q0 -27 -15.5 -43t-39.5 -16q-25 0 -39.5 15.5z" />
    <glyph glyph-name="Gcaron" unicode="&#x1e6;" horiz-adv-x="731" 
d="M702 343v-55l-79 -18v-225q-130 -54 -247 -54q-98 0 -170.5 40.5t-112 119.5t-39.5 193q0 115 40 197t115 125.5t179 43.5q116 0 238 -52l-8 -163h-61l-18 109q-80 26 -147 26q-107 0 -167.5 -74t-60.5 -210q0 -131 59 -203t166 -72q66 0 138 26v174l-82 12v55zM377 835
l137 89l34 -41l-140 -122l-58 -5l-149 127l35 41z" />
    <glyph glyph-name="gcaron" unicode="&#x1e7;" horiz-adv-x="564" 
d="M338 78q98 0 148.5 -37.5t50.5 -109.5q0 -84 -69.5 -127.5t-205.5 -43.5q-118 0 -177.5 33.5t-59.5 97.5q0 78 92 126q-41 13 -41 48q0 14 9.5 36t45.5 92q-41 23 -63 63t-22 92q0 89 59.5 140.5t164.5 51.5q63 0 112 -19l147 6l1 -59l-72 -14q30 -39 30 -98
q0 -89 -61 -141t-162 -52q-44 0 -83 11l-18 -96h174zM178.5 440q-31.5 -31 -31.5 -89t30 -88.5t87 -30.5q59 0 91.5 31.5t32.5 90.5q0 58 -30.5 87.5t-88.5 29.5q-59 0 -90.5 -31zM399.5 -143.5q41.5 21.5 41.5 66.5q0 39 -30 59t-89 20h-147q-62 -42 -62 -91
q0 -38 38.5 -57t119.5 -19q87 0 128.5 21.5zM263 706l132 97l34 -39l-135 -133l-58 -5l-143 138l35 39z" />
    <glyph glyph-name="uni01EA" unicode="&#x1ea;" horiz-adv-x="741" 
d="M361.5 -48.5q-28.5 -28.5 -28.5 -55.5q0 -23 20 -37t52 -14q16 0 39 5l6 -58q-39 -13 -74 -13q-52 0 -84.5 25.5t-32.5 69.5q0 30 17 60.5t50 56.5q-81 7 -142.5 49.5t-95.5 119t-34 182.5q0 119 41.5 202t114.5 124.5t166 41.5q91 0 161 -39.5t110 -118t40 -190.5
q0 -147 -67 -242t-180 -121q-50 -19 -78.5 -47.5zM219 138.5q55 -68.5 147 -68.5q93 0 152 71t59 216q0 138 -55.5 205.5t-149.5 67.5t-151 -69t-57 -215q0 -139 55 -207.5z" />
    <glyph glyph-name="uni01EB" unicode="&#x1eb;" horiz-adv-x="576" 
d="M273.5 -48.5q-28.5 -28.5 -28.5 -55.5q0 -23 20 -37t52 -14q16 0 39 5l6 -58q-39 -13 -74 -13q-52 0 -84.5 25.5t-32.5 69.5q0 31 17.5 61.5t50.5 56.5q-94 11 -145.5 78.5t-51.5 183.5q0 133 67 209.5t186 76.5q112 0 176 -70t64 -196q0 -109 -48 -180.5t-134 -94.5
q-51 -19 -79.5 -47.5zM283 63q72 0 109.5 53.5t37.5 152.5q0 98 -35.5 148t-104.5 50q-70 0 -107 -53.5t-37 -154.5q0 -196 137 -196z" />
    <glyph glyph-name="uni01F1" unicode="&#x1f1;" horiz-adv-x="1307" 
d="M348 700q94 0 165 -37.5t110.5 -113.5t39.5 -188q0 -116 -42 -197t-116.5 -122.5t-173.5 -41.5h-286v53l82 19v552l-82 18v53l201 5h102zM335 75q95 0 156.5 63.5t61.5 215.5q0 148 -58.5 209.5t-148.5 61.5h-117v-550h106zM1178 76l18 107h62l-2 -183h-527v69l404 555
h-301l-19 -107h-61v183h501v-68l-400 -556h325z" />
    <glyph glyph-name="uni01F2" unicode="&#x1f2;" horiz-adv-x="1205" 
d="M348 700q94 0 165 -37.5t110.5 -113.5t39.5 -188q0 -116 -42 -197t-116.5 -122.5t-173.5 -41.5h-286v53l82 19v552l-82 18v53l201 5h102zM335 75q95 0 156.5 63.5t61.5 215.5q0 148 -58.5 209.5t-148.5 61.5h-117v-550h106zM1102 153h62l1 -152l-411 -1v59l290 402h-210
l-11 -73h-61l-1 142h395v-60l-287 -401h217z" />
    <glyph glyph-name="uni01F3" unicode="&#x1f3;" horiz-adv-x="1085" 
d="M501 72l75 -18v-53l-152 -7l-12 73q-83 -77 -172 -77q-57 0 -101.5 31t-70 91t-25.5 144q0 140 71 212t201 72q43 0 86 -10v164l-79 20v53l179 7v-702zM182.5 118.5q35.5 -53.5 94.5 -53.5q61 0 124 56v333q-52 13 -89 13q-81 0 -123 -53t-42 -149q0 -93 35.5 -146.5z
M983 153h62l1 -152l-411 -1v59l290 402h-210l-11 -73h-61l-1 142h395v-60l-287 -401h217z" />
    <glyph glyph-name="Aringacute" unicode="&#x1fa;" horiz-adv-x="710" 
d="M414 702l221 -631l71 -18v-53h-269v53l84 18l-40 123h-269l-43 -123l86 -18v-53h-251v53l70 17l235 629zM460 267l-106 339l-118 -339h224zM481 1022l-225 -88l-28 57l215 113zM278.5 757q-31.5 29 -31.5 75q0 47 32 76.5t85 29.5q51 0 82 -28.5t31 -74.5
q0 -47 -31.5 -77t-84.5 -30q-51 0 -82.5 29zM400 792.5q14 15.5 14 41.5q0 25 -13.5 40t-38.5 15t-38.5 -15.5t-13.5 -40.5q0 -26 13 -41t38 -15t39 15.5z" />
    <glyph glyph-name="aringacute" unicode="&#x1fb;" horiz-adv-x="551" 
d="M459 72l75 -18v-53l-152 -7l-13 86q-40 -44 -88.5 -67t-94.5 -23q-61 0 -101 39.5t-40 112.5q0 82 51.5 116.5t149.5 34.5h113v75q0 97 -102 97q-42 0 -99 -17l-10 -79h-66l-8 133q123 38 208 38q177 0 177 -154v-314zM166 86q20 -21 54 -21q30 0 67 18.5t72 50.5v95h-97
q-64 0 -90 -19.5t-26 -60.5q0 -42 20 -63zM388 873l-225 -88l-28 57l215 113zM185.5 608q-31.5 29 -31.5 75q0 47 32 76.5t85 29.5q51 0 82 -28.5t31 -74.5q0 -47 -31.5 -77t-84.5 -30q-51 0 -82.5 29zM307 643.5q14 15.5 14 41.5q0 25 -13.5 40t-38.5 15t-38.5 -15.5
t-13.5 -40.5q0 -26 13 -41t38 -15t39 15.5z" />
    <glyph glyph-name="AEacute" unicode="&#x1fc;" horiz-adv-x="945" 
d="M805 75l17 97h61l-1 -172h-501v53l78 20v137h-221l-69 -139l83 -18v-53h-252v53l72 17l276 555l-80 17v53l203 5h399v-165h-61l-16 90h-232v-224h235v-73h-235v-253h244zM441 625l-170 -342h188v342h-18zM696 848l-222 -97l-30 55l211 122z" />
    <glyph glyph-name="aeacute" unicode="&#x1fd;" horiz-adv-x="863" 
d="M781 123l35 -56q-112 -77 -223 -77q-61 0 -108.5 26t-75.5 73q-41 -49 -94 -74.5t-107 -25.5q-69 0 -116 41t-47 113q0 80 48.5 120.5t148.5 40.5h120v64q0 98 -102 98q-47 0 -107 -19l-10 -73h-63l-8 128q114 38 200 38q67 0 106.5 -25t47.5 -74l1 -5q28 50 76 77
t108 27q99 0 154 -62.5t55 -174.5q0 -43 -5 -68h-351q4 -78 45 -123.5t107 -45.5q77 0 165 57zM505 424.5q-36 -42.5 -41 -120.5h252q-1 83 -29.5 123t-85.5 40q-60 0 -96 -42.5zM309.5 81q36.5 18 65.5 51q-12 43 -13 103h-100q-65 0 -90.5 -16t-25.5 -63q0 -45 26 -69
t67 -24q34 0 70.5 18zM581 742l-209 -127l-36 50l191 150z" />
    <glyph glyph-name="Oslashacute" unicode="&#x1fe;" horiz-adv-x="742" 
d="M587 635q49 -44 75.5 -113t26.5 -160q0 -115 -42 -199t-116.5 -128.5t-170.5 -44.5q-88 0 -156 38l-65 -104l-55 33l69 110q-47 45 -72.5 114.5t-25.5 160.5q0 119 41.5 202t114.5 124.5t167 41.5q88 0 158 -38l64 102l55 -32zM222.5 561q-57.5 -69 -57.5 -215
q0 -123 45 -193l280 442q-48 35 -117 35q-93 0 -150.5 -69zM520 141q59 71 59 216q0 124 -48 194l-280 -444q49 -37 116 -37q94 0 153 71zM507 848l-222 -97l-30 55l211 122z" />
    <glyph glyph-name="oslashacute" unicode="&#x1ff;" horiz-adv-x="579" 
d="M462 482q75 -72 75 -208q0 -87 -31 -151t-89 -98.5t-137 -34.5q-62 0 -109 21l-61 -99l-53 31l63 102q-37 33 -56.5 86t-19.5 123q0 133 67 209.5t186 76.5q67 0 115 -24l64 102l52 -30zM185 413.5q-37 -53.5 -37 -154.5q0 -88 27 -136l198 319q-31 25 -81 25
q-70 0 -107 -53.5zM395 116.5q38 53.5 38 152.5q0 85 -27 133l-196 -318q30 -21 75 -21q72 0 110 53.5zM436 742l-209 -127l-36 50l191 150z" />
    <glyph glyph-name="uni0200" unicode="&#x200;" horiz-adv-x="710" 
d="M414 702l221 -631l71 -18v-53h-269v53l84 18l-40 123h-269l-43 -123l86 -18v-53h-251v53l70 17l235 629zM460 267l-106 339l-118 -339h224zM336 770l-53 -27l-97 163l72 38zM484 769l-54 -26l-92 166l73 35z" />
    <glyph glyph-name="uni0201" unicode="&#x201;" horiz-adv-x="551" 
d="M459 72l75 -18v-53l-152 -7l-13 86q-40 -44 -88.5 -67t-94.5 -23q-61 0 -101 39.5t-40 112.5q0 82 51.5 116.5t149.5 34.5h113v75q0 97 -102 97q-42 0 -99 -17l-10 -79h-66l-8 133q123 38 208 38q177 0 177 -154v-314zM166 86q20 -21 54 -21q30 0 67 18.5t72 50.5v95h-97
q-64 0 -90 -19.5t-26 -60.5q0 -42 20 -63zM231 642l-53 -27l-96 163l71 38zM379 641l-54 -26l-92 166l73 35z" />
    <glyph glyph-name="uni0202" unicode="&#x202;" horiz-adv-x="710" 
d="M414 702l221 -631l71 -18v-53h-269v53l84 18l-40 123h-269l-43 -123l86 -18v-53h-251v53l70 17l235 629zM460 267l-106 339l-118 -339h224zM463 861q40 -39 42 -101l-62 -7q-4 35 -27 55.5t-58 20.5q-34 0 -55 -19.5t-24 -52.5l-60 -2q-1 64 38.5 104.5t103.5 40.5
q62 0 102 -39z" />
    <glyph glyph-name="uni0203" unicode="&#x203;" horiz-adv-x="551" 
d="M459 72l75 -18v-53l-152 -7l-13 86q-40 -44 -88.5 -67t-94.5 -23q-61 0 -101 39.5t-40 112.5q0 82 51.5 116.5t149.5 34.5h113v75q0 97 -102 97q-42 0 -99 -17l-10 -79h-66l-8 133q123 38 208 38q177 0 177 -154v-314zM166 86q20 -21 54 -21q30 0 67 18.5t72 50.5v95h-97
q-64 0 -90 -19.5t-26 -60.5q0 -42 20 -63zM370 730q40 -39 42 -101l-62 -7q-4 35 -27 55.5t-58 20.5q-34 0 -55 -19.5t-24 -52.5l-60 -2q-1 64 38.5 104.5t103.5 40.5q62 0 102 -39z" />
    <glyph glyph-name="uni0204" unicode="&#x204;" horiz-adv-x="617" 
d="M478 75l16 97h62l-1 -172h-510v53l82 19v553l-82 17v53l182 5h316v-165h-61l-16 90h-237v-231h240v-73h-240v-246h249zM292 770l-53 -27l-97 163l72 38zM440 769l-54 -26l-92 166l73 35z" />
    <glyph glyph-name="uni0205" unicode="&#x205;" horiz-adv-x="547" 
d="M466 122l35 -55q-111 -77 -225 -77q-106 0 -169.5 69.5t-63.5 196.5q0 87 30.5 151t87 98.5t132.5 34.5q105 0 158 -63.5t53 -168.5q0 -27 -4 -56h-354q4 -86 43 -136t111 -50q78 0 166 56zM193.5 426.5q-34.5 -38.5 -44.5 -105.5h252q0 64 -28.5 104t-87.5 40
q-57 0 -91.5 -38.5zM246 642l-53 -27l-96 163l71 38zM394 641l-54 -26l-92 166l73 35z" />
    <glyph glyph-name="uni0206" unicode="&#x206;" horiz-adv-x="617" 
d="M478 75l16 97h62l-1 -172h-510v53l82 19v553l-82 17v53l182 5h316v-165h-61l-16 90h-237v-231h240v-73h-240v-246h249zM419 861q40 -39 42 -101l-62 -7q-4 35 -27 55.5t-58 20.5q-34 0 -55 -19.5t-24 -52.5l-60 -2q-1 64 38.5 104.5t103.5 40.5q62 0 102 -39z" />
    <glyph glyph-name="uni0207" unicode="&#x207;" horiz-adv-x="547" 
d="M466 122l35 -55q-111 -77 -225 -77q-106 0 -169.5 69.5t-63.5 196.5q0 87 30.5 151t87 98.5t132.5 34.5q105 0 158 -63.5t53 -168.5q0 -27 -4 -56h-354q4 -86 43 -136t111 -50q78 0 166 56zM193.5 426.5q-34.5 -38.5 -44.5 -105.5h252q0 64 -28.5 104t-87.5 40
q-57 0 -91.5 -38.5zM385 730q40 -39 42 -101l-62 -7q-4 35 -27 55.5t-58 20.5q-34 0 -55 -19.5t-24 -52.5l-60 -2q-1 64 38.5 104.5t103.5 40.5q62 0 102 -39z" />
    <glyph glyph-name="uni0208" unicode="&#x208;" horiz-adv-x="355" 
d="M311 700v-53l-82 -21v-554l82 -19v-53h-266v53l82 19v553l-82 17v53zM152 770l-53 -27l-97 163l72 38zM300 769l-54 -26l-92 166l73 35z" />
    <glyph glyph-name="uni0209" unicode="&#x209;" horiz-adv-x="305" 
d="M209 533v-462l75 -18v-53h-249v53l74 18v386l-74 17v53zM117 642l-53 -27l-96 163l71 38zM265 641l-54 -26l-92 166l73 35z" />
    <glyph glyph-name="uni020A" unicode="&#x20a;" horiz-adv-x="355" 
d="M311 700v-53l-82 -21v-554l82 -19v-53h-266v53l82 19v553l-82 17v53zM279 861q40 -39 42 -101l-62 -7q-4 35 -27 55.5t-58 20.5q-34 0 -55 -19.5t-24 -52.5l-60 -2q-1 64 38.5 104.5t103.5 40.5q62 0 102 -39z" />
    <glyph glyph-name="uni020B" unicode="&#x20b;" horiz-adv-x="305" 
d="M209 533v-462l75 -18v-53h-249v53l74 18v386l-74 17v53zM257 730q40 -39 42 -101l-62 -7q-4 35 -27 55.5t-58 20.5q-34 0 -55 -19.5t-24 -52.5l-60 -2q-1 64 38.5 104.5t103.5 40.5q62 0 102 -39z" />
    <glyph glyph-name="uni020C" unicode="&#x20c;" horiz-adv-x="741" 
d="M200 30q-69 40 -107.5 119.5t-38.5 192.5q0 119 41.5 202t114.5 124.5t166 41.5q91 0 161 -39.5t110 -118t40 -190.5q0 -115 -42 -199t-116.5 -128.5t-169.5 -44.5q-90 0 -159 40zM518 141q59 71 59 216q0 138 -55.5 205.5t-149.5 67.5t-151 -69t-57 -215
q0 -139 55 -207.5t147 -68.5q93 0 152 71zM348 770l-53 -27l-97 163l72 38zM496 769l-54 -26l-92 166l73 35z" />
    <glyph glyph-name="uni020D" unicode="&#x20d;" horiz-adv-x="576" 
d="M471 470q64 -70 64 -196q0 -87 -31 -151t-89 -98.5t-138 -34.5q-112 0 -173.5 68.5t-61.5 195.5q0 133 67 209.5t186 76.5q112 0 176 -70zM183 413.5q-37 -53.5 -37 -154.5q0 -196 137 -196q72 0 109.5 53.5t37.5 152.5q0 98 -35.5 148t-104.5 50q-70 0 -107 -53.5z
M250 642l-53 -27l-96 163l71 38zM398 641l-54 -26l-92 166l73 35z" />
    <glyph glyph-name="uni020E" unicode="&#x20e;" horiz-adv-x="741" 
d="M200 30q-69 40 -107.5 119.5t-38.5 192.5q0 119 41.5 202t114.5 124.5t166 41.5q91 0 161 -39.5t110 -118t40 -190.5q0 -115 -42 -199t-116.5 -128.5t-169.5 -44.5q-90 0 -159 40zM518 141q59 71 59 216q0 138 -55.5 205.5t-149.5 67.5t-151 -69t-57 -215
q0 -139 55 -207.5t147 -68.5q93 0 152 71zM475 861q40 -39 42 -101l-62 -7q-4 35 -27 55.5t-58 20.5q-34 0 -55 -19.5t-24 -52.5l-60 -2q-1 64 38.5 104.5t103.5 40.5q62 0 102 -39z" />
    <glyph glyph-name="uni020F" unicode="&#x20f;" horiz-adv-x="576" 
d="M471 470q64 -70 64 -196q0 -87 -31 -151t-89 -98.5t-138 -34.5q-112 0 -173.5 68.5t-61.5 195.5q0 133 67 209.5t186 76.5q112 0 176 -70zM183 413.5q-37 -53.5 -37 -154.5q0 -196 137 -196q72 0 109.5 53.5t37.5 152.5q0 98 -35.5 148t-104.5 50q-70 0 -107 -53.5z
M389 730q40 -39 42 -101l-62 -7q-4 35 -27 55.5t-58 20.5q-34 0 -55 -19.5t-24 -52.5l-60 -2q-1 64 38.5 104.5t103.5 40.5q62 0 102 -39z" />
    <glyph glyph-name="uni0210" unicode="&#x210;" horiz-adv-x="661" 
d="M580 71l63 -18v-53h-137l-91 196q-21 45 -36 65.5t-38.5 29.5t-66.5 9l-45 -1v-226l96 -20v-53h-280v53l82 19v553l-82 17v53l188 5h110q115 0 174.5 -48t59.5 -139q0 -76 -43.5 -126.5t-128.5 -67.5q35 -10 56.5 -32.5t42.5 -63.5zM229 372h73q83 0 126.5 34.5
t43.5 100.5q0 58 -35.5 88t-105.5 30h-102v-253zM288 770l-53 -27l-97 163l72 38zM436 769l-54 -26l-92 166l73 35z" />
    <glyph glyph-name="uni0211" unicode="&#x211;" horiz-adv-x="451" 
d="M437 530l-7 -154h-61l-11 82q-14 2 -20 2q-33 0 -66 -18.5t-63 -51.5v-319l93 -18v-53h-267v53l74 17v386l-74 18v53l152 7l11 -82q44 44 85 66t86 22q32 0 68 -10zM197 642l-53 -27l-96 163l71 38zM345 641l-54 -26l-92 166l73 35z" />
    <glyph glyph-name="uni0212" unicode="&#x212;" horiz-adv-x="661" 
d="M580 71l63 -18v-53h-137l-91 196q-21 45 -36 65.5t-38.5 29.5t-66.5 9l-45 -1v-226l96 -20v-53h-280v53l82 19v553l-82 17v53l188 5h110q115 0 174.5 -48t59.5 -139q0 -76 -43.5 -126.5t-128.5 -67.5q35 -10 56.5 -32.5t42.5 -63.5zM229 372h73q83 0 126.5 34.5
t43.5 100.5q0 58 -35.5 88t-105.5 30h-102v-253zM414 861q40 -39 42 -101l-62 -7q-4 35 -27 55.5t-58 20.5q-34 0 -55 -19.5t-24 -52.5l-60 -2q-1 64 38.5 104.5t103.5 40.5q62 0 102 -39z" />
    <glyph glyph-name="uni0213" unicode="&#x213;" horiz-adv-x="451" 
d="M437 530l-7 -154h-61l-11 82q-14 2 -20 2q-33 0 -66 -18.5t-63 -51.5v-319l93 -18v-53h-267v53l74 17v386l-74 18v53l152 7l11 -82q44 44 85 66t86 22q32 0 68 -10zM337 730q40 -39 42 -101l-62 -7q-4 35 -27 55.5t-58 20.5q-34 0 -55 -19.5t-24 -52.5l-60 -2
q-1 64 38.5 104.5t103.5 40.5q62 0 102 -39z" />
    <glyph glyph-name="uni0214" unicode="&#x214;" horiz-adv-x="747" 
d="M722 700v-53l-82 -20v-359q0 -278 -270 -278q-120 0 -178 45.5t-71.5 100.5t-13.5 120v370l-82 16v53l267 5v-53l-82 -21v-370q0 -55 9.5 -94t44.5 -66t107 -27q73 0 109.5 28.5t46.5 70t10 100.5v358l-82 16v53zM349 770l-53 -27l-97 163l72 38zM497 769l-54 -26
l-92 166l73 35z" />
    <glyph glyph-name="uni0215" unicode="&#x215;" horiz-adv-x="624" 
d="M527 71l74 -17v-53l-152 -7l-12 83q-46 -43 -96.5 -65t-98.5 -22q-69 0 -111 43.5t-42 126.5v297l-75 17v53l175 6v-356q0 -55 24.5 -82.5t69.5 -27.5q33 0 70.5 17.5t73.5 50.5v322l-75 17v53l175 7v-463zM263 642l-53 -27l-96 163l71 38zM411 641l-54 -26l-92 166
l73 35z" />
    <glyph glyph-name="uni0216" unicode="&#x216;" horiz-adv-x="747" 
d="M722 700v-53l-82 -20v-359q0 -278 -270 -278q-120 0 -178 45.5t-71.5 100.5t-13.5 120v370l-82 16v53l267 5v-53l-82 -21v-370q0 -55 9.5 -94t44.5 -66t107 -27q73 0 109.5 28.5t46.5 70t10 100.5v358l-82 16v53zM476 861q40 -39 42 -101l-62 -7q-4 35 -27 55.5t-58 20.5
q-34 0 -55 -19.5t-24 -52.5l-60 -2q-1 64 38.5 104.5t103.5 40.5q62 0 102 -39z" />
    <glyph glyph-name="uni0217" unicode="&#x217;" horiz-adv-x="624" 
d="M527 71l74 -17v-53l-152 -7l-12 83q-46 -43 -96.5 -65t-98.5 -22q-69 0 -111 43.5t-42 126.5v297l-75 17v53l175 6v-356q0 -55 24.5 -82.5t69.5 -27.5q33 0 70.5 17.5t73.5 50.5v322l-75 17v53l175 7v-463zM403 730q40 -39 42 -101l-62 -7q-4 35 -27 55.5t-58 20.5
q-34 0 -55 -19.5t-24 -52.5l-60 -2q-1 64 38.5 104.5t103.5 40.5q62 0 102 -39z" />
    <glyph glyph-name="uni0218" unicode="&#x218;" horiz-adv-x="600" 
d="M191.5 470q20.5 -23 51.5 -36.5t85 -31.5q68 -21 110.5 -42t72.5 -60.5t30 -102.5q0 -101 -75.5 -154t-191.5 -53q-105 0 -209 42l6 172h60l17 -110q67 -27 132 -27q69 0 114.5 30.5t45.5 86.5q0 37 -21 60.5t-52.5 37.5t-87.5 32q-67 21 -108.5 41t-70.5 58t-29 100
q0 96 68 146.5t177 50.5q102 0 205 -42l-9 -163h-61l-16 108q-54 20 -115 20q-64 0 -106.5 -26t-42.5 -79q0 -35 20.5 -58zM235 -267q34 55 34 82q0 7 -3 13t-7 12q-6 11 -9.5 19t-3.5 21q0 25 16.5 39.5t39.5 14.5t40 -15.5t17 -43.5q0 -31 -21.5 -73t-66.5 -92z" />
    <glyph glyph-name="uni0219" unicode="&#x219;" horiz-adv-x="479" 
d="M182 349q28 -17 88 -36q53 -17 86 -32.5t56.5 -45.5t23.5 -78q0 -79 -62.5 -123t-161.5 -44q-76 0 -162 24l7 141h63l10 -85q42 -11 85 -11q50 0 85.5 21.5t35.5 60.5q0 25 -15.5 41.5t-38.5 26.5t-63 23q-52 16 -84.5 31.5t-55.5 45.5t-23 78q0 75 56 114t139 39
q77 0 165 -28l-5 -121h-64l-13 68q-42 12 -80 12q-45 0 -72.5 -19t-27.5 -52q0 -34 28 -51zM170 -267q34 55 34 82q0 7 -3 13t-7 12q-6 11 -9.5 19t-3.5 21q0 25 16.5 39.5t39.5 14.5t40 -15.5t17 -43.5q0 -31 -21.5 -73t-66.5 -92z" />
    <glyph glyph-name="uni021A" unicode="&#x21a;" horiz-adv-x="594" 
d="M25 519v181h544v-181h-61l-19 106h-141v-553l95 -19v-53h-292v53l95 19v553h-141l-19 -106h-61zM226 -267q34 55 34 82q0 7 -3 13t-7 12q-6 11 -9.5 19t-3.5 21q0 25 16.5 39.5t39.5 14.5t40 -15.5t17 -43.5q0 -31 -21.5 -73t-66.5 -92z" />
    <glyph glyph-name="uni021B" unicode="&#x21b;" horiz-adv-x="373" 
d="M360 31q-77 -41 -142 -41q-58 0 -89.5 36t-31.5 106v330h-86v54l86 15v117l100 17v-135h143l-3 -68h-140v-316q0 -80 61 -80q35 0 82 22zM123 -267q34 55 34 82q0 7 -3 13t-7 12q-6 11 -9.5 19t-3.5 21q0 25 16.5 39.5t39.5 14.5t40 -15.5t17 -43.5q0 -31 -21.5 -73
t-66.5 -92z" />
    <glyph glyph-name="uni022A" unicode="&#x22a;" horiz-adv-x="741" 
d="M200 30q-69 40 -107.5 119.5t-38.5 192.5q0 119 41.5 202t114.5 124.5t166 41.5q91 0 161 -39.5t110 -118t40 -190.5q0 -115 -42 -199t-116.5 -128.5t-169.5 -44.5q-90 0 -159 40zM518 141q59 71 59 216q0 138 -55.5 205.5t-149.5 67.5t-151 -69t-57 -215
q0 -139 55 -207.5t147 -68.5q93 0 152 71zM231.5 764.5q-14.5 15.5 -15.5 43.5q0 27 15.5 43.5t39.5 16.5q25 0 40 -16t15 -44q0 -27 -16 -43t-39 -16q-25 0 -39.5 15.5zM436 765q-14 16 -14 45q0 26 16 42t39 16q25 0 40 -16t15 -44q0 -27 -16 -43t-39 -16q-27 0 -41 16z
M235 983h277v-71h-277v71z" />
    <glyph glyph-name="uni022B" unicode="&#x22b;" horiz-adv-x="576" 
d="M471 470q64 -70 64 -196q0 -87 -31 -151t-89 -98.5t-138 -34.5q-112 0 -173.5 68.5t-61.5 195.5q0 133 67 209.5t186 76.5q112 0 176 -70zM183 413.5q-37 -53.5 -37 -154.5q0 -196 137 -196q72 0 109.5 53.5t37.5 152.5q0 98 -35.5 148t-104.5 50q-70 0 -107 -53.5z
M145.5 619.5q-14.5 15.5 -15.5 43.5q0 27 15.5 43.5t39.5 16.5q25 0 40 -16t15 -44q0 -27 -16 -43t-39 -16q-25 0 -39.5 15.5zM350 620q-14 16 -14 45q0 26 16 42t39 16q25 0 40 -16t15 -44q0 -27 -16 -43t-39 -16q-27 0 -41 16zM150 843h277v-71h-277v71z" />
    <glyph glyph-name="uni022C" unicode="&#x22c;" horiz-adv-x="741" 
d="M200 30q-69 40 -107.5 119.5t-38.5 192.5q0 119 41.5 202t114.5 124.5t166 41.5q91 0 161 -39.5t110 -118t40 -190.5q0 -115 -42 -199t-116.5 -128.5t-169.5 -44.5q-90 0 -159 40zM518 141q59 71 59 216q0 138 -55.5 205.5t-149.5 67.5t-151 -69t-57 -215
q0 -139 55 -207.5t147 -68.5q93 0 152 71zM202 760q18 50 42 73t56 23q18 0 36.5 -6t43.5 -18q42 -19 61 -19q18 0 32 10.5t29 34.5l44 -19q-18 -51 -43.5 -74t-58.5 -23q-17 0 -33.5 5.5t-41.5 17.5q-25 11 -38 15.5t-27 4.5q-17 0 -30 -10.5t-28 -34.5zM232 971h277v-71
h-277v71z" />
    <glyph glyph-name="uni022D" unicode="&#x22d;" horiz-adv-x="576" 
d="M471 470q64 -70 64 -196q0 -87 -31 -151t-89 -98.5t-138 -34.5q-112 0 -173.5 68.5t-61.5 195.5q0 133 67 209.5t186 76.5q112 0 176 -70zM183 413.5q-37 -53.5 -37 -154.5q0 -196 137 -196q72 0 109.5 53.5t37.5 152.5q0 98 -35.5 148t-104.5 50q-70 0 -107 -53.5z
M116 619q18 50 42 73t56 23q18 0 36.5 -6t43.5 -18q42 -19 61 -19q18 0 32 10.5t29 34.5l44 -19q-18 -51 -43.5 -74t-58.5 -23q-17 0 -33.5 5.5t-41.5 17.5q-25 11 -38 15.5t-27 4.5q-17 0 -30 -10.5t-28 -34.5zM149 842h277v-71h-277v71z" />
    <glyph glyph-name="uni0230" unicode="&#x230;" horiz-adv-x="741" 
d="M200 30q-69 40 -107.5 119.5t-38.5 192.5q0 119 41.5 202t114.5 124.5t166 41.5q91 0 161 -39.5t110 -118t40 -190.5q0 -115 -42 -199t-116.5 -128.5t-169.5 -44.5q-90 0 -159 40zM518 141q59 71 59 216q0 138 -55.5 205.5t-149.5 67.5t-151 -69t-57 -215
q0 -139 55 -207.5t147 -68.5q93 0 152 71zM328 761q-17 17 -17 48t17.5 48t45.5 17t45.5 -17t17.5 -48t-17.5 -48t-46.5 -17q-28 0 -45 17zM236 983h277v-71h-277v71z" />
    <glyph glyph-name="uni0231" unicode="&#x231;" horiz-adv-x="576" 
d="M471 470q64 -70 64 -196q0 -87 -31 -151t-89 -98.5t-138 -34.5q-112 0 -173.5 68.5t-61.5 195.5q0 133 67 209.5t186 76.5q112 0 176 -70zM183 413.5q-37 -53.5 -37 -154.5q0 -196 137 -196q72 0 109.5 53.5t37.5 152.5q0 98 -35.5 148t-104.5 50q-70 0 -107 -53.5z
M149 849h277v-71h-277v71zM241 617q-17 17 -17 48t17.5 48t45.5 17t45.5 -17t17.5 -48t-17.5 -48t-46.5 -17q-28 0 -45 17z" />
    <glyph glyph-name="uni0232" unicode="&#x232;" horiz-adv-x="643" 
d="M640 647l-73 -18l-196 -379v-178l84 -19v-53h-271v53l85 20v181l-193 372l-73 16v53l264 5v-53l-84 -18l145 -299l148 296l-86 16v53l250 5v-53zM185 858h277v-71h-277v71z" />
    <glyph glyph-name="uni0233" unicode="&#x233;" horiz-adv-x="538" 
d="M542 534v-53l-54 -14l-170 -468q-29 -80 -58 -130.5t-73.5 -79.5t-110.5 -29q-28 0 -63 6l9 72q34 -4 46 -4q44 0 72 17.5t48 53t41 96.5l-181 463l-54 10v53l229 7v-53l-74 -14l126 -362l119 358l-72 11v53zM130 739h277v-71h-277v71z" />
    <glyph glyph-name="uni0237" unicode="&#x237;" horiz-adv-x="278" 
d="M21 527l175 6v-555q0 -111 -46.5 -164.5t-141.5 -53.5q-22 0 -55 5l8 72q28 -2 37 -2q53 0 75.5 25.5t22.5 86.5v510l-75 17v53z" />
    <glyph glyph-name="uni0259" unicode="&#x259;" horiz-adv-x="547" 
d="M442.5 470.5q63.5 -69.5 63.5 -196.5q0 -87 -30.5 -151t-87 -98.5t-132.5 -34.5q-105 0 -158.5 63.5t-53.5 168.5q0 23 5 63h353q-5 84 -44 132t-108 48q-37 0 -80 -14.5t-87 -42.5l-35 55q113 77 225 77q106 0 169.5 -69.5zM357.5 104q34.5 41 42.5 111h-252
q7 -152 116 -152q59 0 93.5 41z" />
    <glyph glyph-name="uni02BB" unicode="&#x2bb;" horiz-adv-x="173" 
d="M131 632q-16 -15 -39 -15q-24 0 -41.5 17t-17.5 47q0 34 24 84.5t74 109.5l35 -23q-44 -78 -44 -108q0 -7 3.5 -14.5t7.5 -14.5q14 -22 14 -41q0 -27 -16 -42z" />
    <glyph glyph-name="uni02BC" unicode="&#x2bc;" horiz-adv-x="210" 
d="M72 769q16 15 39 15q24 0 41.5 -17t17.5 -47q0 -34 -24 -85t-74 -110l-35 23q44 78 44 108q0 12 -11 29q-14 22 -14 42q0 27 16 42z" />
    <glyph glyph-name="circumflex" unicode="&#x2c6;" horiz-adv-x="480" 
d="M266 802l146 -138l-36 -39l-137 98l-135 -98l-35 39l139 133z" />
    <glyph glyph-name="caron" horiz-adv-x="393" 
d="M196 706l132 97l34 -39l-135 -133l-58 -5l-143 138l35 39z" />
    <glyph glyph-name="breve" horiz-adv-x="396" 
d="M96.5 668q-39.5 39 -41.5 101l61 7q4 -35 27 -55.5t58 -20.5q34 0 55 19.5t24 51.5l60 3q1 -64 -38.5 -104.5t-103.5 -40.5q-62 0 -101.5 39z" />
    <glyph glyph-name="ring" unicode="&#x2da;" horiz-adv-x="359" 
d="M95.5 643q-31.5 29 -31.5 75q0 47 32 76.5t85 29.5q51 0 82.5 -28.5t31.5 -74.5q0 -47 -32 -77t-85 -30q-51 0 -82.5 29zM218 678.5q14 15.5 14 41.5q0 25 -13.5 40t-38.5 15q-26 0 -39.5 -15.5t-13.5 -40.5t13.5 -40.5t38.5 -15.5t39 15.5z" />
    <glyph glyph-name="tilde" unicode="&#x2dc;" horiz-adv-x="492" 
d="M281.5 652.5q-16.5 6.5 -40.5 20.5q-20 11 -34 17t-28 6q-37 0 -63 -48l-45 19q35 103 104 103q19 0 36.5 -7t40.5 -20q23 -12 35 -17t26 -5q19 0 34 11.5t30 36.5l44 -18q-35 -105 -104 -105q-19 0 -35.5 6.5z" />
    <glyph glyph-name="hungarumlaut" horiz-adv-x="406" 
d="M201 781l-92 -166l-54 26l72 175zM352 778l-96 -163l-53 27l78 174z" />
    <glyph glyph-name="gravecomb" 
d="M-284 744l55 72l188 -149l-38 -52z" />
    <glyph glyph-name="acutecomb" 
d="M-21 742l-209 -127l-36 50l191 150z" />
    <glyph glyph-name="uni0302" 
d="M-214 802l146 -138l-36 -39l-137 98l-135 -98l-35 39l139 133z" />
    <glyph glyph-name="tildecomb" 
d="M-205.5 652.5q-16.5 6.5 -40.5 20.5q-20 11 -34 17t-28 6q-37 0 -63 -48l-45 19q35 103 104 103q19 0 36.5 -7t40.5 -20q23 -12 35 -17t26 -5q19 0 34 11.5t30 36.5l44 -18q-35 -105 -104 -105q-19 0 -35.5 6.5z" />
    <glyph glyph-name="uni0304" 
d="M-353 739h277v-71h-277v71z" />
    <glyph glyph-name="uni0306" 
d="M-299.5 668q-39.5 39 -41.5 101l61 7q4 -35 27 -55.5t58 -20.5q34 0 55 19.5t24 51.5l60 3q1 -64 -38.5 -104.5t-103.5 -40.5q-62 0 -101.5 39z" />
    <glyph glyph-name="uni0307" 
d="M-141 648q-17 17 -17 48t17.5 48t45.5 17t45.5 -17t17.5 -48t-17.5 -48t-46.5 -17q-28 0 -45 17z" />
    <glyph glyph-name="uni0308" 
d="M-370.5 652.5q-14.5 15.5 -15.5 43.5q0 27 15.5 43.5t39.5 16.5q25 0 40 -16t15 -44q0 -27 -16 -43t-39 -16q-25 0 -39.5 15.5zM-166 653q-14 16 -14 45q0 26 16 42t39 16q25 0 40 -16t15 -44q0 -27 -16 -43t-39 -16q-27 0 -41 16z" />
    <glyph glyph-name="hookabovecomb" 
d="M-188 680q74 3 74 45q0 18 -13 27t-36 9q-26 0 -59 -10l-13 47q45 17 88 17q49 0 79 -21.5t30 -63.5q0 -33 -21 -54.5t-63 -28.5v-43h-66v76z" />
    <glyph glyph-name="uni030A" 
d="M-263.5 643q-31.5 29 -31.5 75q0 47 32 76.5t85 29.5q51 0 82.5 -28.5t31.5 -74.5q0 -47 -32 -77t-85 -30q-51 0 -82.5 29zM-141 678.5q14 15.5 14 41.5q0 25 -13.5 40t-38.5 15q-26 0 -39.5 -15.5t-13.5 -40.5t13.5 -40.5t38.5 -15.5t39 15.5z" />
    <glyph glyph-name="uni030B" 
d="M-205 781l-92 -166l-54 26l72 175zM-54 778l-96 -163l-53 27l78 174z" />
    <glyph glyph-name="uni030C" 
d="M-197 706l132 97l34 -39l-135 -133l-58 -5l-143 138l35 39z" />
    <glyph glyph-name="uni030F" 
d="M-199 642l-53 -27l-96 163l71 38zM-51 641l-54 -26l-92 166l73 35z" />
    <glyph glyph-name="uni0311" 
d="M-96 730q40 -39 42 -101l-62 -7q-4 35 -27 55.5t-58 20.5q-34 0 -55 -19.5t-24 -52.5l-60 -2q-1 64 38.5 104.5t103.5 40.5q62 0 102 -39z" />
    <glyph glyph-name="uni0312" 
d="M-41 833q-34 -55 -34 -82q0 -7 3 -13t7 -12q6 -11 9.5 -19t3.5 -21q0 -26 -16.5 -40.5t-39.5 -14.5t-40 15.5t-17 43.5q0 67 88 166z" />
    <glyph glyph-name="dotbelowcomb" 
d="M-142 -178q-17 17 -17 48t17.5 48t45.5 17t45.5 -17t17.5 -48t-17.5 -48t-46.5 -17q-28 0 -45 17z" />
    <glyph glyph-name="uni0326" 
d="M-165 -267q34 55 34 82q0 7 -3 13t-7 12q-6 11 -9.5 19t-3.5 21q0 25 16.5 39.5t39.5 14.5t40 -15.5t17 -43.5q0 -31 -21.5 -73t-66.5 -92z" />
    <glyph glyph-name="uni032E" 
d="M-299.5 -178q-39.5 39 -41.5 101l61 7q4 -35 27 -55.5t58 -20.5q34 0 55 19.5t24 51.5l60 3q1 -64 -38.5 -104.5t-103.5 -40.5q-62 0 -101.5 39z" />
    <glyph glyph-name="uni0331" 
d="M-354 -95h277v-71h-277v71z" />
    <glyph glyph-name="uni04D8" horiz-adv-x="687" 
d="M488 669.5q67 -40.5 106 -119.5t39 -189q0 -120 -41.5 -203.5t-111.5 -125.5t-153 -42q-78 0 -140.5 35.5t-98.5 106t-36 170.5q0 40 4 68h468q-4 123 -60.5 189.5t-148.5 66.5q-101 0 -216 -76l-41 60q70 50 141 75t137 25q85 0 152 -40.5zM459.5 124q50.5 54 61.5 166
h-359q3 -109 49 -164.5t122 -55.5t126.5 54z" />
    <glyph glyph-name="uni1E08" unicode="&#x1e08;" horiz-adv-x="641" 
d="M443 928l41 -80l-222 -97l-30 55zM381 -55q55 -6 81.5 -28.5t26.5 -58.5q0 -47 -37 -72.5t-92 -25.5q-53 0 -97 22l20 50q40 -15 76 -15q25 0 40.5 9.5t15.5 28.5q0 21 -27.5 32t-74.5 13l5 91q-75 7 -135 50.5t-94.5 121.5t-34.5 184q0 112 39 194t110.5 125.5
t166.5 43.5q102 0 219 -51l-8 -164h-61l-18 109q-70 26 -130 26q-97 0 -152.5 -72t-55.5 -199q0 -91 27 -155t74.5 -97t107.5 -33q45 0 93 19t93 57l40 -60q-51 -43 -107 -68t-111 -30v-47z" />
    <glyph glyph-name="uni1E09" unicode="&#x1e09;" horiz-adv-x="514" 
d="M376 815l54 -73l-209 -127l-36 50zM304 -55q55 -6 81.5 -28.5t26.5 -58.5q0 -47 -37 -72.5t-92 -25.5q-53 0 -97 22l20 50q40 -15 76 -15q25 0 40.5 9.5t15.5 28.5q0 21 -27.5 32t-74.5 13l6 92q-59 7 -104.5 41t-71.5 91.5t-26 134.5q0 95 35.5 158.5t94 93t128.5 29.5
q42 0 88 -11t81 -29l-4 -133h-66l-13 86q-38 14 -86 14q-73 0 -113.5 -54t-40.5 -148q0 -95 41.5 -147t109.5 -52q72 0 154 57l35 -53q-87 -67 -180 -78v-47z" />
    <glyph glyph-name="uni1E0C" unicode="&#x1e0c;" horiz-adv-x="716" 
d="M348 700q94 0 165 -37.5t110.5 -113.5t39.5 -188q0 -116 -42 -197t-116.5 -122.5t-173.5 -41.5h-286v53l82 19v552l-82 18v53l201 5h102zM335 75q95 0 156.5 63.5t61.5 215.5q0 148 -58.5 209.5t-148.5 61.5h-117v-550h106zM298 -178q-17 17 -17 48t17.5 48t45.5 17
t45.5 -17t17.5 -48t-17.5 -48t-46.5 -17q-28 0 -45 17z" />
    <glyph glyph-name="uni1E0D" unicode="&#x1e0d;" horiz-adv-x="597" 
d="M501 72l75 -18v-53l-152 -7l-12 73q-83 -77 -172 -77q-57 0 -101.5 31t-70 91t-25.5 144q0 140 71 212t201 72q43 0 86 -10v164l-79 20v53l179 7v-702zM182.5 118.5q35.5 -53.5 94.5 -53.5q61 0 124 56v333q-52 13 -89 13q-81 0 -123 -53t-42 -149q0 -93 35.5 -146.5z
M257 -178q-17 17 -17 48t17.5 48t45.5 17t45.5 -17t17.5 -48t-17.5 -48t-46.5 -17q-28 0 -45 17z" />
    <glyph glyph-name="uni1E0E" unicode="&#x1e0e;" horiz-adv-x="716" 
d="M348 700q94 0 165 -37.5t110.5 -113.5t39.5 -188q0 -116 -42 -197t-116.5 -122.5t-173.5 -41.5h-286v53l82 19v552l-82 18v53l201 5h102zM335 75q95 0 156.5 63.5t61.5 215.5q0 148 -58.5 209.5t-148.5 61.5h-117v-550h106zM209 -95h285v-71h-285v71z" />
    <glyph glyph-name="uni1E0F" unicode="&#x1e0f;" horiz-adv-x="597" 
d="M501 72l75 -18v-53l-152 -7l-12 73q-83 -77 -172 -77q-57 0 -101.5 31t-70 91t-25.5 144q0 140 71 212t201 72q43 0 86 -10v164l-79 20v53l179 7v-702zM182.5 118.5q35.5 -53.5 94.5 -53.5q61 0 124 56v333q-52 13 -89 13q-81 0 -123 -53t-42 -149q0 -93 35.5 -146.5z
M165 -95h277v-71h-277v71z" />
    <glyph glyph-name="uni1E14" unicode="&#x1e14;" horiz-adv-x="617" 
d="M478 75l16 97h62l-1 -172h-510v53l82 19v553l-82 17v53l182 5h316v-165h-61l-16 90h-237v-231h240v-73h-240v-246h249zM449 905l-26 -57l-228 87l41 82zM179 821h277v-72h-277v72z" />
    <glyph glyph-name="uni1E15" unicode="&#x1e15;" horiz-adv-x="547" 
d="M466 122l35 -55q-111 -77 -225 -77q-106 0 -169.5 69.5t-63.5 196.5q0 87 30.5 151t87 98.5t132.5 34.5q105 0 158 -63.5t53 -168.5q0 -27 -4 -56h-354q4 -86 43 -136t111 -50q78 0 166 56zM193.5 426.5q-34.5 -38.5 -44.5 -105.5h252q0 64 -28.5 104t-87.5 40
q-57 0 -91.5 -38.5zM414 773l-26 -57l-228 87l41 82zM145 680h277v-71h-277v71z" />
    <glyph glyph-name="uni1E16" unicode="&#x1e16;" horiz-adv-x="617" 
d="M478 75l16 97h62l-1 -172h-510v53l82 19v553l-82 17v53l182 5h316v-165h-61l-16 90h-237v-231h240v-73h-240v-246h249zM443 935l-226 -88l-28 56l215 113zM179 821h277v-72h-277v72z" />
    <glyph glyph-name="uni1E17" unicode="&#x1e17;" horiz-adv-x="547" 
d="M466 122l35 -55q-111 -77 -225 -77q-106 0 -169.5 69.5t-63.5 196.5q0 87 30.5 151t87 98.5t132.5 34.5q105 0 158 -63.5t53 -168.5q0 -27 -4 -56h-354q4 -86 43 -136t111 -50q78 0 166 56zM193.5 426.5q-34.5 -38.5 -44.5 -105.5h252q0 64 -28.5 104t-87.5 40
q-57 0 -91.5 -38.5zM405 803l-225 -88l-28 56l215 113zM145 680h277v-71h-277v71z" />
    <glyph glyph-name="uni1E1C" unicode="&#x1e1c;" horiz-adv-x="617" 
d="M478 75l16 97h62l-1 -172h-510v53l82 19v553l-82 17v53l182 5h316v-165h-61l-16 90h-237v-231h240v-73h-240v-246h249zM229 -218l20 50q40 -15 76 -15q25 0 40.5 9.5t15.5 28.5q0 21 -27.5 32t-74.5 13l6 100h62v-55q55 -6 81.5 -28.5t26.5 -58.5q0 -47 -37 -72.5
t-92 -25.5q-53 0 -97 22zM216 798.5q-43 35.5 -44 97.5l60 7q4 -36 30 -55t60 -19q32 0 56 18.5t27 51.5l59 3q0 -44 -20.5 -75.5t-54.5 -47.5t-72 -16q-58 0 -101 35.5z" />
    <glyph glyph-name="uni1E1D" unicode="&#x1e1d;" horiz-adv-x="547" 
d="M182.5 668q-39.5 39 -41.5 101l61 7q4 -35 27 -55.5t58 -20.5q34 0 55 19.5t24 51.5l60 3q1 -64 -38.5 -104.5t-103.5 -40.5q-62 0 -101.5 39zM501 67q-87 -61 -182 -74v-48q55 -6 81.5 -28.5t26.5 -58.5q0 -47 -37 -72.5t-92 -25.5q-53 0 -97 22l20 50q40 -15 76 -15
q25 0 40.5 9.5t15.5 28.5q0 21 -27.5 32t-74.5 13l5 91q-98 6 -155.5 75t-57.5 190q0 87 30.5 151t87 98.5t132.5 34.5q105 0 158 -63.5t53 -168.5q0 -27 -4 -56h-354q4 -86 43 -136t111 -50q78 0 166 56zM193.5 426.5q-34.5 -38.5 -44.5 -105.5h252q0 64 -28.5 104
t-87.5 40q-57 0 -91.5 -38.5z" />
    <glyph glyph-name="uni1E20" unicode="&#x1e20;" horiz-adv-x="731" 
d="M702 343v-55l-79 -18v-225q-130 -54 -247 -54q-98 0 -170.5 40.5t-112 119.5t-39.5 193q0 115 40 197t115 125.5t179 43.5q116 0 238 -52l-8 -163h-61l-18 109q-80 26 -147 26q-107 0 -167.5 -74t-60.5 -210q0 -131 59 -203t166 -72q66 0 138 26v174l-82 12v55zM236 858
h277v-71h-277v71z" />
    <glyph glyph-name="uni1E21" unicode="&#x1e21;" horiz-adv-x="564" 
d="M338 78q98 0 148.5 -37.5t50.5 -109.5q0 -84 -69.5 -127.5t-205.5 -43.5q-118 0 -177.5 33.5t-59.5 97.5q0 78 92 126q-41 13 -41 48q0 14 9.5 36t45.5 92q-41 23 -63 63t-22 92q0 89 59.5 140.5t164.5 51.5q63 0 112 -19l147 6l1 -59l-72 -14q30 -39 30 -98
q0 -89 -61 -141t-162 -52q-44 0 -83 11l-18 -96h174zM178.5 440q-31.5 -31 -31.5 -89t30 -88.5t87 -30.5q59 0 91.5 31.5t32.5 90.5q0 58 -30.5 87.5t-88.5 29.5q-59 0 -90.5 -31zM399.5 -143.5q41.5 21.5 41.5 66.5q0 39 -30 59t-89 20h-147q-62 -42 -62 -91
q0 -38 38.5 -57t119.5 -19q87 0 128.5 21.5zM123 739h277v-71h-277v71z" />
    <glyph glyph-name="uni1E24" unicode="&#x1e24;" horiz-adv-x="793" 
d="M749 700v-53l-82 -21v-554l82 -19v-53h-267v53l82 19v247h-335v-247l82 -19v-53h-266v53l82 19v553l-82 17v53l266 5v-53l-82 -22v-231h335v232l-82 16v53zM349 -178q-17 17 -17 48t17.5 48t45.5 17t45.5 -17t17.5 -48t-17.5 -48t-46.5 -17q-28 0 -45 17z" />
    <glyph glyph-name="uni1E25" unicode="&#x1e25;" horiz-adv-x="623" 
d="M534 70l75 -17v-53h-245v53l70 17v281q1 55 -24.5 83.5t-70.5 28.5q-33 0 -70 -17t-73 -51v-326l70 -16v-53h-245v53l75 18v625l-75 18v53l175 7v-311q44 38 91.5 57.5t92.5 19.5q70 0 112.5 -43t41.5 -124v-303zM260 -178q-17 17 -17 48t17.5 48t45.5 17t45.5 -17
t17.5 -48t-17.5 -48t-46.5 -17q-28 0 -45 17z" />
    <glyph glyph-name="uni1E2A" unicode="&#x1e2a;" horiz-adv-x="793" 
d="M749 700v-53l-82 -21v-554l82 -19v-53h-267v53l82 19v247h-335v-247l82 -19v-53h-266v53l82 19v553l-82 17v53l266 5v-53l-82 -22v-231h335v232l-82 16v53zM294.5 -178q-39.5 39 -41.5 101l61 7q4 -35 27 -55.5t58 -20.5q34 0 55 19.5t24 51.5l60 3q1 -64 -38.5 -104.5
t-103.5 -40.5q-62 0 -101.5 39z" />
    <glyph glyph-name="uni1E2B" unicode="&#x1e2b;" horiz-adv-x="623" 
d="M534 70l75 -17v-53h-245v53l70 17v281q1 55 -24.5 83.5t-70.5 28.5q-33 0 -70 -17t-73 -51v-326l70 -16v-53h-245v53l75 18v625l-75 18v53l175 7v-311q44 38 91.5 57.5t92.5 19.5q70 0 112.5 -43t41.5 -124v-303zM204.5 -178q-39.5 39 -41.5 101l61 7q4 -35 27 -55.5
t58 -20.5q34 0 55 19.5t24 51.5l60 3q1 -64 -38.5 -104.5t-103.5 -40.5q-62 0 -101.5 39z" />
    <glyph glyph-name="uni1E2E" unicode="&#x1e2e;" horiz-adv-x="355" 
d="M311 700v-53l-82 -21v-554l82 -19v-53h-266v53l82 19v553l-82 17v53zM313 950l-144 -123l-41 42l128 137zM24 761q-14 16 -14 45q0 26 15.5 42t38.5 16q26 0 41 -16t15 -44q0 -27 -16 -43t-40 -16q-26 0 -40 16zM248 760.5q-14 15.5 -15 43.5q0 27 15.5 43.5t39.5 16.5
q25 0 40 -16t15 -44q0 -27 -16 -43t-39 -16q-26 0 -40 15.5z" />
    <glyph glyph-name="uni1E2F" unicode="&#x1e2f;" horiz-adv-x="305" 
d="M235 875l57 -56l-143 -123l-42 42zM88.5 622q-15.5 -16 -37.5 -16q-23 0 -36.5 16t-13.5 43q0 28 14.5 44t37.5 16t37 -16.5t14 -42.5q0 -28 -15.5 -44zM291.5 709q14.5 -16 14.5 -43q0 -28 -15.5 -44t-38.5 -16t-36.5 16t-13.5 43q0 28 15 44t37 16q23 0 37.5 -16z
M35 527l174 6v-462l75 -18v-53h-249v53l74 18v386l-74 17v53z" />
    <glyph glyph-name="uni1E36" unicode="&#x1e36;" horiz-adv-x="555" 
d="M451 75l17 114h62v-189h-485v53l82 19v553l-82 17v53l276 5v-53l-92 -22v-550h222zM263 -178q-17 17 -17 48t17.5 48t45.5 17t45.5 -17t17.5 -48t-17.5 -48t-46.5 -17q-28 0 -45 17z" />
    <glyph glyph-name="uni1E37" unicode="&#x1e37;" horiz-adv-x="292" 
d="M196 774v-703l74 -18v-53h-249v53l75 18v626l-75 17v53zM99 -178q-17 17 -17 48t17.5 48t45.5 17t45.5 -17t17.5 -48t-17.5 -48t-46.5 -17q-28 0 -45 17z" />
    <glyph glyph-name="uni1E3A" unicode="&#x1e3a;" horiz-adv-x="555" 
d="M451 75l17 114h62v-189h-485v53l82 19v553l-82 17v53l276 5v-53l-92 -22v-550h222zM173 -95h285v-71h-285v71z" />
    <glyph glyph-name="uni1E3B" unicode="&#x1e3b;" horiz-adv-x="292" 
d="M196 71l74 -18v-53h-249v53l75 18v626l-75 17v53l175 7v-703zM16 -166v71h261v-71h-261z" />
    <glyph glyph-name="uni1E42" unicode="&#x1e42;" horiz-adv-x="885" 
d="M841 700v-53l-82 -22v-553l82 -19v-53h-259v53l82 19v485l-197 -375l-66 -4l-191 381v-488l83 -18v-53h-248v53l82 19v553l-82 17v53l207 5l193 -406l200 401zM396 -178q-17 17 -17 48t17.5 48t45.5 17t45.5 -17t17.5 -48t-17.5 -48t-46.5 -17q-28 0 -45 17z" />
    <glyph glyph-name="uni1E43" unicode="&#x1e43;" horiz-adv-x="954" 
d="M865 70l74 -17v-53h-242v53l68 17v281q0 56 -23.5 84t-63.5 28q-31 0 -68 -17.5t-73 -51.5q1 -6 1 -17v-307l67 -17v-53h-235v53l68 17v281q0 56 -24 84t-63 28q-33 0 -70 -17.5t-72 -50.5v-326l68 -16v-53h-242v53l74 18v385l-74 18v53l152 7l11 -81q45 42 96.5 64.5
t98.5 22.5q45 0 79.5 -22.5t51.5 -67.5q46 44 97.5 67t98.5 23q64 0 104.5 -42.5t40.5 -123.5v-304zM441 -178q-17 17 -17 48t17.5 48t45.5 17t45.5 -17t17.5 -48t-17.5 -48t-46.5 -17q-28 0 -45 17z" />
    <glyph glyph-name="uni1E44" unicode="&#x1e44;" horiz-adv-x="785" 
d="M503 695l250 5v-53l-82 -21v-626h-116l-342 567v-495l82 -19v-53h-250v53l82 19v553l-82 17v53l204 5l336 -556v482l-82 16v53zM359 781q-17 17 -17 48t17.5 48t45.5 17t45.5 -17t17.5 -48t-17.5 -48t-46.5 -17q-28 0 -45 17z" />
    <glyph glyph-name="uni1E45" unicode="&#x1e45;" horiz-adv-x="637" 
d="M548 70l74 -17v-53h-244v53l70 17v281q0 56 -25.5 84t-69.5 28q-33 0 -70.5 -17t-73.5 -51v-326l70 -16v-53h-244v53l74 18v385l-74 18v53l152 7l11 -81q46 43 97.5 65t98.5 22q70 0 112.5 -43t41.5 -125v-302zM281 648q-17 17 -17 48t17.5 48t45.5 17t45.5 -17t17.5 -48
t-17.5 -48t-46.5 -17q-28 0 -45 17z" />
    <glyph glyph-name="uni1E46" unicode="&#x1e46;" horiz-adv-x="785" 
d="M503 695l250 5v-53l-82 -21v-626h-116l-342 567v-495l82 -19v-53h-250v53l82 19v553l-82 17v53l204 5l336 -556v482l-82 16v53zM352 -178q-17 17 -17 48t17.5 48t45.5 17t45.5 -17t17.5 -48t-17.5 -48t-46.5 -17q-28 0 -45 17z" />
    <glyph glyph-name="uni1E47" unicode="&#x1e47;" horiz-adv-x="637" 
d="M548 70l74 -17v-53h-244v53l70 17v281q0 56 -25.5 84t-69.5 28q-33 0 -70.5 -17t-73.5 -51v-326l70 -16v-53h-244v53l74 18v385l-74 18v53l152 7l11 -81q46 43 97.5 65t98.5 22q70 0 112.5 -43t41.5 -125v-302zM281 -178q-17 17 -17 48t17.5 48t45.5 17t45.5 -17
t17.5 -48t-17.5 -48t-46.5 -17q-28 0 -45 17z" />
    <glyph glyph-name="uni1E48" unicode="&#x1e48;" horiz-adv-x="785" 
d="M503 695l250 5v-53l-82 -21v-626h-116l-342 567v-495l82 -19v-53h-250v53l82 19v553l-82 17v53l204 5l336 -556v482l-82 16v53zM263 -95h285v-71h-285v71z" />
    <glyph glyph-name="uni1E49" unicode="&#x1e49;" horiz-adv-x="637" 
d="M548 70l74 -17v-53h-244v53l70 17v281q0 56 -25.5 84t-69.5 28q-33 0 -70.5 -17t-73.5 -51v-326l70 -16v-53h-244v53l74 18v385l-74 18v53l152 7l11 -81q46 43 97.5 65t98.5 22q70 0 112.5 -43t41.5 -125v-302zM189 -95h277v-71h-277v71z" />
    <glyph glyph-name="uni1E4C" unicode="&#x1e4c;" horiz-adv-x="741" 
d="M200 30q-69 40 -107.5 119.5t-38.5 192.5q0 119 41.5 202t114.5 124.5t166 41.5q91 0 161 -39.5t110 -118t40 -190.5q0 -115 -42 -199t-116.5 -128.5t-169.5 -44.5q-90 0 -159 40zM518 141q59 71 59 216q0 138 -55.5 205.5t-149.5 67.5t-151 -69t-57 -215
q0 -139 55 -207.5t147 -68.5q93 0 152 71zM494 953l-231 -73l-24 59l222 98zM202 760q18 49 42 72t56 23q18 0 35 -5.5t45 -17.5q42 -19 61 -19q18 0 32 10.5t29 34.5l44 -20q-18 -50 -43.5 -73t-58.5 -23q-17 0 -33.5 5.5t-41.5 17.5q-25 11 -38 15.5t-27 4.5
q-17 0 -30 -10.5t-28 -34.5z" />
    <glyph glyph-name="uni1E4D" unicode="&#x1e4d;" horiz-adv-x="576" 
d="M471 470q64 -70 64 -196q0 -87 -31 -151t-89 -98.5t-138 -34.5q-112 0 -173.5 68.5t-61.5 195.5q0 133 67 209.5t186 76.5q112 0 176 -70zM183 413.5q-37 -53.5 -37 -154.5q0 -196 137 -196q72 0 109.5 53.5t37.5 152.5q0 98 -35.5 148t-104.5 50q-70 0 -107 -53.5z
M409 819l-229 -84l-26 56l216 110zM115 614q18 49 42 72t56 23q18 0 35 -5.5t45 -17.5q42 -19 61 -19q18 0 32 10.5t29 34.5l44 -20q-18 -50 -43.5 -73t-58.5 -23q-17 0 -33.5 5.5t-41.5 17.5q-25 11 -38 15.5t-27 4.5q-17 0 -30 -10.5t-28 -34.5z" />
    <glyph glyph-name="uni1E4E" unicode="&#x1e4e;" horiz-adv-x="741" 
d="M200 30q-69 40 -107.5 119.5t-38.5 192.5q0 119 41.5 202t114.5 124.5t166 41.5q91 0 161 -39.5t110 -118t40 -190.5q0 -115 -42 -199t-116.5 -128.5t-169.5 -44.5q-90 0 -159 40zM518 141q59 71 59 216q0 138 -55.5 205.5t-149.5 67.5t-151 -69t-57 -215
q0 -139 55 -207.5t147 -68.5q93 0 152 71zM230.5 901.5q-14.5 15.5 -15.5 43.5q0 27 15.5 43.5t39.5 16.5q25 0 40 -16t15 -44q0 -27 -16 -43t-39 -16q-25 0 -39.5 15.5zM435 902q-14 16 -14 45q0 26 16 42t39 16q25 0 40 -16t15 -44q0 -27 -16 -43t-39 -16q-27 0 -41 16z
M204 760q18 50 42 73t56 23q18 0 36.5 -6t43.5 -18q42 -19 61 -19q18 0 32 10.5t29 34.5l44 -19q-18 -51 -43.5 -74t-58.5 -23q-17 0 -33.5 5.5t-41.5 17.5q-25 11 -38 15.5t-27 4.5q-17 0 -30 -10.5t-28 -34.5z" />
    <glyph glyph-name="uni1E4F" unicode="&#x1e4f;" horiz-adv-x="576" 
d="M471 470q64 -70 64 -196q0 -87 -31 -151t-89 -98.5t-138 -34.5q-112 0 -173.5 68.5t-61.5 195.5q0 133 67 209.5t186 76.5q112 0 176 -70zM183 413.5q-37 -53.5 -37 -154.5q0 -196 137 -196q72 0 109.5 53.5t37.5 152.5q0 98 -35.5 148t-104.5 50q-70 0 -107 -53.5z
M145.5 763.5q-14.5 15.5 -15.5 43.5q0 27 15.5 43.5t39.5 16.5q25 0 40 -16t15 -44q0 -27 -16 -43t-39 -16q-25 0 -39.5 15.5zM350 764q-14 16 -14 45q0 26 16 42t39 16q25 0 40 -16t15 -44q0 -27 -16 -43t-39 -16q-27 0 -41 16zM116 614q18 50 42 73t56 23q18 0 36.5 -6
t43.5 -18q42 -19 61 -19q18 0 32 10.5t29 34.5l44 -19q-18 -51 -43.5 -74t-58.5 -23q-17 0 -33.5 5.5t-41.5 17.5q-25 11 -38 15.5t-27 4.5q-17 0 -30 -10.5t-28 -34.5z" />
    <glyph glyph-name="uni1E50" unicode="&#x1e50;" horiz-adv-x="741" 
d="M200 30q-69 40 -107.5 119.5t-38.5 192.5q0 119 41.5 202t114.5 124.5t166 41.5q91 0 161 -39.5t110 -118t40 -190.5q0 -115 -42 -199t-116.5 -128.5t-169.5 -44.5q-90 0 -159 40zM518 141q59 71 59 216q0 138 -55.5 205.5t-149.5 67.5t-151 -69t-57 -215
q0 -139 55 -207.5t147 -68.5q93 0 152 71zM505 905l-26 -57l-228 87l41 82zM235 821h277v-72h-277v72z" />
    <glyph glyph-name="uni1E51" unicode="&#x1e51;" horiz-adv-x="576" 
d="M471 470q64 -70 64 -196q0 -87 -31 -151t-89 -98.5t-138 -34.5q-112 0 -173.5 68.5t-61.5 195.5q0 133 67 209.5t186 76.5q112 0 176 -70zM183 413.5q-37 -53.5 -37 -154.5q0 -196 137 -196q72 0 109.5 53.5t37.5 152.5q0 98 -35.5 148t-104.5 50q-70 0 -107 -53.5z
M418 773l-26 -57l-228 87l41 82zM149 680h277v-71h-277v71z" />
    <glyph glyph-name="uni1E52" unicode="&#x1e52;" horiz-adv-x="741" 
d="M200 30q-69 40 -107.5 119.5t-38.5 192.5q0 119 41.5 202t114.5 124.5t166 41.5q91 0 161 -39.5t110 -118t40 -190.5q0 -115 -42 -199t-116.5 -128.5t-169.5 -44.5q-90 0 -159 40zM518 141q59 71 59 216q0 138 -55.5 205.5t-149.5 67.5t-151 -69t-57 -215
q0 -139 55 -207.5t147 -68.5q93 0 152 71zM499 935l-226 -88l-28 56l215 113zM235 821h277v-72h-277v72z" />
    <glyph glyph-name="uni1E53" unicode="&#x1e53;" horiz-adv-x="576" 
d="M471 470q64 -70 64 -196q0 -87 -31 -151t-89 -98.5t-138 -34.5q-112 0 -173.5 68.5t-61.5 195.5q0 133 67 209.5t186 76.5q112 0 176 -70zM183 413.5q-37 -53.5 -37 -154.5q0 -196 137 -196q72 0 109.5 53.5t37.5 152.5q0 98 -35.5 148t-104.5 50q-70 0 -107 -53.5z
M409 803l-225 -88l-28 56l215 113zM149 680h277v-71h-277v71z" />
    <glyph glyph-name="uni1E5A" unicode="&#x1e5a;" horiz-adv-x="661" 
d="M580 71l63 -18v-53h-137l-91 196q-21 45 -36 65.5t-38.5 29.5t-66.5 9l-45 -1v-226l96 -20v-53h-280v53l82 19v553l-82 17v53l188 5h110q115 0 174.5 -48t59.5 -139q0 -76 -43.5 -126.5t-128.5 -67.5q35 -10 56.5 -32.5t42.5 -63.5zM229 372h73q83 0 126.5 34.5
t43.5 100.5q0 58 -35.5 88t-105.5 30h-102v-253zM300 -178q-17 17 -17 48t17.5 48t45.5 17t45.5 -17t17.5 -48t-17.5 -48t-46.5 -17q-28 0 -45 17z" />
    <glyph glyph-name="uni1E5B" unicode="&#x1e5b;" horiz-adv-x="451" 
d="M437 530l-7 -154h-61l-11 82q-14 2 -20 2q-33 0 -66 -18.5t-63 -51.5v-319l93 -18v-53h-267v53l74 17v386l-74 18v53l152 7l11 -82q44 44 85 66t86 22q32 0 68 -10zM113 -178q-17 17 -17 48t17.5 48t45.5 17t45.5 -17t17.5 -48t-17.5 -48t-46.5 -17q-28 0 -45 17z" />
    <glyph glyph-name="uni1E5E" unicode="&#x1e5e;" horiz-adv-x="661" 
d="M580 71l63 -18v-53h-137l-91 196q-21 45 -36 65.5t-38.5 29.5t-66.5 9l-45 -1v-226l96 -20v-53h-280v53l82 19v553l-82 17v53l188 5h110q115 0 174.5 -48t59.5 -139q0 -76 -43.5 -126.5t-128.5 -67.5q35 -10 56.5 -32.5t42.5 -63.5zM229 372h73q83 0 126.5 34.5
t43.5 100.5q0 58 -35.5 88t-105.5 30h-102v-253zM210 -95h285v-71h-285v71z" />
    <glyph glyph-name="uni1E5F" unicode="&#x1e5f;" horiz-adv-x="451" 
d="M437 530l-7 -154h-61l-11 82q-14 2 -20 2q-33 0 -66 -18.5t-63 -51.5v-319l93 -18v-53h-267v53l74 17v386l-74 18v53l152 7l11 -82q44 44 85 66t86 22q32 0 68 -10zM294 -166h-270v71h270v-71z" />
    <glyph glyph-name="uni1E60" unicode="&#x1e60;" horiz-adv-x="600" 
d="M191.5 470q20.5 -23 51.5 -36.5t85 -31.5q68 -21 110.5 -42t72.5 -60.5t30 -102.5q0 -101 -75.5 -154t-191.5 -53q-105 0 -209 42l6 172h60l17 -110q67 -27 132 -27q69 0 114.5 30.5t45.5 86.5q0 37 -21 60.5t-52.5 37.5t-87.5 32q-67 21 -108.5 41t-70.5 58t-29 100
q0 96 68 146.5t177 50.5q102 0 205 -42l-9 -163h-61l-16 108q-54 20 -115 20q-64 0 -106.5 -26t-42.5 -79q0 -35 20.5 -58zM266 781q-17 17 -17 48t17.5 48t45.5 17t45.5 -17t17.5 -48t-17.5 -48t-46.5 -17q-28 0 -45 17z" />
    <glyph glyph-name="uni1E61" unicode="&#x1e61;" horiz-adv-x="479" 
d="M182 349q28 -17 88 -36q53 -17 86 -32.5t56.5 -45.5t23.5 -78q0 -79 -62.5 -123t-161.5 -44q-76 0 -162 24l7 141h63l10 -85q42 -11 85 -11q50 0 85.5 21.5t35.5 60.5q0 25 -15.5 41.5t-38.5 26.5t-63 23q-52 16 -84.5 31.5t-55.5 45.5t-23 78q0 75 56 114t139 39
q77 0 165 -28l-5 -121h-64l-13 68q-42 12 -80 12q-45 0 -72.5 -19t-27.5 -52q0 -34 28 -51zM198 648q-17 17 -17 48t17.5 48t45.5 17t45.5 -17t17.5 -48t-17.5 -48t-46.5 -17q-28 0 -45 17z" />
    <glyph glyph-name="uni1E62" unicode="&#x1e62;" horiz-adv-x="600" 
d="M191.5 470q20.5 -23 51.5 -36.5t85 -31.5q68 -21 110.5 -42t72.5 -60.5t30 -102.5q0 -101 -75.5 -154t-191.5 -53q-105 0 -209 42l6 172h60l17 -110q67 -27 132 -27q69 0 114.5 30.5t45.5 86.5q0 37 -21 60.5t-52.5 37.5t-87.5 32q-67 21 -108.5 41t-70.5 58t-29 100
q0 96 68 146.5t177 50.5q102 0 205 -42l-9 -163h-61l-16 108q-54 20 -115 20q-64 0 -106.5 -26t-42.5 -79q0 -35 20.5 -58zM259 -178q-17 17 -17 48t17.5 48t45.5 17t45.5 -17t17.5 -48t-17.5 -48t-46.5 -17q-28 0 -45 17z" />
    <glyph glyph-name="uni1E63" unicode="&#x1e63;" horiz-adv-x="479" 
d="M182 349q28 -17 88 -36q53 -17 86 -32.5t56.5 -45.5t23.5 -78q0 -79 -62.5 -123t-161.5 -44q-76 0 -162 24l7 141h63l10 -85q42 -11 85 -11q50 0 85.5 21.5t35.5 60.5q0 25 -15.5 41.5t-38.5 26.5t-63 23q-52 16 -84.5 31.5t-55.5 45.5t-23 78q0 75 56 114t139 39
q77 0 165 -28l-5 -121h-64l-13 68q-42 12 -80 12q-45 0 -72.5 -19t-27.5 -52q0 -34 28 -51zM195 -178q-17 17 -17 48t17.5 48t45.5 17t45.5 -17t17.5 -48t-17.5 -48t-46.5 -17q-28 0 -45 17z" />
    <glyph glyph-name="uni1E64" unicode="&#x1e64;" horiz-adv-x="600" 
d="M191.5 470q20.5 -23 51.5 -36.5t85 -31.5q68 -21 110.5 -42t72.5 -60.5t30 -102.5q0 -101 -75.5 -154t-191.5 -53q-105 0 -209 42l6 172h60l17 -110q67 -27 132 -27q69 0 114.5 30.5t45.5 86.5q0 37 -21 60.5t-52.5 37.5t-87.5 32q-67 21 -108.5 41t-70.5 58t-29 100
q0 96 68 146.5t177 50.5q102 0 205 -42l-9 -163h-61l-16 108q-54 20 -115 20q-64 0 -106.5 -26t-42.5 -79q0 -35 20.5 -58zM247.5 904q-16.5 16 -16.5 45q0 30 17 46t44 16q28 0 44 -16t16 -45q0 -30 -17 -46t-44 -16t-43.5 16zM433 815l-227 -82l-27 57l218 108z" />
    <glyph glyph-name="uni1E65" unicode="&#x1e65;" horiz-adv-x="479" 
d="M182 349q28 -17 88 -36q53 -17 86 -32.5t56.5 -45.5t23.5 -78q0 -79 -62.5 -123t-161.5 -44q-76 0 -162 24l7 141h63l10 -85q42 -11 85 -11q50 0 85.5 21.5t35.5 60.5q0 25 -15.5 41.5t-38.5 26.5t-63 23q-52 16 -84.5 31.5t-55.5 45.5t-23 78q0 75 56 114t139 39
q77 0 165 -28l-5 -121h-64l-13 68q-42 12 -80 12q-45 0 -72.5 -19t-27.5 -52q0 -34 28 -51zM184.5 771.5q-16.5 16.5 -16.5 45.5q0 30 17 46t44 16t43.5 -16t16.5 -46t-17 -46t-44 -16t-43.5 16.5zM375 691l-217 -109l-32 53l202 133z" />
    <glyph glyph-name="uni1E66" unicode="&#x1e66;" horiz-adv-x="600" 
d="M191.5 470q20.5 -23 51.5 -36.5t85 -31.5q68 -21 110.5 -42t72.5 -60.5t30 -102.5q0 -101 -75.5 -154t-191.5 -53q-105 0 -209 42l6 172h60l17 -110q67 -27 132 -27q69 0 114.5 30.5t45.5 86.5q0 37 -21 60.5t-52.5 37.5t-87.5 32q-67 21 -108.5 41t-70.5 58t-29 100
q0 96 68 146.5t177 50.5q102 0 205 -42l-9 -163h-61l-16 108q-54 20 -115 20q-64 0 -106.5 -26t-42.5 -79q0 -35 20.5 -58zM269.5 904q-16.5 16 -16.5 45q0 30 17 46t44 16t43.5 -16t16.5 -45q0 -30 -17 -46t-44 -16t-43.5 16zM312 825l137 89l35 -41l-141 -123l-58 -4
l-149 127l35 41z" />
    <glyph glyph-name="uni1E67" unicode="&#x1e67;" horiz-adv-x="479" 
d="M182 349q28 -17 88 -36q53 -17 86 -32.5t56.5 -45.5t23.5 -78q0 -79 -62.5 -123t-161.5 -44q-76 0 -162 24l7 141h63l10 -85q42 -11 85 -11q50 0 85.5 21.5t35.5 60.5q0 25 -15.5 41.5t-38.5 26.5t-63 23q-52 16 -84.5 31.5t-55.5 45.5t-23 78q0 75 56 114t139 39
q77 0 165 -28l-5 -121h-64l-13 68q-42 12 -80 12q-45 0 -72.5 -19t-27.5 -52q0 -34 28 -51zM203.5 772.5q-16.5 16.5 -16.5 45.5q0 30 16.5 46t43.5 16q28 0 44.5 -16t16.5 -46t-17 -46t-44 -16t-43.5 16.5zM246 681l132 98l34 -39l-135 -133l-58 -5l-143 138l35 39z" />
    <glyph glyph-name="uni1E68" unicode="&#x1e68;" horiz-adv-x="600" 
d="M191.5 470q20.5 -23 51.5 -36.5t85 -31.5q68 -21 110.5 -42t72.5 -60.5t30 -102.5q0 -101 -75.5 -154t-191.5 -53q-105 0 -209 42l6 172h60l17 -110q67 -27 132 -27q69 0 114.5 30.5t45.5 86.5q0 37 -21 60.5t-52.5 37.5t-87.5 32q-67 21 -108.5 41t-70.5 58t-29 100
q0 96 68 146.5t177 50.5q102 0 205 -42l-9 -163h-61l-16 108q-54 20 -115 20q-64 0 -106.5 -26t-42.5 -79q0 -35 20.5 -58zM266 781q-17 17 -17 48t17.5 48t45.5 17t45.5 -17t17.5 -48t-17.5 -48t-46.5 -17q-28 0 -45 17zM259 -178q-17 17 -17 48t17.5 48t45.5 17t45.5 -17
t17.5 -48t-17.5 -48t-46.5 -17q-28 0 -45 17z" />
    <glyph glyph-name="uni1E69" unicode="&#x1e69;" horiz-adv-x="479" 
d="M182 349q28 -17 88 -36q53 -17 86 -32.5t56.5 -45.5t23.5 -78q0 -79 -62.5 -123t-161.5 -44q-76 0 -162 24l7 141h63l10 -85q42 -11 85 -11q50 0 85.5 21.5t35.5 60.5q0 25 -15.5 41.5t-38.5 26.5t-63 23q-52 16 -84.5 31.5t-55.5 45.5t-23 78q0 75 56 114t139 39
q77 0 165 -28l-5 -121h-64l-13 68q-42 12 -80 12q-45 0 -72.5 -19t-27.5 -52q0 -34 28 -51zM198 648q-17 17 -17 48t17.5 48t45.5 17t45.5 -17t17.5 -48t-17.5 -48t-46.5 -17q-28 0 -45 17zM194 -178q-17 17 -17 48t17.5 48t45.5 17t45.5 -17t17.5 -48t-17.5 -48t-46.5 -17
q-28 0 -45 17z" />
    <glyph glyph-name="uni1E6C" unicode="&#x1e6c;" horiz-adv-x="594" 
d="M25 519v181h544v-181h-61l-19 106h-141v-553l95 -19v-53h-292v53l95 19v553h-141l-19 -106h-61zM250 -178q-17 17 -17 48t17.5 48t45.5 17t45.5 -17t17.5 -48t-17.5 -48t-46.5 -17q-28 0 -45 17z" />
    <glyph glyph-name="uni1E6D" unicode="&#x1e6d;" horiz-adv-x="373" 
d="M360 31q-77 -41 -142 -41q-58 0 -89.5 36t-31.5 106v330h-86v54l86 15v117l100 17v-135h143l-3 -68h-140v-316q0 -80 61 -80q35 0 82 22zM148 -178q-17 17 -17 48t17.5 48t45.5 17t45.5 -17t17.5 -48t-17.5 -48t-46.5 -17q-28 0 -45 17z" />
    <glyph glyph-name="uni1E6E" unicode="&#x1e6e;" horiz-adv-x="594" 
d="M25 519v181h544v-181h-61l-19 106h-141v-553l95 -19v-53h-292v53l95 19v553h-141l-19 -106h-61zM448 -166h-290v71h290v-71z" />
    <glyph glyph-name="uni1E6F" unicode="&#x1e6f;" horiz-adv-x="373" 
d="M97 462h-86v54l86 15v117l100 17v-135h143l-3 -68h-140v-316q0 -80 61 -80q35 0 82 22l20 -57q-77 -41 -142 -41q-58 0 -89.5 36t-31.5 106v330zM328 -166h-250v71h250v-71z" />
    <glyph glyph-name="uni1E78" unicode="&#x1e78;" horiz-adv-x="747" 
d="M722 700v-53l-82 -20v-359q0 -278 -270 -278q-120 0 -178 45.5t-71.5 100.5t-13.5 120v370l-82 16v53l267 5v-53l-82 -21v-370q0 -55 9.5 -94t44.5 -66t107 -27q73 0 109.5 28.5t46.5 70t10 100.5v358l-82 16v53zM495 953l-231 -73l-24 59l222 98zM203 760q18 49 42 72
t56 23q18 0 35 -5.5t45 -17.5q42 -19 61 -19q18 0 32 10.5t29 34.5l44 -20q-18 -50 -43.5 -73t-58.5 -23q-17 0 -33.5 5.5t-41.5 17.5q-25 11 -38 15.5t-27 4.5q-17 0 -30 -10.5t-28 -34.5z" />
    <glyph glyph-name="uni1E79" unicode="&#x1e79;" horiz-adv-x="624" 
d="M527 71l74 -17v-53l-152 -7l-12 83q-46 -43 -96.5 -65t-98.5 -22q-69 0 -111 43.5t-42 126.5v297l-75 17v53l175 6v-356q0 -55 24.5 -82.5t69.5 -27.5q33 0 70.5 17.5t73.5 50.5v322l-75 17v53l175 7v-463zM422 819l-229 -84l-26 56l216 110zM128 614q18 49 42 72t56 23
q18 0 35 -5.5t45 -17.5q42 -19 61 -19q18 0 32 10.5t29 34.5l44 -20q-18 -50 -43.5 -73t-58.5 -23q-17 0 -33.5 5.5t-41.5 17.5q-25 11 -38 15.5t-27 4.5q-17 0 -30 -10.5t-28 -34.5z" />
    <glyph glyph-name="uni1E7A" unicode="&#x1e7a;" horiz-adv-x="747" 
d="M722 700v-53l-82 -20v-359q0 -278 -270 -278q-120 0 -178 45.5t-71.5 100.5t-13.5 120v370l-82 16v53l267 5v-53l-82 -21v-370q0 -55 9.5 -94t44.5 -66t107 -27q73 0 109.5 28.5t46.5 70t10 100.5v358l-82 16v53zM312 968.5q14 -15.5 15 -43.5q0 -28 -15.5 -44t-39.5 -16
q-26 0 -40.5 16t-14.5 44q0 27 16 43t39 16q26 0 40 -15.5zM518 968q14 -16 14 -45q0 -27 -15.5 -42.5t-38.5 -15.5q-26 0 -41 16t-15 44q0 27 16.5 43t39.5 16q26 0 40 -16zM513 749h-277v72h277v-72z" />
    <glyph glyph-name="uni1E7B" unicode="&#x1e7b;" horiz-adv-x="624" 
d="M527 71l74 -17v-53l-152 -7l-12 83q-46 -43 -96.5 -65t-98.5 -22q-69 0 -111 43.5t-42 126.5v297l-75 17v53l175 6v-356q0 -55 24.5 -82.5t69.5 -27.5q33 0 70.5 17.5t73.5 50.5v322l-75 17v53l175 7v-463zM239 844.5q14 -15.5 15 -43.5q0 -27 -15.5 -43.5t-39.5 -16.5
q-25 0 -40 16t-15 44q0 27 16 43t39 16q26 0 40 -15.5zM445 844q14 -16 14 -45q0 -26 -15.5 -42t-38.5 -16q-26 0 -41 16t-15 44q0 27 16.5 43t39.5 16q26 0 40 -16zM439 620h-277v72h277v-72z" />
    <glyph glyph-name="Wgrave" unicode="&#x1e80;" horiz-adv-x="1023" 
d="M767 695l252 5v-53l-76 -18l-178 -630h-98l-157 545l-166 -545h-97l-166 628l-76 15v53l262 5v-53l-82 -19l120 -496l165 564l94 4l158 -567l132 494l-87 15v53zM647 807l-28 -56l-225 96l44 81z" />
    <glyph glyph-name="wgrave" unicode="&#x1e81;" horiz-adv-x="810" 
d="M610 527l205 7v-53l-55 -14l-131 -469h-109l-113 422l-123 -422h-109l-123 464l-57 12v53l223 7v-53l-72 -14l92 -377l121 438l105 6l115 -448l98 376l-67 12v53zM288 744l55 72l188 -149l-38 -52z" />
    <glyph glyph-name="Wacute" unicode="&#x1e82;" horiz-adv-x="1023" 
d="M767 695l252 5v-53l-76 -18l-178 -630h-98l-157 545l-166 -545h-97l-166 628l-76 15v53l262 5v-53l-82 -19l120 -496l165 564l94 4l158 -567l132 494l-87 15v53zM651 848l-222 -97l-30 55l211 122z" />
    <glyph glyph-name="wacute" unicode="&#x1e83;" horiz-adv-x="810" 
d="M610 527l205 7v-53l-55 -14l-131 -469h-109l-113 422l-123 -422h-109l-123 464l-57 12v53l223 7v-53l-72 -14l92 -377l121 438l105 6l115 -448l98 376l-67 12v53zM569 742l-209 -127l-36 50l191 150z" />
    <glyph glyph-name="Wdieresis" unicode="&#x1e84;" horiz-adv-x="1023" 
d="M767 695l252 5v-53l-76 -18l-178 -630h-98l-157 545l-166 -545h-97l-166 628l-76 15v53l262 5v-53l-82 -19l120 -496l165 564l94 4l158 -567l132 494l-87 15v53zM376.5 780.5q-14.5 15.5 -15.5 43.5q0 27 15.5 43.5t39.5 16.5q25 0 40 -16t15 -44q0 -27 -16 -43t-39 -16
q-25 0 -39.5 15.5zM581 781q-14 16 -14 45q0 26 16 42t39 16q25 0 40 -16t15 -44q0 -27 -16 -43t-39 -16q-27 0 -41 16z" />
    <glyph glyph-name="wdieresis" unicode="&#x1e85;" horiz-adv-x="810" 
d="M610 527l205 7v-53l-55 -14l-131 -469h-109l-113 422l-123 -422h-109l-123 464l-57 12v53l223 7v-53l-72 -14l92 -377l121 438l105 6l115 -448l98 376l-67 12v53zM266.5 652.5q-14.5 15.5 -15.5 43.5q0 27 15.5 43.5t39.5 16.5q25 0 40 -16t15 -44q0 -27 -16 -43t-39 -16
q-25 0 -39.5 15.5zM471 653q-14 16 -14 45q0 26 16 42t39 16q25 0 40 -16t15 -44q0 -27 -16 -43t-39 -16q-27 0 -41 16z" />
    <glyph glyph-name="uni1E8E" unicode="&#x1e8e;" horiz-adv-x="643" 
d="M640 647l-73 -18l-196 -379v-178l84 -19v-53h-271v53l85 20v181l-193 372l-73 16v53l264 5v-53l-84 -18l145 -299l148 296l-86 16v53l250 5v-53zM278 781q-17 17 -17 48t17.5 48t45.5 17t45.5 -17t17.5 -48t-17.5 -48t-46.5 -17q-28 0 -45 17z" />
    <glyph glyph-name="uni1E8F" unicode="&#x1e8f;" horiz-adv-x="538" 
d="M542 534v-53l-54 -14l-170 -468q-29 -80 -58 -130.5t-73.5 -79.5t-110.5 -29q-28 0 -63 6l9 72q34 -4 46 -4q44 0 72 17.5t48 53t41 96.5l-181 463l-54 10v53l229 7v-53l-74 -14l126 -362l119 358l-72 11v53zM222 648q-17 17 -17 48t17.5 48t45.5 17t45.5 -17t17.5 -48
t-17.5 -48t-46.5 -17q-28 0 -45 17z" />
    <glyph glyph-name="uni1E92" unicode="&#x1e92;" horiz-adv-x="619" 
d="M490 76l18 107h62l-2 -183h-527v69l404 555h-301l-19 -107h-61v183h501v-68l-400 -556h325zM262 -178q-17 17 -17 48t17.5 48t45.5 17t45.5 -17t17.5 -48t-17.5 -48t-46.5 -17q-28 0 -45 17z" />
    <glyph glyph-name="uni1E93" unicode="&#x1e93;" horiz-adv-x="489" 
d="M386 153h62l1 -152l-411 -1v59l290 402h-210l-11 -73h-61l-1 142h395v-60l-287 -401h217zM198 -178q-17 17 -17 48t17.5 48t45.5 17t45.5 -17t17.5 -48t-17.5 -48t-46.5 -17q-28 0 -45 17z" />
    <glyph glyph-name="uni1E97" unicode="&#x1e97;" horiz-adv-x="373" 
d="M360 31q-77 -41 -142 -41q-58 0 -89.5 36t-31.5 106v330h-86v54l86 15v117l100 17v-135h143l-3 -68h-140v-316q0 -80 61 -80q35 0 82 22zM11.5 690.5q-14.5 15.5 -15.5 43.5q0 27 15.5 43.5t39.5 16.5q25 0 40 -16t15 -44q0 -27 -16 -43t-39 -16q-25 0 -39.5 15.5z
M216 691q-14 16 -14 45q0 26 16 42t39 16q25 0 40 -16t15 -44q0 -27 -16 -43t-39 -16q-27 0 -41 16z" />
    <glyph glyph-name="uni1E9E" unicode="&#x1e9e;" horiz-adv-x="723" 
d="M452 404q110 -15 172 -60t62 -143q0 -101 -64.5 -156t-168.5 -55q-66 0 -151 24l7 148h56l16 -85q42 -10 71 -10q58 0 93.5 35t35.5 98q0 53 -26 83.5t-73.5 44.5t-123.5 20v65l160 212l-290 -1v-624h-184v53l82 19v553l-82 17v53l183 5h389v-77z" />
    <glyph glyph-name="uni1EA0" unicode="&#x1ea0;" horiz-adv-x="710" 
d="M414 702l221 -631l71 -18v-53h-269v53l84 18l-40 123h-269l-43 -123l86 -18v-53h-251v53l70 17l235 629zM460 267l-106 339l-118 -339h224zM302 -178q-17 17 -17 48t17.5 48t45.5 17t45.5 -17t17.5 -48t-17.5 -48t-46.5 -17q-28 0 -45 17z" />
    <glyph glyph-name="uni1EA1" unicode="&#x1ea1;" horiz-adv-x="551" 
d="M459 72l75 -18v-53l-152 -7l-13 86q-40 -44 -88.5 -67t-94.5 -23q-61 0 -101 39.5t-40 112.5q0 82 51.5 116.5t149.5 34.5h113v75q0 97 -102 97q-42 0 -99 -17l-10 -79h-66l-8 133q123 38 208 38q177 0 177 -154v-314zM166 86q20 -21 54 -21q30 0 67 18.5t72 50.5v95h-97
q-64 0 -90 -19.5t-26 -60.5q0 -42 20 -63zM227 -178q-17 17 -17 48t17.5 48t45.5 17t45.5 -17t17.5 -48t-17.5 -48t-46.5 -17q-28 0 -45 17z" />
    <glyph glyph-name="uni1EA2" unicode="&#x1ea2;" horiz-adv-x="710" 
d="M414 702l221 -631l71 -18v-53h-269v53l84 18l-40 123h-269l-43 -123l86 -18v-53h-251v53l70 17l235 629zM460 267l-106 339l-118 -339h224zM324 808q73 3 73 46q0 19 -13 27.5t-35 8.5q-25 0 -60 -10l-13 48q46 16 88 16q48 0 78.5 -21t30.5 -64q0 -33 -21 -55t-63 -29
v-33h-65v66z" />
    <glyph glyph-name="uni1EA3" unicode="&#x1ea3;" horiz-adv-x="551" 
d="M459 72l75 -18v-53l-152 -7l-13 86q-40 -44 -88.5 -67t-94.5 -23q-61 0 -101 39.5t-40 112.5q0 82 51.5 116.5t149.5 34.5h113v75q0 97 -102 97q-42 0 -99 -17l-10 -79h-66l-8 133q123 38 208 38q177 0 177 -154v-314zM166 86q20 -21 54 -21q30 0 67 18.5t72 50.5v95h-97
q-64 0 -90 -19.5t-26 -60.5q0 -42 20 -63zM230 680q74 3 74 45q0 18 -13 27t-36 9q-26 0 -59 -10l-13 47q45 17 88 17q49 0 79 -21.5t30 -63.5q0 -33 -21 -54.5t-63 -28.5v-43h-66v76z" />
    <glyph glyph-name="uni1EA4" unicode="&#x1ea4;" horiz-adv-x="710" 
d="M414 702l221 -631l71 -18v-53h-269v53l84 18l-40 123h-269l-43 -123l86 -18v-53h-251v53l70 17l235 629zM460 267l-106 339l-118 -339h224zM598 1014l52 -60l-151 -112l-39 44zM190 773l140 123l58 4l149 -127l-35 -41l-141 89l-137 -89z" />
    <glyph glyph-name="uni1EA5" unicode="&#x1ea5;" horiz-adv-x="551" 
d="M459 72l75 -18v-53l-152 -7l-13 86q-40 -44 -88.5 -67t-94.5 -23q-61 0 -101 39.5t-40 112.5q0 82 51.5 116.5t149.5 34.5h113v75q0 97 -102 97q-42 0 -99 -17l-10 -79h-66l-8 133q123 38 208 38q177 0 177 -154v-314zM166 86q20 -21 54 -21q30 0 67 18.5t72 50.5v95h-97
q-64 0 -90 -19.5t-26 -60.5q0 -42 20 -63zM472 900l62 -50l-130 -137l-45 37zM99 616l138 134l58 4l146 -138l-35 -38l-138 97l-134 -97z" />
    <glyph glyph-name="uni1EA6" unicode="&#x1ea6;" horiz-adv-x="710" 
d="M414 702l221 -631l71 -18v-53h-269v53l84 18l-40 123h-269l-43 -123l86 -18v-53h-251v53l70 17l235 629zM460 267l-106 339l-118 -339h224zM399 965l58 55l123 -143l-43 -39zM189 773l140 123l58 4l149 -127l-35 -41l-141 89l-137 -89z" />
    <glyph glyph-name="uni1EA7" unicode="&#x1ea7;" horiz-adv-x="551" 
d="M459 72l75 -18v-53l-152 -7l-13 86q-40 -44 -88.5 -67t-94.5 -23q-61 0 -101 39.5t-40 112.5q0 82 51.5 116.5t149.5 34.5h113v75q0 97 -102 97q-42 0 -99 -17l-10 -79h-66l-8 133q123 38 208 38q177 0 177 -154v-314zM166 86q20 -21 54 -21q30 0 67 18.5t72 50.5v95h-97
q-64 0 -90 -19.5t-26 -60.5q0 -42 20 -63zM358 898l117 -147l-44 -37l-134 131zM101 616l138 134l58 4l146 -138l-35 -38l-138 97l-134 -97z" />
    <glyph glyph-name="uni1EA8" unicode="&#x1ea8;" horiz-adv-x="710" 
d="M414 702l221 -631l71 -18v-53h-269v53l84 18l-40 123h-269l-43 -123l86 -18v-53h-251v53l70 17l235 629zM460 267l-106 339l-118 -339h224zM388 898l149 -128l-35 -41l-141 90l-137 -90l-34 41l140 123zM463 928q73 3 73 46q0 19 -13 27.5t-35 8.5q-25 0 -60 -10l-13 48
q46 16 88 16q48 0 78.5 -21t30.5 -64q0 -33 -21 -55t-63 -29v-33h-65v66z" />
    <glyph glyph-name="uni1EA9" unicode="&#x1ea9;" horiz-adv-x="551" 
d="M459 72l75 -18v-53l-152 -7l-13 86q-40 -44 -88.5 -67t-94.5 -23q-61 0 -101 39.5t-40 112.5q0 82 51.5 116.5t149.5 34.5h113v75q0 97 -102 97q-42 0 -99 -17l-10 -79h-66l-8 133q123 38 208 38q177 0 177 -154v-314zM166 86q20 -21 54 -21q30 0 67 18.5t72 50.5v95h-97
q-64 0 -90 -19.5t-26 -60.5q0 -42 20 -63zM382 768q73 3 73 46q0 19 -13 27.5t-35 8.5q-25 0 -60 -10l-13 48q46 16 88 16q48 0 78.5 -21t30.5 -64q0 -33 -21 -55t-63 -29v-33h-65v66zM299 754l146 -138l-36 -39l-137 98l-135 -98l-35 39l139 133z" />
    <glyph glyph-name="uni1EAA" unicode="&#x1eaa;" horiz-adv-x="710" 
d="M414 702l221 -631l71 -18v-53h-269v53l84 18l-40 123h-269l-43 -123l86 -18v-53h-251v53l70 17l235 629zM460 267l-106 339l-118 -339h224zM263.5 945.5q-13.5 -10.5 -27.5 -34.5l-42 20q17 50 40.5 73t54.5 23q18 0 36.5 -6.5t42.5 -17.5q40 -19 58 -19q17 0 31 10.5
t28 35.5l43 -20q-18 -50 -42 -73t-57 -23q-17 0 -33.5 5.5t-40.5 16.5t-36.5 15.5t-25.5 4.5q-16 0 -29.5 -10.5zM388 900l148 -127l-35 -41l-141 89l-137 -89l-34 41l140 123z" />
    <glyph glyph-name="uni1EAB" unicode="&#x1eab;" horiz-adv-x="551" 
d="M459 72l75 -18v-53l-152 -7l-13 86q-40 -44 -88.5 -67t-94.5 -23q-61 0 -101 39.5t-40 112.5q0 82 51.5 116.5t149.5 34.5h113v75q0 97 -102 97q-42 0 -99 -17l-10 -79h-66l-8 133q123 38 208 38q177 0 177 -154v-314zM166 86q20 -21 54 -21q30 0 67 18.5t72 50.5v95h-97
q-64 0 -90 -19.5t-26 -60.5q0 -42 20 -63zM293 752l146 -138l-36 -39l-137 98l-135 -98l-35 39l139 133zM94 788q18 50 42 73t56 23q18 0 36.5 -6t43.5 -18q42 -19 61 -19q18 0 32 10.5t29 34.5l44 -19q-18 -51 -43.5 -74t-58.5 -23q-17 0 -33.5 5.5t-41.5 17.5
q-25 11 -38 15.5t-27 4.5q-17 0 -30 -10.5t-28 -34.5z" />
    <glyph glyph-name="uni1EAC" unicode="&#x1eac;" horiz-adv-x="710" 
d="M414 702l221 -631l71 -18v-53h-269v53l84 18l-40 123h-269l-43 -123l86 -18v-53h-251v53l70 17l235 629zM460 267l-106 339l-118 -339h224zM386 915l149 -128l-35 -41l-141 90l-137 -90l-34 41l140 123zM301 -178q-17 17 -17 48t17.5 48t45.5 17t45.5 -17t17.5 -48
t-17.5 -48t-46.5 -17q-28 0 -45 17z" />
    <glyph glyph-name="uni1EAD" unicode="&#x1ead;" horiz-adv-x="551" 
d="M459 72l75 -18v-53l-152 -7l-13 86q-40 -44 -88.5 -67t-94.5 -23q-61 0 -101 39.5t-40 112.5q0 82 51.5 116.5t149.5 34.5h113v75q0 97 -102 97q-42 0 -99 -17l-10 -79h-66l-8 133q123 38 208 38q177 0 177 -154v-314zM166 86q20 -21 54 -21q30 0 67 18.5t72 50.5v95h-97
q-64 0 -90 -19.5t-26 -60.5q0 -42 20 -63zM296 802l146 -138l-36 -39l-137 98l-135 -98l-35 39l139 133zM227 -178q-17 17 -17 48t17.5 48t45.5 17t45.5 -17t17.5 -48t-17.5 -48t-46.5 -17q-28 0 -45 17z" />
    <glyph glyph-name="uni1EAE" unicode="&#x1eae;" horiz-adv-x="710" 
d="M414 702l221 -631l71 -18v-53h-269v53l84 18l-40 123h-269l-43 -123l86 -18v-53h-251v53l70 17l235 629zM460 267l-106 339l-118 -339h224zM260 774.5q-43 35.5 -44 97.5l60 7q4 -36 30 -55t60 -19q32 0 56 18.5t27 51.5l59 3q0 -44 -20.5 -75.5t-54.5 -47.5t-72 -16
q-58 0 -101 35.5zM488 983l-144 -123l-41 42l128 137z" />
    <glyph glyph-name="uni1EAF" unicode="&#x1eaf;" horiz-adv-x="551" 
d="M459 72l75 -18v-53l-152 -7l-13 86q-40 -44 -88.5 -67t-94.5 -23q-61 0 -101 39.5t-40 112.5q0 82 51.5 116.5t149.5 34.5h113v75q0 97 -102 97q-42 0 -99 -17l-10 -79h-66l-8 133q123 38 208 38q177 0 177 -154v-314zM166 86q20 -21 54 -21q30 0 67 18.5t72 50.5v95h-97
q-64 0 -90 -19.5t-26 -60.5q0 -42 20 -63zM168 626.5q-43 35.5 -44 97.5l60 7q4 -36 30 -55t60 -19q32 0 56 18.5t27 51.5l59 3q0 -44 -20.5 -75.5t-54.5 -47.5t-72 -16q-58 0 -101 35.5zM402 839l-144 -123l-41 42l128 137z" />
    <glyph glyph-name="uni1EB0" unicode="&#x1eb0;" horiz-adv-x="710" 
d="M414 702l221 -631l71 -18v-53h-269v53l84 18l-40 123h-269l-43 -123l86 -18v-53h-251v53l70 17l235 629zM460 267l-106 339l-118 -339h224zM420 903l-41 -42l-144 123l57 56zM260 773.5q-43 35.5 -44 98.5l59 7q5 -35 31 -54.5t59 -19.5t57 18t27 51l58 3
q0 -44 -20.5 -75.5t-54 -47.5t-71.5 -16q-58 0 -101 35.5z" />
    <glyph glyph-name="uni1EB1" unicode="&#x1eb1;" horiz-adv-x="551" 
d="M459 72l75 -18v-53l-152 -7l-13 86q-40 -44 -88.5 -67t-94.5 -23q-61 0 -101 39.5t-40 112.5q0 82 51.5 116.5t149.5 34.5h113v75q0 97 -102 97q-42 0 -99 -17l-10 -79h-66l-8 133q123 38 208 38q177 0 177 -154v-314zM166 86q20 -21 54 -21q30 0 67 18.5t72 50.5v95h-97
q-64 0 -90 -19.5t-26 -60.5q0 -42 20 -63zM329 758l-42 -41l-143 123l57 56zM199.5 605.5q-32.5 15.5 -53.5 46t-22 72.5l60 7q4 -36 30 -55t60 -19q32 0 56 18t27 51l59 3q0 -44 -20.5 -75.5t-54.5 -47.5t-72 -16q-37 0 -69.5 15.5z" />
    <glyph glyph-name="uni1EB2" unicode="&#x1eb2;" horiz-adv-x="710" 
d="M414 702l221 -631l71 -18v-53h-269v53l84 18l-40 123h-269l-43 -123l86 -18v-53h-251v53l70 17l235 629zM460 267l-106 339l-118 -339h224zM260 774.5q-43 35.5 -44 97.5l60 7q4 -36 30 -55t60 -19q32 0 56 18.5t27 51.5l59 3q0 -44 -20.5 -75.5t-54.5 -47.5t-72 -16
q-58 0 -101 35.5zM325 922q73 3 73 46q0 19 -13 27.5t-35 8.5q-25 0 -60 -10l-13 48q46 16 88 16q48 0 78.5 -21t30.5 -64q0 -33 -21 -55t-63 -29v-33h-65v66z" />
    <glyph glyph-name="uni1EB3" unicode="&#x1eb3;" horiz-adv-x="551" 
d="M459 72l75 -18v-53l-152 -7l-13 86q-40 -44 -88.5 -67t-94.5 -23q-61 0 -101 39.5t-40 112.5q0 82 51.5 116.5t149.5 34.5h113v75q0 97 -102 97q-42 0 -99 -17l-10 -79h-66l-8 133q123 38 208 38q177 0 177 -154v-314zM166 86q20 -21 54 -21q30 0 67 18.5t72 50.5v95h-97
q-64 0 -90 -19.5t-26 -60.5q0 -42 20 -63zM167 626.5q-43 35.5 -44 97.5l60 7q4 -36 30 -55t60 -19q32 0 56 18.5t27 51.5l59 3q0 -44 -20.5 -75.5t-54.5 -47.5t-72 -16q-58 0 -101 35.5zM234 790q73 3 73 46q0 19 -13 27.5t-35 8.5q-25 0 -60 -10l-13 48q46 16 88 16
q48 0 78.5 -21t30.5 -64q0 -33 -21 -55t-63 -29v-33h-65v66z" />
    <glyph glyph-name="uni1EB4" unicode="&#x1eb4;" horiz-adv-x="710" 
d="M414 702l221 -631l71 -18v-53h-269v53l84 18l-40 123h-269l-43 -123l86 -18v-53h-251v53l70 17l235 629zM460 267l-106 339l-118 -339h224zM203 916q16 50 38 73t52 23q17 0 34 -6t40 -18q38 -19 56 -19q16 0 29.5 11t26.5 35l41 -20q-32 -96 -94 -96q-16 0 -30.5 5.5
t-39.5 17.5q-20 10 -33 15t-26 5q-15 0 -27.5 -10.5t-26.5 -34.5zM261 773.5q-43 35.5 -44 98.5l59 7q5 -35 31 -54.5t59 -19.5t57 18t27 51l58 3q0 -44 -20.5 -75.5t-54 -47.5t-71.5 -16q-58 0 -101 35.5z" />
    <glyph glyph-name="uni1EB5" unicode="&#x1eb5;" horiz-adv-x="551" 
d="M459 72l75 -18v-53l-152 -7l-13 86q-40 -44 -88.5 -67t-94.5 -23q-61 0 -101 39.5t-40 112.5q0 82 51.5 116.5t149.5 34.5h113v75q0 97 -102 97q-42 0 -99 -17l-10 -79h-66l-8 133q123 38 208 38q177 0 177 -154v-314zM166 86q20 -21 54 -21q30 0 67 18.5t72 50.5v95h-97
q-64 0 -90 -19.5t-26 -60.5q0 -42 20 -63zM112 781q16 50 38.5 73t52.5 23q17 0 34 -6t40 -18q38 -19 55 -19t30.5 10.5t26.5 34.5l40 -19q-31 -96 -94 -96q-16 0 -32 5.5t-37 16.5q-22 10 -34.5 15t-25.5 5q-16 0 -28 -10.5t-26 -34.5zM201.5 605.5q-32.5 15.5 -53.5 46
t-22 72.5l60 7q4 -36 30 -55t60 -19q32 0 56 18t27 51l59 3q0 -44 -20.5 -75.5t-54.5 -47.5t-72 -16q-37 0 -69.5 15.5z" />
    <glyph glyph-name="uni1EB6" unicode="&#x1eb6;" horiz-adv-x="710" 
d="M414 702l221 -631l71 -18v-53h-269v53l84 18l-40 123h-269l-43 -123l86 -18v-53h-251v53l70 17l235 629zM460 267l-106 339l-118 -339h224zM301 -178q-17 17 -17 48t17.5 48t45.5 17t45.5 -17t17.5 -48t-17.5 -48t-46.5 -17q-28 0 -45 17zM259 798.5q-43 35.5 -44 97.5
l60 7q4 -36 30 -55t60 -19q32 0 56 18.5t27 51.5l59 3q0 -44 -20.5 -75.5t-54.5 -47.5t-72 -16q-58 0 -101 35.5z" />
    <glyph glyph-name="uni1EB7" unicode="&#x1eb7;" horiz-adv-x="551" 
d="M459 72l75 -18v-53l-152 -7l-13 86q-40 -44 -88.5 -67t-94.5 -23q-61 0 -101 39.5t-40 112.5q0 82 51.5 116.5t149.5 34.5h113v75q0 97 -102 97q-42 0 -99 -17l-10 -79h-66l-8 133q123 38 208 38q177 0 177 -154v-314zM166 86q20 -21 54 -21q30 0 67 18.5t72 50.5v95h-97
q-64 0 -90 -19.5t-26 -60.5q0 -42 20 -63zM167.5 668q-39.5 39 -41.5 101l61 7q4 -35 27 -55.5t58 -20.5q34 0 55 19.5t24 51.5l60 3q1 -64 -38.5 -104.5t-103.5 -40.5q-62 0 -101.5 39zM227 -178q-17 17 -17 48t17.5 48t45.5 17t45.5 -17t17.5 -48t-17.5 -48t-46.5 -17
q-28 0 -45 17z" />
    <glyph glyph-name="uni1EB8" unicode="&#x1eb8;" horiz-adv-x="617" 
d="M478 75l16 97h62l-1 -172h-510v53l82 19v553l-82 17v53l182 5h316v-165h-61l-16 90h-237v-231h240v-73h-240v-246h249zM269 -178q-17 17 -17 48t17.5 48t45.5 17t45.5 -17t17.5 -48t-17.5 -48t-46.5 -17q-28 0 -45 17z" />
    <glyph glyph-name="uni1EB9" unicode="&#x1eb9;" horiz-adv-x="547" 
d="M466 122l35 -55q-111 -77 -225 -77q-106 0 -169.5 69.5t-63.5 196.5q0 87 30.5 151t87 98.5t132.5 34.5q105 0 158 -63.5t53 -168.5q0 -27 -4 -56h-354q4 -86 43 -136t111 -50q78 0 166 56zM193.5 426.5q-34.5 -38.5 -44.5 -105.5h252q0 64 -28.5 104t-87.5 40
q-57 0 -91.5 -38.5zM242 -178q-17 17 -17 48t17.5 48t45.5 17t45.5 -17t17.5 -48t-17.5 -48t-46.5 -17q-28 0 -45 17z" />
    <glyph glyph-name="uni1EBA" unicode="&#x1eba;" horiz-adv-x="617" 
d="M478 75l16 97h62l-1 -172h-510v53l82 19v553l-82 17v53l182 5h316v-165h-61l-16 90h-237v-231h240v-73h-240v-246h249zM281 808q73 3 73 46q0 19 -13 27.5t-35 8.5q-25 0 -60 -10l-13 48q46 16 88 16q48 0 78.5 -21t30.5 -64q0 -33 -21 -55t-63 -29v-33h-65v66z" />
    <glyph glyph-name="uni1EBB" unicode="&#x1ebb;" horiz-adv-x="547" 
d="M466 122l35 -55q-111 -77 -225 -77q-106 0 -169.5 69.5t-63.5 196.5q0 87 30.5 151t87 98.5t132.5 34.5q105 0 158 -63.5t53 -168.5q0 -27 -4 -56h-354q4 -86 43 -136t111 -50q78 0 166 56zM193.5 426.5q-34.5 -38.5 -44.5 -105.5h252q0 64 -28.5 104t-87.5 40
q-57 0 -91.5 -38.5zM245 680q74 3 74 45q0 18 -13 27t-36 9q-26 0 -59 -10l-13 47q45 17 88 17q49 0 79 -21.5t30 -63.5q0 -33 -21 -54.5t-63 -28.5v-43h-66v76z" />
    <glyph glyph-name="uni1EBC" unicode="&#x1ebc;" horiz-adv-x="617" 
d="M478 75l16 97h62l-1 -172h-510v53l82 19v553l-82 17v53l182 5h316v-165h-61l-16 90h-237v-231h240v-73h-240v-246h249zM146 795q18 50 42 73t56 23q18 0 36.5 -6t43.5 -18q42 -19 61 -19q18 0 32 10.5t29 34.5l44 -19q-18 -51 -43.5 -74t-58.5 -23q-17 0 -33.5 5.5
t-41.5 17.5q-25 11 -38 15.5t-27 4.5q-17 0 -30 -10.5t-28 -34.5z" />
    <glyph glyph-name="uni1EBD" unicode="&#x1ebd;" horiz-adv-x="547" 
d="M466 122l35 -55q-111 -77 -225 -77q-106 0 -169.5 69.5t-63.5 196.5q0 87 30.5 151t87 98.5t132.5 34.5q105 0 158 -63.5t53 -168.5q0 -27 -4 -56h-354q4 -86 43 -136t111 -50q78 0 166 56zM193.5 426.5q-34.5 -38.5 -44.5 -105.5h252q0 64 -28.5 104t-87.5 40
q-57 0 -91.5 -38.5zM319.5 652.5q-16.5 6.5 -40.5 20.5q-20 11 -34 17t-28 6q-37 0 -63 -48l-45 19q35 103 104 103q19 0 36.5 -7t40.5 -20q23 -12 35 -17t26 -5q19 0 34 11.5t30 36.5l44 -18q-35 -105 -104 -105q-19 0 -35.5 6.5z" />
    <glyph glyph-name="uni1EBE" unicode="&#x1ebe;" horiz-adv-x="617" 
d="M478 75l16 97h62l-1 -172h-510v53l82 19v553l-82 17v53l182 5h316v-165h-61l-16 90h-237v-231h240v-73h-240v-246h249zM554 1014l52 -60l-151 -112l-39 44zM146 773l140 123l58 4l149 -127l-35 -41l-141 89l-137 -89z" />
    <glyph glyph-name="uni1EBF" unicode="&#x1ebf;" horiz-adv-x="547" 
d="M466 122l35 -55q-111 -77 -225 -77q-106 0 -169.5 69.5t-63.5 196.5q0 87 30.5 151t87 98.5t132.5 34.5q105 0 158 -63.5t53 -168.5q0 -27 -4 -56h-354q4 -86 43 -136t111 -50q78 0 166 56zM193.5 426.5q-34.5 -38.5 -44.5 -105.5h252q0 64 -28.5 104t-87.5 40
q-57 0 -91.5 -38.5zM487 900l62 -50l-130 -137l-45 37zM114 616l138 134l58 4l146 -138l-35 -38l-138 97l-134 -97z" />
    <glyph glyph-name="uni1EC0" unicode="&#x1ec0;" horiz-adv-x="617" 
d="M478 75l16 97h62l-1 -172h-510v53l82 19v553l-82 17v53l182 5h316v-165h-61l-16 90h-237v-231h240v-73h-240v-246h249zM355 965l58 55l123 -143l-43 -39zM145 773l140 123l58 4l149 -127l-35 -41l-141 89l-137 -89z" />
    <glyph glyph-name="uni1EC1" unicode="&#x1ec1;" horiz-adv-x="547" 
d="M466 122l35 -55q-111 -77 -225 -77q-106 0 -169.5 69.5t-63.5 196.5q0 87 30.5 151t87 98.5t132.5 34.5q105 0 158 -63.5t53 -168.5q0 -27 -4 -56h-354q4 -86 43 -136t111 -50q78 0 166 56zM193.5 426.5q-34.5 -38.5 -44.5 -105.5h252q0 64 -28.5 104t-87.5 40
q-57 0 -91.5 -38.5zM373 898l117 -147l-44 -37l-134 131zM116 616l138 134l58 4l146 -138l-35 -38l-138 97l-134 -97z" />
    <glyph glyph-name="uni1EC2" unicode="&#x1ec2;" horiz-adv-x="617" 
d="M478 75l16 97h62l-1 -172h-510v53l82 19v553l-82 17v53l182 5h316v-165h-61l-16 90h-237v-231h240v-73h-240v-246h249zM344 898l149 -128l-35 -41l-141 90l-137 -90l-34 41l140 123zM419 928q73 3 73 46q0 19 -13 27.5t-35 8.5q-25 0 -60 -10l-13 48q46 16 88 16
q48 0 78.5 -21t30.5 -64q0 -33 -21 -55t-63 -29v-33h-65v66z" />
    <glyph glyph-name="uni1EC3" unicode="&#x1ec3;" horiz-adv-x="547" 
d="M466 122l35 -55q-111 -77 -225 -77q-106 0 -169.5 69.5t-63.5 196.5q0 87 30.5 151t87 98.5t132.5 34.5q105 0 158 -63.5t53 -168.5q0 -27 -4 -56h-354q4 -86 43 -136t111 -50q78 0 166 56zM193.5 426.5q-34.5 -38.5 -44.5 -105.5h252q0 64 -28.5 104t-87.5 40
q-57 0 -91.5 -38.5zM397 768q73 3 73 46q0 19 -13 27.5t-35 8.5q-25 0 -60 -10l-13 48q46 16 88 16q48 0 78.5 -21t30.5 -64q0 -33 -21 -55t-63 -29v-33h-65v66zM314 754l146 -138l-36 -39l-137 98l-135 -98l-35 39l139 133z" />
    <glyph glyph-name="uni1EC4" unicode="&#x1ec4;" horiz-adv-x="617" 
d="M478 75l16 97h62l-1 -172h-510v53l82 19v553l-82 17v53l182 5h316v-165h-61l-16 90h-237v-231h240v-73h-240v-246h249zM219.5 945.5q-13.5 -10.5 -27.5 -34.5l-42 20q17 50 40.5 73t54.5 23q18 0 36.5 -6.5t42.5 -17.5q40 -19 58 -19q17 0 31 10.5t28 35.5l43 -20
q-18 -50 -42 -73t-57 -23q-17 0 -33.5 5.5t-40.5 16.5t-36.5 15.5t-25.5 4.5q-16 0 -29.5 -10.5zM344 900l148 -127l-35 -41l-141 89l-137 -89l-34 41l140 123z" />
    <glyph glyph-name="uni1EC5" unicode="&#x1ec5;" horiz-adv-x="547" 
d="M466 122l35 -55q-111 -77 -225 -77q-106 0 -169.5 69.5t-63.5 196.5q0 87 30.5 151t87 98.5t132.5 34.5q105 0 158 -63.5t53 -168.5q0 -27 -4 -56h-354q4 -86 43 -136t111 -50q78 0 166 56zM193.5 426.5q-34.5 -38.5 -44.5 -105.5h252q0 64 -28.5 104t-87.5 40
q-57 0 -91.5 -38.5zM308 752l146 -138l-36 -39l-137 98l-135 -98l-35 39l139 133zM109 788q18 50 42 73t56 23q18 0 36.5 -6t43.5 -18q42 -19 61 -19q18 0 32 10.5t29 34.5l44 -19q-18 -51 -43.5 -74t-58.5 -23q-17 0 -33.5 5.5t-41.5 17.5q-25 11 -38 15.5t-27 4.5
q-17 0 -30 -10.5t-28 -34.5z" />
    <glyph glyph-name="uni1EC6" unicode="&#x1ec6;" horiz-adv-x="617" 
d="M478 75l16 97h62l-1 -172h-510v53l82 19v553l-82 17v53l182 5h316v-165h-61l-16 90h-237v-231h240v-73h-240v-246h249zM342 915l149 -128l-35 -41l-141 90l-137 -90l-34 41l140 123zM269 -178q-17 17 -17 48t17.5 48t45.5 17t45.5 -17t17.5 -48t-17.5 -48t-46.5 -17
q-28 0 -45 17z" />
    <glyph glyph-name="uni1EC7" unicode="&#x1ec7;" horiz-adv-x="547" 
d="M466 122l35 -55q-111 -77 -225 -77q-106 0 -169.5 69.5t-63.5 196.5q0 87 30.5 151t87 98.5t132.5 34.5q105 0 158 -63.5t53 -168.5q0 -27 -4 -56h-354q4 -86 43 -136t111 -50q78 0 166 56zM193.5 426.5q-34.5 -38.5 -44.5 -105.5h252q0 64 -28.5 104t-87.5 40
q-57 0 -91.5 -38.5zM311 802l146 -138l-36 -39l-137 98l-135 -98l-35 39l139 133zM242 -178q-17 17 -17 48t17.5 48t45.5 17t45.5 -17t17.5 -48t-17.5 -48t-46.5 -17q-28 0 -45 17z" />
    <glyph glyph-name="uni1EC8" unicode="&#x1ec8;" horiz-adv-x="355" 
d="M311 700v-53l-82 -21v-554l82 -19v-53h-266v53l82 19v553l-82 17v53zM140 808q73 3 73 46q0 19 -13 27.5t-35 8.5q-25 0 -60 -10l-13 48q46 16 88 16q48 0 78.5 -21t30.5 -64q0 -33 -21 -55t-63 -29v-33h-65v66z" />
    <glyph glyph-name="uni1EC9" unicode="&#x1ec9;" horiz-adv-x="305" 
d="M209 533v-462l75 -18v-53h-249v53l74 18v386l-74 17v53zM116 680q74 3 74 45q0 18 -13 27t-36 9q-26 0 -59 -10l-13 47q45 17 88 17q49 0 79 -21.5t30 -63.5q0 -33 -21 -54.5t-63 -28.5v-43h-66v76z" />
    <glyph glyph-name="uni1ECA" unicode="&#x1eca;" horiz-adv-x="355" 
d="M311 700v-53l-82 -21v-554l82 -19v-53h-266v53l82 19v553l-82 17v53zM132 -178q-17 17 -17 48t17.5 48t45.5 17t45.5 -17t17.5 -48t-17.5 -48t-46.5 -17q-28 0 -45 17z" />
    <glyph glyph-name="uni1ECB" unicode="&#x1ecb;" horiz-adv-x="305" 
d="M209 533v-462l75 -18v-53h-249v53l74 18v386l-74 17v53zM109 648q-17 17 -17 48t17.5 48t45.5 17t45.5 -17t17.5 -48t-17.5 -48t-46.5 -17q-28 0 -45 17zM113 -178q-17 17 -17 48t17.5 48t45.5 17t45.5 -17t17.5 -48t-17.5 -48t-46.5 -17q-28 0 -45 17z" />
    <glyph glyph-name="uni1ECC" unicode="&#x1ecc;" horiz-adv-x="741" 
d="M200 30q-69 40 -107.5 119.5t-38.5 192.5q0 119 41.5 202t114.5 124.5t166 41.5q91 0 161 -39.5t110 -118t40 -190.5q0 -115 -42 -199t-116.5 -128.5t-169.5 -44.5q-90 0 -159 40zM518 141q59 71 59 216q0 138 -55.5 205.5t-149.5 67.5t-151 -69t-57 -215
q0 -139 55 -207.5t147 -68.5q93 0 152 71zM324 -178q-17 17 -17 48t17.5 48t45.5 17t45.5 -17t17.5 -48t-17.5 -48t-46.5 -17q-28 0 -45 17z" />
    <glyph glyph-name="uni1ECD" unicode="&#x1ecd;" horiz-adv-x="576" 
d="M471 470q64 -70 64 -196q0 -87 -31 -151t-89 -98.5t-138 -34.5q-112 0 -173.5 68.5t-61.5 195.5q0 133 67 209.5t186 76.5q112 0 176 -70zM183 413.5q-37 -53.5 -37 -154.5q0 -196 137 -196q72 0 109.5 53.5t37.5 152.5q0 98 -35.5 148t-104.5 50q-70 0 -107 -53.5z
M241 -178q-17 17 -17 48t17.5 48t45.5 17t45.5 -17t17.5 -48t-17.5 -48t-46.5 -17q-28 0 -45 17z" />
    <glyph glyph-name="uni1ECE" unicode="&#x1ece;" horiz-adv-x="741" 
d="M200 30q-69 40 -107.5 119.5t-38.5 192.5q0 119 41.5 202t114.5 124.5t166 41.5q91 0 161 -39.5t110 -118t40 -190.5q0 -115 -42 -199t-116.5 -128.5t-169.5 -44.5q-90 0 -159 40zM518 141q59 71 59 216q0 138 -55.5 205.5t-149.5 67.5t-151 -69t-57 -215
q0 -139 55 -207.5t147 -68.5q93 0 152 71zM337 808q73 3 73 46q0 19 -13 27.5t-35 8.5q-25 0 -60 -10l-13 48q46 16 88 16q48 0 78.5 -21t30.5 -64q0 -33 -21 -55t-63 -29v-33h-65v66z" />
    <glyph glyph-name="uni1ECF" unicode="&#x1ecf;" horiz-adv-x="576" 
d="M471 470q64 -70 64 -196q0 -87 -31 -151t-89 -98.5t-138 -34.5q-112 0 -173.5 68.5t-61.5 195.5q0 133 67 209.5t186 76.5q112 0 176 -70zM183 413.5q-37 -53.5 -37 -154.5q0 -196 137 -196q72 0 109.5 53.5t37.5 152.5q0 98 -35.5 148t-104.5 50q-70 0 -107 -53.5z
M249 680q74 3 74 45q0 18 -13 27t-36 9q-26 0 -59 -10l-13 47q45 17 88 17q49 0 79 -21.5t30 -63.5q0 -33 -21 -54.5t-63 -28.5v-43h-66v76z" />
    <glyph glyph-name="uni1ED0" unicode="&#x1ed0;" horiz-adv-x="741" 
d="M200 30q-69 40 -107.5 119.5t-38.5 192.5q0 119 41.5 202t114.5 124.5t166 41.5q91 0 161 -39.5t110 -118t40 -190.5q0 -115 -42 -199t-116.5 -128.5t-169.5 -44.5q-90 0 -159 40zM518 141q59 71 59 216q0 138 -55.5 205.5t-149.5 67.5t-151 -69t-57 -215
q0 -139 55 -207.5t147 -68.5q93 0 152 71zM610 1014l52 -60l-151 -112l-39 44zM202 773l140 123l58 4l149 -127l-35 -41l-141 89l-137 -89z" />
    <glyph glyph-name="uni1ED1" unicode="&#x1ed1;" horiz-adv-x="576" 
d="M471 470q64 -70 64 -196q0 -87 -31 -151t-89 -98.5t-138 -34.5q-112 0 -173.5 68.5t-61.5 195.5q0 133 67 209.5t186 76.5q112 0 176 -70zM183 413.5q-37 -53.5 -37 -154.5q0 -196 137 -196q72 0 109.5 53.5t37.5 152.5q0 98 -35.5 148t-104.5 50q-70 0 -107 -53.5z
M491 900l62 -50l-130 -137l-45 37zM118 616l138 134l58 4l146 -138l-35 -38l-138 97l-134 -97z" />
    <glyph glyph-name="uni1ED2" unicode="&#x1ed2;" horiz-adv-x="741" 
d="M200 30q-69 40 -107.5 119.5t-38.5 192.5q0 119 41.5 202t114.5 124.5t166 41.5q91 0 161 -39.5t110 -118t40 -190.5q0 -115 -42 -199t-116.5 -128.5t-169.5 -44.5q-90 0 -159 40zM518 141q59 71 59 216q0 138 -55.5 205.5t-149.5 67.5t-151 -69t-57 -215
q0 -139 55 -207.5t147 -68.5q93 0 152 71zM411 965l58 55l123 -143l-43 -39zM201 773l140 123l58 4l149 -127l-35 -41l-141 89l-137 -89z" />
    <glyph glyph-name="uni1ED3" unicode="&#x1ed3;" horiz-adv-x="576" 
d="M471 470q64 -70 64 -196q0 -87 -31 -151t-89 -98.5t-138 -34.5q-112 0 -173.5 68.5t-61.5 195.5q0 133 67 209.5t186 76.5q112 0 176 -70zM183 413.5q-37 -53.5 -37 -154.5q0 -196 137 -196q72 0 109.5 53.5t37.5 152.5q0 98 -35.5 148t-104.5 50q-70 0 -107 -53.5z
M377 898l117 -147l-44 -37l-134 131zM120 616l138 134l58 4l146 -138l-35 -38l-138 97l-134 -97z" />
    <glyph glyph-name="uni1ED4" unicode="&#x1ed4;" horiz-adv-x="741" 
d="M200 30q-69 40 -107.5 119.5t-38.5 192.5q0 119 41.5 202t114.5 124.5t166 41.5q91 0 161 -39.5t110 -118t40 -190.5q0 -115 -42 -199t-116.5 -128.5t-169.5 -44.5q-90 0 -159 40zM518 141q59 71 59 216q0 138 -55.5 205.5t-149.5 67.5t-151 -69t-57 -215
q0 -139 55 -207.5t147 -68.5q93 0 152 71zM400 898l149 -128l-35 -41l-141 90l-137 -90l-34 41l140 123zM475 928q73 3 73 46q0 19 -13 27.5t-35 8.5q-25 0 -60 -10l-13 48q46 16 88 16q48 0 78.5 -21t30.5 -64q0 -33 -21 -55t-63 -29v-33h-65v66z" />
    <glyph glyph-name="uni1ED5" unicode="&#x1ed5;" horiz-adv-x="576" 
d="M471 470q64 -70 64 -196q0 -87 -31 -151t-89 -98.5t-138 -34.5q-112 0 -173.5 68.5t-61.5 195.5q0 133 67 209.5t186 76.5q112 0 176 -70zM183 413.5q-37 -53.5 -37 -154.5q0 -196 137 -196q72 0 109.5 53.5t37.5 152.5q0 98 -35.5 148t-104.5 50q-70 0 -107 -53.5z
M401 768q73 3 73 46q0 19 -13 27.5t-35 8.5q-25 0 -60 -10l-13 48q46 16 88 16q48 0 78.5 -21t30.5 -64q0 -33 -21 -55t-63 -29v-33h-65v66zM318 754l146 -138l-36 -39l-137 98l-135 -98l-35 39l139 133z" />
    <glyph glyph-name="uni1ED6" unicode="&#x1ed6;" horiz-adv-x="741" 
d="M200 30q-69 40 -107.5 119.5t-38.5 192.5q0 119 41.5 202t114.5 124.5t166 41.5q91 0 161 -39.5t110 -118t40 -190.5q0 -115 -42 -199t-116.5 -128.5t-169.5 -44.5q-90 0 -159 40zM518 141q59 71 59 216q0 138 -55.5 205.5t-149.5 67.5t-151 -69t-57 -215
q0 -139 55 -207.5t147 -68.5q93 0 152 71zM275.5 945.5q-13.5 -10.5 -27.5 -34.5l-42 20q17 50 40.5 73t54.5 23q18 0 36.5 -6.5t42.5 -17.5q40 -19 58 -19q17 0 31 10.5t28 35.5l43 -20q-18 -50 -42 -73t-57 -23q-17 0 -33.5 5.5t-40.5 16.5t-36.5 15.5t-25.5 4.5
q-16 0 -29.5 -10.5zM400 900l148 -127l-35 -41l-141 89l-137 -89l-34 41l140 123z" />
    <glyph glyph-name="uni1ED7" unicode="&#x1ed7;" horiz-adv-x="576" 
d="M471 470q64 -70 64 -196q0 -87 -31 -151t-89 -98.5t-138 -34.5q-112 0 -173.5 68.5t-61.5 195.5q0 133 67 209.5t186 76.5q112 0 176 -70zM183 413.5q-37 -53.5 -37 -154.5q0 -196 137 -196q72 0 109.5 53.5t37.5 152.5q0 98 -35.5 148t-104.5 50q-70 0 -107 -53.5z
M312 752l146 -138l-36 -39l-137 98l-135 -98l-35 39l139 133zM113 788q18 50 42 73t56 23q18 0 36.5 -6t43.5 -18q42 -19 61 -19q18 0 32 10.5t29 34.5l44 -19q-18 -51 -43.5 -74t-58.5 -23q-17 0 -33.5 5.5t-41.5 17.5q-25 11 -38 15.5t-27 4.5q-17 0 -30 -10.5t-28 -34.5z
" />
    <glyph glyph-name="uni1ED8" unicode="&#x1ed8;" horiz-adv-x="741" 
d="M200 30q-69 40 -107.5 119.5t-38.5 192.5q0 119 41.5 202t114.5 124.5t166 41.5q91 0 161 -39.5t110 -118t40 -190.5q0 -115 -42 -199t-116.5 -128.5t-169.5 -44.5q-90 0 -159 40zM518 141q59 71 59 216q0 138 -55.5 205.5t-149.5 67.5t-151 -69t-57 -215
q0 -139 55 -207.5t147 -68.5q93 0 152 71zM399 915l149 -128l-35 -41l-141 90l-137 -90l-34 41l140 123zM324 -178q-17 17 -17 48t17.5 48t45.5 17t45.5 -17t17.5 -48t-17.5 -48t-46.5 -17q-28 0 -45 17z" />
    <glyph glyph-name="uni1ED9" unicode="&#x1ed9;" horiz-adv-x="576" 
d="M471 470q64 -70 64 -196q0 -87 -31 -151t-89 -98.5t-138 -34.5q-112 0 -173.5 68.5t-61.5 195.5q0 133 67 209.5t186 76.5q112 0 176 -70zM183 413.5q-37 -53.5 -37 -154.5q0 -196 137 -196q72 0 109.5 53.5t37.5 152.5q0 98 -35.5 148t-104.5 50q-70 0 -107 -53.5z
M314 802l146 -138l-36 -39l-137 98l-135 -98l-35 39l139 133zM241 -178q-17 17 -17 48t17.5 48t45.5 17t45.5 -17t17.5 -48t-17.5 -48t-46.5 -17q-28 0 -45 17z" />
    <glyph glyph-name="uni1EDA" unicode="&#x1eda;" horiz-adv-x="753" 
d="M659.5 525q27.5 -70 27.5 -163q0 -115 -42 -199t-116.5 -128.5t-169.5 -44.5q-90 0 -159 40t-107.5 119.5t-38.5 192.5q0 119 41.5 202t114.5 124.5t166 41.5q72 0 130 -24q54 2 82.5 20.5t28.5 51.5q0 26 -15 66l75 17q22 -51 22 -90q0 -44 -31 -72.5t-87 -38.5
q51 -45 78.5 -115zM518 141q59 71 59 216q0 138 -55.5 205.5t-149.5 67.5t-151 -69t-57 -215q0 -139 55 -207.5t147 -68.5q93 0 152 71zM506 848l-222 -97l-30 55l211 122z" />
    <glyph glyph-name="uni1EDB" unicode="&#x1edb;" horiz-adv-x="578" 
d="M535 276q0 -132 -68.5 -209t-190.5 -77q-110 0 -172 68.5t-62 194.5q0 134 67 210.5t186 76.5q47 0 89 -14q46 2 67.5 17.5t21.5 46.5q0 29 -15 68l75 18q22 -51 22 -91t-24.5 -66t-71.5 -37q76 -70 76 -206zM392.5 116.5q37.5 53.5 37.5 154.5q0 97 -35.5 146.5
t-104.5 49.5q-70 0 -107 -53.5t-37 -154.5q0 -196 137 -196q72 0 109.5 53.5zM424 742l-209 -127l-36 50l191 150z" />
    <glyph glyph-name="uni1EDC" unicode="&#x1edc;" horiz-adv-x="753" 
d="M659.5 525q27.5 -70 27.5 -163q0 -115 -42 -199t-116.5 -128.5t-169.5 -44.5q-90 0 -159 40t-107.5 119.5t-38.5 192.5q0 119 41.5 202t114.5 124.5t166 41.5q72 0 130 -24q54 2 82.5 20.5t28.5 51.5q0 26 -15 66l75 17q22 -51 22 -90q0 -44 -31 -72.5t-87 -38.5
q51 -45 78.5 -115zM518 141q59 71 59 216q0 138 -55.5 205.5t-149.5 67.5t-151 -69t-57 -215q0 -139 55 -207.5t147 -68.5q93 0 152 71zM502 807l-28 -56l-225 96l44 81z" />
    <glyph glyph-name="uni1EDD" unicode="&#x1edd;" horiz-adv-x="578" 
d="M535 276q0 -132 -68.5 -209t-190.5 -77q-110 0 -172 68.5t-62 194.5q0 134 67 210.5t186 76.5q47 0 89 -14q46 2 67.5 17.5t21.5 46.5q0 29 -15 68l75 18q22 -51 22 -91t-24.5 -66t-71.5 -37q76 -70 76 -206zM392.5 116.5q37.5 53.5 37.5 154.5q0 97 -35.5 146.5
t-104.5 49.5q-70 0 -107 -53.5t-37 -154.5q0 -196 137 -196q72 0 109.5 53.5zM156 744l55 72l188 -149l-38 -52z" />
    </font>
</defs>
</svg>
