<svg height="18" width="111" viewBox="0 0 3552 576" xmlns:xlink="http://www.w3.org/1999/xlink" xmlns="http://www.w3.org/2000/svg"><!--!Font Awesome Free 6.5.1 by @fontawesome - https://fontawesome.com License - https://fontawesome.com/license/free Copyright 2023 Fonticons, Inc.--><path d="M316.9 49.971c-5.3-11-16.5-18-28.8-18s-23.4 7-28.8 18l-64.3 132.3-143.6 21.2c-12 1.8-22 10.2-25.7 21.7-3.7 11.5-.7 24.2 7.9 32.7l104.2 103.1-24.6 145.7c-2 12 3 24.2 12.9 31.3 9.9 7.1 23 8 33.8 2.3l128.3-68.5 128.3 68.5c10.8 5.7 23.9 4.9 33.8-2.3 9.9-7.2 14.9-19.3 12.9-31.3l-24.7-145.7 104.2-103.1c8.6-8.5 11.7-21.2 7.9-32.7-3.8-11.5-13.7-19.9-25.7-21.7l-143.7-21.2z" id="a" style="fill:#ffe680;stroke:#fc0;stroke-width:32;stroke-dasharray:none"/><use xlink:href="#a" fill="#fff" stroke="#fff"/><use xlink:href="#a" transform="translate(739.28)" opacity=".99" fill="#0e1e37" stroke="#0e1e37"/><use xlink:href="#a" transform="translate(1478.558)" opacity=".98" fill="#ddf5d8" stroke="#ddf5d8"/><use xlink:href="#a" transform="translate(2217.838)" opacity=".97" fill="#130a05" stroke="#130a05"/><use xlink:href="#a" transform="translate(2957.117)" opacity=".96" fill="#fff" stroke="#fff"/></svg>